<svg width="207" height="388" viewBox="0 0 207 388" fill="none" xmlns="http://www.w3.org/2000/svg">
<line x1="103.633" y1="269.707" x2="103.633" y2="90.0788" stroke="#F7F8FB" stroke-width="2.34769" stroke-linecap="round" stroke-dasharray="4.7 4.7"/>
<path d="M128.054 339.054C127.538 339.096 126.986 339.107 126.397 339.083C110.908 338.448 95.3038 339.012 79.7284 339.01C75.1853 339.009 72.2642 335.5 72.2725 331.168C72.3119 312.339 72.4064 293.51 72.4064 274.681C72.4064 263.166 72.4064 251.65 72.4064 240.13C72.4064 236.086 75.6837 232.808 79.7274 232.807C95.9227 232.802 111.871 232.807 128.044 232.807C132.088 232.807 135.367 236.085 135.367 240.13C135.367 258.678 135.18 277.225 135.166 295.773C135.16 304.909 135.194 314.046 135.314 323.181C135.404 330.011 136.039 338.392 128.054 339.054Z" fill="#324E77"/>
<path d="M80.0014 242.184C79.3669 255.127 80.101 268.312 79.8331 281.352C79.5507 295.097 79.1966 308.844 79.3596 322.593C79.3824 322.593 79.4063 322.594 79.4292 322.594C82.3763 322.661 85.3223 322.664 88.2694 322.648C98.825 295.846 107.77 268.24 120.015 242.283C106.037 242.206 80.0076 242.056 80.0014 242.184Z" fill="#81F8DE"/>
<path d="M88.2686 322.649C93.631 322.621 98.9935 322.51 104.355 322.446C108.612 322.395 112.871 322.373 117.128 322.464C120.615 322.537 124.146 323.325 127.629 322.818C128.441 319.279 127.985 314.923 128.107 311.26C128.242 307.171 128.353 303.079 128.353 298.988C128.353 292.554 128.353 286.119 128.353 279.686C128.353 267.6 128.353 255.514 128.353 243.426C128.353 243.372 128.353 242.325 128.353 242.325C127.405 242.325 124.267 242.308 120.013 242.284C107.769 268.241 98.8242 295.847 88.2686 322.649Z" fill="#33E6BF"/>
<path d="M109.478 334.334H98.2971C96.7343 334.334 95.4674 333.072 95.4581 331.509C95.4383 327.992 100.891 328.805 103.079 328.88C104.896 328.941 108.884 328.267 110.492 328.839C113.397 329.874 112.528 334.334 109.478 334.334Z" fill="#162A48"/>
<path d="M108.474 238.317C105.39 238.317 102.386 238.323 99.2957 238.317C98.7432 238.316 98.2957 237.867 98.2957 237.315C98.2957 236.761 98.7443 236.312 99.2978 236.312H108.473C109.027 236.312 109.475 236.761 109.475 237.315C109.475 237.868 109.028 238.317 108.474 238.317Z" fill="#162A48"/>
<path d="M38.3482 23.2666L32.2282 9.2666H35.0482L40.5082 21.9266H38.8882L44.4082 9.2666H47.0082L40.9082 23.2666H38.3482ZM54.7985 23.4666C52.8785 23.4666 51.3719 22.9266 50.2785 21.8466C49.1985 20.7666 48.6585 19.2066 48.6585 17.1666V9.2666H51.2585V17.0666C51.2585 18.5066 51.5652 19.5533 52.1785 20.2066C52.8052 20.8599 53.6852 21.1866 54.8185 21.1866C55.9519 21.1866 56.8252 20.8599 57.4385 20.2066C58.0519 19.5533 58.3585 18.5066 58.3585 17.0666V9.2666H60.9185V17.1666C60.9185 19.2066 60.3719 20.7666 59.2785 21.8466C58.1985 22.9266 56.7052 23.4666 54.7985 23.4666ZM64.5598 23.2666V9.2666H67.1598V21.0666H74.4798V23.2666H64.5598ZM78.0638 23.2666V11.4666H73.4238V9.2666H85.3038V11.4666H80.6638V23.2666H78.0638ZM87.2551 23.2666V9.2666H89.8551V23.2666H87.2551ZM97.9818 23.4666C96.8885 23.4666 95.8418 23.3133 94.8418 23.0066C93.8418 22.6866 93.0485 22.2799 92.4618 21.7866L93.3618 19.7666C93.9218 20.2066 94.6151 20.5733 95.4418 20.8666C96.2685 21.1599 97.1151 21.3066 97.9818 21.3066C98.7151 21.3066 99.3085 21.2266 99.7618 21.0666C100.215 20.9066 100.548 20.6933 100.762 20.4266C100.975 20.1466 101.082 19.8333 101.082 19.4866C101.082 19.0599 100.928 18.7199 100.622 18.4666C100.315 18.1999 99.9151 17.9933 99.4218 17.8466C98.9418 17.6866 98.4018 17.5399 97.8018 17.4066C97.2151 17.2733 96.6218 17.1199 96.0218 16.9466C95.4351 16.7599 94.8951 16.5266 94.4018 16.2466C93.9218 15.9533 93.5285 15.5666 93.2218 15.0866C92.9151 14.6066 92.7618 13.9933 92.7618 13.2466C92.7618 12.4866 92.9618 11.7933 93.3618 11.1666C93.7751 10.5266 94.3951 10.0199 95.2218 9.6466C96.0618 9.25993 97.1218 9.0666 98.4018 9.0666C99.2418 9.0666 100.075 9.17327 100.902 9.3866C101.728 9.59993 102.448 9.9066 103.062 10.3066L102.242 12.3266C101.615 11.9533 100.968 11.6799 100.302 11.5066C99.6351 11.3199 98.9951 11.2266 98.3818 11.2266C97.6618 11.2266 97.0751 11.3133 96.6218 11.4866C96.1818 11.6599 95.8551 11.8866 95.6418 12.1666C95.4418 12.4466 95.3418 12.7666 95.3418 13.1266C95.3418 13.5533 95.4885 13.8999 95.7818 14.1666C96.0885 14.4199 96.4818 14.6199 96.9618 14.7666C97.4551 14.9133 98.0018 15.0599 98.6018 15.2066C99.2018 15.3399 99.7951 15.4933 100.382 15.6666C100.982 15.8399 101.522 16.0666 102.002 16.3466C102.495 16.6266 102.888 17.0066 103.182 17.4866C103.488 17.9666 103.642 18.5733 103.642 19.3066C103.642 20.0533 103.435 20.7466 103.022 21.3866C102.622 22.0133 102.002 22.5199 101.162 22.9066C100.322 23.2799 99.2618 23.4666 97.9818 23.4666ZM108.62 15.0866H115.58V17.2266H108.62V15.0866ZM108.82 21.0866H116.72V23.2666H106.22V9.2666H116.44V11.4466H108.82V21.0866ZM119.618 23.2666V9.2666H125.378C126.618 9.2666 127.678 9.4666 128.558 9.8666C129.452 10.2666 130.138 10.8399 130.618 11.5866C131.098 12.3333 131.338 13.2199 131.338 14.2466C131.338 15.2733 131.098 16.1599 130.618 16.9066C130.138 17.6399 129.452 18.2066 128.558 18.6066C127.678 18.9933 126.618 19.1866 125.378 19.1866H121.058L122.218 18.0066V23.2666H119.618ZM128.778 23.2666L125.238 18.1866H128.018L131.578 23.2666H128.778ZM122.218 18.2866L121.058 17.0466H125.258C126.405 17.0466 127.265 16.7999 127.838 16.3066C128.425 15.8133 128.718 15.1266 128.718 14.2466C128.718 13.3533 128.425 12.6666 127.838 12.1866C127.265 11.7066 126.405 11.4666 125.258 11.4666H121.058L122.218 10.1866V18.2866ZM138.387 23.2666L132.267 9.2666H135.087L140.547 21.9266H138.927L144.447 9.2666H147.047L140.947 23.2666H138.387ZM150.925 15.0866H157.885V17.2266H150.925V15.0866ZM151.125 21.0866H159.025V23.2666H148.525V9.2666H158.745V11.4466H151.125V21.0866ZM161.923 23.2666V9.2666H167.683C168.923 9.2666 169.983 9.4666 170.863 9.8666C171.756 10.2666 172.443 10.8399 172.923 11.5866C173.403 12.3333 173.643 13.2199 173.643 14.2466C173.643 15.2733 173.403 16.1599 172.923 16.9066C172.443 17.6399 171.756 18.2066 170.863 18.6066C169.983 18.9933 168.923 19.1866 167.683 19.1866H163.363L164.523 18.0066V23.2666H161.923ZM171.083 23.2666L167.543 18.1866H170.323L173.883 23.2666H171.083ZM164.523 18.2866L163.363 17.0466H167.563C168.71 17.0466 169.57 16.7999 170.143 16.3066C170.73 15.8133 171.023 15.1266 171.023 14.2466C171.023 13.3533 170.73 12.6666 170.143 12.1866C169.57 11.7066 168.71 11.4666 167.563 11.4666H163.363L164.523 10.1866V18.2866Z" fill="white"/>
<path d="M93.7654 372.832V367.292L94.3454 368.892L88.2654 358.832H91.0454L95.9254 366.932H94.3654L99.2854 358.832H101.845L95.7654 368.892L96.3654 367.292V372.832H93.7654ZM109.503 373.032C108.409 373.032 107.403 372.852 106.483 372.492C105.563 372.132 104.763 371.632 104.083 370.992C103.403 370.338 102.876 369.578 102.503 368.712C102.129 367.832 101.943 366.872 101.943 365.832C101.943 364.792 102.129 363.838 102.503 362.972C102.876 362.092 103.403 361.332 104.083 360.692C104.763 360.038 105.563 359.532 106.483 359.172C107.403 358.812 108.403 358.632 109.483 358.632C110.576 358.632 111.576 358.812 112.483 359.172C113.403 359.532 114.203 360.038 114.883 360.692C115.563 361.332 116.089 362.092 116.463 362.972C116.836 363.838 117.023 364.792 117.023 365.832C117.023 366.872 116.836 367.832 116.463 368.712C116.089 369.592 115.563 370.352 114.883 370.992C114.203 371.632 113.403 372.132 112.483 372.492C111.576 372.852 110.583 373.032 109.503 373.032ZM109.483 370.752C110.189 370.752 110.843 370.632 111.443 370.392C112.043 370.152 112.563 369.812 113.003 369.372C113.443 368.918 113.783 368.398 114.023 367.812C114.276 367.212 114.403 366.552 114.403 365.832C114.403 365.112 114.276 364.458 114.023 363.872C113.783 363.272 113.443 362.752 113.003 362.312C112.563 361.858 112.043 361.512 111.443 361.272C110.843 361.032 110.189 360.912 109.483 360.912C108.776 360.912 108.123 361.032 107.523 361.272C106.936 361.512 106.416 361.858 105.963 362.312C105.523 362.752 105.176 363.272 104.923 363.872C104.683 364.458 104.563 365.112 104.563 365.832C104.563 366.538 104.683 367.192 104.923 367.792C105.176 368.392 105.523 368.918 105.963 369.372C106.403 369.812 106.923 370.152 107.523 370.392C108.123 370.632 108.776 370.752 109.483 370.752ZM125.798 373.032C123.878 373.032 122.372 372.492 121.278 371.412C120.198 370.332 119.658 368.772 119.658 366.732V358.832H122.258V366.632C122.258 368.072 122.565 369.118 123.178 369.772C123.805 370.425 124.685 370.752 125.818 370.752C126.952 370.752 127.825 370.425 128.438 369.772C129.052 369.118 129.358 368.072 129.358 366.632V358.832H131.918V366.732C131.918 368.772 131.372 370.332 130.278 371.412C129.198 372.492 127.705 373.032 125.798 373.032Z" fill="white"/>
<path d="M59.1618 149.338L36.0295 136.596V77.6699L59.1618 90.4116V149.338Z" fill="#0439C7"/>
<path d="M56.7211 145.008L38.4692 134.954V81.9995L56.7211 92.0528V145.008Z" fill="#042271"/>
<path d="M55.8565 143.121L39.3342 134.02V83.8872L55.8565 92.9879V143.121Z" fill="#0439C7"/>
<path d="M54.763 97.0971L40.428 89.2014V87.272L54.763 95.168V97.0971Z" fill="#042271"/>
<path d="M55.8565 118.054L39.3342 108.954V107.389L55.8565 116.489V118.054Z" fill="#042271"/>
<path d="M55.8565 121.939L39.3342 112.838V111.273L55.8565 120.374V121.939Z" fill="#042271"/>
<path d="M55.8565 125.824L39.3342 116.723V115.158L55.8565 124.258V125.824Z" fill="#042271"/>
<path d="M55.8565 141.372L39.3342 132.272V130.707L55.8565 139.807V141.372Z" fill="#042271"/>
<path d="M49.2722 128.412C49.2722 130.177 48.5214 131.195 47.5956 130.685C46.6694 130.175 45.9189 128.33 45.9189 126.564C45.9189 124.799 46.6694 123.781 47.5956 124.291C48.5214 124.802 49.2722 126.646 49.2722 128.412Z" fill="#042271"/>
<path d="M111.194 61.7414L59.1325 90.418L36 77.6763L88.062 49L111.194 61.7414Z" fill="#4879FD"/>
<path d="M111.225 120.661L59.1616 149.338V90.412L111.225 61.7349V120.661Z" fill="#042271"/>
<path d="M74.1914 133.349L72.5283 134.265V120.282L74.1914 119.366V133.349Z" fill="#0439C7"/>
<path d="M78.9248 130.742L77.2617 131.658V117.675L78.9248 116.759V130.742Z" fill="#0439C7"/>
<path d="M83.6582 128.135L81.9951 129.051V115.067L83.6582 114.151V128.135Z" fill="#0439C7"/>
<path d="M88.3916 125.528L86.7285 126.444V112.46L88.3916 111.544V125.528Z" fill="#0439C7"/>
<path d="M93.125 122.92L91.4619 123.836V109.853L93.125 108.937V122.92Z" fill="#0439C7"/>
<path d="M97.8586 120.313L96.1956 121.23V107.246L97.8586 106.33V120.313Z" fill="#0439C7"/>
<path d="M86.2887 165.327L63.1565 152.585V93.6592L86.2887 106.401V165.327Z" fill="#0439C7"/>
<path d="M83.8486 160.997L65.5967 150.943V97.9883L83.8486 108.042V160.997Z" fill="#042271"/>
<path d="M82.984 159.11L66.4617 150.009V99.8765L82.984 108.977V159.11Z" fill="#0439C7"/>
<path d="M81.8899 113.086L67.5549 105.19V103.261L81.8899 111.157V113.086Z" fill="#042271"/>
<path d="M82.984 134.043L66.4617 124.942V123.377L82.984 132.478V134.043Z" fill="#042271"/>
<path d="M82.984 137.928L66.4617 128.827V127.262L82.984 136.363V137.928Z" fill="#042271"/>
<path d="M82.984 141.812L66.4617 132.711V131.146L82.984 140.247V141.812Z" fill="#042271"/>
<path d="M82.984 157.361L66.4617 148.26V146.695L82.984 155.796V157.361Z" fill="#042271"/>
<path d="M76.3994 144.401C76.3994 146.167 75.6489 147.184 74.7227 146.674C73.7969 146.164 73.0461 144.319 73.0461 142.554C73.0461 140.789 73.7969 139.771 74.7227 140.281C75.6489 140.791 76.3994 142.636 76.3994 144.401Z" fill="#042271"/>
<path d="M138.321 77.7305L86.2589 106.407L63.1267 93.6653L115.189 64.9888L138.321 77.7305Z" fill="#4879FD"/>
<path d="M138.352 136.65L86.2886 165.327V106.401L138.352 77.7236V136.65Z" fill="#042271"/>
<path d="M101.319 149.338L99.6553 150.254V136.27L101.319 135.354V149.338Z" fill="#0439C7"/>
<path d="M106.052 146.731L104.388 147.647V133.663L106.052 132.747V146.731Z" fill="#0439C7"/>
<path d="M110.785 144.124L109.122 145.04V131.056L110.785 130.14V144.124Z" fill="#0439C7"/>
<path d="M115.519 141.516L113.855 142.432V128.449L115.519 127.533V141.516Z" fill="#0439C7"/>
<path d="M120.252 138.909L118.589 139.825V125.842L120.252 124.926V138.909Z" fill="#0439C7"/>
<path d="M124.985 136.302L123.322 137.218V123.234L124.985 122.318V136.302Z" fill="#0439C7"/>
<path d="M113.415 181.315L90.2832 168.574V109.647L113.415 122.389V181.315Z" fill="#0439C7"/>
<path d="M110.975 176.985L92.7231 166.932V113.977L110.975 124.031V176.985Z" fill="#042271"/>
<path d="M110.11 175.098L93.5881 165.997V115.864L110.11 124.965V175.098Z" fill="#0439C7"/>
<path d="M109.017 129.075L94.6821 121.179V119.25L109.017 127.146V129.075Z" fill="#042271"/>
<path d="M110.11 150.032L93.5881 140.931V139.366L110.11 148.467V150.032Z" fill="#042271"/>
<path d="M110.11 153.916L93.5881 144.816V143.25L110.11 152.351V153.916Z" fill="#042271"/>
<path d="M110.11 157.801L93.5881 148.7V147.135L110.11 156.236V157.801Z" fill="#042271"/>
<path d="M110.11 173.349L93.5881 164.249V162.684L110.11 171.784V173.349Z" fill="#042271"/>
<path d="M103.526 160.389C103.526 162.155 102.775 163.173 101.849 162.663C100.923 162.152 100.173 160.308 100.173 158.543C100.173 156.777 100.923 155.759 101.849 156.269C102.775 156.779 103.526 158.624 103.526 160.389Z" fill="#042271"/>
<path d="M165.448 93.7189L113.386 122.396L90.2534 109.654L142.315 80.9775L165.448 93.7189Z" fill="#4879FD"/>
<path d="M165.479 152.638L113.415 181.315V122.389L165.479 93.7119V152.638Z" fill="#042271"/>
<path d="M128.445 165.326L126.782 166.242V152.258L128.445 151.342V165.326Z" fill="#0439C7"/>
<path d="M133.179 162.719L131.516 163.635V149.651L133.179 148.735V162.719Z" fill="#0439C7"/>
<path d="M137.912 160.112L136.249 161.028V147.044L137.912 146.128V160.112Z" fill="#0439C7"/>
<path d="M142.645 157.505L140.982 158.421V144.437L142.645 143.521V157.505Z" fill="#0439C7"/>
<path d="M147.379 154.897L145.716 155.813V141.829L147.379 140.914V154.897Z" fill="#0439C7"/>
<path d="M152.113 152.29L150.449 153.206V139.222L152.113 138.306V152.29Z" fill="#0439C7"/>
<path d="M47 62.6251L51.5171 60C68.5917 69.8577 82.7562 62.7559 83.5019 62.3822L78.9847 65.0073C78.2394 65.3807 64.0749 72.4829 47 62.6251Z" fill="#A6FBE8"/>
<path d="M110.891 99.518L110.491 102.498L103.729 152.811L78.7003 162.569L67.6124 145.376L63.5424 139.047L59.4245 132.67L53.8323 124.001L53.1759 118.105L47.0068 62.6323C64.0717 72.4865 78.2362 65.3883 78.9894 65.0038C79.39 65.6767 83.7327 72.8871 90.3658 80.9309C93.3145 84.52 96.7107 88.2696 100.428 91.6662C102.271 93.3489 104.194 94.951 106.181 96.4095C107.719 97.5472 109.289 98.5885 110.891 99.518Z" fill="#33E6BF"/>
<path d="M78.9804 70.9466C79.6293 72.0248 91.9588 92.5164 106.911 101.149L100.635 147.794L78.7381 156.328L56.9608 122.578L50.9878 68.8618C65.931 77.4894 78.3278 71.2738 78.9804 70.9466Z" fill="#A6FBE8"/>
<path d="M78.9776 75.056C79.5624 76.0281 90.6754 94.4977 104.152 102.278L98.4963 144.321L78.7594 152.013L59.1307 121.593L53.7471 73.1772C67.2157 80.9534 78.3892 75.3509 78.9776 75.056Z" fill="#33E6BF"/>
<path d="M78.9849 65.0075L83.502 62.3823C84.2434 63.6146 98.3316 87.0284 115.416 96.8922L110.899 99.5174C93.8144 89.6532 79.7266 66.2398 78.9849 65.0075Z" fill="#A6FBE8"/>
<path d="M110.899 99.5167L115.416 96.8916L108.246 150.189L103.728 152.814L110.899 99.5167Z" fill="#A6FBE8"/>
<g opacity="0.3">
<path d="M100.428 91.6659L59.4244 132.67L53.8322 124.001L53.1758 118.105L90.3657 80.9307C93.314 84.5197 96.7106 88.2693 100.428 91.6659Z" fill="white"/>
<path d="M110.891 99.5177L110.491 102.498L67.6128 145.376L63.5425 139.047L106.18 96.4092C107.719 97.5469 109.289 98.5882 110.891 99.5177Z" fill="white"/>
</g>
</svg>
