<svg width="46" height="46" viewBox="0 0 46 46" fill="none" xmlns="http://www.w3.org/2000/svg">
<g clip-path="url(#clip0_1125_12089)">
<path d="M39.6571 12.5961V43.0352C39.6571 44.6703 38.3274 46 36.6922 46H9.30786C7.67271 46 6.34302 44.6703 6.34302 43.0352V2.96484C6.34302 1.32969 7.67271 0 9.30786 0H27.061L39.6571 12.5961Z" fill="#33E6BF"/>
<path d="M14.4828 23.0988H31.5172V24.9945H14.4828V23.0988Z" fill="white"/>
<path d="M14.4828 27.3215H31.5172V29.2172H14.4828V27.3215Z" fill="white"/>
<path d="M14.4828 31.5531H31.5172V33.4488H14.4828V31.5531Z" fill="white"/>
<path d="M14.4828 35.7758H26.6027V37.6715H14.4828V35.7758Z" fill="white"/>
<path opacity="0.19" d="M28.777 12.1199L39.6571 20.9336V12.65L33.4938 9.07422L28.777 12.1199Z" fill="black"/>
<path d="M39.657 12.5961H30.0258C28.3906 12.5961 27.0609 11.2664 27.0609 9.63125V0L39.657 12.5961Z" fill="#A6FBE8"/>
</g>
<defs>
<clipPath id="clip0_1125_12089">
<rect width="46" height="46" fill="white"/>
</clipPath>
</defs>
</svg>
