<svg width="28" height="54" viewBox="0 0 28 54" fill="none" xmlns="http://www.w3.org/2000/svg">
<path d="M24.2299 53.1855C24.0093 53.2067 23.7735 53.2119 23.5213 53.2C16.8992 52.8833 10.2272 53.1648 3.56777 53.1637C1.62529 53.1632 0.376338 51.4121 0.37989 49.2501C0.396762 39.8535 0.437165 30.457 0.437165 21.0605C0.437165 15.3139 0.437165 9.5667 0.437165 3.81747C0.437165 1.79949 1.83841 0.163442 3.56732 0.162924C10.4919 0.160851 17.3107 0.162924 24.2255 0.162924C25.9549 0.162924 27.3566 1.79897 27.3566 3.81747C27.3566 13.0741 27.2766 22.3301 27.2709 31.5862C27.2682 36.1456 27.2828 40.7055 27.3339 45.2644C27.3725 48.6727 27.6443 52.8554 24.2299 53.1855Z" fill="#324E77"/>
<path d="M3.6846 4.84289C3.41332 11.3021 3.72722 17.882 3.61267 24.3894C3.4919 31.2487 3.3405 38.1095 3.41021 44.9709C3.41998 44.9709 3.4302 44.9714 3.43996 44.9714C4.70002 45.0046 5.95963 45.0061 7.21969 44.9983C11.7329 31.6229 15.5575 17.8458 20.793 4.89212C14.8164 4.85378 3.68727 4.77863 3.6846 4.84289Z" fill="#81F8DE"/>
<path d="M7.21973 44.9989C9.51252 44.9849 11.8053 44.9295 14.0976 44.8974C15.918 44.872 17.7388 44.8611 19.5588 44.9062C21.0497 44.943 22.5597 45.3363 24.0489 45.0829C24.3961 43.3168 24.2012 41.1433 24.2531 39.315C24.3109 37.2742 24.3584 35.2324 24.3584 33.1906C24.3584 29.9796 24.3584 26.7687 24.3584 23.5583C24.3584 17.5266 24.3584 11.4949 24.3584 5.46275C24.3584 5.43581 24.3584 4.91291 24.3584 4.91291C23.953 4.91291 22.6113 4.90463 20.7926 4.89272C15.5575 17.8464 11.7329 31.6235 7.21973 44.9989Z" fill="#33E6BF"/>
<path d="M16.2874 50.83H11.5069C10.8387 50.83 10.297 50.2004 10.293 49.4204C10.2846 47.6652 12.616 48.071 13.5515 48.1083C14.3285 48.1389 16.0334 47.8025 16.7211 48.0881C17.963 48.6042 17.5914 50.83 16.2874 50.83Z" fill="#162A48"/>
<path d="M15.8589 2.91291C14.5402 2.91291 13.2557 2.91602 11.9344 2.91291C11.6982 2.91239 11.5068 2.68852 11.5068 2.41282C11.5068 2.13661 11.6987 1.91273 11.9353 1.91273H15.8584C16.0951 1.91273 16.2869 2.13661 16.2869 2.41282C16.2869 2.68904 16.0955 2.91291 15.8589 2.91291Z" fill="#162A48"/>
</svg>
