<svg width="24" height="24" viewBox="0 0 24 24" fill="none" xmlns="http://www.w3.org/2000/svg">
<path d="M22.6875 15.4875L14.6625 2.575C14.025 1.7125 13.05 1.225 12 1.225C10.9125 1.225 9.93753 1.7125 9.33753 2.575L1.31253 15.4875C0.562527 16.5 0.450027 17.8125 1.01253 18.9375C1.57503 20.0625 2.70003 20.775 3.97503 20.775H20.025C21.3 20.775 22.425 20.0625 22.9875 18.9375C23.55 17.85 23.4375 16.5 22.6875 15.4875ZM21.4875 18.1875C21.1875 18.75 20.6625 19.0875 20.025 19.0875H3.97503C3.33753 19.0875 2.81253 18.75 2.51253 18.1875C2.25003 17.625 2.28753 16.9875 2.66253 16.5L10.6875 3.5875C10.9875 3.175 11.475 2.9125 12 2.9125C12.525 2.9125 13.0125 3.1375 13.3125 3.5875L21.3375 16.5C21.7125 16.9875 21.75 17.625 21.4875 18.1875Z" fill="#F7961B"/>
<path d="M12.0002 8.20002C11.5502 8.20002 11.1377 8.57502 11.1377 9.06252V13.15C11.1377 13.6 11.5127 14.0125 12.0002 14.0125C12.4877 14.0125 12.8627 13.6375 12.8627 13.15V9.02502C12.8627 8.57502 12.4502 8.20002 12.0002 8.20002Z" fill="#F7961B"/>
<path d="M12.0002 15C11.5502 15 11.1377 15.375 11.1377 15.8625V16.05C11.1377 16.5 11.5127 16.9125 12.0002 16.9125C12.4877 16.9125 12.8627 16.5375 12.8627 16.05V15.825C12.8627 15.375 12.4502 15 12.0002 15Z" fill="#F7961B"/>
</svg>
