<svg width="94" height="94" viewBox="0 0 94 94" fill="none" xmlns="http://www.w3.org/2000/svg">
<path d="M42.1248 19.4903L14.7605 66.8832C14.2662 67.739 14.006 68.7099 14.0059 69.6983C14.0058 70.6866 14.2659 71.6575 14.76 72.5135C15.2541 73.3694 15.9649 74.0802 16.8208 74.5743C17.6768 75.0685 18.6477 75.3286 19.636 75.3285H74.3602C75.3485 75.3286 76.3195 75.0685 77.1754 74.5743C78.0313 74.0802 78.7421 73.3694 79.2362 72.5135C79.7304 71.6575 79.9905 70.6866 79.9904 69.6983C79.9903 68.7099 79.73 67.739 79.2357 66.8832L51.8744 19.4903C51.3803 18.6346 50.6697 17.9241 49.814 17.43C48.9583 16.936 47.9877 16.6759 46.9996 16.6759C46.0115 16.6759 45.0408 16.936 44.1851 17.43C43.3294 17.9241 42.6189 18.6346 42.1248 19.4903Z" fill="#FFB400"/>
<path d="M47.3568 34.1073H46.643C44.8856 34.1073 43.4609 35.532 43.4609 37.2894V52.499C43.4609 54.2564 44.8856 55.6811 46.643 55.6811H47.3568C49.1142 55.6811 50.5388 54.2564 50.5388 52.499V37.2894C50.5388 35.532 49.1142 34.1073 47.3568 34.1073Z" fill="#FCF4D9"/>
<path d="M46.9999 67.7439C48.9544 67.7439 50.5388 66.1595 50.5388 64.205C50.5388 62.2504 48.9544 60.666 46.9999 60.666C45.0454 60.666 43.4609 62.2504 43.4609 64.205C43.4609 66.1595 45.0454 67.7439 46.9999 67.7439Z" fill="#FCF4D9"/>
</svg>
