<svg width="24" height="22" viewBox="0 0 24 22" fill="none" xmlns="http://www.w3.org/2000/svg">
<g clip-path="url(#clip0_48948_109701)">
<path d="M6.50454 10.9216C6.4547 11.8013 7.12997 12.5577 8.00927 12.608C8.04027 12.6096 8.071 12.6107 8.10129 12.6107C8.94716 12.6107 9.64758 11.9486 9.69577 11.1029C9.74579 10.2232 9.07095 9.46676 8.19095 9.41682C7.30589 9.36514 6.55466 10.0457 6.50454 10.9216Z" fill="#2359DC"/>
<path d="M0.545643 10.5087C0.261039 10.4923 0.0166807 10.7102 0.000879138 10.995C-0.0156204 11.2796 0.202111 11.5241 0.486801 11.5402C0.771666 11.5564 1.01594 11.3385 1.03226 11.0539C1.04806 10.7687 0.830508 10.5248 0.545643 10.5087Z" fill="#2359DC"/>
<path d="M6.40153 1.64204C6.6561 1.51379 6.75885 1.20309 6.63043 0.948163C6.50175 0.693675 6.19139 0.590921 5.9363 0.719518C5.68181 0.847764 5.57932 1.15847 5.70774 1.41313C5.83616 1.66805 6.14652 1.77028 6.40153 1.64204Z" fill="#2359DC"/>
<path d="M8.02394 4.4722C8.41793 4.27394 8.57621 3.79387 8.37777 3.40023C8.17934 3.00658 7.69918 2.84814 7.30545 3.0464C6.91181 3.24474 6.75327 3.72482 6.95188 4.11855C7.15031 4.51236 7.63021 4.6709 8.02394 4.4722Z" fill="#2359DC"/>
<path d="M2.56754 6.41804C2.87135 6.61727 3.27888 6.53267 3.4781 6.22878C3.67706 5.92532 3.59238 5.5177 3.28874 5.31874C2.98475 5.11952 2.57749 5.20429 2.37827 5.50801C2.17905 5.81156 2.26399 6.21917 2.56754 6.41804Z" fill="#2359DC"/>
<path d="M3.54015 10.2201C3.10015 10.1949 2.72301 10.5315 2.6976 10.9717C2.67254 11.4122 3.00927 11.7891 3.44935 11.8145C3.8897 11.8394 4.2672 11.5028 4.29208 11.0625C4.31704 10.6221 3.9805 10.2449 3.54015 10.2201Z" fill="#2359DC"/>
<path d="M2.65549 15.5863C2.33134 15.7495 2.20099 16.1451 2.36451 16.4692C2.52777 16.7935 2.92333 16.9237 3.2473 16.7605C3.57154 16.5968 3.70206 16.2016 3.53846 15.8771C3.3752 15.5532 2.97999 15.4226 2.65549 15.5863Z" fill="#2359DC"/>
<path d="M5.75727 8.56842C6.19116 8.85302 6.77355 8.73193 7.05771 8.29787C7.34231 7.86442 7.22123 7.28203 6.78743 6.99786C6.35363 6.71308 5.7715 6.83435 5.48707 7.2678C5.20238 7.70186 5.32355 8.28399 5.75727 8.56842Z" fill="#2359DC"/>
<path d="M15.5979 4.4039C15.9666 4.64564 16.4615 4.54262 16.7032 4.17377C16.9451 3.80536 16.8424 3.31045 16.4736 3.06845C16.1051 2.82654 15.6099 2.92929 15.3682 3.2984C15.1263 3.66681 15.2294 4.16199 15.5979 4.4039Z" fill="#2359DC"/>
<path d="M17.2355 1.59717C17.4738 1.7537 17.7943 1.68691 17.9508 1.44849C18.107 1.20981 18.0404 0.889677 17.8019 0.733142C17.5637 0.576523 17.2434 0.643395 17.0866 0.881732C16.93 1.1205 16.9969 1.44054 17.2355 1.59717Z" fill="#2359DC"/>
<path d="M15.7221 9.39336C14.8372 9.34194 14.0854 10.0223 14.0358 10.8978C13.9858 11.7777 14.6607 12.5342 15.5403 12.5843C15.5709 12.586 15.6018 12.5869 15.6323 12.5869C16.4782 12.5869 17.1785 11.9248 17.2265 11.0798C17.2509 10.6533 17.1075 10.2431 16.8234 9.92494C16.5396 9.60611 16.1482 9.41745 15.7221 9.39336Z" fill="#2359DC"/>
<path d="M8.54869 8.45831C8.82177 9.00036 9.36889 9.33752 9.97695 9.33752C10.2241 9.33752 10.4726 9.27816 10.6948 9.16633C11.4818 8.76971 11.7994 7.80678 11.4028 7.01984C11.1294 6.47735 10.5825 6.14062 9.97459 6.14062C9.72744 6.14062 9.47898 6.19999 9.25671 6.31156C8.46986 6.70817 8.15217 7.67093 8.54869 8.45831Z" fill="#2359DC"/>
<path d="M21.0747 6.4168C21.3987 6.25337 21.5295 5.85806 21.366 5.53348C21.2024 5.20915 20.8071 5.07899 20.4829 5.24241C20.1586 5.40567 20.0281 5.80115 20.1917 6.12538C20.3553 6.44953 20.7502 6.57987 21.0747 6.4168Z" fill="#2359DC"/>
<path d="M17.0228 6.92113C16.5592 7.15449 16.3732 7.71933 16.6065 8.18256C16.84 8.64586 17.4047 8.83191 17.868 8.59872C18.3311 8.36519 18.5176 7.80035 18.2843 7.33704C18.0508 6.8739 17.4859 6.68743 17.0228 6.92113Z" fill="#2359DC"/>
<path d="M11.8069 1.35307C12.1694 1.37367 12.48 1.09666 12.5007 0.733838C12.5212 0.371449 12.2441 0.0606607 11.8816 0.0401408C11.519 0.0195356 11.2082 0.296722 11.1876 0.659372C11.1672 1.02185 11.4442 1.33247 11.8069 1.35307Z" fill="#2359DC"/>
<path d="M11.7972 5.48685C12.3151 5.51627 12.7589 5.12019 12.7884 4.60222C12.8179 4.08426 12.4218 3.64016 11.9036 3.61091C11.386 3.5815 10.9423 3.97741 10.9127 4.49554C10.8833 5.01333 11.2793 5.45717 11.7972 5.48685Z" fill="#2359DC"/>
<path d="M6.70756 15.083C7.17105 14.8495 7.35735 14.2847 7.12416 13.8215C6.89055 13.3584 6.32562 13.1717 5.86257 13.4055C5.39935 13.6389 5.21296 14.2033 5.44631 14.6668C5.67985 15.1299 6.24443 15.3162 6.70756 15.083Z" fill="#2359DC"/>
<path d="M12.4049 6.8548C11.9216 7.59171 12.1279 8.58424 12.8647 9.06754C13.126 9.23891 13.4285 9.32954 13.7398 9.32954C14.2814 9.32954 14.7809 9.05978 15.0777 8.60772C15.5608 7.87064 15.3545 6.87776 14.6176 6.39498C14.3563 6.2236 14.0539 6.13281 13.7426 6.13281C13.2012 6.13281 12.7014 6.40275 12.4049 6.8548Z" fill="#2359DC"/>
<path d="M15.1833 13.5357C14.91 12.9931 14.3626 12.6562 13.7551 12.6562C13.5076 12.6562 13.2591 12.7152 13.0368 12.8274C12.6558 13.0195 12.3724 13.3486 12.2387 13.7542C12.1047 14.1594 12.1367 14.5924 12.3292 14.9739C12.6022 15.5162 13.1494 15.8531 13.7568 15.8531C14.0045 15.8531 14.2527 15.794 14.4754 15.682C15.2622 15.2856 15.5798 14.3225 15.1833 13.5357Z" fill="#2359DC"/>
<path d="M17.9759 13.435C17.5424 13.1508 16.9598 13.2719 16.6753 13.7053C16.3908 14.1391 16.5123 14.7216 16.9458 15.006C17.3797 15.2903 17.9617 15.1695 18.2463 14.7354C18.5309 14.3019 18.41 13.7194 17.9759 13.435Z" fill="#2359DC"/>
<path d="M21.0343 11.0239C21.0596 10.5836 20.7227 10.2061 20.2822 10.181C19.8422 10.156 19.465 10.4925 19.4398 10.9332C19.4146 11.3732 19.7513 11.7505 20.1918 11.7756C20.6318 11.8008 21.0094 11.4637 21.0343 11.0239Z" fill="#2359DC"/>
<path d="M23.2436 10.4618C22.9584 10.4458 22.7146 10.6633 22.6981 10.9483C22.682 11.2331 22.8997 11.4774 23.1848 11.4935C23.4695 11.5096 23.7136 11.2919 23.7298 11.007C23.7463 10.722 23.5284 10.4778 23.2436 10.4618Z" fill="#2359DC"/>
<path d="M21.1627 15.5922C20.8588 15.3929 20.451 15.4778 20.2524 15.7814C20.0531 16.085 20.1378 16.4928 20.4415 16.6919C20.7451 16.891 21.1524 16.8064 21.3521 16.5025C21.5508 16.1986 21.4665 15.7914 21.1627 15.5922Z" fill="#2359DC"/>
<path d="M6.49726 20.4129C6.25875 20.2563 5.93844 20.323 5.78199 20.5615C5.62546 20.8002 5.69199 21.1203 5.93067 21.2768C6.16918 21.4334 6.48949 21.3665 6.64567 21.1281C6.80238 20.8893 6.73576 20.5692 6.49726 20.4129Z" fill="#2359DC"/>
<path d="M17.3298 20.3601C17.0753 20.4881 16.9728 20.7987 17.1014 21.0538C17.2295 21.3083 17.54 21.4108 17.7951 21.2823C18.0496 21.1538 18.1525 20.8435 18.024 20.5888C17.8956 20.3341 17.5848 20.2317 17.3298 20.3601Z" fill="#2359DC"/>
<path d="M11.3258 15.1464C11.5598 14.7895 11.6411 14.3627 11.5541 13.945C11.4671 13.5273 11.2227 13.1681 10.8657 12.934C10.6044 12.7627 10.3017 12.6719 9.99028 12.6719C9.44927 12.6719 8.94921 12.9416 8.65273 13.3939C8.41868 13.7509 8.33757 14.1777 8.42479 14.5956C8.51148 15.0133 8.7561 15.3725 9.11299 15.6065C9.37437 15.7779 9.67687 15.8683 9.98819 15.8683C10.5294 15.8684 11.0293 15.5986 11.3258 15.1464Z" fill="#2359DC"/>
<path d="M8.13373 17.5918C7.76505 17.3499 7.27031 17.4529 7.0284 17.8215C6.78649 18.1904 6.88933 18.6851 7.25809 18.9271C7.62685 19.1689 8.12194 19.066 8.36368 18.6972C8.60568 18.3283 8.50231 17.8336 8.13373 17.5918Z" fill="#2359DC"/>
<path d="M11.859 20.6495C11.4965 20.6288 11.1858 20.9061 11.1652 21.2686C11.1445 21.6314 11.4215 21.9418 11.7842 21.9627C12.1467 21.9831 12.4577 21.706 12.4781 21.3433C12.4985 20.9808 12.2215 20.67 11.859 20.6495Z" fill="#2359DC"/>
<path d="M11.8647 16.5093C11.347 16.4801 10.9029 16.8758 10.8736 17.3938C10.8442 17.9117 11.24 18.3557 11.758 18.3849C12.2762 18.4146 12.7199 18.0184 12.7492 17.5006C12.779 16.9826 12.3828 16.5387 11.8647 16.5093Z" fill="#2359DC"/>
<path d="M15.7095 17.5308C15.316 17.7295 15.1576 18.2093 15.3563 18.6033C15.5543 18.9972 16.0345 19.1552 16.4283 18.9568C16.8222 18.7586 16.9802 18.2785 16.7821 17.8847C16.5836 17.4909 16.1037 17.3325 15.7095 17.5308Z" fill="#2359DC"/>
</g>
<defs>
<clipPath id="clip0_48948_109701">
<rect width="23.746" height="22" fill="white"/>
</clipPath>
</defs>
</svg>
