<svg width="22" height="25" viewBox="0 0 22 25" fill="none" xmlns="http://www.w3.org/2000/svg">
<g clip-path="url(#clip0_48948_110040)">
<mask id="mask0_48948_110040" style="mask-type:luminance" maskUnits="userSpaceOnUse" x="0" y="0" width="22" height="25">
<path d="M22 0H0V24.2759H22V0Z" fill="white"/>
</mask>
<g mask="url(#mask0_48948_110040)">
<path d="M12.8435 13.9856L11.6399 17.2082C11.6044 17.2975 11.6044 17.3968 11.6399 17.4862L13.7068 23.0326L16.0989 21.682L13.2295 13.9856C13.1634 13.8069 12.9095 13.8069 12.8435 13.9856Z" fill="white"/>
<path d="M15.251 8.56374C15.185 8.385 14.9311 8.385 14.8651 8.56374L13.6615 11.7863C13.6259 11.8757 13.6259 11.975 13.6615 12.0644L17.0488 21.1461L19.4408 19.7955L15.251 8.56374Z" fill="white"/>
<path d="M11 1.50452C11.0609 1.50452 11.1168 1.51941 11.1727 1.54921L20.2936 6.69833C20.4003 6.75791 20.4663 6.86716 20.4663 6.98633V17.2846C20.4663 17.4037 20.4003 17.513 20.2936 17.5725L11.1727 22.7267C11.1219 22.7564 11.0609 22.7714 11 22.7714C10.9391 22.7714 10.8832 22.7564 10.8273 22.7267L1.71145 17.5775C1.6048 17.5179 1.53878 17.4087 1.53878 17.2896V6.98633C1.53878 6.86716 1.6048 6.75791 1.71145 6.69833L10.8324 1.54921C10.8832 1.51941 10.9442 1.50452 11 1.50452ZM11 0C10.675 0 10.3499 0.0844117 10.0604 0.24827L0.939521 5.3974C0.360572 5.72511 0 6.33089 0 6.98633V17.2846C0 17.94 0.360572 18.5508 0.939521 18.8785L10.0604 24.0276C10.3499 24.1914 10.675 24.2759 11 24.2759C11.325 24.2759 11.6501 24.1914 11.9396 24.0276L21.0604 18.8785C21.6445 18.5508 22 17.9449 22 17.2846V6.98633C22 6.33089 21.6394 5.72014 21.0604 5.39243L11.9446 0.24827C11.6501 0.0844117 11.325 0 11 0Z" fill="white"/>
<path d="M4.97266 21.1506L5.81061 18.9062L7.49666 20.2767L5.92233 21.6868L4.97266 21.1506Z" fill="white"/>
<path d="M10.2334 6.25781H7.92267C7.75001 6.25781 7.59252 6.36208 7.53668 6.52098L2.58008 19.8084L4.97205 21.159L10.4314 6.52595C10.4771 6.39684 10.3806 6.25781 10.2334 6.25781Z" fill="white"/>
<path d="M14.2801 6.25781H11.9694C11.7967 6.25781 11.6392 6.36208 11.5834 6.52098L5.9209 21.6952L8.31284 23.0459L14.4731 6.53091C14.5238 6.39684 14.4223 6.25781 14.2801 6.25781Z" fill="white"/>
</g>
</g>
<defs>
<clipPath id="clip0_48948_110040">
<rect width="22" height="24.2759" fill="white"/>
</clipPath>
</defs>
</svg>
