<svg width="22" height="22" viewBox="0 0 22 22" fill="none" xmlns="http://www.w3.org/2000/svg">
<g clip-path="url(#clip0_48948_109690)">
<path d="M11 22C17.0751 22 22 17.0751 22 11C22 4.92487 17.0751 0 11 0C4.92487 0 0 4.92487 0 11C0 17.0751 4.92487 22 11 22Z" fill="#3A3D55"/>
<path d="M10.9999 17.3826C14.525 17.3826 17.3826 14.525 17.3826 10.9999C17.3826 7.47483 14.525 4.61719 10.9999 4.61719C7.47483 4.61719 4.61719 7.47483 4.61719 10.9999C4.61719 14.525 7.47483 17.3826 10.9999 17.3826Z" fill="#1B1E36"/>
<path d="M11.0223 1.40625C9.83488 1.40625 8.87207 5.71297 8.87207 11.0256C8.87207 16.3383 9.83488 20.645 11.0223 20.645C12.2096 20.645 13.1725 16.3383 13.1725 11.0256C13.1725 5.71297 12.2096 1.40625 11.0223 1.40625ZM11.1707 20.1021C11.0349 20.2832 10.8992 20.1473 10.8992 20.1473C10.3523 19.5137 10.0789 18.3367 10.0789 18.3367C9.12243 15.2585 9.35009 8.64944 9.35009 8.64944C9.79959 3.40253 10.6173 2.16305 10.8955 1.88787C10.924 1.85979 10.9614 1.84263 11.0012 1.83941C11.041 1.83619 11.0807 1.84712 11.1133 1.87027C11.517 2.15636 11.8556 3.35281 11.8556 3.35281C12.8556 7.06474 12.765 10.5503 12.765 10.5503C12.8556 13.5833 12.2639 16.9783 12.2639 16.9783C11.8085 19.5585 11.1707 20.1021 11.1707 20.1021Z" fill="#6F7390"/>
<path d="M19.3664 6.23483C18.7753 5.20452 14.5609 6.51273 9.95045 9.15642C5.34004 11.8001 2.08791 14.7787 2.67866 15.8085C3.2694 16.8384 7.48425 15.5306 12.0947 12.8869C16.7051 10.2432 19.9572 7.26469 19.3664 6.23483ZM3.22408 15.6672C2.99774 15.6387 3.04887 15.4526 3.04887 15.4526C3.32651 14.6632 4.21003 13.8402 4.21003 13.8402C6.40502 11.4787 12.2514 8.38731 12.2514 8.38731C17.0257 6.16601 18.5087 6.25973 18.8849 6.3633C18.9235 6.37408 18.9571 6.39818 18.9796 6.43133C19.0022 6.46448 19.0123 6.50453 19.0081 6.54441C18.9629 7.03721 18.0914 7.92601 18.0914 7.92601C15.3712 10.6416 12.3025 12.2979 12.3025 12.2979C9.71681 13.8863 6.47753 15.0619 6.47753 15.0619C4.01274 15.9501 3.22417 15.6672 3.22417 15.6672H3.22408Z" fill="#6F7390"/>
<path d="M19.346 15.8426C19.9418 14.815 16.6979 11.8228 12.1036 9.15926C7.50942 6.49567 3.29554 5.17127 2.70031 6.20061C2.10508 7.22995 5.34849 10.2204 9.94535 12.8839C14.5422 15.5475 18.7508 16.872 19.346 15.8426ZM3.09508 6.59767C3.00708 6.38902 3.19285 6.33877 3.19285 6.33877C4.01529 6.18345 5.17056 6.53739 5.17056 6.53739C8.31348 7.25309 13.9178 10.7636 13.9178 10.7636C18.2327 13.783 18.8944 15.1129 18.9936 15.4904C19.0037 15.5291 18.9998 15.5702 18.9825 15.6063C18.9653 15.6424 18.9359 15.6713 18.8994 15.6878C18.4495 15.8938 17.2444 15.5869 17.2444 15.5869C13.5302 14.591 10.5598 12.7663 10.5598 12.7663C7.89081 11.3268 5.25169 9.11183 5.25169 9.11183C3.24635 7.42337 3.09569 6.59995 3.09569 6.59995L3.09508 6.59767Z" fill="#6F7390"/>
<path d="M10.9998 12.1305C11.6249 12.1305 12.1315 11.6239 12.1315 10.9989C12.1315 10.3739 11.6249 9.86719 10.9998 9.86719C10.3748 9.86719 9.86816 10.3739 9.86816 10.9989C9.86816 11.6239 10.3748 12.1305 10.9998 12.1305Z" fill="#B7B9C8"/>
<path d="M15.6398 7.33458C16.0023 7.33458 16.2962 7.03058 16.2962 6.65557C16.2962 6.28056 16.0023 5.97656 15.6398 5.97656C15.2773 5.97656 14.9834 6.28056 14.9834 6.65557C14.9834 7.03058 15.2773 7.33458 15.6398 7.33458Z" fill="#B7B9C8"/>
<path d="M4.86635 9.63927C5.22887 9.63927 5.52274 9.33526 5.52274 8.96026C5.52274 8.58525 5.22887 8.28125 4.86635 8.28125C4.50384 8.28125 4.20996 8.58525 4.20996 8.96026C4.20996 9.33526 4.50384 9.63927 4.86635 9.63927Z" fill="#B7B9C8"/>
<path d="M9.6642 17.9674C10.0267 17.9674 10.3206 17.6634 10.3206 17.2884C10.3206 16.9134 10.0267 16.6094 9.6642 16.6094C9.30169 16.6094 9.00781 16.9134 9.00781 17.2884C9.00781 17.6634 9.30169 17.9674 9.6642 17.9674Z" fill="#B7B9C8"/>
</g>
<defs>
<clipPath id="clip0_48948_109690">
<rect width="22" height="22" fill="white"/>
</clipPath>
</defs>
</svg>
