<svg width="23" height="21" viewBox="0 0 23 21" fill="none" xmlns="http://www.w3.org/2000/svg">
<g clip-path="url(#clip0_48948_109666)">
<path d="M17.4398 12.151C17.7955 11.5434 18.6787 11.5434 19.0305 12.151L22.8097 18.6272C23.1654 19.2349 22.7199 19.9914 22.0124 19.9914H14.454C13.7465 19.9914 13.3049 19.2349 13.6567 18.6272L17.4359 12.151H17.4398Z" fill="#FF394A"/>
<path d="M15.1574 7.83358C15.5014 7.22987 15.5014 6.48502 15.1574 5.8774L12.0583 0.455726C11.7105 -0.151909 10.8428 -0.151909 10.495 0.455726L0.122564 18.6181C-0.225267 19.2257 0.208544 19.9862 0.904205 19.9862H7.09871C7.79046 19.9862 8.42752 19.6138 8.77143 19.0102L15.1535 7.83358H15.1574Z" fill="#FF394A"/>
</g>
<defs>
<clipPath id="clip0_48948_109666">
<rect width="23" height="20.0845" fill="white"/>
</clipPath>
</defs>
</svg>
