<svg width="22" height="22" viewBox="0 0 22 22" fill="none" xmlns="http://www.w3.org/2000/svg">
<g clip-path="url(#clip0_48948_109681)">
<path d="M11.0004 21.993C17.0736 21.993 21.9969 17.0697 21.9969 10.9965C21.9969 4.92329 17.0736 0 11.0004 0C4.9272 0 0.00390625 4.92329 0.00390625 10.9965C0.00390625 17.0697 4.9272 21.993 11.0004 21.993Z" fill="#0AC18E"/>
<path d="M16.1576 11.4542L16.1515 11.4429L16.1504 11.441C16.1467 11.4295 16.144 11.4176 16.1397 11.4052L16.1392 11.4042L16.1387 11.4033L16.1382 11.4023L16.1377 11.4013L16.1372 11.4004L16.1366 11.3994L16.1356 11.3975C16.0065 10.9659 15.7506 10.583 15.4011 10.2987L15.4006 10.2977C15.3903 10.2898 15.3794 10.281 15.369 10.2732L15.3547 10.2625L15.3444 10.2547L15.34 10.251L15.3301 10.244L15.3257 10.2403L15.3158 10.2334L15.3114 10.2297L15.301 10.2219L15.2956 10.2186L15.2853 10.2108L15.2799 10.2076L15.2688 10.2002L15.2634 10.1969L15.2568 10.187L15.2509 10.1829L15.2398 10.1754L15.2339 10.1713L15.2228 10.1639L15.2169 10.1597L15.2058 10.1523L15.1999 10.1482L15.1881 10.1399L15.1822 10.1357L15.1695 10.1279L15.1636 10.1238L15.1509 10.116L15.145 10.1118L15.1322 10.104L15.1263 10.0999L15.1136 10.092L15.1067 10.0883L15.094 10.0805L15.0872 10.0768L15.0734 10.0694L15.0666 10.0657L15.0524 10.0575L15.0455 10.0538L15.0313 10.0456L15.0244 10.0419L15.0102 10.0336L15.0028 10.029L14.9886 10.0208L14.9812 10.0162L14.966 10.0085L14.9586 10.0039L14.9435 9.99615L14.9332 9.99067L14.9327 9.98971C14.9253 9.98512 14.9176 9.98197 14.9102 9.97737C14.5958 9.81579 14.2563 9.70852 13.9062 9.66012C14.0043 9.55456 14.0943 9.44161 14.1752 9.32226L14.188 9.30312L14.189 9.3026L14.195 9.29326L14.2028 9.28052L14.2069 9.27463L14.2147 9.26189L14.2189 9.256L14.2267 9.24326L14.2309 9.23738L14.2387 9.22463L14.2428 9.21875L14.2506 9.20601L14.2548 9.20012L14.2616 9.18786L14.2658 9.18197L14.2726 9.16971L14.2759 9.1643L14.2827 9.15204L14.2859 9.14663L14.2928 9.13438L14.296 9.12897L14.3019 9.11723L14.3051 9.11182L14.311 9.10008L14.3142 9.09467L14.3201 9.08293L14.3233 9.07752L14.3297 9.06675L14.3329 9.06134L14.3393 9.05056L14.3425 9.04515L14.348 9.03489L14.3512 9.02949L14.3567 9.01923L14.359 9.01434L14.3644 9.00408L14.3667 8.99919L14.3722 8.98893L14.3744 8.98404L14.3799 8.97378L14.3822 8.96889L14.3867 8.95912L14.389 8.95423L14.3935 8.94445L14.3957 8.93956L14.4003 8.92978L14.4025 8.92489L14.4075 8.91378L14.4143 8.89897C14.4192 8.88786 14.4232 8.87704 14.4282 8.86563L14.4292 8.86512C14.5798 8.49372 14.6151 8.08555 14.5305 7.69378L14.53 7.69282L14.529 7.69093L14.5284 7.68997L14.5279 7.689L14.5274 7.68804L14.5269 7.68708L14.5264 7.68612L14.5259 7.68515C14.5236 7.67404 14.5213 7.66315 14.5182 7.65263V7.65052L14.5176 7.64956L14.5171 7.6486L14.5125 7.64008C14.5092 7.62478 14.5058 7.60949 14.501 7.59375C14.4977 7.57845 14.4929 7.56271 14.4886 7.54789L14.483 7.53749L14.4819 7.5356C14.4787 7.52512 14.4755 7.5146 14.4723 7.50412L14.4718 7.50315L14.4713 7.50219L14.4707 7.50123L14.4702 7.50026L14.4697 7.4993L14.4692 7.49834L14.4687 7.49738C14.3541 7.11322 14.1264 6.77249 13.8153 6.5196L13.8149 6.51863C13.806 6.51123 13.7961 6.50426 13.7872 6.49686L13.775 6.4876L13.7651 6.48067L13.7607 6.47697L13.7523 6.47049L13.7479 6.46678L13.7394 6.4603L13.735 6.4566L13.7257 6.45063L13.7212 6.44693L13.7114 6.44L13.707 6.4363L13.6971 6.42937L13.6927 6.42567L13.6828 6.41875L13.6774 6.41552L13.6676 6.4086L13.6622 6.40538L13.6523 6.39845L13.6469 6.39523L13.6361 6.38882L13.6307 6.3856L13.6199 6.37919L13.6145 6.37597L13.6037 6.36956L13.5983 6.36634L13.5876 6.35993L13.5822 6.35671L13.5709 6.3493L13.5654 6.34608L13.5542 6.33867L13.5487 6.33545L13.5365 6.3286L13.5311 6.32538L13.5189 6.31852L13.513 6.31438L13.5007 6.30752L13.4948 6.30338L13.4826 6.29652L13.4767 6.29237L13.464 6.28456L13.4571 6.28086L13.444 6.27275L13.4372 6.26904L13.4235 6.26163L13.4166 6.25793L13.4029 6.25052L13.3932 6.246L13.3926 6.24504L13.3721 6.23393C12.7716 5.92182 12.0086 5.82786 11.241 6.02478L11.0414 6.07604L10.5363 4.10938L9.36597 4.40937L9.86934 6.36826L8.93293 6.60978L8.42923 4.65715L7.25885 4.95715L7.76223 6.91604L5.34863 7.53712L5.66978 8.78526L6.6423 8.53549C6.79687 8.49564 6.96093 8.51883 7.0984 8.59995C7.23587 8.68107 7.33549 8.81348 7.37534 8.96804L7.37563 8.96923L8.72552 14.2217C8.75195 14.3249 8.73638 14.4343 8.68222 14.526C8.62806 14.6177 8.53974 14.6842 8.43663 14.7108L7.58448 14.93L7.63456 16.4145L10.0453 15.795L10.5552 17.7503L11.7249 17.4493L11.2212 15.4895L12.1574 15.2494L12.6613 17.2092L13.8311 16.9082L13.3255 14.9407C13.5237 14.8889 13.6943 14.8449 13.8122 14.8144C14.6773 14.5919 15.3768 14.0847 15.8001 13.4523L15.8144 13.4312L15.8153 13.4307L15.8223 13.4209L15.8314 13.406L15.836 13.3986L15.8452 13.3838L15.8498 13.3764L15.858 13.3622L15.8626 13.3548L15.8709 13.3406L15.8746 13.3337L15.8828 13.3195L15.8865 13.3126L15.8947 13.2984L15.8984 13.2916L15.9058 13.2779L15.9095 13.271L15.9169 13.2573L15.9206 13.2504L15.9284 13.2377L15.9322 13.2309L15.94 13.2181L15.9437 13.2113L15.9505 13.199L15.9542 13.1922L15.9611 13.1799L15.9648 13.1731L15.9716 13.1609L15.9743 13.1545L15.9812 13.1423L15.9839 13.136L15.9898 13.1242L15.993 13.1188L15.9989 13.1071L16.0021 13.1017L16.008 13.0899L16.0112 13.0845L16.0171 13.0728L16.0203 13.0674L16.0262 13.0556L16.0294 13.0502L16.0353 13.0385L16.0386 13.0331L16.0435 13.022L16.0467 13.0166L16.0517 13.0054L16.0539 13.0006L16.0593 12.9879L16.0667 12.9718C16.0722 12.9591 16.0779 12.9474 16.0825 12.9352L16.0829 12.9337C16.2523 12.516 16.2921 12.0569 16.1972 11.6162L16.1967 11.6152L16.1962 11.6143L16.1957 11.6133L16.1952 11.6123L16.1947 11.6114L16.1942 11.6104L16.1936 11.6094L16.1931 11.6085C16.1903 11.5965 16.1876 11.5846 16.1848 11.5726V11.5702L16.1843 11.5693L16.1838 11.5683L16.1833 11.5673L16.1827 11.5664L16.1822 11.5654L16.1817 11.5644L16.1812 11.5635L16.1807 11.5625L16.1802 11.5616L16.1796 11.5606L16.1791 11.5596L16.1786 11.5587L16.1781 11.5577L16.176 11.554C16.1717 11.5368 16.1683 11.5191 16.1629 11.5024C16.1602 11.4865 16.1585 11.4704 16.1576 11.4542ZM9.28126 7.94049C9.48093 7.88923 10.3065 7.68189 10.5787 7.61112C11.0115 7.50034 11.438 7.54334 11.7709 7.70371L11.782 7.70867L11.7869 7.71093L11.7938 7.71463L11.7972 7.71645L11.804 7.72015L11.8074 7.72197L11.8143 7.72567L11.8177 7.72749L11.8246 7.73119L11.828 7.733L11.8348 7.73671L11.8382 7.73852L11.8451 7.74223L11.8485 7.74404L11.8553 7.74775L11.8587 7.74956L11.8656 7.75326L11.869 7.75508L11.8759 7.75878L11.8793 7.7606L11.8852 7.76475L11.8886 7.76656L11.8944 7.77071L11.8979 7.77252L11.9037 7.77667L11.9072 7.77849L11.9126 7.78171L11.916 7.78352L11.9214 7.78675L11.9248 7.78856L11.9302 7.79178L11.9336 7.7936L11.939 7.79682L11.9424 7.79863L11.9478 7.80186L11.9503 7.80419L11.9557 7.80741L11.9577 7.80878L11.9631 7.81201L11.965 7.81337L11.9704 7.8166L11.9724 7.81797L11.9778 7.82119L11.9798 7.82256L11.9842 7.82626L11.9862 7.82763L11.9916 7.83086L11.999 7.83545C12.0044 7.83867 12.0093 7.84334 12.0147 7.84656C12.1852 7.97522 12.3104 8.15464 12.3724 8.359L12.374 8.36186C12.3756 8.36712 12.3777 8.3733 12.3793 8.37856L12.3798 8.37952L12.3829 8.38519C12.385 8.39378 12.3877 8.40093 12.3899 8.40952C12.3923 8.41829 12.3938 8.42727 12.3945 8.43634L12.3976 8.442L12.3981 8.44297C12.3989 8.44884 12.4004 8.4546 12.4025 8.46015L12.404 8.463C12.4478 8.67187 12.4244 8.88923 12.3373 9.08404L12.3297 9.1016L12.3256 9.10989L12.3224 9.1153L12.3215 9.11823L12.3192 9.12312L12.3183 9.12604L12.3151 9.13145L12.3142 9.13438L12.311 9.13978L12.3101 9.14271L12.3069 9.14812L12.306 9.15104L12.3028 9.15645L12.3019 9.15938L12.2987 9.16478L12.2978 9.16771L12.2946 9.17312L12.2927 9.17652L12.2895 9.18193L12.2877 9.18534L12.2845 9.19075L12.2827 9.19415L12.2795 9.19956L12.2777 9.20297L12.2735 9.20886L12.2717 9.21226L12.2675 9.21815L12.2657 9.22156L12.2616 9.22745L12.2597 9.23086L12.2556 9.23675L12.2538 9.24015L12.2496 9.24604L12.2478 9.24945L12.2437 9.25534L12.2419 9.25875L12.2377 9.26463L12.2359 9.26804L12.2317 9.27393L12.2299 9.27734L12.2248 9.28375L12.223 9.28715L12.2179 9.29356L12.2161 9.29697L12.211 9.30338L12.2092 9.30678L12.204 9.31319L12.2003 9.31763L12.1934 9.32749C11.9782 9.62904 11.6255 9.87267 11.1927 9.98345C10.92 10.0533 10.0964 10.2692 9.89693 10.3205L9.28126 7.94049ZM13.8558 11.9673L13.8589 11.9729L13.8594 11.9739C13.8605 11.9806 13.8622 11.9859 13.8633 11.9924L13.8638 11.9934L13.8643 11.9943L13.8649 11.9953L13.8654 11.9963C13.9115 12.2266 13.8784 12.4658 13.7713 12.6749L13.7608 12.694L13.7557 12.7028L13.752 12.7097L13.7502 12.7131L13.747 12.7185L13.7452 12.7219L13.742 12.7273L13.7402 12.7307L13.736 12.7366L13.7342 12.74L13.73 12.7459L13.7282 12.7493L13.7241 12.7552L13.7223 12.7586L13.7181 12.7645L13.7163 12.7679L13.7122 12.7738L13.7103 12.7772L13.7062 12.7831L13.7044 12.7865L13.7002 12.7924L13.6984 12.7958L13.6943 12.8017L13.6924 12.8051L13.6883 12.811L13.6865 12.8144L13.6814 12.8208L13.6796 12.8242L13.6744 12.8306L13.6726 12.834L13.668 12.8414L13.6662 12.8448L13.6616 12.8522L13.6598 12.8556L13.6552 12.863L13.6524 12.867L13.6479 12.8744L13.6451 12.8783L13.6395 12.8862L13.6367 12.8901L13.6312 12.8979L13.6284 12.9019L13.6229 12.9097L13.6201 12.9136L13.6145 12.9215L13.6117 12.9254L13.6062 12.9333L13.6015 12.9382L13.5927 12.9491C13.3313 13.2829 12.9097 13.5574 12.3977 13.6889C12.0747 13.7722 11.099 14.0274 10.8616 14.088L10.1974 11.5034C10.4344 11.4418 11.4127 11.1962 11.7356 11.1128C12.2477 10.9814 12.7504 11.0187 13.139 11.1846L13.1516 11.19L13.158 11.1927L13.1672 11.1964L13.1716 11.1977L13.1799 11.2018L13.1843 11.2031L13.1926 11.2072L13.1969 11.2084L13.2052 11.2125L13.2086 11.2143L13.2169 11.2184L13.2203 11.2202L13.2286 11.2243L13.232 11.2261L13.2403 11.2302L13.2437 11.232L13.2506 11.2357L13.254 11.2375L13.2608 11.2412L13.2642 11.243L13.2711 11.2467L13.2745 11.2486L13.2813 11.2523L13.2847 11.2541L13.2916 11.2578L13.295 11.2596L13.3019 11.2633L13.3053 11.2651L13.3121 11.2688L13.3155 11.2706L13.3224 11.2743L13.3258 11.2762L13.3326 11.2799L13.336 11.2817L13.3419 11.2858L13.3453 11.2876L13.3512 11.2918L13.3546 11.2936L13.3605 11.2977L13.3639 11.2996L13.3698 11.3037L13.3732 11.3055L13.3791 11.3097L13.3825 11.3115L13.3879 11.3147L13.3913 11.3165L13.3972 11.3207L13.4051 11.3262C13.411 11.3304 13.4178 11.334 13.4236 11.3382C13.618 11.47 13.7622 11.6636 13.8329 11.8876L13.835 11.8913C13.8371 11.8974 13.8387 11.9027 13.8408 11.9089L13.8413 11.9099L13.8444 11.9155C13.8466 11.9241 13.8487 11.9327 13.8514 11.9423C13.8562 11.9444 13.857 11.9549 13.8555 11.968L13.8558 11.9673Z" fill="white"/>
</g>
<defs>
<clipPath id="clip0_48948_109681">
<rect width="22" height="22" fill="white"/>
</clipPath>
</defs>
</svg>
