<svg width="22" height="22" viewBox="0 0 22 22" fill="none" xmlns="http://www.w3.org/2000/svg">
<g clip-path="url(#clip0_48948_109675)">
<path d="M21.6632 13.663C20.1961 19.562 14.2207 23.138 8.33701 21.6709C2.45332 20.2038 -1.13802 14.2284 0.329085 8.34474C1.79619 2.44577 7.77157 -1.13029 13.6553 0.336814C19.5542 1.78863 23.1303 7.76401 21.6632 13.663Z" fill="#F7931A"/>
<path d="M15.8404 9.43639C16.0544 7.96929 14.9388 7.18989 13.4258 6.65501L13.9149 4.66831L12.7076 4.36266L12.2338 6.28823C11.9129 6.21182 11.592 6.13541 11.271 6.059L11.7601 4.11815L10.5528 3.8125L10.0637 5.7992C9.80394 5.73807 9.54414 5.67694 9.29962 5.61581L7.63385 5.20319L7.31292 6.4869C7.31292 6.4869 8.21458 6.68557 8.18401 6.70086C8.67305 6.82311 8.76474 7.14404 8.74946 7.40384L8.18401 9.66562C8.21458 9.6809 8.26043 9.6809 8.30627 9.71147C8.26043 9.69619 8.22986 9.69619 8.18401 9.6809L7.38933 12.8443C7.3282 12.9972 7.17538 13.2111 6.83917 13.1347C6.85445 13.15 5.96808 12.9208 5.96808 12.9208L5.37207 14.2962L6.94615 14.6935C7.23651 14.7699 7.52687 14.8463 7.80196 14.9227L7.29764 16.9247L8.50494 17.2304L8.99398 15.2437C9.33019 15.3354 9.63583 15.4118 9.95676 15.4882L9.46773 17.4596L10.675 17.7652L11.1793 15.7633C13.2425 16.1453 14.786 15.9925 15.4431 14.1281C15.9627 12.6304 15.4125 11.7593 14.3275 11.1939C15.0916 11.0257 15.6876 10.5061 15.8404 9.43639ZM13.0896 13.3028C12.7229 14.8005 10.186 13.9905 9.37603 13.7918L10.0332 11.1327C10.8584 11.3314 13.4717 11.744 13.0896 13.3028ZM13.4564 9.4211C13.1202 10.7812 11.0112 10.0935 10.3388 9.92542L10.9348 7.51082C11.6225 7.67892 13.8232 7.99985 13.4564 9.4211Z" fill="white"/>
</g>
<defs>
<clipPath id="clip0_48948_109675">
<rect width="22" height="22" fill="white"/>
</clipPath>
</defs>
</svg>
