<svg width="21" height="24" viewBox="0 0 21 24" fill="none" xmlns="http://www.w3.org/2000/svg">
<g clip-path="url(#clip0_48948_109734)">
<path d="M6.2816 5.51562H13.884L14.8002 9.39092H5.40137L6.2816 5.51562ZM11.7536 12.1396L12.5647 9.9768H7.64466L8.47266 12.1396L8.21925 14.5679H10.0969L11.9887 14.5573L11.7536 12.1396Z" fill="white"/>
<path d="M14.8161 10.7109L12.5911 12.1601V14.7338L10.8892 16.3665V17.1345L12.529 18.6443H13.8998L17.3558 12.6232L14.8161 10.7109ZM7.63442 12.1601L5.38124 10.7286L2.83301 12.6232L6.30666 18.6613H7.69513L9.33489 17.1345V16.3665L7.63371 14.7338L7.63442 12.1601Z" fill="white"/>
<path fill-rule="evenodd" clip-rule="evenodd" d="M0.0261176 6.16097L10.0871 0.351562L20.1741 6.17509V17.8207L10.0892 23.6457L10.0631 23.6316L0 17.8222V6.17509L0.0261176 6.16097ZM10.0871 1.54027L1.03059 6.77086V17.2292L10.0871 22.4584L19.1449 17.2292V6.77156L10.0871 1.54027Z" fill="white"/>
</g>
<defs>
<clipPath id="clip0_48948_109734">
<rect width="20.4706" height="24" fill="white"/>
</clipPath>
</defs>
</svg>
