<svg width="25" height="19" viewBox="0 0 25 19" fill="none" xmlns="http://www.w3.org/2000/svg">
<path fill-rule="evenodd" clip-rule="evenodd" d="M15.3221 0H6.80382L6.09787 3.94583L13.7846 3.95509C17.5702 3.95509 18.6897 5.32941 18.6578 7.61104C18.6413 8.7799 18.1346 10.7556 17.9158 11.3962C17.3324 13.1036 16.1341 15.0521 11.6409 15.0444L4.16898 15.0413L3.46148 18.9887H11.9607C14.9586 18.9887 16.2346 18.6401 17.5836 18.016C20.5769 16.6339 22.358 13.6799 23.0711 9.82468C24.1339 4.08382 22.8106 0 15.3221 0ZM0.375343 9.81028C0.586798 8.92883 0.926725 7.51187 3.12916 7.51187H11.8509C11.8509 7.51187 11.7603 7.97788 11.4837 9.12877C11.481 9.14002 11.4783 9.15142 11.4755 9.1629C11.2641 10.0444 10.9241 11.4613 8.72173 11.4613H0C0 11.4613 0.0906256 10.9953 0.367137 9.84449C0.369853 9.83316 0.372587 9.82176 0.375343 9.81028Z" fill="#008DE4"/>
</svg>
