<svg width="22" height="22" viewBox="0 0 22 22" fill="none" xmlns="http://www.w3.org/2000/svg">
<g clip-path="url(#clip0_48948_109743)">
<path d="M11 22C17.0751 22 22 17.0751 22 11C22 4.92487 17.0751 0 11 0C4.92487 0 0 4.92487 0 11C0 17.0751 4.92487 22 11 22Z" fill="#988430"/>
<path d="M11.0002 21.6469C16.8807 21.6469 21.6478 16.8797 21.6478 10.9992C21.6478 5.11868 16.8807 0.351562 11.0002 0.351562C5.11965 0.351562 0.352539 5.11868 0.352539 10.9992C0.352539 16.8797 5.11965 21.6469 11.0002 21.6469Z" fill="#7A6A2A"/>
<path d="M10.9995 21.4247C16.7561 21.4247 21.4228 16.7581 21.4228 11.0014C21.4228 5.2448 16.7561 0.578125 10.9995 0.578125C5.24285 0.578125 0.576172 5.2448 0.576172 11.0014C0.576172 16.7581 5.24285 21.4247 10.9995 21.4247Z" fill="#BA9F33"/>
<path fill-rule="evenodd" clip-rule="evenodd" d="M4.80878 9.81786C4.74648 9.76095 4.68065 9.70393 4.62011 9.64702C4.55956 9.59011 4.49738 9.53309 4.43507 9.47618L4.24992 9.30018C4.21965 9.26991 4.18762 9.24328 4.15734 9.21289C4.12707 9.18625 4.09152 9.15598 4.06125 9.12923C3.81555 8.89609 3.56845 8.66295 3.32616 8.42969C3.57713 8.65931 3.82283 8.88729 4.0738 9.12031L4.16098 9.20761C4.19125 9.23776 4.22329 9.26451 4.25356 9.29479L4.43859 9.46562C4.5009 9.52253 4.56144 9.57955 4.62374 9.64162C4.68605 9.70369 4.74659 9.76083 4.8089 9.81762L4.80878 9.81786ZM1.54797 9.78266C1.54797 9.78266 2.44146 9.87512 2.87759 9.93742C3.28157 9.99444 4.54537 10.1884 4.54537 10.1884L1.54797 9.78266ZM1.54797 9.78266C1.79894 9.80401 2.04992 9.83065 2.3009 9.8574C2.42902 9.86984 2.55187 9.88403 2.67472 9.89647L2.86328 9.91794C2.92558 9.92674 2.98612 9.93566 3.04843 9.94458L3.79608 10.0638L4.16978 10.1261C4.29263 10.1474 4.41548 10.1707 4.54361 10.192C4.42076 10.1796 4.29263 10.1618 4.16978 10.1439L3.79608 10.0905L3.04843 9.98025C2.98612 9.97133 2.92558 9.95878 2.86328 9.94998L2.6746 9.92827C2.55176 9.91583 2.42363 9.898 2.30078 9.88368C2.0498 9.85353 1.79883 9.82138 1.54785 9.78231L1.54797 9.78266ZM4.45643 10.4212C4.45643 10.4212 3.50239 10.6634 3.18019 10.7559C2.86339 10.8431 1.90396 11.135 1.90396 11.135L4.45631 10.4213L4.45643 10.4212Z" fill="#CFB66C"/>
<path fill-rule="evenodd" clip-rule="evenodd" d="M4.45633 10.4297C4.24454 10.492 4.03393 10.5525 3.81909 10.6096L3.18185 10.7804C2.97007 10.8427 2.75945 10.9032 2.54825 10.9655L2.23145 11.0527C2.12644 11.083 2.01967 11.1096 1.91113 11.14C2.01603 11.1048 2.12292 11.0688 2.22793 11.0385L2.54473 10.9372C2.75652 10.8712 2.96713 10.8089 3.17833 10.7431C3.39364 10.6897 3.60554 10.6327 3.82085 10.581C4.02548 10.5294 4.2409 10.4779 4.45633 10.4298V10.4297ZM2.0375 11.7309C2.1424 11.6917 3.35281 11.1276 3.63406 10.9958C3.77486 10.9299 4.18411 10.7846 4.18411 10.7846L2.0375 11.7309Z" fill="#CFB66C"/>
<path fill-rule="evenodd" clip-rule="evenodd" d="M2.0382 11.7253C2.13066 11.6901 2.21796 11.647 2.3069 11.6061L2.57031 11.4832L3.09901 11.2287C3.27501 11.1451 3.44609 11.0527 3.6276 10.9741C3.72018 10.935 3.81275 10.903 3.90521 10.8727L4.04601 10.8283C4.094 10.8158 4.13859 10.8015 4.18681 10.7891C4.01081 10.8727 3.82554 10.9439 3.64931 11.0257C3.47331 11.113 3.29332 11.1842 3.11169 11.2625L2.57418 11.4992C2.39372 11.5723 2.21772 11.6505 2.03809 11.7253H2.0382ZM2.15554 12.2181C2.15554 12.2181 3.2519 11.5755 3.62924 11.369C3.82683 11.2587 4.46583 10.9418 4.46583 10.9418L2.15554 12.2181Z" fill="#CFB66C"/>
<path fill-rule="evenodd" clip-rule="evenodd" d="M2.15527 12.2251C2.34031 12.1111 2.52898 11.9954 2.71765 11.878L2.99925 11.707C3.09535 11.6501 3.18792 11.5967 3.2859 11.5398C3.38199 11.4828 3.47457 11.4259 3.57243 11.3725C3.61901 11.3438 3.66782 11.3188 3.71839 11.2978L3.86787 11.223C4.06546 11.1269 4.26305 11.029 4.47132 10.9453C4.28264 11.0646 4.08857 11.1661 3.89462 11.271C3.79853 11.3244 3.70055 11.3725 3.60446 11.4259C3.50836 11.4793 3.41579 11.5363 3.31781 11.5879C3.22172 11.6449 3.12914 11.6982 3.03128 11.7499L2.74112 11.9083L2.15551 12.2251H2.15527ZM4.45665 11.0894C4.45665 11.0894 3.77494 11.6127 3.55424 11.78C3.33353 11.9473 2.68386 12.4173 2.68386 12.4173L4.45665 11.0894Z" fill="#CFB66C"/>
<path fill-rule="evenodd" clip-rule="evenodd" d="M8.36934 15.3128L8.02051 14.6525L8.22338 13.8266L9.67045 13.2677L9.05457 12.004L9.35893 10.7278L9.93034 9.58497L11.6961 9.30736L12.9936 8.07031L15.7952 8.2821L16.3452 11.2777L15.2861 15.0494L14.6828 17.0021L12.2371 17.0947L11.1016 16.3079L9.77194 15.7525L8.36934 15.3128Z" fill="#E2CC85"/>
<path fill-rule="evenodd" clip-rule="evenodd" d="M12.6595 15.2861C12.6595 15.2861 12.3212 15.441 11.7443 15.4053C11.5773 15.1811 10.408 15.076 10.408 15.076C10.408 15.076 10.262 15.0316 10.0039 15.1383C9.74411 15.2439 9.49842 15.2309 9.2688 15.2878C9.03917 15.3447 8.8112 15.0458 8.6352 14.9835C8.4592 14.9176 8.22582 14.7592 8.22582 14.7592L7.73302 14.7111L6.74343 14.2928L5.17128 12.7266L4.74407 13.3954L4.6123 14.223L5.08762 15.2038L6.36738 16.3696L8.86282 17.0032L10.3419 16.5675L12.1949 15.7843L12.6595 15.286V15.2861Z" fill="#F1D789"/>
<path fill-rule="evenodd" clip-rule="evenodd" d="M3.79356 9.75064L4.11036 8.79133L4.48782 8.17181L5.70339 8.07031L5.33849 9.13476L4.32226 10.9432L4.74408 12.5576L3.99655 12.9313L3.76681 12.579L3.58177 11.7709L3.56934 10.8631L3.79356 9.75064Z" fill="#F4ECB4"/>
<path fill-rule="evenodd" clip-rule="evenodd" d="M5.15702 15.2228L4.92388 14.8971C4.92388 14.8971 4.86157 14.7422 4.89724 14.607C4.93244 14.4699 4.9274 14.461 4.90968 14.4094C4.89196 14.3577 4.74236 14.1798 4.75128 14.0266C4.76008 13.8718 4.73884 13.8201 4.85266 13.6974C4.97187 13.5782 4.93631 13.3717 4.93631 13.3717L5.09119 13.4678L5.12639 13.4144C5.12639 13.4144 5.1833 13.4589 5.1833 13.5283C5.19574 13.4322 5.14411 12.9872 5.26156 12.8858C5.37901 12.7844 5.58728 13.361 5.58728 13.361L5.45915 12.5244L5.1298 11.6666L4.54419 10.8834L4.50899 10.0201V9.94531C4.50899 9.94531 4.24017 10.3583 4.16543 10.6845C4.11205 10.9087 4.24018 11.1811 4.21354 11.5033C4.19207 11.8237 4.16543 11.7987 4.2437 11.9257C4.32196 12.0526 4.51251 12.3137 4.43776 12.5024C4.37194 12.6644 4.1476 12.5505 4.1476 12.5505C4.1476 12.5505 4.10313 12.6821 4.04259 12.7302C4.02123 12.652 3.99812 12.6021 3.95541 12.5542C3.95177 12.5845 3.94297 12.6254 3.94297 12.6254C3.94297 12.6254 3.90378 12.5026 3.86459 12.3477C3.81132 12.1413 3.7543 11.869 3.70267 11.723C3.68132 11.8067 3.62793 12.0612 3.62793 12.0612L3.6582 12.4528L3.80416 12.9903L3.94496 13.3423L4.08201 13.7731L4.2011 14.0624L4.2972 14.2831L4.38086 14.7798L4.78484 15.2069L5.00026 15.3031L5.15678 15.223L5.15702 15.2228Z" fill="#F3E19D"/>
<path fill-rule="evenodd" clip-rule="evenodd" d="M4.00474 8.96983C4.00474 8.96983 3.71458 9.46263 3.63103 9.95941C3.54749 10.4562 3.47263 10.9812 3.52543 11.6575C3.57882 12.3393 3.68031 12.7575 3.76221 13.0565C3.90301 13.5532 4.26768 14.2438 4.26768 14.2438L4.28012 14.2171C4.21882 14.1009 4.1699 13.9786 4.13416 13.8522C4.08605 13.6635 4.06822 13.4393 4.02375 13.3378C3.98456 13.2364 3.91874 13.1491 3.8867 13.0245C3.85643 12.9053 3.8515 12.7166 3.75857 12.5761C3.71939 12.519 3.67128 12.3696 3.65708 12.2201C3.63925 11.9957 3.666 11.7448 3.64464 11.5384C3.60546 11.1948 3.57882 10.9617 3.61437 10.7818C3.64992 10.6019 3.83519 10.0913 3.94912 9.68544C4.02387 9.42555 3.97928 9.2066 4.11632 8.9805C4.25337 8.75628 4.33715 8.55869 4.3673 8.42164C4.4025 8.29704 4.00427 8.96983 4.00427 8.96983H4.00474Z" fill="#F2E8B0"/>
<path fill-rule="evenodd" clip-rule="evenodd" d="M5.38076 8.77344C5.38076 8.77344 5.23128 8.81802 5.16006 8.89629C5.08883 8.97103 5.05856 9.03333 4.96247 9.1597C4.86637 9.28607 4.86097 9.38932 4.78259 9.54772C4.70433 9.7026 4.53162 9.93574 4.51026 10.0194C4.48891 10.1031 4.45336 10.4946 4.40889 10.6798C4.3697 10.8649 4.45336 11.0928 4.45336 11.0928L4.55473 11.0713C4.55473 11.0713 4.55473 11.2031 4.65623 11.2921C4.7576 11.3793 4.77544 10.9966 4.77544 10.9966L5.15454 9.7168L5.72584 9.32878L5.78814 9.0155L5.38052 8.77344H5.38076Z" fill="#F5EEC0"/>
<path fill-rule="evenodd" clip-rule="evenodd" d="M5.65786 9.34867C5.65786 9.34867 5.38905 9.36638 5.2574 9.4626C5.20401 9.50167 5.18266 9.5337 5.12575 9.58181C5.02074 9.66899 4.91385 9.74913 4.86234 9.86341C4.80532 9.97722 4.74301 10.1499 4.7003 10.4757C4.68247 10.6127 4.68247 10.7391 4.67003 10.8495C4.6522 10.999 4.62556 11.1182 4.63976 11.2015C4.65759 11.3723 4.83383 11.4614 4.85096 11.6553L5.21586 11.4703L5.55942 10.1157L6.28923 9.65808L5.87622 9.19531L5.65739 9.34785L5.65786 9.34867Z" fill="#E6DB9D"/>
<path fill-rule="evenodd" clip-rule="evenodd" d="M3.73352 18.471C3.73504 18.4576 3.73657 18.4443 3.73809 18.4305C3.79136 17.9729 3.8004 17.6261 3.83947 17.4089C3.89637 17.101 3.93556 16.9865 3.92665 16.8713C3.91421 16.6863 3.90001 16.551 3.91785 16.4085C3.94448 16.2199 4.12963 15.9956 4.12435 15.8408C4.12072 15.7179 4.05841 15.6379 4.00503 15.5631C3.95164 15.4884 3.90893 15.4261 3.90893 15.4261C3.90893 15.4261 4.27384 15.1751 4.27032 14.1641C4.27777 14.1662 4.28494 14.1692 4.29167 14.173L4.47142 14.6837L4.59427 14.8332L5.06595 15.7125L5.67292 16.3018L6.56993 16.9051L7.13243 17.5172L7.18933 19.1494L6.45424 20.1035L6.33386 20.3215C5.37744 19.8413 4.5004 19.2172 3.7334 18.4709L3.73352 18.471Z" fill="#E5CB7A"/>
<path fill-rule="evenodd" clip-rule="evenodd" d="M5.97852 20.0291C5.97852 20.0291 5.99095 19.8262 6.15827 19.6945C6.18502 19.7389 6.20274 19.7818 6.19746 19.8137C6.22773 19.7604 6.43952 19.4186 6.91836 19.3296C7.39719 19.2424 7.51288 18.8935 7.51288 18.8935L8.52911 17.9698L9.69141 16.9L11.1047 16.4034L11.7652 16.2413C11.7652 16.2413 11.7776 16.2894 11.7527 16.3962C11.8755 16.3874 12.1478 16.3251 12.4308 16.2254C12.5447 16.1809 12.6516 16.1631 12.7085 16.2219C12.7922 16.3001 12.8046 16.4853 12.8099 16.5956C12.9469 16.5653 13.1053 16.4336 13.2323 16.4461C13.4353 16.4674 13.615 16.706 13.8215 16.706C14.0939 16.706 14.2166 16.5387 14.4072 16.4069C14.5211 16.3286 14.6848 16.2309 14.7773 16.1648C14.998 16.0028 17.3333 15.2891 17.3333 15.2891L18.1521 15.3424L18.2838 16.2217L18.2134 18.5203C18.2048 18.5286 18.1961 18.5373 18.1873 18.5456L14.4645 20.49L9.30421 21.281C8.14828 21.0922 7.03279 20.7085 6.00527 20.1463L5.97887 20.029L5.97852 20.0291Z" fill="#D8C173"/>
<path fill-rule="evenodd" clip-rule="evenodd" d="M4.0459 18.765C4.11923 18.6116 4.18517 18.4834 4.19679 18.4375C4.20594 18.53 4.22272 18.7328 4.25651 18.9485C4.18556 18.8882 4.11536 18.827 4.0459 18.7649V18.765Z" fill="#F1D789"/>
<path fill-rule="evenodd" clip-rule="evenodd" d="M7.81527 20.9304L8.48267 20.7447L8.53957 20.7626C8.53957 20.7626 8.56985 20.7804 8.56985 20.8408C8.6535 20.7928 8.72473 20.8016 8.77635 20.7697C8.80299 20.8266 8.82962 21.0153 8.94719 21.0384C9.06992 21.0652 9.20168 20.985 9.33521 20.8837C9.46686 20.7786 9.61681 20.6469 9.73027 20.5935C9.7719 20.67 9.80877 20.7491 9.84068 20.8302C9.99017 20.7109 10.2501 20.2268 10.6202 20.2356C10.7272 19.9828 10.906 19.7668 11.1344 19.6145C11.478 19.3813 11.6933 19.3635 11.9621 19.3848C12.0688 19.2462 12.2004 19.1285 12.3501 19.0378C12.3946 19.0556 12.5174 19.1303 12.6705 19.0591C12.8254 18.988 12.9998 18.7121 13.2294 18.6765C13.3531 18.6595 13.4789 18.6859 13.5854 18.7512C13.5854 18.7512 14.2542 18.0873 14.7156 17.8666C14.6978 17.8132 14.6623 17.6121 15.2033 17.167C15.2336 17.1938 15.2122 17.2685 15.2336 17.2726C15.2424 17.2726 15.3744 17.2157 15.5414 17.0875C15.7479 16.9327 15.9953 16.7707 16.1448 16.7262C16.4264 16.6425 16.7251 16.8134 16.7251 16.8134C16.7505 16.7956 16.7788 16.7823 16.8088 16.7742C16.8799 16.7617 16.9315 16.7528 16.9707 16.739C16.9672 16.8316 17.0188 16.99 16.9707 17.127C17.0264 17.1583 17.0854 17.1834 17.1467 17.2017C17.1165 17.2676 17.0506 17.4349 16.9403 17.515C17.0327 17.5595 17.0452 17.6111 17.1769 17.6558C17.1236 17.7306 17.0361 17.8588 16.9972 17.9374C16.958 18.0211 16.8173 18.3682 16.755 18.4998C16.6892 18.6316 16.6003 18.8736 16.5574 18.9222C16.5146 18.9708 16.3598 19.1767 16.2406 19.2781C16.3462 19.2389 16.7783 19.1072 16.9615 19.0574C16.907 19.1374 16.6304 19.5477 16.3645 19.9423C15.0915 20.7053 13.6705 21.1882 12.1962 21.3589C10.7219 21.5296 9.22812 21.3841 7.81445 20.9321L7.81527 20.9304Z" fill="#E0CD81"/>
<path fill-rule="evenodd" clip-rule="evenodd" d="M5.70203 9.30628C5.70203 9.30628 5.54726 9.30628 5.51699 9.32764C5.48672 9.34899 5.67187 9.39358 5.72878 9.41493C5.78569 9.43629 5.90853 9.53414 5.94057 9.61252C5.97084 9.68726 7.053 10.1233 7.053 10.1233L7.81837 10.0841L8.08225 9.71953L7.5803 9.27988L7.9323 8.24219L7.46602 8.31693L6.34466 8.98573L5.78217 9.20115L5.70203 9.30628Z" fill="#DFC57C"/>
<path fill-rule="evenodd" clip-rule="evenodd" d="M7.38223 9.64406C7.39329 9.66198 7.40888 9.67667 7.42741 9.68666C7.44595 9.69664 7.46678 9.70158 7.48783 9.70097C7.64623 9.70097 7.79208 9.74016 7.85262 9.82018C7.95411 9.94843 8.23536 10.3578 8.23536 10.3578L8.90815 10.5999L8.95156 9.80763L8.21647 9.29688L7.37988 9.60476V9.64395H7.38176L7.38223 9.64406Z" fill="#E5CC7C"/>
<path fill-rule="evenodd" clip-rule="evenodd" d="M7.25171 9.93288C7.25171 9.93288 7.37444 9.9418 7.52932 9.88478C7.6842 9.82775 7.9387 9.70502 8.04911 9.75313C8.20387 9.81895 8.17184 10.0255 8.33928 10.2107C8.44065 10.3247 8.62581 10.3211 8.73082 10.444C8.83583 10.5668 9.1971 10.5098 9.1971 10.5098L9.33415 11.249L8.7842 11.954L8.60433 12.8296H7.86067L7.18131 12.5601L6.84668 11.7505L7.014 10.9317L7.25171 9.93288Z" fill="#D2C281"/>
<path fill-rule="evenodd" clip-rule="evenodd" d="M8.69038 9.97539C8.70882 9.98108 8.72798 9.98408 8.74728 9.98431C8.72593 10.0021 8.68134 10.0412 8.69918 10.1427C8.71701 10.2442 8.77392 10.3723 8.72593 10.4506C8.76424 10.4925 8.79281 10.5423 8.80959 10.5966C8.83986 10.6839 8.84878 10.7639 9.04625 10.7764C9.01775 10.794 8.99147 10.8149 8.96799 10.8387C8.96799 10.8387 9.10503 10.9579 9.17449 11.0682C9.2456 11.0652 9.43427 11.0065 9.43427 11.0065L9.47346 11.0333L9.55712 10.9981C9.55712 10.9981 9.47886 10.9678 9.53576 10.7774C9.58915 10.61 9.63726 10.619 9.64136 10.6065C9.64547 10.5941 9.68055 10.4179 9.68055 10.3466C9.70719 10.2542 9.72854 9.97293 9.72854 9.97293L9.67163 9.35176L9.35131 9.1577L9.09083 8.90625L8.84514 9.36901L8.68334 9.53035L8.6709 9.9308L8.69038 9.97539Z" fill="#E2C270"/>
<path fill-rule="evenodd" clip-rule="evenodd" d="M9.45996 9.45509C9.45996 9.45509 9.51687 9.61701 9.53834 9.74161C9.54591 9.71739 9.55009 9.69224 9.55078 9.66687C9.55078 9.66687 9.59525 9.91257 9.60405 10.0141C9.62188 10.0104 9.63925 10.0051 9.64324 10.0229C9.64722 10.0406 9.68782 10.2383 9.67844 10.3486C9.75256 10.2263 9.85512 10.1237 9.9774 10.0496C10.0486 10.005 10.1323 9.95704 10.2196 9.9534C10.3566 9.94988 10.4562 10.0407 10.62 10.0407C11.0151 10.0407 11.373 9.75053 11.6364 9.66159C11.8303 9.59565 11.9976 9.54766 12.1151 9.44077C12.1721 9.39278 12.2736 9.28601 12.3661 9.12749C12.4889 8.91629 12.617 8.73243 12.7453 8.70932C12.6873 8.71998 12.6282 8.72415 12.5693 8.72175C12.5693 8.72175 12.6085 8.68256 12.6749 8.62918C12.7413 8.57579 12.8209 8.50997 12.9347 8.50997C13.1377 8.50997 13.239 8.54012 13.353 8.54012C13.4669 8.5366 13.5327 8.50997 13.5327 8.50997C13.5327 8.50997 13.652 8.59362 13.9207 8.59362C14.1895 8.59714 14.3693 8.62026 14.51 8.63281C14.6507 8.64537 15.1222 8.59362 15.2575 8.59761C15.3457 8.60101 15.4323 8.6222 15.5121 8.65992L15.076 7.39272L13.5094 6.02344L12.5767 6.68379L11.1419 8.11842L9.75365 8.63281L9.46348 8.95853V9.45509H9.45996Z" fill="#CCB360"/>
<path fill-rule="evenodd" clip-rule="evenodd" d="M12.5749 8.72633C12.5749 8.72633 12.6141 8.68726 12.6798 8.63387C12.7455 8.58049 12.8259 8.51454 12.9397 8.51454C13.1426 8.51454 13.2441 8.54482 13.358 8.54482C13.4719 8.5413 13.5378 8.51454 13.5378 8.51454C13.5378 8.51454 13.6572 8.59809 13.9258 8.59809C14.1946 8.60161 14.3744 8.62472 14.515 8.63716C14.6557 8.64959 15.1273 8.59809 15.2626 8.60196C15.3507 8.60528 15.4373 8.62647 15.5171 8.66426L15.3195 8.09285L15.09 7.65684L14.4349 6.93946C14.4349 6.93946 13.6488 6.4767 13.6428 6.47318C13.6393 6.46966 13.3705 6.39844 13.3705 6.39844L12.6585 6.82917L12.0124 8.50058L12 8.85258L12.4182 9.05017C12.5232 8.87417 12.639 8.73337 12.7475 8.71554C12.6496 8.72621 12.5748 8.72621 12.5748 8.72621L12.5749 8.72633Z" fill="#D5B457"/>
<path fill-rule="evenodd" clip-rule="evenodd" d="M12.5667 8.84902C12.5044 8.85254 12.4529 8.8401 12.4385 8.79563C12.3852 8.64615 12.3424 8.62479 12.2977 8.62479C12.253 8.62479 12.1927 8.72089 12.1569 8.72969C12.1212 8.73849 12.0787 8.6194 12.0787 8.6194L12.0395 8.60156C12.0395 8.60156 11.8099 8.75105 11.6479 8.92728C11.486 9.10351 11.2207 9.4026 11.1015 9.45587C10.9823 9.50914 10.5728 9.52709 10.4327 9.55736C10.2926 9.58763 10.1373 9.68912 10.1159 9.71224C10.0946 9.73535 10.1783 9.76023 10.1908 9.78334C10.2032 9.8047 10.0536 9.79578 10.0412 9.81854C10.0324 9.83638 10.0764 9.93775 10.0982 9.98938C10.1364 9.97039 10.1783 9.96006 10.2209 9.95911C10.358 9.95559 10.4577 10.0464 10.6214 10.0464C11.0166 10.0464 11.3743 9.75624 11.6377 9.66718C11.8318 9.60136 11.9991 9.55325 12.1166 9.44648C12.1735 9.39849 12.275 9.2916 12.3676 9.1332C12.4351 9.02467 12.5011 8.92317 12.567 8.84843L12.5667 8.84902Z" fill="#D2B257"/>
<path fill-rule="evenodd" clip-rule="evenodd" d="M6.89875 17.6595C6.89875 17.6595 6.86355 17.5277 6.53736 17.1878C6.44478 17.0917 6.38788 17.0118 6.32557 16.9546C6.17069 16.8086 6.07988 16.7695 5.96958 16.6858C5.72752 16.5061 5.46411 16.5061 5.26124 16.2854C5.05837 16.0647 4.82195 15.643 4.65768 15.212C4.49576 14.7813 4.45117 14.6442 4.45117 14.6318C4.45117 14.6194 4.49576 14.5357 4.55267 14.5481C4.60957 14.5606 4.60957 14.6709 4.62389 14.6976C4.65224 14.7413 4.6844 14.7823 4.71998 14.8203C4.80364 14.9166 4.92285 15.0315 4.9834 15.2031C4.97096 15.0571 4.92109 14.8952 4.92109 14.8952C4.92109 14.8952 5.23437 15.0928 5.50131 15.2992C5.77012 15.5057 5.88041 15.5769 5.95891 15.7086C6.0374 15.8402 6.22232 16.1874 6.31091 16.2889C6.39949 16.3904 7.61331 16.773 7.61331 16.773L8.1907 17.2035L8.47735 17.8318L8.25301 18.1838L7.82228 18.2764L7.12274 17.9631L6.89875 17.6593V17.6595Z" fill="#D2B159"/>
<path fill-rule="evenodd" clip-rule="evenodd" d="M5.3457 15.4915C5.3457 15.4915 5.49167 15.7247 5.84766 15.9454C6.16809 16.1395 6.67532 16.3157 7.12753 16.4207C7.3873 16.483 7.6472 16.531 7.88034 16.5346C8.50866 16.5434 8.94115 16.3638 9.47701 16.305C9.76718 16.2747 10.1232 16.2516 10.4934 16.1642C10.9686 16.0503 11.2498 15.922 11.6325 15.7418C11.9102 15.6137 12.1648 15.5176 12.3712 15.3947C12.6613 15.2239 12.8731 15.0335 13.1188 14.9766C13.0885 15.0602 13.0565 15.2097 12.8144 15.3646C12.9426 15.3609 13.1188 15.3521 13.1188 15.3521C13.1188 15.3521 12.948 15.4535 12.6471 15.6814C12.462 15.8222 12.2164 16.0605 11.9654 16.2189C11.8034 16.3204 11.6271 16.3949 11.5115 16.4557C11.2299 16.6105 11.1163 16.6888 10.9312 16.8781C10.9971 16.8745 11.0025 16.8781 11.0025 16.8781C11.0025 16.8781 10.7692 16.9083 10.602 16.9973C10.5668 16.9973 10.5058 16.9848 10.399 17.0151C10.3154 17.0417 10.2049 17.1024 10.0911 17.1343C9.92909 17.1824 9.87583 17.1611 9.87583 17.1611L9.90246 17.2145C9.90246 17.2145 9.69126 17.2108 9.62086 17.218C9.6333 17.2215 9.62978 17.2269 9.62978 17.2269C9.61741 17.229 9.6055 17.2332 9.59458 17.2393C9.5607 17.2613 9.52344 17.2775 9.48428 17.2873C9.46293 17.2908 9.4451 17.2908 9.41834 17.2962C9.42726 17.3176 9.49672 17.437 9.52875 17.5074C9.50212 17.5253 9.10154 17.8279 9.10154 17.8279C9.11397 17.8474 9.12412 17.8683 9.13181 17.8902C9.14425 17.9293 9.14965 17.9863 9.16209 18.0129C9.19224 18.0663 9.21008 18.0752 9.21008 18.0752C9.21008 18.0752 9.16209 18.0841 9.07831 18.1055C9.00721 18.1233 8.91991 18.1535 8.79671 18.1713C8.75891 18.1762 8.72088 18.1792 8.68278 18.1802C8.70062 18.2194 8.77888 18.3689 8.63467 18.5415C8.49047 18.7141 8.446 18.7392 8.40153 18.8495C8.37915 18.8326 8.35532 18.8177 8.33031 18.8049C8.28232 18.7836 8.21638 18.7516 8.19327 18.7088C8.17979 18.7659 8.16194 18.8218 8.13988 18.8761C8.09541 18.9953 8.02959 19.1129 8.01715 19.2019C7.96904 19.1485 7.8801 19.0435 7.75726 19.0648C7.63441 19.0862 7.53655 19.2535 7.5152 19.3016C7.5152 19.2713 7.49384 19.2482 7.48856 19.2838C7.48492 19.3229 7.41734 19.7322 7.04 20.0633C7.03648 19.9797 7.03648 19.7945 7.02756 19.7341C6.99236 19.7693 6.9493 19.8213 6.69292 19.9317C6.44195 20.042 6.48172 20.1524 6.48172 20.1524C6.48172 20.1524 6.46037 19.9764 6.59566 19.791C6.7327 19.6059 6.81636 19.5187 6.81636 19.5045C6.81415 19.49 6.80797 19.4764 6.79852 19.4653C6.78069 19.4474 6.74514 19.4261 6.74514 19.4119C6.76649 19.4031 6.97828 19.3016 6.96584 19.0914C6.9534 18.9029 6.87338 18.8049 6.81636 18.7356C6.80756 18.7267 6.90014 18.6608 6.88758 18.6395C6.87866 18.627 6.76485 18.5433 6.75054 18.4987C6.7539 18.4721 6.75987 18.4459 6.76837 18.4204C6.78081 18.3812 6.78972 18.3545 6.7862 18.3278C6.77729 18.2834 6.72918 18.1605 6.71498 18.1481C6.72742 18.1516 6.81636 18.1481 6.81636 18.1481C6.81636 18.1481 6.74526 18.0342 6.7327 17.9808C6.72015 17.9274 6.69351 17.7867 6.67931 17.7601C6.70959 17.7636 6.78433 17.7689 6.78433 17.7601C6.78796 17.7333 6.7185 17.6888 6.74913 17.6545C6.77048 17.658 6.81143 17.6758 6.8505 17.7257C6.82915 17.6687 6.7936 17.5584 6.71874 17.5139C6.75394 17.5015 6.87362 17.4693 6.97863 17.5316C7.08364 17.5939 7.11943 17.6811 7.11943 17.6811C7.11943 17.6811 7.18173 17.7292 7.27795 17.8004C7.38824 17.8876 7.52881 18.0116 7.75315 18.0994C7.80125 18.1261 7.92399 18.1261 8.01304 18.1083C8.05182 18.0991 8.08899 18.0841 8.12334 18.0638C8.13573 18.0565 8.14887 18.0506 8.16252 18.046C8.14339 18.0076 8.12139 17.9707 8.0967 17.9356C8.12697 17.9356 8.16252 17.9392 8.16252 17.9392C8.16252 17.9392 8.18388 17.8911 8.08778 17.7984C8.10914 17.7771 8.13589 17.7632 8.13589 17.7272C8.10562 17.7237 8.05223 17.6792 8.03979 17.6614C8.05751 17.6489 8.08426 17.608 8.11454 17.5956C8.08778 17.5742 8.02196 17.4851 7.99169 17.4763C8.02061 17.4656 8.04859 17.4525 8.07535 17.4372C8.07535 17.4372 7.92586 17.398 7.87776 17.3659C7.82965 17.3307 7.75855 17.2698 7.71584 17.252C7.67125 17.2342 7.59299 17.2254 7.56096 17.1897C7.59111 17.1986 7.63922 17.1897 7.67489 17.1897C7.70152 17.1897 7.71408 17.1932 7.72288 17.1932C7.71936 17.1808 7.71936 17.154 7.78882 17.1452C7.82223 17.1402 7.85465 17.13 7.88491 17.115C7.88491 17.115 7.81897 17.1114 7.74411 17.0402C7.66926 16.969 7.60707 16.9121 7.56436 16.9032C7.51989 16.8943 7.43623 16.9334 7.3846 16.9298C7.31338 16.921 7.28311 16.8853 7.28311 16.8853C7.28311 16.8853 7.04645 16.9067 6.52138 16.5864C6.06742 16.3086 5.86983 16.0631 5.86983 16.0631C5.82735 16.0477 5.78628 16.0286 5.7471 16.006C5.57626 15.9171 5.33948 15.732 5.34664 15.4898L5.3457 15.4915Z" fill="#C2A44D"/>
<path fill-rule="evenodd" clip-rule="evenodd" d="M11.8936 4.81568C11.9347 4.82905 11.9713 4.85373 11.9992 4.8869C12.0828 4.98299 12.1362 5.16451 11.9458 5.35858C12.0205 5.38521 12.0514 5.39378 12.1166 5.38521C12.0508 5.46359 11.9013 5.63091 11.8924 5.77687C11.8835 5.89608 11.9582 5.93175 11.9582 5.93175C11.9582 5.93175 11.8443 6.0634 11.839 6.28375C11.8928 6.22308 11.9517 6.1671 12.015 6.11643C12.1468 6.01142 12.3283 5.89221 12.4511 5.81747C12.4495 5.84879 12.4537 5.88016 12.4636 5.90993C12.4636 5.90993 12.6931 5.72125 12.886 5.80503C12.9731 5.84422 12.9339 5.96695 12.9339 5.96695C12.9339 5.96695 13.0533 5.92248 13.1369 6.00614C13.2206 6.0898 13.3389 6.30557 13.3995 6.38923C13.4262 6.42842 13.4956 6.50316 13.5667 6.61885C13.6639 6.78083 13.745 6.95189 13.8089 7.12961C13.8124 7.03703 13.8355 6.89295 14.0991 6.98364C14.3625 7.07622 14.6614 7.27029 14.9124 7.65244C15.1634 8.0346 15.2256 8.46603 15.352 8.6303C15.4801 8.7887 15.6118 9.05211 15.6208 9.16252C15.6297 9.27293 15.5816 9.62881 15.845 10.5918C15.9197 10.2928 16.0337 9.62881 16.0337 9.62881L16.096 9.0432L16.1672 7.23122L14.2751 5.6593L12.796 4.58594L11.833 4.67851L11.8934 4.81556L11.8936 4.81568Z" fill="#CAA13E"/>
<path fill-rule="evenodd" clip-rule="evenodd" d="M15.4094 7.50501C15.4094 7.50501 15.3826 7.32901 14.9377 7.02981C14.4926 6.73437 14.1456 6.73437 13.8252 6.48339C13.5795 6.2858 13.3233 5.83184 13.1564 5.68236C12.9944 5.53463 12.9678 5.10742 12.9678 5.10742L13.5142 4.64982L14.3268 3.4752L15.0138 2.71875L15.3431 3.17635L15.8007 3.71385L16.0552 4.7925L16.1477 6.37134L15.4085 7.50513L15.4094 7.50501Z" fill="#B59544"/>
<path fill-rule="evenodd" clip-rule="evenodd" d="M15.9592 9.39402C15.9727 9.15459 15.9431 8.91468 15.8719 8.68568C15.7546 8.32078 15.4982 7.67286 15.3791 7.43022C15.331 7.1614 15.3667 7.14005 15.4183 7.10978C15.47 7.07951 15.664 6.96898 15.7703 6.58119C15.8766 6.1934 16.2065 6.18073 16.2065 6.18073L16.4093 6.03125L16.7173 6.8019L16.986 7.49792L17.0697 8.03014L17.132 8.48399L16.986 9.44342L16.2652 10.0949L15.9591 9.39402H15.9592Z" fill="#C89D3A"/>
<path fill-rule="evenodd" clip-rule="evenodd" d="M5.90137 20.0866V20.0669C5.91635 20.0575 5.92957 20.0456 5.94044 20.0317C5.95288 20.0138 5.96191 19.9925 5.97071 19.9872C5.98855 19.9783 6.0722 19.952 6.11667 19.9604C6.16114 19.9689 6.27871 20.0173 6.34101 20.0138C6.46914 20.0103 6.61863 19.9123 6.8554 19.9569C7.21139 20.0227 7.29505 20.2648 7.50156 20.4019C7.64236 20.4981 7.78809 20.4552 7.80944 20.4552H7.85743C7.86635 20.4552 7.93217 20.3805 7.96784 20.3841C8.03906 20.3877 8.0461 20.4464 8.09057 20.45C8.19559 20.4624 8.39857 20.3966 8.50007 20.4233C8.53016 20.4327 8.55753 20.4493 8.57984 20.4716C8.60215 20.4939 8.61874 20.5212 8.62819 20.5513C8.64955 20.6172 8.63171 20.7008 8.58009 20.7489C8.46979 20.8503 8.36478 20.9465 8.34343 21.0305C8.37059 21.0512 8.39667 21.0733 8.42157 21.0967C7.54089 20.8723 6.69355 20.533 5.90137 20.0876V20.0866Z" fill="#CEB052"/>
<path fill-rule="evenodd" clip-rule="evenodd" d="M15.3779 16.54C15.3779 16.54 15.6555 16.1698 15.7518 15.9864C15.8478 15.7974 15.4474 13.4038 15.4474 13.4038L16.2519 10.7678L16.2305 9.90982C16.2305 9.90982 16.2697 9.11771 16.3622 8.77416C16.4726 8.97174 16.8162 9.21028 16.8909 9.33665C16.9261 9.09448 17.0457 8.58372 17.028 8.03906C17.0938 8.14044 17.2522 9.16042 17.2522 9.16042L17.4106 9.8474L17.6171 10.5772L17.8467 11.348L17.9838 11.8802L18.062 12.0083L18.128 12.2326L18.1903 12.4747L18.37 13.0425L18.4756 13.5088L18.5593 14.3543C18.5775 14.419 18.5906 14.4851 18.5985 14.5519C18.602 14.6445 18.5861 14.6978 18.5861 14.7139C18.5861 14.73 18.6163 14.9168 18.6039 15.0575C18.5861 15.1983 18.5861 15.3084 18.4756 15.4095C18.3652 15.5105 18.2959 16.1143 18.2959 16.1143L18.0983 15.9826C18.0983 15.9826 18.1375 15.8028 18.0449 15.6391C17.9523 15.4754 17.7726 15.4415 17.6711 15.4683C17.5697 15.4896 17.3668 15.5215 17.3009 15.5785C17.2386 15.6355 17.0856 15.8117 16.9449 15.8918C16.7689 15.9974 16.4822 16.0058 16.3292 16.0413C16.1743 16.0765 16.0034 16.1821 15.8236 16.3047C15.6825 16.396 15.5336 16.4746 15.3786 16.5394L15.3779 16.54Z" fill="#CCA847"/>
<path fill-rule="evenodd" clip-rule="evenodd" d="M15.3779 20.4192C15.3779 20.4192 15.3897 20.4268 15.4123 20.4393C16.6769 19.8468 17.8099 19.007 18.7446 17.9694C18.7344 17.6092 18.7211 17.2399 18.7066 17.1031C18.6764 16.813 18.6978 16.5175 18.6888 16.3467C18.6799 16.1758 18.5838 15.4798 18.5394 15.3001C18.4913 15.1203 18.3986 15.0312 18.3845 15.0312C18.372 15.0349 18.2972 15.3695 18.2972 15.4536C18.2972 15.5378 18.2793 15.7403 18.2793 15.7919C18.2669 15.7883 18.2616 15.7567 18.2616 15.7438C18.2438 15.7883 18.2224 15.8667 18.2135 15.8756C18.2046 15.8845 18.226 15.8008 18.2135 15.783C18.2011 15.7652 18.1783 15.7741 18.1833 15.7296C18.1854 15.7032 18.1895 15.6771 18.1957 15.6514C18.1957 15.6514 18.1423 15.7296 18.1032 15.929C18.064 16.1266 18.064 16.132 18.0498 16.1497C18.0374 16.1711 17.9662 16.2422 17.9625 16.269C17.959 16.317 18.0285 16.3651 18.0338 16.3917C18.0373 16.4363 17.9715 16.6427 17.9501 16.7437C17.9288 16.8448 17.9377 17.0427 17.9149 17.1442C17.8971 17.2368 17.8797 17.2902 17.8188 17.3292C17.8633 17.3381 17.906 17.3506 17.906 17.3506C17.906 17.3506 17.9683 17.614 17.8099 17.8383C17.753 17.9166 17.7388 17.9523 17.6782 18.0235C17.5589 18.1551 17.4663 18.3051 17.4574 18.4026C17.4513 18.3738 17.4471 18.3446 17.445 18.3153C17.445 18.3153 17.26 18.5307 17.1816 18.6536C17.0802 18.812 16.9395 18.803 16.9 18.8422C16.8604 18.8814 16.8519 18.9525 16.8648 19.0096C16.8296 19.0184 16.7634 19.0309 16.7188 19.168C16.6975 19.2391 16.6441 19.3088 16.5604 19.3566C16.4768 19.4045 16.3753 19.4189 16.3236 19.4314C16.3681 19.4438 16.3859 19.4438 16.4073 19.458C16.3807 19.5025 16.2578 19.5719 16.1208 19.661C15.9837 19.7446 15.9178 19.8674 15.884 19.9475C15.8488 20.0223 15.7968 20.0704 15.7132 20.0793C15.7484 20.1006 15.8004 20.1504 15.8271 20.1665C15.7879 20.1754 15.7215 20.1754 15.6029 20.2769C15.4782 20.3801 15.4355 20.4104 15.3785 20.4193L15.3779 20.4192Z" fill="#C39D3C"/>
<path fill-rule="evenodd" clip-rule="evenodd" d="M12.902 21.2457C12.9701 21.1979 13.0439 21.1588 13.1217 21.1292C13.3993 21.0189 13.693 20.9975 13.8087 20.962C13.9191 20.9268 14.0063 20.8782 14.1433 20.8516C14.1397 20.8828 14.1367 20.9121 14.1334 20.9398C13.7293 21.0668 13.3179 21.169 12.9014 21.2457H12.902Z" fill="#D2BA6B"/>
<path fill-rule="evenodd" clip-rule="evenodd" d="M18.0222 13.9429C18.0222 13.9429 17.9653 14.2507 17.8638 14.4448C17.7623 14.6389 17.6526 14.9076 17.6526 14.9076C17.6533 14.847 17.6604 14.7867 17.6739 14.7277C17.5458 14.8024 17.2343 14.9823 17.1459 15.0623C17.0623 15.1371 16.9216 15.2688 16.8861 15.3311C16.9697 15.0856 17.0569 14.8649 17.0712 14.7634C16.9431 14.8559 16.3449 15.349 16.0335 15.6747L15.0634 16.4597C14.9514 16.52 14.8362 16.574 14.7181 16.6213C14.5509 16.6924 14.3533 16.753 14.2073 16.81C14.2465 16.705 14.3087 16.6123 14.396 16.5234C14.4886 16.4362 14.7662 16.1353 14.8089 15.9954C14.8481 15.8494 14.857 15.7622 14.8054 15.6394C14.7573 15.6518 14.647 15.6572 14.5722 15.6786C14.4975 15.6999 14.4174 15.7799 14.4174 15.7799C14.4174 15.7799 14.4743 15.4542 14.5971 15.1463C14.5045 15.1499 14.3461 15.1765 14.3461 15.1765C14.3461 15.1765 14.5668 14.8063 14.9445 14.5483C14.8289 14.5729 14.7157 14.608 14.6064 14.6532C14.3857 14.7458 14.1436 14.8828 13.9639 14.9576C14.0652 14.8168 14.7772 13.8006 15.2009 12.8536C15.6233 11.9085 15.7811 11.6665 15.8737 11.1592C15.9217 10.9083 15.9089 10.5374 15.9217 10.2052C15.9341 9.87585 15.9751 9.5804 15.9484 9.38281C16.0587 9.51986 16.4717 9.90612 16.4859 10.7695C16.4984 11.6327 16.0909 12.7986 15.6583 13.4268C15.7639 13.4571 16.0375 13.4928 16.3186 13.0044C16.5998 12.5161 16.5964 12.3797 16.6979 12.1768C16.7103 12.2782 16.7067 12.3138 16.7067 12.3138C16.7067 12.3138 17.1161 11.8172 17.3101 11.1924C17.3493 11.4613 17.465 11.698 17.2833 12.1911C17.1214 12.636 16.9096 12.7446 16.9096 12.7446C16.9096 12.7446 17.0147 12.7268 17.1694 12.6342C17.1962 12.7001 17.1909 12.775 17.2354 12.8016C17.2798 12.8281 17.3404 12.8728 17.3493 12.9155C17.3973 12.8443 17.472 12.7534 17.4952 12.6859C17.4774 12.8267 17.465 13.4423 17.5304 13.7556C17.6676 13.7432 17.8082 13.7342 17.9043 13.4868C17.8384 13.729 17.8384 13.8748 17.8829 14.0813C17.9559 14.0316 18.0217 13.9425 18.0217 13.9425L18.0222 13.9429Z" fill="#C0993A"/>
<path fill-rule="evenodd" clip-rule="evenodd" d="M13.3978 4.13854C13.3978 4.13854 13.2608 4.19545 13.0277 4.19545C12.8248 4.19545 12.8817 4.11719 12.5649 4.11719C12.0773 4.11719 10.3738 4.39879 10.0747 4.3948C9.88067 4.39128 10.7297 4.47846 10.7297 4.47846L12.8995 4.50873L13.3355 4.47353L13.4976 4.14382L13.3978 4.13854Z" fill="#A88F33"/>
<path fill-rule="evenodd" clip-rule="evenodd" d="M7.77096 8.37627C7.77096 8.37627 7.49323 8.58805 7.37578 8.75009C7.25833 8.91213 7.19603 9.01879 7.0625 9.15055C7.09384 9.15175 7.12516 9.14754 7.15508 9.13811C7.15508 9.13811 7.15508 9.17331 7.13372 9.18258C7.15217 9.18052 7.17086 9.18261 7.1884 9.1887C7.20594 9.19479 7.22189 9.20473 7.2351 9.21778C7.19591 9.23914 7.08913 9.34603 7.17279 9.4724C7.2351 9.56849 7.36686 9.57729 7.36686 9.57729C7.36686 9.57729 7.33659 9.66459 7.46296 9.65567C7.73529 9.64323 8.03965 9.52391 8.18022 9.55418C8.32102 9.58938 8.40104 9.60228 8.50065 9.775C8.60625 9.94584 8.69824 9.97259 8.69824 9.97259C8.69824 9.97259 8.76055 9.81407 8.74635 9.57741C8.79744 9.44984 8.82575 9.3143 8.83001 9.17695L8.73743 8.49524L8.33345 7.98438L7.81015 8.27454L7.77096 8.37592V8.37627Z" fill="#E3C571"/>
<path fill-rule="evenodd" clip-rule="evenodd" d="M8.26855 8.27062C8.26855 8.27062 8.30774 8.3632 8.47154 8.372C8.45371 8.41119 8.45371 8.41658 8.4591 8.44674C8.46262 8.47701 8.4679 8.52148 8.4679 8.52148C8.48594 8.51275 8.50224 8.50083 8.51601 8.48628C8.52493 8.52547 8.50709 8.58766 8.51601 8.63224C8.52151 8.65936 8.53046 8.68566 8.54265 8.7105C8.54524 8.70442 8.54822 8.6985 8.55156 8.69279C8.55508 8.68387 8.58676 8.78888 8.67441 8.86879C8.67433 8.8565 8.67736 8.84439 8.68321 8.83359C8.68455 8.85591 8.69194 8.87744 8.70457 8.89589C8.69801 8.89276 8.69202 8.88856 8.68685 8.88345C8.68685 8.88345 8.69565 9.16505 8.74375 9.31066C8.75179 9.30126 8.75894 9.29112 8.76511 9.28039C8.76511 9.27159 8.76159 9.35877 8.75267 9.42119C8.74023 9.4835 8.74915 9.57068 8.74915 9.57068C8.78124 9.54541 8.81651 9.52446 8.85405 9.50837C8.90743 9.4869 8.99485 9.42108 9.04812 9.27511C9.07902 9.19245 9.10285 9.10731 9.11934 9.02062C9.13655 9.05375 9.14843 9.08939 9.15454 9.12622C9.15818 9.17069 9.24183 9.14757 9.24183 9.14757L9.25967 8.9535L9.36527 8.51385L9.46137 8.24152L9.92413 7.52074L10.7602 6.87682L11.4901 7.04414L12.1058 6.20755L11.045 5.57031L10.0411 5.67533L9.13002 6.93725L8.40032 8.08183L8.26855 8.2705V8.27062Z" fill="#D8B65B"/>
<path fill-rule="evenodd" clip-rule="evenodd" d="M13.5248 6.44625C13.5248 6.44625 13.4625 6.45869 13.2827 6.55185C13.103 6.64501 12.9784 6.67458 12.9089 6.81163C12.8395 6.94867 12.8342 7.05732 12.8342 7.05732C12.8342 7.05732 12.957 7.00393 13.0282 6.9861C13.103 6.96838 13.1867 6.97366 13.1777 7.00393C13.1692 7.02469 13.1573 7.04391 13.1425 7.06084C13.1425 7.06084 13.2833 7.05732 13.2796 7.12678C13.2758 7.19624 13.2529 7.27274 13.2263 7.30654C13.1996 7.34174 13.0893 7.39383 13.0768 7.43478C13.0466 7.51844 13.0893 7.52196 13.0732 7.58954C13.0608 7.65549 13.0021 7.78361 12.8098 8.00784C12.6122 8.23218 12.5282 8.39058 12.5282 8.39058C12.5282 8.39058 12.4321 8.21082 12.3822 8.05594C12.347 8.07366 12.158 8.17868 12.158 8.17868L11.7201 6.65334L11.7289 6.55185C11.7289 6.55185 11.7681 6.50386 11.777 6.4148C11.7112 6.39345 11.7023 6.37561 11.615 6.29207C11.5277 6.20853 11.4566 6.10692 11.3107 6.03746C11.2894 5.99827 11.2626 5.945 11.1558 5.92353C11.0491 5.90206 10.985 5.88446 10.985 5.88446C10.985 5.88446 11.0419 5.86298 11.0687 5.81852C11.0027 5.82743 10.9495 5.84879 10.8053 5.84527C10.6593 5.84163 10.6432 5.83635 10.5632 5.84879C10.4832 5.86122 10.3872 5.89689 10.3514 5.77405C10.3122 5.74377 10.2286 5.77053 10.1573 5.87542C10.0861 5.98032 10.0612 6.06409 9.9242 6.10504C9.91456 6.16545 9.89341 6.22345 9.86189 6.27588C9.8227 6.34182 9.7604 6.40765 9.67674 6.5055C9.54497 6.66038 9.56633 6.91488 9.3563 7.10895C9.14452 7.3029 9.3915 6.57133 9.3915 6.57133L9.72966 5.76173L10.6926 4.82013L12.1878 4.71875L12.3338 5.49315L13.0636 5.74413L13.5246 6.44719L13.5248 6.44625Z" fill="#D3AE4D"/>
<path fill-rule="evenodd" clip-rule="evenodd" d="M13.7628 6.62208L13.1345 5.71615L12.6948 5.37788C12.6948 5.37788 12.3815 4.8013 12.3602 4.78347C12.3423 4.77103 12.0469 4.739 11.8582 4.72656L11.8934 4.81374C11.9346 4.82712 11.9712 4.8518 11.999 4.88496C12.0827 4.98106 12.1361 5.16257 11.9456 5.35664C12.0204 5.38328 12.0512 5.39184 12.1165 5.38328C12.0507 5.46166 11.9012 5.62897 11.8923 5.77494C11.8833 5.89415 11.9581 5.9297 11.9581 5.9297C11.9581 5.9297 11.8441 6.06146 11.8389 6.2817C11.8927 6.22102 11.9516 6.16505 12.0149 6.11438C12.1466 6.00878 12.3281 5.89004 12.451 5.8153C12.4493 5.84666 12.4535 5.87806 12.4634 5.90787C12.4634 5.90787 12.6929 5.7192 12.8858 5.80286C12.973 5.84205 12.9338 5.9649 12.9338 5.9649C12.9338 5.9649 13.0531 5.92043 13.1368 6.00409C13.2205 6.08775 13.3397 6.30305 13.4002 6.38683C13.4269 6.42602 13.4963 6.50076 13.5674 6.61633C13.6646 6.77833 13.7457 6.94944 13.8096 7.1272C13.8131 7.05598 13.8274 6.95637 13.9504 6.95637L13.7635 6.62173L13.7628 6.62208Z" fill="#CAA13E"/>
<path fill-rule="evenodd" clip-rule="evenodd" d="M4.34301 9.18888C4.34301 9.18888 4.29854 9.07847 4.34301 8.86317C4.38748 8.64786 4.45694 8.54637 4.48005 8.22957C4.50317 7.91277 4.70967 7.51759 4.70967 7.51759L5.28097 7.25781L5.68506 7.36811L5.80428 7.90925L5.29341 8.19085C5.29341 8.19085 5.26677 8.31006 5.12257 8.40615C4.97837 8.50225 4.77902 8.57699 4.73103 8.67496C4.70234 8.73496 4.6814 8.79836 4.66872 8.86364C4.66872 8.86364 4.52276 8.83336 4.43558 8.92946C4.34301 9.02743 4.34653 9.11461 4.34301 9.18935V9.18888Z" fill="#F4EFC8"/>
<path fill-rule="evenodd" clip-rule="evenodd" d="M5.4966 9.0499C5.4966 9.0499 5.4485 9.08017 5.41294 9.1555C5.37774 9.0986 5.29362 8.76032 5.2901 8.45596C5.28658 8.1516 5.26839 8.07615 5.33879 7.97126C5.40919 7.86636 5.68528 7.75583 5.64609 7.56693C5.6069 7.38717 5.4431 7.31243 5.24199 7.36406C5.10119 7.39926 4.99641 7.69869 4.85045 7.84817C4.74004 7.9621 4.60839 7.94427 4.57284 8.00657C4.52473 8.09023 4.5692 8.17389 4.555 8.22728C4.55137 8.24511 4.5069 8.34121 4.42676 8.4569C4.26484 8.69004 3.99075 9.0194 3.95508 9.31484C3.96752 9.14752 3.95872 9.144 4.00318 8.95885L3.97643 8.91438L4.15243 8.33769L4.26636 7.86249L4.52098 7.06673L4.96942 6.25338L5.40555 5.76562L5.8594 5.7959L5.91278 6.4776L6.17268 7.75748L6.7191 8.43026L5.84332 9.01963L5.49625 9.0499H5.4966Z" fill="#EBCC73"/>
<path fill-rule="evenodd" clip-rule="evenodd" d="M5.76908 9.29603C5.76908 9.29603 5.69433 9.31387 5.66758 9.29967C5.64083 9.28547 5.61431 9.2694 5.62311 9.25156C5.63191 9.23373 5.68002 9.20357 5.68002 9.18926C5.68101 9.17632 5.67692 9.16351 5.66861 9.15355C5.66031 9.14358 5.64845 9.13724 5.63555 9.13587C5.5946 9.13059 5.58216 9.15723 5.58216 9.15723C5.58216 9.15723 5.54297 9.12707 5.51106 9.12203C5.52994 9.11972 5.54894 9.1185 5.56797 9.11839C5.51878 9.09611 5.4666 9.08113 5.41309 9.07392C5.45756 9.04729 5.54485 8.96891 5.60176 8.96891C5.65866 8.96891 5.69433 8.96011 5.68542 8.92983C5.6765 8.89956 5.63203 8.85509 5.58404 8.83726C5.60176 8.8159 5.61431 8.78387 5.5716 8.69646C5.52702 8.60928 5.54485 8.5505 5.55917 8.52926C5.5716 8.50251 5.61607 8.45452 5.63743 8.42425C5.65878 8.39397 5.67662 8.35302 5.71217 8.33167C5.73 8.31923 5.78691 8.29647 5.84393 8.27476C5.90624 8.25341 5.95786 8.22666 5.99342 8.25341C6.03261 8.28004 6.01477 8.31571 6.01477 8.31571C6.01477 8.31571 6.13762 8.27113 6.24791 8.32815C6.35832 8.38142 6.62713 8.41533 6.62713 8.41533L6.72346 8.6094L6.08623 9.15582L5.82281 9.28758L5.76943 9.29638L5.76908 9.29603Z" fill="#E5C66B"/>
<path fill-rule="evenodd" clip-rule="evenodd" d="M6.65273 8.39915C6.65273 8.39915 6.45514 8.53092 6.41067 8.57891C6.43731 8.58254 6.48178 8.60038 6.46394 8.62701C6.44259 8.65365 6.31446 8.74622 6.24324 8.83352C6.1685 8.9207 6.09728 9.03111 6.0724 9.0845C6.04577 9.13249 5.84278 9.27317 5.77344 9.29088C5.9194 9.29088 6.21309 9.11113 6.32338 9.11113C6.31986 9.16452 6.35365 9.22506 6.41595 9.23034C6.47826 9.23562 6.65801 9.26953 6.90007 9.12005C7.14213 8.97408 7.06211 8.86543 7.16349 8.79433C7.35756 8.66608 7.43582 8.55215 7.54259 8.48105C7.64936 8.40995 7.70463 8.39375 7.70463 8.39375C7.70463 8.39375 7.70815 8.34037 7.73983 8.34576C7.7485 8.34676 7.75673 8.3501 7.76364 8.35544C7.77055 8.36078 7.77586 8.3679 7.77902 8.37604C7.77902 8.37604 7.96417 8.24427 8.20142 8.20872C8.19588 8.20625 8.19145 8.20182 8.18898 8.19628C8.18898 8.19628 8.2067 8.18736 8.21033 8.17845C8.21033 8.17845 8.22277 8.16061 8.23169 8.16953C8.24061 8.17845 8.25304 8.24427 8.27088 8.27102C8.31007 8.25319 8.38481 8.08587 8.38481 8.08587L8.56468 7.57148V7.10156L8.42388 7.12831L7.36788 7.57676L6.72701 8.24075L6.65226 8.39915H6.65273Z" fill="#E6BD62"/>
<path fill-rule="evenodd" clip-rule="evenodd" d="M9.69353 6.09603C9.75065 6.08217 9.80541 6.05995 9.85604 6.03008C9.83469 6.08711 9.83469 6.14941 9.74211 6.2847C9.64953 6.41998 9.64601 6.43958 9.57127 6.58014C9.49653 6.72611 9.48761 6.93613 9.41639 7.02859C9.44831 7.01308 9.48256 7.00289 9.51777 6.99844C9.51777 6.99844 9.44666 7.06074 9.41639 7.12656C9.38612 7.19239 9.33273 7.32943 9.20109 7.41321C9.06944 7.49699 8.902 7.55025 8.72225 7.74784C8.54238 7.9418 8.35734 8.18749 8.26465 8.27584C8.31276 8.19219 8.37858 8.02487 8.39641 7.91457C8.41425 7.80428 8.39278 7.6724 8.42305 7.52655C8.45332 7.38071 8.45332 7.27558 8.59905 7.02096C8.74478 6.76635 8.99423 5.88177 8.99423 5.88177L9.53173 5.71094L9.69377 6.09544L9.69353 6.09603Z" fill="#B6933F"/>
<path fill-rule="evenodd" clip-rule="evenodd" d="M9.30525 5.76535C9.30525 5.76535 9.14333 5.99849 9.09886 6.205C9.05439 6.41151 9.09522 6.39367 9.06859 6.49517C9.05266 6.55705 9.05266 6.62196 9.06859 6.68384C9.12467 6.5935 9.20145 6.5178 9.29258 6.46302C9.4457 6.37056 9.57031 6.30462 9.64458 6.22636C9.71932 6.1427 9.78162 6.00565 9.94354 5.90064C9.87772 5.89172 9.78514 5.86145 9.76754 5.86544C9.83348 5.7907 10.031 5.67677 10.2303 5.53972C10.4279 5.39892 10.4155 5.34213 10.7359 5.20157C10.6309 5.2194 10.581 5.19265 10.4937 5.20157C10.5289 5.12683 10.6521 5.09116 10.7753 4.96843C10.8985 4.84569 10.6971 4.66406 10.6971 4.66406L9.75839 5.23184L9.30455 5.76582L9.30525 5.76535Z" fill="#C49937"/>
<path fill-rule="evenodd" clip-rule="evenodd" d="M6.75781 5.34356L6.77917 5.17272L7.04798 4.74199L7.32923 3.98554V2.95137L7.30787 2.35332L7.35234 1.96166L7.38613 1.83717L7.4218 1.78906L7.65131 1.90827L7.96822 2.339L7.99849 3.17031L7.6905 4.4821L6.8112 5.44153L6.75781 5.34356Z" fill="#DFC068"/>
<path fill-rule="evenodd" clip-rule="evenodd" d="M7.4584 1.7466C7.4584 1.7466 7.3176 1.75024 7.28756 2.33585C7.25752 2.92146 7.24297 3.22934 7.22162 3.51951C7.20026 3.80967 7.15051 3.98579 7.12552 4.15674C7.10053 4.3277 7.08633 4.56072 7.00631 4.70316C6.97111 4.76899 6.8959 4.9755 6.71967 5.13038C6.52208 5.30121 6.22687 5.42054 6.18216 5.42946C6.10378 5.44718 5.70685 5.48636 5.54493 5.57542C5.48802 5.60569 5.39005 5.64124 5.28151 5.74274C5.06609 5.93669 4.77956 6.28376 4.57305 6.70205C4.25625 7.32686 3.93945 9.09073 3.93945 9.09073L4.01067 8.97152C4.01067 8.97152 4.01959 8.81312 4.17799 8.53539C4.33287 8.25778 4.2884 7.94626 4.50371 7.41403C4.58737 7.21116 4.69238 6.94775 4.82051 6.72341C5.0235 6.3585 5.26907 6.04522 5.51653 5.87439C5.92051 5.59678 6.36555 5.53623 6.36555 5.53623L6.84439 5.21943C6.84439 5.21943 6.92805 5.05751 7.03846 4.87236C7.19322 4.61258 7.39046 4.32242 7.43352 3.9006C7.49946 3.2758 7.34095 2.86643 7.34986 2.49624C7.35878 2.12606 7.3623 1.85372 7.43716 1.78778C7.51202 1.72184 7.45851 1.74683 7.45851 1.74683L7.4584 1.7466Z" fill="#A88F33"/>
<path fill-rule="evenodd" clip-rule="evenodd" d="M7.45775 4.53277C7.45775 4.53277 7.66895 4.01298 7.76563 3.55198C7.78347 3.4594 7.81902 3.36695 7.82794 3.2922C7.87241 2.85608 7.88485 2.67632 7.82794 2.43778C7.78347 2.26178 7.61263 2.10315 7.52358 1.98018C7.4364 1.85194 7.39545 1.80418 7.41328 1.7772C7.43112 1.75021 7.50046 1.70609 7.56805 1.71137C7.63989 1.71346 7.71055 1.73014 7.77574 1.7604C7.84094 1.79066 7.89929 1.83386 7.94727 1.88737C8.08431 2.04577 8.19285 2.58339 8.19285 2.58339L8.30701 3.29279L8.59718 4.18628L7.45799 4.53347L7.45775 4.53277Z" fill="#C99E3D"/>
<path fill-rule="evenodd" clip-rule="evenodd" d="M9.44322 3.99699C9.44322 3.99699 9.40403 4.01471 9.33293 3.99699C9.33596 4.02605 9.33091 4.05538 9.31835 4.08175C9.30578 4.10813 9.28618 4.13052 9.2617 4.14648C9.18696 4.1162 8.4873 4.17675 8.4873 4.17675C8.4873 4.17675 8.16159 4.11972 8.06009 3.68899C7.98899 3.40235 8.11348 3.00729 8.07253 2.74739C8.01023 2.36465 7.92305 2.28979 7.91413 2.1707C7.90521 2.05161 7.8963 2.02122 7.8963 1.94647C7.85711 1.93756 7.83399 1.92512 7.79492 1.92512C7.786 1.88992 7.80372 1.85918 7.76465 1.79688C7.786 1.80579 7.93197 1.82363 8.1028 1.98555C8.2436 2.11731 8.2436 2.1653 8.26484 2.19205C8.29148 2.21869 8.5069 2.40325 8.59947 2.58723C8.69205 2.77121 8.87181 3.35788 8.91275 3.45397C8.92519 3.49316 8.95194 3.53235 9.01835 3.62129C9.12161 3.74954 9.27285 3.96156 9.44369 3.99676L9.44322 3.99699Z" fill="#B58634"/>
<path fill-rule="evenodd" clip-rule="evenodd" d="M8.28906 2.20312C8.39689 2.37731 8.49376 2.55804 8.57911 2.74427C8.68412 2.98093 8.74643 3.175 8.87819 3.3334C8.80697 3.12701 8.6806 2.72115 8.60586 2.57695C8.5222 2.42442 8.35137 2.26015 8.28906 2.20324V2.20312Z" fill="#A88F33"/>
<path fill-rule="evenodd" clip-rule="evenodd" d="M7.07906 5.12512C7.07906 5.12512 6.89931 5.16959 6.56467 5.34582C6.45426 5.40273 6.34937 5.45072 6.24787 5.4953C5.98422 5.61451 5.70145 5.72469 5.47711 5.78547C5.49494 5.80682 5.50374 5.81562 5.50374 5.81562C5.50374 5.81562 5.50374 5.90292 5.55185 5.95267C5.52522 5.97942 5.16911 6.22148 5.27424 7.03131C5.34534 7.00468 5.429 6.96901 5.44144 6.96901C5.46291 6.97265 5.46819 7.03131 5.49483 7.03131C5.52146 7.03131 5.60876 6.99611 5.70133 6.87643C5.69781 6.92454 5.64443 7.40866 5.93096 7.73438C5.98434 7.67207 6.11963 7.46557 6.11963 7.46557L6.12315 7.39974C6.12315 7.39974 6.13558 7.17012 6.21044 6.96009C6.2853 6.75007 6.43115 6.59519 6.43115 6.59519L7.19276 5.50762L7.07883 5.125L7.07906 5.12512Z" fill="#E6C367"/>
<path fill-rule="evenodd" clip-rule="evenodd" d="M6.36664 6.72294C6.33177 6.74758 6.29336 6.76676 6.25271 6.77984C6.24028 6.73537 6.22244 6.58225 6.32745 6.43277C6.4503 6.2529 6.719 6.01976 6.79374 5.83437C6.84184 5.71504 6.82049 5.41608 7.2477 5.03334C7.67491 4.6506 7.84211 4.51895 7.84211 4.51895L8.53273 4.17188L9.38176 4.50651L8.95995 6.15974L8.63247 6.93414L7.33007 6.68856L6.36653 6.72294H6.36664Z" fill="#DCBA5A"/>
<path fill-rule="evenodd" clip-rule="evenodd" d="M6.86328 6.27236L7.02532 6.06949V5.92529C7.02532 5.92529 7.20507 5.87718 7.39902 5.67959C7.59298 5.482 7.86179 5.1029 8.09857 5.12601C8.33535 5.15276 8.35846 5.6404 8.36738 5.77756C8.37629 5.91473 8.40657 6.22601 8.45456 6.39345C8.50794 6.56076 7.87786 7.19436 7.87786 7.19436L7.44995 7.52008L6.86328 6.27236Z" fill="#E9CE77"/>
<path fill-rule="evenodd" clip-rule="evenodd" d="M7.36523 7.95918C7.36523 7.95918 7.497 7.75268 7.40043 7.70821C7.45734 7.58008 7.56235 7.4448 7.56235 7.4448C7.56235 7.4448 7.6371 7.25976 7.87915 7.0319C8.12121 6.80404 8.27081 6.65268 8.31 6.49968C8.33416 6.39996 8.3473 6.29789 8.34919 6.19531C8.37536 6.21669 8.40335 6.23573 8.43285 6.25222C8.47204 6.27005 8.65707 6.42306 8.63044 6.73106C8.60381 7.03906 8.48964 7.16718 8.48964 7.16718C8.48964 7.16718 8.37935 7.27748 8.30109 7.3345C8.21731 7.39141 8.18715 7.45723 8.04647 7.46263C8.06093 7.45113 8.07718 7.4421 8.09458 7.43588C8.09458 7.43588 7.94862 7.41816 7.87024 7.48926C7.79186 7.56037 7.62525 7.77943 7.54159 7.84537C7.45793 7.89876 7.36559 7.9593 7.36559 7.9593L7.36523 7.95918Z" fill="#CDAE50"/>
<path fill-rule="evenodd" clip-rule="evenodd" d="M13.2835 4.50014C13.0732 4.4235 12.8522 4.38026 12.6285 4.37201C12.2547 4.35957 11.7083 4.38093 11.1725 4.38445C10.5958 4.38797 10.0725 4.18686 9.34635 4.15131C9.22714 4.08008 8.92395 3.76856 7.97754 4.42892C8.03445 4.4254 8.66464 4.28295 8.88347 4.55716C9.10417 4.82949 9.04187 5.29225 9.01172 5.40255C8.95469 5.64824 8.76954 6.00599 8.69492 6.25697C8.62029 6.50795 8.63789 6.63983 8.5845 6.81583C8.53112 6.99183 8.41367 7.07924 8.48301 7.28211C8.57559 7.2252 8.62381 7.2252 8.77846 6.87813C8.9331 6.53106 8.9013 6.2836 9.15768 5.98992C9.40865 5.69447 9.82648 5.29038 9.98535 5.18888C10.1442 5.08739 11.4057 4.43244 12.7265 5.05724C13.045 5.02344 13.2836 4.50002 13.2836 4.50002L13.2835 4.50014Z" fill="#D2A83E"/>
<path fill-rule="evenodd" clip-rule="evenodd" d="M8.50987 4.26239C8.50856 4.24902 8.50561 4.23586 8.50107 4.2232C8.48872 4.19717 8.4725 4.17316 8.45296 4.15198C8.45296 4.15198 8.13968 4.09508 7.98128 4.11279C7.70356 4.14307 7.45258 4.48662 7.33513 4.66285C7.21768 4.83909 7.07172 5.1113 6.91332 5.25198C6.91505 5.23828 6.91189 5.2244 6.9044 5.21279C6.9044 5.21279 6.91332 5.22523 6.8956 5.24307C6.87788 5.2609 6.87776 5.2697 6.88668 5.27827L6.91343 5.3049C6.92223 5.3049 7.16793 5.19449 7.50256 4.8825C7.85855 4.55678 8.13088 4.3897 8.27333 4.33244C8.34929 4.30016 8.42869 4.27666 8.50999 4.26239H8.50987Z" fill="#C29637"/>
<path fill-rule="evenodd" clip-rule="evenodd" d="M14.5872 2.92188C14.5872 2.92188 14.5302 2.99298 14.459 3.07136C14.3006 3.23867 14.0941 3.42723 13.9178 3.6213C13.7506 3.80645 13.562 3.95065 13.3501 4.19271C13.1382 4.43477 12.8925 4.70346 12.8303 4.78184C12.7734 4.86022 12.7289 4.98835 12.7289 5.05417C12.6986 5.03282 12.6631 5.0097 12.6631 5.0097C12.6781 5.03765 12.6959 5.06392 12.7165 5.08808C12.7609 5.15039 12.8303 5.22888 12.866 5.27676C12.9097 5.3377 12.9411 5.40662 12.9584 5.47962C12.9798 5.48314 13.1168 5.5099 13.2878 5.22865C13.4587 4.9474 13.6828 4.63952 13.6828 4.63952L14.0388 4.11081L14.2632 3.66237L14.5448 3.16041L14.5876 2.92188H14.5872Z" fill="#AC8132"/>
<path fill-rule="evenodd" clip-rule="evenodd" d="M14.9518 2.55469C14.9518 2.55469 14.7364 2.73069 14.6527 2.83629C14.569 2.94189 14.3711 3.21903 14.3711 3.21903L14.4423 3.21011L14.8037 2.88979L14.9445 2.63882L14.9517 2.55516L14.9518 2.55469Z" fill="#A88F33"/>
<path fill-rule="evenodd" clip-rule="evenodd" d="M14.8857 16.7041C14.8857 16.7041 14.8822 16.5581 14.9641 16.4709C15.0477 16.3836 15.2595 16.2555 15.466 15.7749C15.6725 15.2943 15.6955 15.1858 15.6955 15.1858C15.6955 15.1858 15.3254 15.5026 15.0971 15.5773C15.1505 15.4669 15.1808 15.3886 15.2075 15.3316C15.1773 15.305 15.0492 15.2747 15.0367 15.2605C15.1078 15.1893 15.147 15.0148 15.2912 14.8991C15.4764 14.7583 15.8145 14.5164 16.0773 14.3007C16.3402 14.0851 16.8569 13.5835 16.9228 13.4375C16.962 13.4944 16.9708 13.53 16.9708 13.53C16.9708 13.53 16.7111 13.8682 16.5758 14.0835C16.4564 14.2687 16.4654 14.3737 16.4654 14.3737L16.7111 14.2681C16.7111 14.2681 16.7822 14.5315 16.4601 14.9321C16.6009 14.8787 16.6577 14.9107 16.7377 14.8662C16.6059 14.9499 16.4244 15.0639 16.2536 15.377C16.0863 15.6903 15.8584 16.0552 15.474 16.283C15.1002 16.5232 14.8848 16.703 14.8848 16.703L14.8857 16.7041Z" fill="#A67A2E"/>
<path fill-rule="evenodd" clip-rule="evenodd" d="M13.9208 4.68477C13.9208 4.68477 13.7748 4.98902 13.7534 5.2258C13.7499 5.28282 13.7356 5.32729 13.7356 5.39311C13.7321 5.6049 13.748 5.84168 13.7004 5.95197C13.6826 5.9075 13.6736 5.87723 13.6558 5.85951C13.6292 5.93426 13.5811 6.1674 13.5419 6.25458C13.5242 6.19767 13.485 6.00008 13.4886 5.76694C13.4923 5.5338 13.4974 5.48921 13.4974 5.44122C13.4886 5.51232 13.4405 5.60854 13.4227 5.66545C13.396 5.61746 13.3658 5.55515 13.3301 5.50352C13.3087 5.53872 13.2821 5.5907 13.259 5.61746C13.2554 5.5961 13.2466 5.53908 13.2412 5.45906C13.2376 5.36648 13.2322 5.24727 13.2376 5.22228C13.2464 5.17429 13.3213 4.98562 13.4797 4.8129C13.6684 4.60639 13.8624 4.20957 13.9193 4.08672C13.9763 3.96388 14.2183 3.45312 14.2183 3.45312H14.4035L14.1347 4.06537C14.1347 4.06537 13.9727 4.40001 13.8891 4.52297C13.8054 4.64594 13.6292 4.99829 13.5508 5.13533C13.6077 5.06059 13.6558 5.0214 13.7128 4.95018C13.768 4.90031 13.921 4.68501 13.921 4.68501L13.9208 4.68477Z" fill="#8C6228"/>
<path fill-rule="evenodd" clip-rule="evenodd" d="M14.9552 2.53906C14.925 2.63215 14.8772 2.71858 14.8144 2.79368C14.704 2.92544 14.4672 3.10156 14.3517 3.24212C14.2461 3.37917 14.0348 3.75299 14.1308 4.19616C14.166 4.10006 14.2323 3.90963 14.4086 3.69421C14.5848 3.47878 14.7735 3.23145 14.8662 3.03925C14.9586 2.84519 14.9711 2.69218 14.9711 2.69218L15.0063 2.64771L14.9849 2.54622L14.9546 2.53906H14.9552Z" fill="#CBA94C"/>
<path fill-rule="evenodd" clip-rule="evenodd" d="M18.559 14.3419C18.559 14.3419 18.4878 14.148 18.4664 13.9717C18.4451 13.7955 18.5016 13.7605 18.4362 13.5588C18.397 13.436 18.3259 13.4532 18.308 13.436C18.2902 13.4187 18.2778 13.2331 18.2813 13.1316C18.2848 13.0301 18.2778 12.8985 18.2599 12.8414C18.2333 12.8201 18.2155 12.8023 18.1763 12.6706C18.1318 12.5388 18.1104 12.473 18.0891 12.434C18.0677 12.3949 18.0053 12.3592 18.0053 12.32C18.0053 12.2416 18.0765 12.2008 18.0765 12.1792C18.073 12.1347 18.0196 12.1704 18.0053 12.1579C17.9876 12.1365 18.0499 12.0084 18.0268 11.9905C18.0179 11.9817 17.9556 12.0565 17.9395 12.0351C17.9217 12.0137 17.9003 11.8019 17.8683 11.6613C17.8381 11.5243 17.806 11.4246 17.8024 11.3837C17.7989 11.3445 17.5567 10.6539 17.4981 10.4866C17.4508 10.3452 17.411 10.2014 17.3789 10.0558C17.361 9.97218 17.3486 9.80122 17.3397 9.81906C17.3308 9.83689 17.3362 9.92407 17.3218 9.92055C17.3094 9.91691 17.2649 9.61267 17.2507 9.56456C17.2383 9.51646 17.1634 9.35336 17.1451 9.23533C17.1273 9.116 17.0882 8.80448 17.0615 8.59269C17.0347 8.3809 17.0223 8.29373 17.0223 8.24069C17.0267 8.11097 17.0195 7.98112 17.0009 7.85267C16.9657 7.62833 16.8953 7.356 16.8336 7.19771C16.7144 6.89863 16.3975 6.13327 16.3408 5.94283C16.3408 5.89473 16.4031 5.92148 16.4031 5.92148C16.4031 5.92148 16.5579 6.3095 16.6718 6.60847C16.7822 6.90755 16.8872 7.17096 16.914 7.19771C16.9353 7.22435 17.1027 7.51803 17.1774 7.99863C17.2521 8.47923 17.2788 8.9224 17.3234 9.21784C17.3447 9.35864 17.3626 9.50801 17.407 9.65749C17.455 9.81953 17.5298 9.98685 17.6277 10.2431C17.7114 10.4585 17.7737 10.6383 17.8075 10.7932C17.8467 10.9907 17.8467 11.1402 17.8698 11.2382C17.8913 11.3219 17.9232 11.4891 17.998 11.731C18.0729 11.9729 18.1831 12.2846 18.2578 12.4785C18.4039 12.8666 18.469 13.1905 18.4911 13.3632C18.5105 13.5412 18.5765 14.1571 18.5587 14.3421L18.559 14.3419Z" fill="#A88F33"/>
<path fill-rule="evenodd" clip-rule="evenodd" d="M14.9636 2.5176L14.9547 2.53895C14.9547 2.53895 14.9813 2.54787 14.9761 2.58354C14.9764 2.63234 14.9734 2.68111 14.9671 2.7295C14.9583 2.79181 14.9405 2.8398 14.937 2.87899C14.937 2.96265 14.9494 3.05874 14.8314 3.29728C14.7962 3.3631 14.7745 3.42001 14.7566 3.4592C14.7122 3.5553 14.7033 3.56961 14.6641 3.61408C14.7264 3.57888 14.9507 3.43808 15.0645 3.4592C14.9863 3.50367 14.8669 3.59097 14.7922 3.7049C14.81 3.70842 14.8848 3.72273 15.0034 3.7049C15.201 3.67462 15.4217 3.6034 15.6156 3.6176C15.8275 3.63004 15.7439 3.3631 15.7439 3.3631L15.4994 2.8256L15.0366 2.5L14.9636 2.51772V2.5176Z" fill="#BE9C44"/>
<path fill-rule="evenodd" clip-rule="evenodd" d="M16.1708 6.54745C16.1708 6.54745 15.9643 6.34094 15.8807 5.63225C15.797 4.92027 15.8148 3.87225 15.8148 3.87225L15.6475 3.46287C15.6475 3.46287 15.6123 3.19054 15.5247 3.08916C15.437 2.98779 15.2649 2.81683 15.1865 2.73318C15.1081 2.64952 15.0192 2.53559 14.9658 2.51775C14.9925 2.47328 15.1118 2.22231 15.5691 2.21879C16.0265 2.21527 16.1675 2.46976 16.2153 2.56234C16.2631 2.65491 16.4787 3.05514 16.5587 3.8178C16.6335 4.57953 16.6371 4.63656 16.6247 4.89997C16.6158 5.04593 16.5677 5.38409 16.4839 5.74536C16.4074 6.0516 16.3237 6.39339 16.1706 6.54815L16.1708 6.54745Z" fill="#A17C34"/>
<path fill-rule="evenodd" clip-rule="evenodd" d="M15.5232 7.15723C15.592 7.16219 15.6608 7.14668 15.7208 7.11264C15.7866 7.10912 16.0252 7.13939 16.2084 6.90625C16.2209 6.95952 16.253 7.10384 16.1693 7.23197C16.2138 7.18738 16.2797 7.16966 16.2886 7.15723C16.2921 7.22305 16.3544 7.42592 16.091 7.91895C16.1621 7.84069 16.2458 7.84421 16.3205 7.8353C16.3241 7.92787 16.3739 8.23927 16.2422 8.40671C16.1551 8.52064 16.0126 8.48497 16.0126 8.48497C16.0147 8.4601 16.0147 8.4351 16.0126 8.41023C16.0091 8.36212 15.9913 8.31413 16.0038 8.2821C15.935 8.25066 15.8723 8.20724 15.8187 8.15386C15.6638 8.00789 15.4627 7.75879 15.4485 7.57364C15.4306 7.36714 15.6158 7.32267 15.6158 7.32267C15.6003 7.30879 15.5871 7.29256 15.5766 7.27456C15.5677 7.2444 15.5588 7.1963 15.5232 7.15723Z" fill="#8C6228"/>
<path fill-rule="evenodd" clip-rule="evenodd" d="M14.1507 4.90771C14.1507 4.90771 14.1417 4.89527 14.0938 4.95218C14.1027 4.89527 14.1116 4.84176 14.1151 4.79014C14.1378 4.74234 14.1672 4.69802 14.2024 4.65849C14.1756 4.71176 14.1578 4.75987 14.1578 4.75987C14.1578 4.75987 14.2238 4.63702 14.3199 4.56228C14.3857 4.50889 14.4693 4.48402 14.5049 4.43415C14.5441 4.38076 14.5352 4.37184 14.5441 4.36293C14.5441 4.36293 14.6314 4.30602 14.7649 4.13859C14.7826 4.11723 14.8094 4.09412 14.8272 4.07276C14.8574 4.06033 14.9286 4.02829 15.0122 3.98547C15.0995 3.93748 15.1974 3.87165 15.2579 3.84467C15.3771 3.79128 15.5036 3.79668 15.5623 3.7129C15.6068 3.70046 15.6548 3.56694 15.646 3.45312C15.7118 3.47976 16.0499 3.68979 16.1657 4.14903C16.2494 4.47475 16.0998 4.9767 16.0375 5.21887C15.9752 5.46105 15.9664 5.64069 15.8791 5.75098C15.7687 5.89706 15.4128 6.10298 15.3255 6.20494C15.2508 6.2886 15.0265 6.50039 15.0354 6.65339C15.0443 6.76732 15.1848 6.82939 15.2152 6.85098C15.2456 6.87257 15.2454 6.89909 15.3024 6.88618C15.3594 6.87327 15.3807 6.84699 15.4039 6.84699C15.4305 6.85051 15.4305 6.85591 15.443 6.85591C15.452 6.85564 15.461 6.85442 15.4697 6.85227C15.4697 6.85227 15.4608 7.01431 15.0817 7.06347C15.0549 7.06711 15.0283 7.07591 14.9944 7.08131C15.039 7.05995 15.0656 7.05995 15.1137 6.99413C15.0603 6.98521 14.9072 6.97629 14.868 6.96386C14.8805 6.9425 14.9214 6.88548 14.9552 6.85884C14.9855 6.83221 14.9517 6.82364 14.9251 6.83749C14.8792 6.86869 14.8352 6.90254 14.7933 6.93886C14.7488 6.97805 14.7096 7.03144 14.6384 7.07966C14.6171 7.00844 14.6206 6.87316 14.7044 6.7753C14.6829 6.77882 14.6419 6.84113 14.6029 6.82869C14.5958 6.76376 14.6 6.69811 14.6153 6.63462C14.6367 6.55448 14.7523 6.41391 14.7523 6.41391L15.3112 5.41529L15.4304 4.65884L14.1507 4.90747V4.90771Z" fill="#92723A"/>
<path fill-rule="evenodd" clip-rule="evenodd" d="M14.1194 4.95276C14.1194 4.95276 14.0891 4.97412 14.1497 5.01507C14.1408 5.0275 14.1194 5.07197 14.0926 5.10225C14.0625 5.13745 14.0303 5.15927 14.0179 5.18954C13.9913 5.25184 13.9699 5.29455 13.9699 5.32131C13.9699 5.34806 13.961 5.5189 13.8863 5.62919C13.8595 5.66838 13.8292 5.7342 13.8079 5.77867C13.7634 5.85693 13.7242 5.91947 13.7153 5.95467C13.6976 6.01698 13.6851 6.18781 13.6851 6.18781C13.6851 6.18781 13.7243 6.13971 13.7385 6.12199C13.7171 6.16646 13.6939 6.21445 13.6602 6.25012C13.6815 6.23228 13.7438 6.18781 13.8488 6.09524C13.9948 5.97251 14.2227 5.766 14.5004 5.60244C14.4166 5.63271 14.3455 5.63271 14.2886 5.64163C14.3331 5.59716 14.7335 5.12724 14.9435 5.08277C14.9563 5.0666 14.9626 5.0463 14.9614 5.02574L14.7815 5.00803L14.4166 5.08629L14.3633 4.80469L14.1194 4.95241V4.95276Z" fill="#B18E3E"/>
<path fill-rule="evenodd" clip-rule="evenodd" d="M14.7002 6.55481C14.7002 6.55481 14.6521 6.6028 14.6076 6.72213C14.5734 6.68638 14.5441 6.64625 14.5203 6.6028C14.4545 6.49251 14.3531 6.35182 14.1164 6.43196C14.1128 6.35722 14.1074 6.31803 14.1164 6.26464C14.1556 6.25584 14.2748 6.15975 14.394 6.01907C14.4778 5.92297 14.556 5.81256 14.6094 5.67199C14.6446 5.64524 14.7055 5.60077 14.7854 5.54915C14.8993 5.47088 15.0364 5.36399 15.0577 5.24478C15.0043 5.26614 14.8904 5.31952 14.7195 5.31072C14.7854 5.28045 14.8868 5.24842 14.8743 5.11666C14.9011 5.09882 14.9224 5.08638 14.9224 5.08638C14.9024 5.07969 14.8813 5.07667 14.8601 5.07747C14.8565 5.06503 14.8512 5.04731 14.821 5.05611C14.7907 5.06491 14.7858 5.06503 14.7818 5.07747C14.7693 5.0811 14.7284 5.07747 14.6981 5.09894C14.6678 5.12041 14.5842 5.1914 14.5521 5.20383C14.5646 5.18248 14.5823 5.15056 14.5823 5.15056C14.5823 5.15056 14.4951 5.15936 14.4328 5.18576C14.3189 5.22495 14.1872 5.29618 14.0537 5.36552C14.0661 5.34416 14.0715 5.33032 14.0803 5.32633C14.0891 5.32234 14.1106 5.31753 14.1106 5.31389C14.1106 5.31026 14.1018 5.27869 14.1071 5.2659C14.147 5.18133 14.1941 5.10035 14.2479 5.02384C14.3102 4.94007 14.3226 4.82086 14.3226 4.82086L14.595 4.68381L15.3603 4.50781L15.857 4.53808L15.7947 4.88164L15.5014 5.48144L15.2504 6.02787L14.9637 6.36262L14.7003 6.55481H14.7002Z" fill="#543E26"/>
<path fill-rule="evenodd" clip-rule="evenodd" d="M15.9416 5.06964C15.9416 5.06964 15.6425 5.43983 15.5589 5.49685C15.6122 5.38292 15.9416 4.70473 16.0608 4.51606C16.0342 4.49471 15.9985 4.49471 16.0822 4.16406C16.0111 4.33126 15.9861 4.41856 15.9274 4.46303C15.8687 4.5075 15.8615 4.4933 15.8218 4.4933C15.8293 4.47975 15.8324 4.46421 15.8306 4.44883C15.8306 4.44883 15.5796 4.41856 15.4082 4.41856C15.2368 4.41856 14.8974 4.51113 14.7087 4.58588C14.5592 4.64818 14.4755 4.64818 14.4221 4.68725C14.3687 4.73172 14.3385 4.77983 14.3117 4.79226C14.2904 4.8047 14.189 4.83673 14.1658 4.87053C14.1444 4.90573 14.1088 4.94527 14.1088 4.95419C14.1088 4.9631 14.0999 4.97566 14.1267 4.96662C14.1355 4.9631 14.2014 4.92743 14.2762 4.88296C14.3775 4.82606 14.5004 4.76023 14.5894 4.72104C14.8439 4.61955 14.9241 4.63739 15.0379 4.61603C15.1571 4.59468 15.3281 4.54481 15.4419 4.54481C15.5558 4.54129 15.7712 4.54481 15.8211 4.55373C15.7997 4.57156 15.7819 4.59292 15.7908 4.66766C15.7908 4.68901 15.773 4.71213 15.7556 4.76375C15.7024 4.90972 15.6009 5.15177 15.5444 5.27462C15.4662 5.44182 15.3772 5.58251 15.3332 5.66968C15.2892 5.75686 15.1924 5.98648 15.0966 6.10933C15.0007 6.23218 14.9506 6.30692 14.9206 6.33367C14.8905 6.36042 14.6749 6.51871 14.6909 6.57573C14.7301 6.56329 14.9776 6.47013 15.1572 6.26785C15.3369 6.06557 15.3726 5.94213 15.5132 5.83172C15.6538 5.72131 15.7642 5.53628 15.83 5.38327C15.8852 5.24083 15.8727 5.19636 15.9421 5.06999L15.9416 5.06964Z" fill="#806031"/>
<path fill-rule="evenodd" clip-rule="evenodd" d="M9.49529 7.83684C9.49529 7.83684 9.4561 7.99876 9.36704 8.0789C9.27986 8.15727 9.12498 8.22486 9.10726 8.35662C9.08591 8.48827 9.26214 8.55421 9.26214 8.55421C9.26214 8.55421 9.16593 8.71261 9.16593 8.83182C9.16593 8.95467 9.16241 8.97779 9.17485 9.09524C9.16073 9.10432 9.14873 9.11632 9.13965 9.13044C9.13965 9.13044 9.14845 9.24437 9.23574 9.31547C9.32304 9.38658 9.39766 9.4294 9.44213 9.41157C9.44892 9.42608 9.45488 9.44096 9.45997 9.45615C9.45997 9.45615 9.52591 9.28884 9.57038 9.14287C9.61485 8.99339 9.65404 9.01463 9.67175 8.81352C9.68947 8.61241 9.88295 8.2671 9.88295 8.2671L10.015 7.972L9.79965 7.80469L9.49529 7.83672V7.83684Z" fill="#B6903C"/>
<path fill-rule="evenodd" clip-rule="evenodd" d="M9.8968 8.125C9.8524 8.17058 9.81142 8.21936 9.77419 8.27096C9.71728 8.34934 9.67281 8.42044 9.58916 8.45083C9.5055 8.48122 9.45211 8.48099 9.45739 8.56477C9.46267 8.64854 9.54105 8.68398 9.58552 8.72668C9.63362 8.77115 9.67281 8.8459 9.65146 8.92967C9.67809 8.91723 9.7262 8.90292 9.77067 8.80682C9.81514 8.71073 10.1262 8.12512 10.1262 8.12512H9.8968V8.125Z" fill="#685026"/>
<path fill-rule="evenodd" clip-rule="evenodd" d="M11.1229 6.77284C11.1229 6.77284 11.1495 6.70173 11.1229 6.65011C11.0962 6.59672 10.9342 6.57889 10.8541 6.51834C10.7704 6.45604 10.6689 6.41274 10.5853 6.44008C10.5977 6.40981 10.6476 6.34387 10.6066 6.32967C10.5674 6.31723 10.4216 6.38306 10.3824 6.41333C10.3432 6.4436 10.2542 6.47915 10.2364 6.50062C10.2187 6.5221 10.1883 6.56293 10.1705 6.54509C10.1527 6.53266 10.1439 6.50062 10.1136 6.51834C10.0833 6.53606 9.9376 6.65539 9.91073 6.72485C9.88386 6.79431 9.82344 6.94919 9.64192 7.12531C9.46041 7.30142 9.38203 7.41547 9.43541 7.4813C9.4888 7.54712 9.51379 7.49913 9.52271 7.55604C9.52957 7.6119 9.52655 7.66854 9.51379 7.72336C9.49244 7.81593 9.45689 7.90311 9.50488 7.92094C9.62772 7.96013 9.74705 7.88574 9.77369 7.90851C9.82707 7.9565 9.74341 8.12921 9.86978 8.163C9.99803 8.1982 10.1244 8.13273 10.1244 8.13273L10.5907 7.88176L11.0392 7.64509L11.2687 7.19113L11.1457 6.81203L11.1222 6.77284H11.1229Z" fill="#D4B968"/>
<path fill-rule="evenodd" clip-rule="evenodd" d="M10.6824 7.85399C10.6824 7.85399 10.6041 7.73478 10.7003 7.62965C10.7965 7.52452 10.9334 7.48016 10.9868 7.41434C10.9766 7.4018 10.963 7.39254 10.9476 7.3877C10.9831 7.32429 11.0371 7.2733 11.1025 7.24162C11.0759 7.21499 11.0402 7.19363 11.0011 7.19363C10.9138 7.19363 10.8603 7.24702 10.7803 7.24702C10.702 7.24702 10.6931 7.20783 10.6931 7.20783C10.6931 7.20783 10.8249 7.1954 10.8123 7.13661C10.7999 7.07431 10.7771 7.07431 10.7771 7.07431C10.7771 7.07431 11.0316 6.96871 11.0761 6.91239C11.1206 6.85607 11.1153 6.78954 11.1242 6.7629C11.1544 6.7629 11.3306 6.67033 11.4018 6.70952C11.473 6.74871 11.4232 6.85548 11.4232 6.85548C11.4232 6.85548 11.6387 6.69344 11.7485 6.53457C11.8446 6.54349 11.8893 6.46875 11.9597 6.46875C12.047 6.46875 12.1841 6.58796 12.2107 6.84246C12.2285 6.98842 12.2552 7.07208 12.2285 7.33021C12.2161 7.47617 12.2196 7.78781 12.2637 7.94246C12.2939 8.0653 12.3651 8.05287 12.3651 8.05287C12.3542 8.0903 12.3325 8.12371 12.3028 8.14896C12.2547 8.19343 12.2494 8.311 12.2547 8.35547C12.2618 8.38798 12.2707 8.42007 12.2815 8.45157C12.2815 8.45157 12.2246 8.51739 12.2102 8.56198C12.1978 8.60645 12.1391 8.63672 12.0963 8.63672C12.0535 8.63672 12.075 8.63308 12.018 8.63672C11.9611 8.64035 11.9433 8.64915 11.9076 8.63672C11.872 8.62428 11.8453 8.60997 11.8596 8.49592C11.8721 8.38199 11.42 8.11681 11.42 8.11681L10.6808 7.8534L10.6824 7.85399Z" fill="#CCA849"/>
<path fill-rule="evenodd" clip-rule="evenodd" d="M9.83457 8.98673C9.83457 8.98673 9.99649 9.20215 10.6622 9.20215C10.979 9.20215 11.0895 9.17188 11.155 9.15404C11.2263 9.13621 11.4932 9.03131 11.762 8.7144C12.0041 8.42787 11.9507 8.31042 11.9507 8.31042L11.8099 8.28906L11.3523 8.35137L9.99825 8.92806L9.83398 8.98673H9.83457Z" fill="#585136"/>
<path fill-rule="evenodd" clip-rule="evenodd" d="M10.3316 9.03247C10.3316 9.03247 9.75488 9.16072 9.75488 8.79581C9.75488 8.43982 10.1109 8.066 10.1999 8.00017C10.2925 7.93423 10.5132 7.85938 10.5132 7.85938H11.0454L11.1468 8.12819L11.1023 8.7084L10.3316 9.03236V9.03247Z" fill="#252211"/>
<path fill-rule="evenodd" clip-rule="evenodd" d="M10.8634 7.96593C10.8634 7.96593 10.7531 7.86444 10.5021 8.00113C10.2511 8.13782 10.0481 8.42353 10.0357 8.68296C10.0233 8.91246 10.2244 9.08341 10.5377 9.09233C10.7708 9.10113 10.9115 9.0745 10.9827 9.05713C10.9649 9.03578 10.8723 8.92009 10.8723 8.92009L10.8635 7.96605L10.8634 7.96593Z" fill="#C3B378"/>
<path fill-rule="evenodd" clip-rule="evenodd" d="M10.7545 8.02878C10.7545 8.02878 10.7279 8.00742 10.6489 8.05013C10.5831 8.08533 10.487 8.17838 10.4123 8.2442C10.3642 8.28339 10.3339 8.30111 10.3067 8.33138C10.1963 8.46314 10.1037 8.67857 10.1572 8.78534C10.2107 8.89211 10.3868 9.01496 10.8354 8.9313L10.7533 8.02889L10.7545 8.02878Z" fill="#E6D89C"/>
<path fill-rule="evenodd" clip-rule="evenodd" d="M10.6081 8.24867C10.6081 8.24867 10.5369 8.35908 10.5369 8.53532C10.5369 8.71507 10.6384 9.0016 11.0122 9.02296C11.2988 9.04079 11.4909 8.61006 11.6992 8.44274C11.8576 8.31462 11.9537 8.31098 11.9537 8.31098C11.9537 8.31098 11.7918 8.13498 11.3593 7.907C10.9321 7.67738 10.4533 7.64711 10.1934 7.99958C10.3162 7.99066 10.7131 7.88916 10.7131 7.88916L10.9072 7.95147L10.6081 8.24879V8.24867Z" fill="#252211"/>
<path fill-rule="evenodd" clip-rule="evenodd" d="M11.1673 8.47702C11.1549 8.45038 11.146 8.41471 11.1976 8.40591C11.2492 8.39711 11.2724 8.40228 11.2902 8.44111C11.308 8.47995 11.3254 8.51233 11.299 8.52841C11.2724 8.54261 11.2029 8.52841 11.1672 8.47678L11.1673 8.47702ZM11.0837 8.22604C11.0837 8.22604 11.0658 8.23848 11.0748 8.2136C11.0783 8.18345 11.1015 8.12995 11.1584 8.1425C11.2153 8.15505 11.203 8.21724 11.1936 8.23508C11.1842 8.25291 11.1367 8.28307 11.101 8.27028C11.0965 8.26912 11.0923 8.26691 11.0888 8.26384C11.0853 8.26076 11.0826 8.2569 11.0808 8.25257C11.0791 8.24823 11.0784 8.24355 11.0788 8.2389C11.0792 8.23425 11.0807 8.22977 11.0832 8.22581L11.0837 8.22604Z" fill="#6F674D"/>
<path fill-rule="evenodd" clip-rule="evenodd" d="M6.26562 8.34056C6.26562 8.34056 6.40643 8.44616 6.56999 8.44205C6.73191 8.43841 6.94017 8.27121 7.03627 8.16432C7.09318 8.10202 7.14187 8.0362 7.19467 7.98457C7.23926 7.9401 7.26941 7.91874 7.29077 7.88847C7.32104 7.85327 7.35307 7.7871 7.36914 7.76562C7.32996 7.7959 7.27305 7.8494 7.21426 7.88495C7.15736 7.92015 7.03451 7.98633 6.98464 8.00416C6.93665 8.022 6.43822 8.28576 6.43822 8.28576L6.26562 8.34056Z" fill="#AC924C"/>
<path fill-rule="evenodd" clip-rule="evenodd" d="M6.48047 7.0246C6.48047 7.0246 6.55873 6.97121 6.71009 6.9373C6.85605 6.9021 7.14974 6.875 7.14974 6.875L7.3918 6.9806L7.48789 7.34551L7.31189 7.72473L7.08767 7.86553L6.83306 7.45615L6.48106 7.0253L6.48047 7.0246Z" fill="#9F8E57"/>
<path fill-rule="evenodd" clip-rule="evenodd" d="M6.16385 7.35831L6.08008 7.42085C6.08008 7.42085 6.10155 7.38166 6.11927 7.26245C6.13698 7.14324 6.22968 6.85308 6.36496 6.68576C6.50025 6.51844 6.49673 6.52736 6.49673 6.52736C6.48428 6.52508 6.47149 6.52548 6.45921 6.52854C6.44693 6.53159 6.43544 6.53723 6.42551 6.54508C6.44334 6.50565 6.55727 6.36485 6.6712 6.29445C6.78513 6.22405 6.8296 6.20188 6.94881 6.25925C7.06802 6.31663 7.0983 6.34643 7.18559 6.34291C7.27289 6.33939 7.34751 6.24681 7.34751 6.24681C7.34751 6.24681 7.36535 6.30372 7.29952 6.43549C7.2337 6.56725 6.97381 6.83594 6.97381 6.83594L6.43266 7.20613L6.16385 7.35866V7.35831Z" fill="#EAC970"/>
<path fill-rule="evenodd" clip-rule="evenodd" d="M6.56395 6.98011C6.56395 6.98011 6.9556 7.0335 7.07482 6.92321C7.07834 6.93564 7.09265 6.93564 7.09265 6.94456C7.09169 6.95128 7.08856 6.9575 7.08373 6.96228C7.0967 6.96021 7.10979 6.95903 7.12292 6.95876C7.1386 6.96342 7.15472 6.96641 7.17103 6.96768C7.18416 6.96739 7.19726 6.96618 7.21022 6.96404C7.20898 6.97289 7.20597 6.98139 7.20138 6.98905C7.19678 6.99671 7.19069 7.00337 7.18347 7.00862C7.2013 7.00862 7.21867 7.01214 7.21867 7.02634C7.21867 7.04054 7.22219 7.08337 7.20083 7.09228C7.18314 7.09718 7.16431 7.09589 7.14744 7.08865C7.14886 7.12235 7.15801 7.15527 7.1742 7.18486C7.2094 7.25068 7.28449 7.32566 7.3854 7.30407C7.3854 7.30407 7.43867 7.4322 7.21444 7.71697C7.18429 7.75616 7.15214 7.80954 7.11307 7.85401C7.09763 7.88766 7.08583 7.92287 7.07787 7.95902C7.07787 7.95902 7.45709 7.81306 7.56562 7.48019C7.67603 7.14555 7.69739 6.81632 7.67603 6.50843C7.67239 6.42114 7.6582 6.35895 7.63684 6.31436C7.58346 6.20395 7.43386 6.22179 7.37343 6.28409C7.28613 6.37139 7.14017 6.58845 6.9373 6.73794C6.73079 6.88742 6.72199 6.91394 6.56348 6.98011H6.56395Z" fill="#D7BC6B"/>
<path fill-rule="evenodd" clip-rule="evenodd" d="M6.0947 7.46854C6.0947 7.46854 6.01996 7.51301 5.98077 7.67974C5.94158 7.85058 6.01597 8.05885 6.05903 8.12467C6.10209 8.1905 6.19983 8.37037 6.40258 8.37929C6.45277 8.37902 6.5024 8.36873 6.54855 8.34901C6.61933 8.31656 6.68572 8.27528 6.74614 8.22617C6.83343 8.16034 6.90454 8.10344 6.89562 8.09804C6.87427 8.08912 6.35812 7.66191 6.35812 7.66191L6.16405 7.44531L6.09458 7.46878L6.0947 7.46854Z" fill="#585136"/>
<path fill-rule="evenodd" clip-rule="evenodd" d="M6.58236 8.17481C6.58236 8.17481 6.68737 8.16601 6.74967 8.12683C6.81198 8.08764 6.38477 7.66406 6.38477 7.66406L6.41504 8.12166L6.58236 8.17481Z" fill="#453A25"/>
<path fill-rule="evenodd" clip-rule="evenodd" d="M6.12839 7.43397C6.12839 7.43397 6.075 7.53546 6.075 7.56221C6.06609 7.64939 6.09284 7.92348 6.11419 8.01066C6.13555 8.10324 6.25124 8.2438 6.40084 8.2438C6.4933 8.2438 6.62154 8.1869 6.62154 8.1727C6.62154 8.15486 6.48978 8.1375 6.45423 8.07121C6.43287 8.03601 6.42395 7.94848 6.41903 7.86001C6.41551 7.8031 6.41551 7.7408 6.43686 7.71921C6.48497 7.66582 6.49377 7.5127 6.49377 7.5127L6.6646 7.19531H6.43991L6.1711 7.36263L6.12839 7.43397Z" fill="#84754B"/>
<path fill-rule="evenodd" clip-rule="evenodd" d="M6.0625 7.52828C6.0625 7.52828 6.2385 7.29514 6.39713 7.24164C6.55577 7.18813 6.62676 7.22028 6.62676 7.22028L6.53418 7.45706L6.40241 7.60302L6.41133 7.67777C6.41133 7.67777 6.38986 7.87536 6.52163 8.0124C6.65339 8.14945 6.75125 8.14417 6.80827 8.14417C6.86529 8.14417 7.02897 8.09606 7.11263 7.89847C7.18737 7.71344 7.24968 7.47607 7.1002 7.23812C6.95412 7.00134 6.6961 6.99219 6.64623 6.99219C6.59637 6.99219 6.20483 7.01178 6.0625 7.52793V7.52828Z" fill="#252211"/>
<path fill-rule="evenodd" clip-rule="evenodd" d="M10.5807 8.32622C10.5149 8.29595 10.5772 8.11092 10.6431 8.05389C10.7089 7.99687 10.7925 7.93116 10.9386 7.92213C10.9919 7.91861 11.0435 7.9524 11.0347 7.98807C11.0223 8.05389 10.9297 8.14647 10.846 8.21229C10.7303 8.30311 10.6555 8.36002 10.5807 8.32622Z" fill="#F7F7E7"/>
<path fill-rule="evenodd" clip-rule="evenodd" d="M7.02213 7.31272C7.07024 7.3092 7.13254 7.34792 7.14498 7.40002C7.15742 7.45692 7.11471 7.57086 7.02213 7.57086C6.94739 7.57086 6.9082 7.47828 6.9082 7.45165C6.90904 7.42974 6.91516 7.40837 6.92604 7.38934C6.92956 7.38394 6.93848 7.32164 7.02213 7.31272Z" fill="#F8F6DE"/>
<path fill-rule="evenodd" clip-rule="evenodd" d="M6.32834 7.35156C6.32834 7.35156 6.20549 7.40847 6.14858 7.52756C6.10792 7.6155 6.09562 7.71392 6.11338 7.80916C6.1223 7.85363 6.16677 7.96393 6.19704 8.00311C6.22732 8.0423 6.26826 8.06906 6.29854 8.06542C6.32881 8.06178 6.391 7.98176 6.391 7.93377C6.391 7.88578 6.39463 7.68279 6.4533 7.57238C6.50493 7.46209 6.32869 7.35168 6.32869 7.35168L6.32834 7.35156Z" fill="#D4C38B"/>
<path fill-rule="evenodd" clip-rule="evenodd" d="M6.34538 7.34207C6.32402 7.35451 6.28847 7.37235 6.29727 7.39546C6.30619 7.41682 6.38093 7.43066 6.40768 7.48276C6.43795 7.53614 6.43795 7.59305 6.42904 7.6198C6.45229 7.60876 6.47338 7.59366 6.49134 7.57522C6.53053 7.53075 6.57852 7.47032 6.61947 7.47032C6.64622 7.47032 6.67286 7.48276 6.69785 7.48276C6.73704 7.48276 6.77611 7.47032 6.78151 7.42937C6.79031 7.37598 6.70676 7.32788 6.65866 7.3368C6.66758 7.3016 6.68001 7.24962 6.64082 7.21395C6.60163 7.17828 6.4789 7.2407 6.45215 7.25853C6.4254 7.27637 6.34538 7.34219 6.34538 7.34219V7.34207Z" fill="#E2D59D"/>
<path fill-rule="evenodd" clip-rule="evenodd" d="M9.17383 11.0856L9.43724 11.0078L9.51198 11.0612C9.51198 11.0612 9.56525 11.1751 9.64903 11.1893C9.62228 11.2462 9.55282 11.2949 9.55645 11.3353C9.56009 11.3757 9.59564 11.4065 9.59564 11.4065C9.59564 11.4065 9.35886 11.7981 9.82526 12.1926C9.71485 12.2371 9.57429 12.2982 9.49955 12.3334C9.55282 12.3459 9.66675 12.3686 9.71485 12.4118C9.76296 12.455 9.76296 12.4687 9.80743 12.4955C9.8519 12.5222 9.87853 12.5578 9.86973 12.5737C9.83946 12.5559 9.73797 12.5026 9.72025 12.5524C9.70253 12.6021 9.2806 12.5827 9.2806 12.5827L8.56862 12.7197C8.56862 12.7197 8.59526 12.6485 8.52052 12.5827C8.43334 12.5044 8.32657 12.5862 8.21263 12.499C8.06315 12.3851 8.05775 12.2533 8.00977 12.2036C8.05775 12.1733 8.15573 12.1288 8.38887 12.098C8.37995 12.0801 8.34968 12.0267 8.36751 11.9787C8.38887 11.9164 8.47781 11.8773 8.45117 11.8027C8.49036 11.7938 8.50808 11.7938 8.60605 11.671C8.69863 11.5481 8.75554 11.5215 8.82676 11.5126C8.89798 11.5037 8.94069 11.5126 9.07245 11.3897C9.16491 11.3026 9.13476 11.2278 9.13476 11.2278C9.13476 11.2278 9.19518 11.2082 9.17395 11.0854L9.17383 11.0856Z" fill="#CBAC5A"/>
<path fill-rule="evenodd" clip-rule="evenodd" d="M8.39543 11.1276C8.39895 11.1098 8.41327 11.1008 8.50936 11.1098C8.60546 11.1187 9.21418 11.0528 9.37974 11.0439C9.54706 11.0315 10.1362 11.0403 10.4228 11.1008C10.7095 11.1614 10.9995 11.2326 11.1401 11.2682C11.2809 11.3073 11.3252 11.3214 11.3198 11.3393C11.3163 11.3571 11.2846 11.3745 11.2665 11.3695C11.2487 11.366 10.7823 11.2236 10.6383 11.1935C10.4942 11.1635 9.99562 11.0831 9.72306 11.0879C9.46856 11.0916 9.36707 11.0844 9.15176 11.1093C8.93634 11.136 8.58035 11.1716 8.47358 11.1574C8.36798 11.145 8.3898 11.145 8.3952 11.1271L8.39543 11.1276Z" fill="#D6BC6F"/>
<path fill-rule="evenodd" clip-rule="evenodd" d="M9.82853 12.5145C9.82853 12.5145 10.1934 12.7121 10.3252 12.9542C10.4213 13.1339 10.2683 13.223 10.2683 13.223C10.2683 13.223 10.4748 13.223 10.4481 13.3369C10.4356 13.408 10.0921 13.6002 9.86244 13.7017C9.6293 13.8032 9.63822 13.7979 9.52429 13.8156C9.41388 13.8335 9.11127 13.7804 9.04897 13.869C8.98667 13.9576 9.01377 14.0489 9.03113 14.0631C9.04897 14.0755 9.19317 14.0934 9.19317 14.0934C9.19317 14.0934 9.1629 14.177 8.86393 14.1859C8.56497 14.1949 8.49011 14.2161 8.47228 14.2482C8.45444 14.2784 8.52918 14.2607 8.66635 14.2834C8.80339 14.3048 8.99558 14.3186 8.99558 14.3186C8.99558 14.3186 8.93328 14.372 8.77136 14.4147C8.58621 14.4627 8.29604 14.5073 8.20886 14.5607C8.25333 14.591 8.31927 14.6354 8.34966 14.639C8.27492 14.6568 8.16979 14.696 8.15207 14.7102C8.17871 14.728 8.21438 14.7494 8.21438 14.7494C8.21438 14.7494 8.06478 14.9291 7.9776 14.9737C7.89042 15.0183 7.38847 15.2513 7.21575 15.2069C6.78502 15.0929 6.73164 14.6213 6.62662 14.5857C6.46822 14.5323 6.39348 14.639 6.2528 14.5642C6.3151 14.5198 6.34901 14.4931 6.41484 14.4628C6.34362 14.4276 5.97519 14.194 5.97519 14.194C5.93666 14.1101 5.8939 14.0281 5.84706 13.9485C5.77584 13.8256 5.67106 13.6618 5.59245 13.5176C5.42161 13.2008 5.41269 13.0549 5.25781 12.8751C5.28456 12.8399 5.37702 12.8448 5.37702 12.8448L6.67473 13.272L8.97575 13.3387L9.57415 12.4844L9.82865 12.5146L9.82853 12.5145Z" fill="#DFC677"/>
<path fill-rule="evenodd" clip-rule="evenodd" d="M6.41992 13.8265C6.43381 13.842 6.44999 13.8552 6.46791 13.8657C6.5125 13.896 6.57832 13.9316 6.62279 13.9849C6.64063 13.9583 6.68509 13.9102 6.76359 13.9849C6.84209 14.0596 6.93959 14.0064 7.00025 14.0241C7.06256 14.0456 7.06608 14.0544 7.06608 14.0544C7.06608 14.0544 7.10128 14.0241 7.18001 13.9921C7.22811 13.9742 7.28502 13.9618 7.34732 13.9441C7.40423 13.9316 7.46654 13.9138 7.50936 13.9138C7.54855 13.9404 7.68912 14.0898 8.25337 13.8693C8.7856 13.6628 8.90833 13.6397 8.99738 13.6716C9.0063 13.6503 9.01522 13.6093 9.15226 13.6147C9.15226 13.5578 9.03833 13.3637 9.03833 13.3637L8.41001 13.1484H8.06634L7.0358 13.3371L6.46474 13.6629L6.42027 13.8272L6.41992 13.8265Z" fill="#C4A859"/>
<path fill-rule="evenodd" clip-rule="evenodd" d="M6.07617 13.4656C6.07617 13.4656 6.08861 13.5617 6.23105 13.6632C6.37185 13.7646 6.41609 13.8252 6.41609 13.8252C6.41609 13.8252 6.44284 13.79 6.46419 13.754C6.48555 13.7149 6.50338 13.6704 6.53893 13.658C6.61016 13.6277 6.77208 13.6846 6.80774 13.6757C6.83802 13.6669 6.8291 13.6046 6.86113 13.6046C6.93587 13.6009 6.98386 13.6526 7.01061 13.6526C7.03737 13.6526 7.10307 13.649 7.11199 13.6348C7.12091 13.6206 7.12443 13.4728 7.22592 13.4016C7.33633 13.3233 7.47162 13.3571 7.50752 13.3749C7.50752 13.4016 7.51104 13.4675 7.58226 13.471C7.65348 13.4746 7.66052 13.4621 7.72306 13.4835C7.7856 13.5048 7.86011 13.48 7.8939 13.5849C7.92417 13.5761 7.99539 13.5671 7.97756 13.4656C8.01276 13.439 8.0435 13.4212 8.11836 13.3162C8.13619 13.2895 8.16635 13.2593 8.18958 13.2201C8.25188 13.2201 8.32663 13.2076 8.42624 13.2948C8.39597 13.3162 8.37813 13.33 8.36933 13.3517C8.39539 13.3775 8.41918 13.4055 8.44044 13.4354C8.46719 13.4706 8.48503 13.5138 8.51882 13.5227C8.59356 13.544 8.71641 13.5138 8.85345 13.5227C8.98522 13.5316 9.09551 13.5796 9.14362 13.6098C9.16145 13.601 9.16145 13.5974 9.20592 13.6063C9.25039 13.6152 9.28418 13.6188 9.23619 13.5619C9.26283 13.5743 9.2931 13.601 9.31985 13.5743C9.3466 13.5475 9.36784 13.5085 9.44258 13.4996C9.51732 13.4906 9.54408 13.5031 9.57435 13.4248C9.61354 13.3287 9.47825 13.3287 9.47825 13.3287C9.47825 13.3287 9.54056 13.2717 9.61002 13.197C9.69368 13.1187 9.78977 13.0172 9.81289 12.8926C9.85208 12.663 9.62785 12.6328 9.62785 12.6328L8.54029 12.9674L7.21067 12.9015L6.07688 13.4658L6.07617 13.4656Z" fill="#927D49"/>
<path fill-rule="evenodd" clip-rule="evenodd" d="M5.09917 10.3189C5.09917 10.3189 5.06397 10.3634 5.04226 10.4684C5.02055 10.5734 5.02982 10.561 5.01199 10.6357C4.99415 10.7105 4.77509 11.4545 4.85722 11.7055C4.93936 11.9565 5.08157 12.049 5.1705 12.2519C5.18834 12.2964 5.2057 12.3231 5.21497 12.3623C5.24525 12.494 5.21861 12.5954 5.25416 12.7272C5.2666 12.7717 5.29875 12.8233 5.34674 12.8767C5.45234 12.987 5.62447 13.092 5.69874 13.1667C5.80363 13.2772 5.95323 13.5015 6.14367 13.5227C6.24516 13.5352 6.38936 13.4925 6.50857 13.4214C6.61417 13.3554 6.67941 13.263 6.79017 13.2102C6.86843 13.171 6.95209 13.1568 7.02683 13.1389C7.18171 13.1087 7.3224 13.1037 7.40606 13.1211C7.53418 13.1479 7.83679 13.2404 8.00446 13.2404C8.13547 13.2383 8.26576 13.2204 8.39248 13.187C8.64697 13.1123 8.95486 12.9841 9.15784 12.9272C9.27705 12.892 9.37315 12.8827 9.47112 12.8613C9.63844 12.8221 9.779 12.7688 9.85914 12.6673C9.80576 12.605 9.73993 12.5089 9.38383 12.5124C8.97985 12.5213 8.51345 12.7455 8.28383 12.7812C8.0542 12.8169 7.95459 12.847 7.69822 12.7544C7.44689 12.6609 7.43856 12.5991 7.43856 12.5991C7.43856 12.5991 7.17467 12.4145 7.06426 11.944C6.95385 11.4735 7.06426 11.1307 7.35091 10.8048C7.42565 10.7212 7.40782 10.6464 7.40782 10.6464C7.40782 10.6464 7.59649 10.3919 7.54486 10.1536C7.48795 9.91685 7.12305 9.96495 7.12305 9.96495L5.09928 10.3189H5.09917Z" fill="#6E6342"/>
<path fill-rule="evenodd" clip-rule="evenodd" d="M5.40343 11.1094C5.38774 11.1389 5.38036 11.1721 5.38208 11.2055C5.3856 11.2535 5.39991 11.3158 5.544 11.4564C5.66685 11.5792 5.6401 11.7162 5.6401 11.7162C5.6401 11.7162 5.70193 11.7287 5.86972 11.6502C6.00148 11.5879 6.04572 11.6983 6.04572 11.6983C6.08407 11.6782 6.12565 11.6649 6.16857 11.6591C6.20745 11.6555 6.24509 11.6435 6.27886 11.6239C6.27886 11.6239 6.43374 11.7823 6.56902 11.857C6.69187 11.923 6.76309 11.9674 6.82364 11.923C6.88054 11.8838 6.88054 11.8036 6.87691 11.7681C6.86279 11.7353 6.84491 11.7042 6.82364 11.6755C6.78445 11.6186 6.72214 11.5527 6.71804 11.4995C6.70912 11.3768 6.81061 11.2307 6.78914 11.1951C6.76767 11.1596 6.68777 11.1507 6.49018 11.2219C6.28555 11.2895 5.40261 11.1097 5.40261 11.1097L5.40343 11.1094Z" fill="#39331F"/>
<path fill-rule="evenodd" clip-rule="evenodd" d="M5.87026 11.8985C5.87026 11.8985 5.76888 11.8024 5.80444 11.336C5.84747 11.3354 5.89045 11.3395 5.93256 11.3484C5.93256 11.3484 5.98783 11.7098 5.87026 11.8985Z" fill="#292311"/>
<path fill-rule="evenodd" clip-rule="evenodd" d="M5.14779 9.96324C5.16193 9.95277 5.17506 9.94098 5.18698 9.92804C5.15178 9.99386 4.98927 10.2573 5.12104 10.672C5.2528 11.0849 5.5838 11.3928 5.99142 11.4071C6.39903 11.4215 6.61328 11.222 6.85827 10.923C6.95437 10.8038 7.06478 10.6542 7.16264 10.5528C7.3086 10.3943 7.42253 10.3499 7.42253 10.1968C7.42253 9.88357 7.10209 9.74289 6.63041 9.60232C6.15873 9.46176 5.73328 9.47912 5.51258 9.57534C5.29727 9.68023 5.2047 9.79064 5.14767 9.96336L5.14779 9.96324Z" fill="#252211"/>
<path fill-rule="evenodd" clip-rule="evenodd" d="M6.66246 12.0456L6.69766 12.0277C6.69766 12.0277 6.70646 11.8869 6.76348 11.8907C6.82039 11.8996 6.84714 11.9745 6.84175 12.0011C6.83823 12.0277 6.82403 12.0723 6.767 12.0669C6.69226 12.0687 6.66211 12.0456 6.66211 12.0456H6.66246Z" fill="#3F3824"/>
<path fill-rule="evenodd" clip-rule="evenodd" d="M6.50391 11.447C6.50391 11.447 6.53911 11.4346 6.58217 11.4773C6.61737 11.4773 6.77084 11.4594 6.81895 11.4897C6.86705 11.52 6.88125 11.5466 6.88125 11.5466C6.88125 11.5466 6.7015 11.5858 6.60352 11.5466C6.50391 11.5128 6.50391 11.447 6.50391 11.447Z" fill="#2D2815"/>
<path fill-rule="evenodd" clip-rule="evenodd" d="M7.29637 11.4769C7.29637 11.468 7.20027 11.4022 7.09878 11.3807C7.08094 11.3772 7.07731 11.3896 7.06358 11.3896C7.05466 11.3861 7.05114 11.3594 7.05114 11.3594L6.99341 11.3898C6.99341 11.3898 6.9845 11.4022 7.01477 11.425C7.0414 11.4463 7.08599 11.4642 7.09843 11.4997C7.11086 11.5353 7.11086 11.5477 7.11626 11.5531C7.11978 11.5566 7.18208 11.5531 7.21236 11.5353C7.24263 11.5174 7.29965 11.4883 7.29602 11.4766L7.29637 11.4769Z" fill="#82764F"/>
<path fill-rule="evenodd" clip-rule="evenodd" d="M6.39746 11.8317C6.39746 11.8317 6.41518 11.709 6.53451 11.7036C6.65724 11.6947 6.68047 11.8139 6.68047 11.8139L6.60925 11.8851C6.60925 11.8834 6.55586 11.8086 6.39805 11.8317H6.39746Z" fill="#2D2816"/>
<path fill-rule="evenodd" clip-rule="evenodd" d="M7.17176 11.3079C7.17176 11.3079 7.10582 11.3791 6.95998 11.4004C6.94754 11.3826 6.92079 11.3471 6.95998 11.2902C6.99917 11.2332 7.04363 11.2154 7.0881 11.2331C7.10773 11.2363 7.12603 11.245 7.14085 11.2583C7.15567 11.2715 7.1664 11.2887 7.17176 11.3079Z" fill="#574F35"/>
<path fill-rule="evenodd" clip-rule="evenodd" d="M7.44031 11.3908C7.44395 11.373 7.43151 11.3695 7.44031 11.3605C7.44911 11.3516 7.49733 11.3339 7.50625 11.3427C7.50977 11.3463 7.50625 11.3605 7.50625 11.3779C7.50625 11.3953 7.50625 11.4131 7.49733 11.4259C7.4849 11.4437 7.44934 11.4527 7.43151 11.4474C7.41368 11.4421 7.41016 11.4171 7.41016 11.4122C7.41896 11.4087 7.44031 11.3997 7.44031 11.3908ZM7.7442 11.1986C7.7442 11.1897 7.77448 11.1719 7.79231 11.1719C7.81894 11.1719 7.81895 11.1932 7.82258 11.1986C7.83138 11.2021 7.83138 11.195 7.8403 11.2111C7.84922 11.2271 7.86177 11.2555 7.85274 11.2734C7.8437 11.2912 7.80827 11.3035 7.79947 11.3C7.78703 11.2911 7.74784 11.2111 7.7442 11.1986Z" fill="#82764F"/>
<path fill-rule="evenodd" clip-rule="evenodd" d="M7.13184 11.4376C7.13184 11.4376 7.17103 11.4464 7.22441 11.491C7.20658 11.5034 7.17983 11.5176 7.17983 11.5176C7.17983 11.5176 7.17631 11.4767 7.13184 11.4375V11.4376Z" fill="#6E6342"/>
<path fill-rule="evenodd" clip-rule="evenodd" d="M7.04438 11.0465C7.03546 11.0377 7.07101 11.0164 7.09237 11.0199C7.11372 11.0234 7.12264 11.0377 7.14575 11.0412C7.16887 11.0448 7.1725 11.0323 7.18095 11.0234C7.1894 11.0145 7.22014 11.0199 7.22542 11.0234C7.22871 11.0273 7.23169 11.0315 7.23434 11.0358C7.23471 11.0291 7.23648 11.0224 7.23953 11.0164C7.24257 11.0103 7.24684 11.005 7.25206 11.0006C7.25888 10.9956 7.26676 10.9922 7.27509 10.9907C7.28342 10.9891 7.29199 10.9895 7.30016 10.9917C7.30368 11.0042 7.32152 11.0486 7.318 11.0575C7.31448 11.0665 7.26109 11.079 7.25206 11.07C7.26097 11.0915 7.30016 11.1359 7.30544 11.1447C7.31072 11.1535 7.26625 11.175 7.24854 11.1715C7.22366 11.1697 7.07054 11.0807 7.04391 11.0469L7.04438 11.0465ZM7.27752 10.7511C7.27422 10.7421 7.26792 10.7346 7.25968 10.7297C7.24725 10.7262 7.2063 10.7297 7.2063 10.7511C7.2063 10.7724 7.2415 10.8919 7.28104 10.9541C7.32562 11.0164 7.35578 11.0679 7.38605 11.0822C7.39556 11.0865 7.40635 11.0871 7.41625 11.0838C7.42616 11.0805 7.43444 11.0735 7.43944 11.0643C7.44296 11.0554 7.45187 10.9896 7.44835 10.8347C7.44483 10.6798 7.43944 10.5304 7.43052 10.5214C7.4216 10.5125 7.38605 10.5126 7.37361 10.5304C7.36118 10.5481 7.28104 10.7244 7.2774 10.7511H7.27752Z" fill="#585136"/>
<path fill-rule="evenodd" clip-rule="evenodd" d="M7.11964 11.6624C7.11964 11.6624 7.05733 11.6232 6.99679 11.65C6.93988 11.6767 6.9434 11.7817 6.9434 11.7817C6.9562 11.7867 6.97004 11.7886 6.9837 11.787C6.99736 11.7854 7.01043 11.7806 7.02178 11.7728C7.06097 11.7462 7.11072 11.7017 7.11964 11.6625V11.6624Z" fill="#574F35"/>
<path fill-rule="evenodd" clip-rule="evenodd" d="M7.23637 11.7945C7.23285 11.7593 7.20117 11.7593 7.20117 11.7411C7.20335 11.7324 7.20839 11.7247 7.21547 11.7192C7.22256 11.7137 7.23128 11.7108 7.24024 11.7108C7.25808 11.7108 7.27544 11.7322 7.29727 11.746C7.31862 11.7585 7.35065 11.7812 7.35417 11.8083C7.35769 11.8354 7.31897 11.9097 7.27591 11.9097C7.23285 11.9097 7.24564 11.8296 7.23672 11.794L7.23637 11.7945ZM7.57992 11.7464C7.57992 11.7464 7.5087 11.7677 7.51398 11.7464C7.51926 11.725 7.53545 11.7197 7.55857 11.7197C7.57031 11.7075 7.58611 11.6998 7.60304 11.6983C7.61272 11.6978 7.62223 11.701 7.62967 11.7072C7.62967 11.7072 7.67778 11.6858 7.69198 11.6983C7.70617 11.7107 7.69561 11.7107 7.70441 11.725C7.71562 11.7409 7.72297 11.7592 7.72589 11.7784C7.72589 11.7926 7.6725 11.8229 7.62967 11.8176C7.57992 11.8069 7.58872 11.7553 7.57992 11.7464ZM7.99458 11.6662C7.99458 11.6662 8.01593 11.6787 7.99822 11.693C7.98578 11.7054 7.92348 11.7282 7.86997 11.7322C7.81659 11.7322 7.7686 11.741 7.7686 11.7233C7.7686 11.7055 7.81307 11.6699 7.8397 11.661C7.84504 11.6543 7.85183 11.6489 7.85955 11.6452C7.86727 11.6415 7.87573 11.6396 7.88429 11.6396C7.90564 11.6396 7.98918 11.6307 8.01241 11.6272C8.03377 11.6235 8.0516 11.636 8.03905 11.6538C8.03377 11.6662 7.99458 11.6662 7.99458 11.6662ZM8.11743 11.1166C8.11743 11.1166 8.09068 11.1736 8.06052 11.1736C8.03025 11.17 8.03025 11.1611 8.03025 11.1522C8.03025 11.1398 8.06052 11.1077 8.05688 11.0988C8.04808 11.0988 8.02661 11.0988 8.03025 11.0775C8.03025 11.0596 8.06052 11.0383 8.08716 11.0423C8.10728 11.0257 8.13234 11.0164 8.15838 11.0156C8.18865 11.0156 8.21528 11.0244 8.21528 11.0423C8.21528 11.0601 8.18008 11.0992 8.16718 11.1082C8.15298 11.1224 8.13515 11.1317 8.11743 11.117V11.1166ZM7.71157 12.1685C7.71157 12.1685 7.67637 12.1722 7.67637 12.1899C7.67637 12.1988 7.68517 12.1988 7.69773 12.1935C7.70496 12.1931 7.71212 12.1919 7.71908 12.1899C7.7226 12.1935 7.7226 12.2113 7.74935 12.2113C7.77132 12.2083 7.79249 12.201 7.81166 12.1899C7.83301 12.1811 7.85085 12.1721 7.85085 12.1547C7.84193 12.1244 7.82409 12.1101 7.79746 12.1101C7.78381 12.1092 7.7702 12.1123 7.75827 12.119C7.75827 12.119 7.74935 12.1012 7.71908 12.119C7.68881 12.1369 7.69233 12.1369 7.70125 12.1458C7.7172 12.16 7.71192 12.1692 7.71192 12.1692L7.71157 12.1685ZM7.51046 12.3537C7.51046 12.3448 7.55493 12.3269 7.56737 12.3323C7.57981 12.3359 7.61536 12.4034 7.61536 12.4106C7.61536 12.4195 7.57089 12.4409 7.55305 12.4409C7.53522 12.4409 7.50507 12.4106 7.50507 12.4057C7.50507 12.4022 7.52642 12.3969 7.52642 12.3932C7.5317 12.3844 7.51046 12.363 7.51046 12.354V12.3537ZM7.36966 12.0938C7.37858 12.0903 7.37858 12.0814 7.39102 12.0724C7.39491 12.0699 7.39935 12.0682 7.40398 12.0676C7.40862 12.067 7.41334 12.0674 7.41777 12.0689C7.42091 12.0633 7.42525 12.0585 7.43049 12.0548C7.43572 12.0511 7.44172 12.0486 7.44804 12.0475C7.4694 12.0439 7.48723 12.0475 7.48324 12.0564C7.48324 12.0831 7.50108 12.1008 7.50108 12.1222C7.50108 12.1435 7.48864 12.1703 7.44417 12.1881C7.3997 12.2006 7.33916 12.2006 7.33024 12.1971C7.32132 12.1935 7.3124 12.1579 7.32132 12.14C7.33024 12.1222 7.35511 12.1027 7.36943 12.0938H7.36966Z" fill="#82764F"/>
<path fill-rule="evenodd" clip-rule="evenodd" d="M7.42643 12.1094C7.42643 12.1094 7.39616 12.1272 7.39616 12.1361C7.39348 12.1447 7.39228 12.1537 7.39264 12.1628C7.39264 12.168 7.43183 12.1592 7.43711 12.1538C7.43887 12.1503 7.42643 12.1186 7.42643 12.1094Z" fill="#6E6342"/>
<path fill-rule="evenodd" clip-rule="evenodd" d="M7.16255 12.0249C7.18027 12.0286 7.21054 12.0249 7.23365 12.0338C7.25149 12.0428 7.26393 12.0606 7.24609 12.082C7.22826 12.1033 7.21089 12.1353 7.17135 12.1299C7.12688 12.1264 7.08417 12.1033 7.08417 12.0855C7.08342 12.0742 7.08493 12.0629 7.08859 12.0522C7.09226 12.0415 7.09801 12.0316 7.10553 12.0232C7.12336 12.009 7.13216 12.0179 7.16243 12.0249H7.16255Z" fill="#585136"/>
<path fill-rule="evenodd" clip-rule="evenodd" d="M7.14026 12.0469C7.14026 12.0469 7.08335 12.0913 7.06903 12.1128C7.0512 12.1342 6.96402 12.2445 6.93739 12.2676C6.94623 12.252 6.95632 12.2371 6.96754 12.2231C6.93234 12.2456 6.90595 12.2795 6.8928 12.3192C6.87145 12.3851 7.01213 12.4207 7.10459 12.4475C7.19705 12.4742 7.23283 12.4827 7.23283 12.4827C7.19879 12.4315 7.16957 12.3773 7.14554 12.3207C7.11034 12.2371 7.09215 12.2282 7.11526 12.189C7.1331 12.1498 7.15985 12.1231 7.15985 12.0929C7.14917 12.0647 7.14026 12.0469 7.14026 12.0469Z" fill="#574F35"/>
<path fill-rule="evenodd" clip-rule="evenodd" d="M5.11156 12.1911C5.12452 12.1934 5.1378 12.1934 5.15075 12.1911C5.17739 12.1874 5.45511 12.0855 5.74528 12.1038C5.9625 12.1169 6.1778 12.1523 6.3878 12.2094C6.7527 12.3055 7.20655 12.4959 7.50023 12.6045C7.5785 12.6347 7.65511 12.6882 7.71143 12.7094C7.93578 12.7967 7.94458 12.7967 8.07634 12.8198C8.23122 12.8412 8.38962 12.7896 8.55518 12.754C8.75805 12.7094 9.10512 12.6881 9.40948 12.6436C9.5079 12.63 9.60498 12.6079 9.69965 12.5778C9.69965 12.5778 9.45759 12.8198 8.87726 12.907C8.64269 12.9426 8.40431 12.9456 8.16892 12.9159C7.98377 12.8981 7.86103 12.8714 7.76846 12.8447C7.66345 12.8144 7.44802 12.7343 7.18285 12.6687C6.9977 12.6206 6.79119 12.5851 6.55453 12.5406C5.97068 12.4337 5.33708 12.311 5.11133 12.1918L5.11156 12.1911Z" fill="#252211"/>
<path fill-rule="evenodd" clip-rule="evenodd" d="M4.45702 11.0938C4.31622 11.213 4.16685 11.3269 4.021 11.4372L3.58136 11.775C3.43187 11.8853 3.28591 11.9992 3.13631 12.1096C2.98671 12.22 2.83735 12.3249 2.67871 12.4264C2.81951 12.3072 2.96888 12.1968 3.11836 12.0883C3.26784 11.9797 3.42284 11.8733 3.56704 11.7633L4.00669 11.425C4.15793 11.3147 4.30389 11.2008 4.45702 11.094V11.0938ZM3.67921 12.3397C3.67921 12.3397 3.83761 12.2079 4.0352 12.0229C4.28078 11.7934 4.58162 11.4996 4.67772 11.4463L3.67909 12.3398L3.67921 12.3397Z" fill="#CFB66C"/>
<path fill-rule="evenodd" clip-rule="evenodd" d="M3.67969 12.3346C3.75807 12.2564 3.84172 12.1799 3.92538 12.105L4.05351 11.9947C4.0927 11.9595 4.13729 11.92 4.17636 11.8808C4.25462 11.8025 4.33124 11.7187 4.4095 11.6387C4.44829 11.5985 4.4893 11.5604 4.53235 11.5248C4.55387 11.5058 4.57777 11.4896 4.60345 11.4767C4.62492 11.4643 4.64804 11.4415 4.67819 11.4375C4.66048 11.4643 4.63912 11.4767 4.62129 11.4998C4.59993 11.5176 4.5821 11.539 4.56438 11.5567C4.52519 11.5959 4.48072 11.6315 4.44153 11.6671C4.35787 11.7383 4.2707 11.8079 4.18704 11.8824C4.10338 11.9569 4.02512 12.0373 3.94134 12.112C3.85064 12.1887 3.76698 12.2634 3.67969 12.335V12.3346ZM4.74414 11.6227C4.74414 11.6227 4.16392 12.1905 4.04459 12.283L4.74414 11.6227Z" fill="#CFB66C"/>
<path fill-rule="evenodd" clip-rule="evenodd" d="M4.74349 11.625C4.69129 11.6854 4.63533 11.7425 4.57593 11.7958L4.39993 11.9632C4.34303 12.0201 4.28952 12.0771 4.2291 12.134C4.16679 12.1874 4.10989 12.2396 4.04395 12.2889L4.21478 12.1216C4.27181 12.0646 4.33411 12.0167 4.39465 11.9596L4.56549 11.7923C4.62416 11.7337 4.68118 11.6766 4.74349 11.625ZM4.77012 11.9329C4.71664 12.0822 4.65362 12.2278 4.58145 12.369C4.43197 12.6681 4.20774 13.0418 4.10977 13.2323L4.77012 11.9329Z" fill="#CFB66C"/>
<path fill-rule="evenodd" clip-rule="evenodd" d="M4.76992 11.9297C4.76992 11.9955 4.75209 12.0525 4.73073 12.1094C4.70991 12.1664 4.68618 12.2222 4.65963 12.2768C4.63287 12.3301 4.6026 12.3872 4.57233 12.4388C4.54206 12.4904 4.50651 12.5437 4.47975 12.5972L4.3 12.914C4.2377 13.0196 4.17715 13.1258 4.11133 13.2273C4.1558 13.1133 4.21634 13.0066 4.27337 12.9016C4.33567 12.796 4.39258 12.6904 4.44937 12.5811C4.47709 12.5267 4.50204 12.4709 4.52411 12.4139C4.55074 12.3569 4.57738 12.3035 4.59885 12.2519C4.62548 12.195 4.64684 12.1415 4.67359 12.09C4.70374 12.0347 4.72874 11.9813 4.76969 11.9297H4.76992Z" fill="#CFB66C"/>
<path fill-rule="evenodd" clip-rule="evenodd" d="M5.40378 13.3906C5.40378 13.3906 5.22778 13.6238 5.24538 13.9192C5.29337 13.7644 5.35391 13.5277 5.40378 13.3906ZM5.5711 13.6244C5.5711 13.6244 5.50879 14.258 5.45716 14.5695C5.53015 14.2094 5.54434 14.2396 5.5711 13.6244ZM6.73692 14.6069C6.73692 14.6069 6.47351 15.3813 6.46811 15.5965C6.52513 15.3752 6.63543 14.9231 6.73692 14.6063V14.6069Z" fill="#DEC270"/>
<path fill-rule="evenodd" clip-rule="evenodd" d="M7.35254 13.3359C7.35254 13.3359 7.77975 14.0408 8.10019 14.6423C8.01348 14.3396 7.81401 13.7844 7.35254 13.3359Z" fill="#CBAF59"/>
<path fill-rule="evenodd" clip-rule="evenodd" d="M8.50098 14.3828C8.73554 14.7974 8.94706 15.2247 9.13458 15.6626C9.09902 15.36 9.00281 14.8421 8.50098 14.3828Z" fill="#E3C677"/>
<path fill-rule="evenodd" clip-rule="evenodd" d="M11.875 15.415C11.9461 15.3706 12.0868 15.1284 12.2097 15.068C12.3324 15.0057 12.425 14.9932 12.5354 14.8704C12.6457 14.7421 12.6762 14.6639 12.918 14.5625C13.2563 14.4164 13.0236 14.2278 13.0236 14.2278C13.0609 14.1912 13.1007 14.1573 13.1428 14.1264C13.2301 14.0606 13.3315 13.9804 13.3227 13.8397C13.3103 13.6031 13.2658 13.2595 13.0717 13.0602C13.2604 13.021 13.6217 12.9943 13.8461 12.9374C14.1059 12.8715 14.2252 12.7789 14.2252 12.7789C14.2252 12.7789 14.0757 12.5244 14.3178 12.2682C14.5599 12.0119 14.7574 11.8588 14.9034 11.5721C14.7361 11.5508 14.481 11.4619 13.83 11.7092C13.8652 11.7257 13.8991 11.7447 13.9315 11.7661C13.9315 11.7661 13.5311 11.8765 13.3851 11.9994C13.1305 12.2147 13.0985 12.3909 12.8226 12.5227C12.5468 12.6544 12.269 12.6188 12.0395 12.7255C11.81 12.8323 11.7761 12.9231 11.6923 12.9623C11.7102 12.9837 11.6888 13.0192 11.7226 13.0495C11.7013 13.0798 11.5767 13.2826 11.4503 13.2826C11.4627 13.3307 11.5695 13.3663 11.5695 13.3663C11.5695 13.3663 11.4912 13.4233 11.2919 13.4375C11.3933 13.5431 11.4895 13.6582 11.7546 13.8255C11.7333 13.87 11.6442 13.9359 11.6799 14.0196C11.7191 14.1033 11.8207 14.2172 12.2263 14.3098C12.0198 14.3186 11.7779 14.3667 11.4519 14.3222C11.1262 14.283 11.0728 14.2599 10.8717 14.3098C10.8931 14.3311 10.95 14.3311 10.9998 14.388C10.9465 14.3916 10.6118 14.3488 10.4979 14.4984C10.3787 14.6532 10.3271 14.9078 10.336 15.0787C10.2737 15.1089 10.2131 15.1623 10.2434 15.2727C10.2737 15.3831 10.4321 15.4187 10.5336 15.488C10.6349 15.5628 10.6439 15.5894 10.7401 15.5717C10.8414 15.5503 10.9909 15.449 11.0782 15.449C11.1655 15.449 11.2277 15.5148 11.2277 15.5148C11.2277 15.5148 11.4645 15.4009 11.4876 15.4222C11.5089 15.4436 11.4911 15.5806 11.5142 15.602C11.5377 15.618 11.8044 15.4596 11.8756 15.415H11.875Z" fill="#ECD592"/>
<path fill-rule="evenodd" clip-rule="evenodd" d="M17.0504 8.28783C15.9379 5.41504 13.1879 4.88281 13.1879 4.88281H5.34191L5.37219 7.80899H6.93471V14.3432H5.3418V17.2641H12.9707C14.8093 17.2641 16.2831 15.4164 16.2831 15.4164C18.6433 12.0667 17.0503 8.28783 17.0503 8.28783H17.0504ZM13.0116 13.4478C13.0116 13.4478 12.4132 14.3111 11.7622 14.3111H10.4598L10.4289 7.81615H12.1003C12.1003 7.81615 12.8747 7.97807 13.4157 9.51056C13.4157 9.51056 14.133 11.7047 13.0116 13.4478Z" fill="white" fill-opacity="0.8"/>
</g>
<defs>
<clipPath id="clip0_48948_109743">
<rect width="22" height="22" fill="white"/>
</clipPath>
</defs>
</svg>
