<svg width="22" height="22" viewBox="0 0 22 22" fill="none" xmlns="http://www.w3.org/2000/svg">
<g clip-path="url(#clip0_48948_109980)">
<path d="M11.0252 4.52331C13.113 4.52331 14.8053 3.52647 14.8053 2.29681C14.8053 1.06715 13.113 0.0703125 11.0252 0.0703125C8.93756 0.0703125 7.24512 1.06715 7.24512 2.29681C7.24512 3.52647 8.93756 4.52331 11.0252 4.52331Z" fill="#FF2670"/>
<path d="M11.0252 21.2889C13.113 21.2889 14.8053 20.2921 14.8053 19.0624C14.8053 17.8328 13.113 16.8359 11.0252 16.8359C8.93756 16.8359 7.24512 17.8328 7.24512 19.0624C7.24512 20.2921 8.93756 21.2889 11.0252 21.2889Z" fill="#FF2670"/>
<path d="M5.75574 7.6015C6.79959 5.77152 6.7931 3.78973 5.74124 3.17506C4.68938 2.56039 2.99047 3.54558 1.94663 5.37557C0.902777 7.20554 0.909273 9.18737 1.96113 9.80199C3.01299 10.4167 4.71189 9.43145 5.75574 7.6015Z" fill="#FF2670"/>
<path d="M20.1042 15.9847C21.1481 14.1547 21.1413 12.1728 20.0892 11.558C19.0371 10.9431 17.338 11.9282 16.2941 13.7582C15.2503 15.5881 15.257 17.57 16.3091 18.1849C17.3612 18.7997 19.0603 17.8146 20.1042 15.9847Z" fill="#FF2670"/>
<path d="M5.74159 18.1849C6.79372 17.57 6.80042 15.5881 5.75657 13.7582C4.71272 11.9282 3.0136 10.9431 1.96148 11.558C0.909348 12.1728 0.902635 14.1547 1.94649 15.9847C2.99034 17.8146 4.68946 18.7997 5.74159 18.1849Z" fill="#FF2670"/>
<path d="M20.0892 9.79425C21.1413 9.17946 21.1481 7.19754 20.1042 5.36756C19.0603 3.53758 17.3612 2.55251 16.3091 3.16734C15.257 3.78217 15.2503 5.76408 16.2941 7.59406C17.338 9.42406 19.0371 10.4091 20.0892 9.79425Z" fill="#FF2670"/>
</g>
<defs>
<clipPath id="clip0_48948_109980">
<rect width="22" height="21.3071" fill="white"/>
</clipPath>
</defs>
</svg>
