<svg width="22" height="22" viewBox="0 0 22 22" fill="none" xmlns="http://www.w3.org/2000/svg">
<g clip-path="url(#clip0_48948_109886)">
<path d="M11 0C17.0751 0 22 4.92487 22 11C22 17.0751 17.0751 22 11 22C4.92487 22 0 17.0751 0 11C0 4.92487 4.92487 0 11 0ZM11 1.1C5.53238 1.1 1.1 5.53238 1.1 11C1.1 16.4676 5.53238 20.9 11 20.9C16.4676 20.9 20.9 16.4676 20.9 11C20.9 5.53238 16.4676 1.1 11 1.1Z" fill="#E53935"/>
<path d="M10.716 8.00781H4.66602V9.10781H10.716V8.00781Z" fill="#E53935"/>
<path d="M17.3164 8.00781H11.8164V9.10781H17.3164V8.00781Z" fill="#E53935"/>
<path d="M17.3164 6.08594H11.8164V7.18594H17.3164V6.08594Z" fill="#E53935"/>
<path d="M9.34063 6.08594H5.76562V7.18594H9.34063V6.08594Z" fill="#E53935"/>
<path d="M15.3634 6.10165L13.6133 4.35156L12.8355 5.12938L14.5856 6.87947L15.3634 6.10165Z" fill="#E53935"/>
<path d="M8.07993 8.98963L9.3418 7.1875L8.44073 6.55657L7.17886 8.3587L8.07993 8.98963Z" fill="#E53935"/>
<path d="M4.20029 9.44935L7.5127 4.71875L6.61163 4.08782L3.29922 8.81842L4.20029 9.44935Z" fill="#E53935"/>
<path d="M12.2636 16.2197L13.3096 13.9766L12.3126 13.5117L11.2667 15.7548L12.2636 16.2197Z" fill="#E53935"/>
<path d="M17.1769 17.2166L15.666 13.9766L16.663 13.5117L18.1738 16.7517L17.1769 17.2166Z" fill="#E53935"/>
<path d="M17.3164 11.5859H11.8164V12.6859H17.3164V11.5859Z" fill="#E53935"/>
<path d="M15.1156 16.5391H12.6406V17.6391H15.1156V16.5391Z" fill="#E53935"/>
<path d="M10.4414 12.6875H4.94141V13.7875H10.4414V12.6875Z" fill="#E53935"/>
<path d="M10.1668 10.4922H5.2168V11.3172H10.1668V10.4922Z" fill="#E53935"/>
<path d="M5.76602 8.83594H4.66602V13.7859H5.76602V8.83594Z" fill="#E53935"/>
<path d="M8.24063 8.83594H7.14062V13.7859H8.24063V8.83594Z" fill="#E53935"/>
<path d="M12.9164 8.83594H11.8164V11.8609H12.9164V8.83594Z" fill="#E53935"/>
<path d="M15.1156 12.1328H14.0156V17.6328H15.1156V12.1328Z" fill="#E53935"/>
<path d="M5.76602 14.6172H4.66602V17.0922H5.76602V14.6172Z" fill="#E53935"/>
<path d="M7.41641 14.6172H6.31641V17.0922H7.41641V14.6172Z" fill="#E53935"/>
<path d="M9.0668 14.6172H7.9668V17.0922H9.0668V14.6172Z" fill="#E53935"/>
<path d="M10.7172 14.6172H9.61719V15.7172H10.7172V14.6172Z" fill="#E53935"/>
<path d="M17.3168 8.83594H16.2168V11.8609H17.3168V8.83594Z" fill="#E53935"/>
<path d="M10.7172 8.83594H9.61719V13.7859H10.7172V8.83594Z" fill="#E53935"/>
</g>
<defs>
<clipPath id="clip0_48948_109886">
<rect width="22" height="22" fill="white"/>
</clipPath>
</defs>
</svg>
