<svg width="18" height="22" viewBox="0 0 18 22" fill="none" xmlns="http://www.w3.org/2000/svg">
<g clip-path="url(#clip0_48948_109663)">
<path fill-rule="evenodd" clip-rule="evenodd" d="M13.7722 9.17534L13.7718 9.17632C14.6694 10.3017 15.2057 11.7271 15.2057 13.2775C15.2057 14.8509 14.6533 16.2956 13.7315 17.4286L13.6522 17.5262L13.6311 17.4022C13.6132 17.2968 13.5922 17.1903 13.5678 17.083C13.1065 15.0562 11.6035 13.3182 9.12982 11.911C7.45941 10.9633 6.50326 9.82221 6.25222 8.52567C6.09008 7.68729 6.2106 6.84518 6.44356 6.12388C6.67645 5.40285 7.02283 4.79873 7.31714 4.43502L8.27958 3.25814C8.44837 3.05179 8.76413 3.05179 8.93292 3.25814L13.7722 9.17534ZM15.2942 7.99981L8.84467 0.112935C8.72147 -0.0376448 8.49096 -0.0376449 8.36782 0.112935L1.91797 7.99944L1.89716 8.02591C0.71027 9.49874 0 11.3704 0 13.4079C0 18.1531 3.85304 22 8.60622 22C13.3594 22 17.2124 18.1531 17.2124 13.4079C17.2124 11.3705 16.5021 9.49874 15.3153 8.02591L15.2942 7.99981ZM3.46122 9.14998L4.03837 8.44421L4.05581 8.57444C4.06962 8.67759 4.08637 8.7813 4.10623 8.88543C4.4795 10.8439 5.81294 12.477 8.04234 13.7417C9.98018 14.8446 11.1085 16.1129 11.4336 17.5039C11.5692 18.0844 11.5934 18.6555 11.5347 19.1549L11.531 19.1857L11.5031 19.1994C10.6284 19.6267 9.64517 19.8665 8.60603 19.8665C4.96119 19.8665 2.00633 16.9166 2.00633 13.2775C2.00633 11.7151 2.55104 10.2794 3.46122 9.14998Z" fill="#F7F7F8"/>
</g>
<defs>
<clipPath id="clip0_48948_109663">
<rect width="17.7222" height="22" fill="white"/>
</clipPath>
</defs>
</svg>
