<svg width="22" height="22" viewBox="0 0 22 22" fill="none" xmlns="http://www.w3.org/2000/svg">
<g clip-path="url(#clip0_48948_109915)">
<path d="M10.9999 20.8142C16.4175 20.8142 20.8093 16.4224 20.8093 11.0048C20.8093 5.58715 16.4175 1.19531 10.9999 1.19531C5.58227 1.19531 1.19043 5.58715 1.19043 11.0048C1.19043 16.4224 5.58227 20.8142 10.9999 20.8142Z" fill="white"/>
<path d="M11 0C8.82441 0 6.69767 0.645139 4.88873 1.85383C3.07979 3.06253 1.66989 4.7805 0.83733 6.79048C0.00476609 8.80047 -0.213071 11.0122 0.211367 13.146C0.635804 15.2798 1.68345 17.2398 3.22183 18.7782C4.76021 20.3166 6.72022 21.3642 8.85401 21.7886C10.9878 22.2131 13.1995 21.9952 15.2095 21.1627C17.2195 20.3301 18.9375 18.9202 20.1462 17.1113C21.3549 15.3023 22 13.1756 22 11C22.0042 9.55966 21.7247 8.13259 21.1774 6.80027C20.63 5.46796 19.8257 4.2565 18.8102 3.23505C17.7946 2.21361 16.5879 1.40218 15.2588 0.847111C13.9297 0.29204 12.5043 0.0041911 11.0639 0H11ZM11.1864 11.3729L10.0412 15.2349H16.1671C16.2077 15.2334 16.2481 15.24 16.2861 15.2543C16.3242 15.2685 16.359 15.2901 16.3887 15.3178C16.4184 15.3455 16.4423 15.3788 16.4591 15.4157C16.476 15.4527 16.4853 15.4926 16.4867 15.5332V15.6344L15.954 17.4722C15.9305 17.5591 15.8782 17.6354 15.8056 17.6886C15.733 17.7419 15.6444 17.7689 15.5545 17.7651H6.17918L7.75061 12.4116L5.99274 12.9443L6.39226 11.7191L8.15013 11.1864L10.3608 3.67554C10.3851 3.58912 10.4377 3.51333 10.5101 3.46024C10.5825 3.40714 10.6706 3.3798 10.7603 3.38257H13.1308C13.1713 3.38114 13.2118 3.38773 13.2498 3.40196C13.2879 3.41618 13.3227 3.43776 13.3524 3.46547C13.3821 3.49317 13.406 3.52646 13.4228 3.56342C13.4396 3.60038 13.449 3.64029 13.4504 3.68087V3.78208L11.586 10.1211L13.3438 9.58838L12.971 10.8668L11.1864 11.3729Z" fill="#345D9D"/>
</g>
<defs>
<clipPath id="clip0_48948_109915">
<rect width="22" height="22" fill="white"/>
</clipPath>
</defs>
</svg>
