<svg width="24" height="22" viewBox="0 0 24 22" fill="none" xmlns="http://www.w3.org/2000/svg">
<g clip-path="url(#clip0_48948_110006)">
<path d="M10.0387 17.8775C10.6807 20.248 12.9749 22.0573 14.1332 21.9854C14.1736 21.9854 18.5285 21.1683 20.9125 17.1771C22.7667 14.0703 22.1382 11.0713 19.615 11.0039C18.7171 11.0713 8.84001 13.3609 10.0387 17.8775Z" fill="#0D3CA4"/>
<path d="M19.3765 2.64898C17.7885 1.29468 15.8496 0.417458 13.7839 0.118736C11.7183 -0.179987 9.61029 0.111984 7.70361 0.960894C7.46182 1.06164 7.22643 1.17709 6.99875 1.30659C6.8461 1.38741 6.68896 1.47271 6.54979 1.5625H6.59019C6.13735 1.87248 5.73847 2.25469 5.40943 2.69388C2.24427 6.88266 12.8846 9.94456 18.5819 9.95354C21.2038 11.8392 21.9401 4.64685 19.3765 2.64898Z" fill="#0D3CA4"/>
<path d="M8.35094 2.73517C6.88734 4.93956 2.01164 6.49295 1.20801 6.25052L1.30678 6.04848C1.57947 5.50608 1.89316 4.98527 2.2451 4.4906C2.95968 3.52999 3.8148 2.68244 4.78172 1.97643C5.08033 1.75086 5.39054 1.54106 5.71107 1.34788C6.20273 1.06679 6.75664 0.912496 7.32283 0.898926C9.49579 0.939332 8.35992 2.69476 8.35094 2.69476" fill="#5494F8"/>
<path d="M7.14724 18.3137C7.25499 19.0051 7.14724 21.7393 7.00357 21.9727C6.88235 21.9727 6.63094 21.9952 5.89464 21.5821C5.50888 21.3628 5.13704 21.1199 4.78123 20.8548C4.30317 20.5006 3.8529 20.1104 3.43435 19.6875C3.01034 19.27 2.62003 18.8197 2.26706 18.3406C1.54805 17.3653 0.988841 16.2817 0.610399 15.1306C0.412079 14.5452 0.261927 13.9446 0.16144 13.3347C-0.0420947 12.0784 -0.0420947 10.7974 0.16144 9.54104C0.262964 8.93142 0.413096 8.33089 0.610399 7.74521C0.646316 7.62848 0.686722 7.51175 0.731618 7.39502C1.57117 8.51742 2.52745 9.53206 3.37599 10.6634C4.22452 11.7948 5.24814 13.5009 5.46813 13.878C6.81501 16.2081 7.05745 17.6492 7.16071 18.3406" fill="#5494F8"/>
<path d="M23.3456 11.4196C23.3472 12.8902 23.0715 14.3478 22.533 15.7162C21.1592 17.1933 11.8882 13.5522 11.7984 13.5118C10.5278 12.9551 6.67129 11.267 6.3211 8.60018C5.83622 4.77056 13.5718 2.10375 16.9794 2.00049C17.3879 2.00049 18.6316 2.00049 19.3544 2.61107C20.6104 3.70886 21.6166 5.06312 22.3051 6.58259C22.9936 8.10207 23.3484 9.75147 23.3456 11.4196Z" fill="#5494F8"/>
<path d="M17.0602 21.79C16.05 22.2659 14.9366 21.9202 15.2285 20.9325C15.7807 19.0424 20.616 17.0984 21.698 16.9951C21.8281 16.9951 21.8865 17.0714 21.8281 17.1747C20.7119 19.1367 19.0574 20.7382 17.0602 21.79Z" fill="#5494F8"/>
</g>
<defs>
<clipPath id="clip0_48948_110006">
<rect width="23.3459" height="22" fill="white"/>
</clipPath>
</defs>
</svg>
