<svg width="22" height="22" viewBox="0 0 22 22" fill="none" xmlns="http://www.w3.org/2000/svg">
<g clip-path="url(#clip0_48948_109919)">
<path d="M10.8673 21.85L10.8687 18.1653C10.4975 18.1653 10.1233 18.1357 9.75709 18.0772L9.18548 21.7171C9.73985 21.8053 10.3057 21.85 10.868 21.85H10.8673ZM12.5491 21.7186C13.105 21.6304 13.6572 21.4982 14.1915 21.3241L13.0641 17.8185C12.7122 17.9334 12.3474 18.0208 11.9804 18.0786L12.5491 21.7186ZM7.54241 21.3219L8.67272 17.817C8.32013 17.7022 7.9747 17.5577 7.64509 17.3886L5.98049 20.6709C6.481 20.9281 7.00667 21.1471 7.54241 21.3219ZM15.7527 20.6753C16.2539 20.4188 16.7387 20.1197 17.194 19.7866L15.0389 16.807C14.7394 17.0267 14.4206 17.2232 14.091 17.3915L15.7527 20.6753ZM4.53993 19.7808L6.69717 16.8027C6.39916 16.5845 6.11477 16.3388 5.85051 16.0737L3.25881 18.6776L3.26095 18.6797C3.65879 19.08 4.08896 19.4506 4.53993 19.7808ZM18.4579 18.7021L18.4801 18.679C18.8765 18.2802 19.2442 17.8481 19.5731 17.3951L16.6137 15.224C16.3968 15.5231 16.1534 15.8092 15.8906 16.0744L15.854 16.112L17.0992 17.2947L18.4579 18.7021ZM2.16295 17.3879L5.12376 15.2189C4.90547 14.9177 4.71013 14.5969 4.54208 14.2653L1.27894 15.9378C1.53387 16.4414 1.83117 16.9291 2.16295 17.3872V17.3879ZM20.4586 15.9451C20.7142 15.4415 20.9318 14.9126 21.1063 14.3736L17.6227 13.2357C17.5085 13.5904 17.3649 13.938 17.1968 14.2696L20.4586 15.9451ZM0.633345 14.3657L4.11769 13.2306C4.00349 12.8766 3.91661 12.5096 3.85842 12.1404L0.240533 12.7141C0.328143 13.2733 0.460278 13.8289 0.633345 14.3664V14.3657ZM21.4998 12.722C21.5874 12.1642 21.632 11.5949 21.6327 11.0299L17.9703 11.0277C17.9703 11.4013 17.9408 11.7777 17.8826 12.1469L21.4998 12.722ZM3.77154 11.022C3.77154 10.6484 3.80099 10.2713 3.85842 9.90282L0.240533 9.32913C0.152921 9.8869 0.109117 10.4562 0.108398 11.0212H3.77084L3.77154 11.022ZM17.8841 9.90859L21.502 9.33708C21.4151 8.77787 21.283 8.22228 21.1106 7.68473L17.6256 8.81762C17.7397 9.17237 17.8266 9.53868 17.8841 9.90786V9.90859ZM4.11769 8.81327C4.23185 8.45853 4.37547 8.11028 4.5428 7.77865L1.27966 6.10536C1.02472 6.60893 0.807132 7.13781 0.633345 7.67678L4.11696 8.81327H4.11769ZM17.2011 7.78373L20.4657 6.11331C20.2108 5.60899 19.9135 5.12131 19.5824 4.66325L16.6202 6.83074C16.8378 7.13203 17.0331 7.45282 17.2011 7.78445V7.78373ZM5.12521 6.82497C5.3428 6.52439 5.58695 6.23684 5.85123 5.9717L5.8584 5.96446L3.26885 3.35914L3.26168 3.36636C2.86384 3.76663 2.49472 4.20086 2.1651 4.6553L5.12521 6.82497ZM15.9035 5.9847L16.6855 5.18201L18.4859 3.37141L18.4801 3.36563C18.0845 2.96754 17.6557 2.59835 17.2062 2.26816L15.0475 5.24485C15.3448 5.46306 15.6284 5.70726 15.8906 5.9717L15.9035 5.9847ZM6.70579 5.2369C7.00525 5.01799 7.3241 4.82147 7.65371 4.65313L5.99413 1.36865C5.49287 1.62514 5.00814 1.92353 4.55287 2.2566L6.70579 5.2369ZM14.1003 4.6589L15.767 1.37804C15.2665 1.12083 14.7416 0.901194 14.2059 0.726348L13.0734 4.23047C13.426 4.34606 13.7714 4.48983 14.101 4.65962L14.1003 4.6589ZM8.68207 4.22614C9.03466 4.11198 9.39947 4.02455 9.76571 3.96675L9.19912 0.326085C8.64399 0.413508 8.09104 0.545726 7.55675 0.719847L8.68207 4.22614ZM11.9897 3.96893L12.5628 0.328974C12.0084 0.24083 11.4425 0.195312 10.881 0.195312L10.8774 3.88005C11.2486 3.88005 11.6228 3.91041 11.9897 3.96893Z" fill="white"/>
<path d="M10.8688 18.3315V14.6282C10.5594 14.6282 10.2508 14.5876 9.95229 14.5084L8.99662 18.0861C9.60664 18.2488 10.2363 18.3315 10.8688 18.3315ZM12.741 18.0861C13.3532 17.9227 13.9421 17.6795 14.4897 17.3629L12.6364 14.1562C12.3699 14.3102 12.0837 14.4285 11.786 14.5077L12.741 18.0861ZM7.24715 17.3622L9.10118 14.1562C8.83539 14.0023 8.5892 13.8128 8.36842 13.5927L8.33431 13.5593L7.16438 14.7909L5.72866 16.1901L5.7497 16.2105C6.1985 16.6592 6.70251 17.0463 7.24787 17.3622H7.24715ZM15.9879 16.2119H15.9886C16.4367 15.7624 16.8237 15.2592 17.1389 14.7146L13.9334 12.8601C13.7794 13.1258 13.5899 13.372 13.3699 13.592L15.9879 16.2119ZM4.59431 14.7066L7.80271 12.8564C7.64877 12.5899 7.5311 12.3038 7.45196 12.0054L3.87245 12.9574C4.03512 13.5695 4.27839 14.1584 4.59431 14.7066ZM17.8637 12.9668C18.0263 12.3568 18.1091 11.7273 18.1099 11.0948L14.4062 11.0934C14.4062 11.4034 14.3655 11.712 14.2856 12.0105L17.8637 12.9668ZM7.33285 11.089C7.33285 10.7789 7.37353 10.4703 7.45413 10.1719L3.8768 9.21338C3.71341 9.82335 3.62988 10.4529 3.62988 11.0854L7.33357 11.089H7.33285ZM14.2863 10.1763L17.8651 9.22282C17.7017 8.61068 17.4584 8.02178 17.1425 7.47429L13.9349 9.32594C14.0888 9.59242 14.2072 9.87853 14.2863 10.1763ZM7.80634 9.32159C7.95811 9.05945 8.14547 8.81619 8.3619 8.59833L8.37135 8.58891L7.04672 7.26444L5.77294 5.95083L5.7497 5.97335C5.30235 6.42065 4.916 6.92243 4.60156 7.46557L7.80634 9.32159ZM13.3721 8.59326L14.6836 7.28185L16.022 6.00676L15.9886 5.97262C15.5413 5.52532 15.038 5.13828 14.4941 4.82313L12.6386 8.02833C12.9007 8.1801 13.1447 8.36744 13.3626 8.58381L13.3721 8.59326ZM9.10335 8.02615C9.36917 7.87221 9.65529 7.75457 9.95374 7.6747L9.00096 4.09628C8.38804 4.25965 7.79982 4.50219 7.25152 4.81879L9.10335 8.02615ZM11.7882 7.67615L12.746 4.09845C12.136 3.93506 11.5064 3.85229 10.8739 3.85156L10.8717 7.55489C11.1818 7.55489 11.4904 7.59555 11.7889 7.67542L11.7882 7.67615Z" fill="white"/>
</g>
<defs>
<clipPath id="clip0_48948_109919">
<rect width="21.7412" height="22" fill="white"/>
</clipPath>
</defs>
</svg>
