<svg width="32" height="15" viewBox="0 0 32 15" fill="none" xmlns="http://www.w3.org/2000/svg">
<g clip-path="url(#clip0_48948_109923)">
<path d="M26.9206 6.60811V0.64976C26.9206 0.29927 26.6401 0.0139148 26.2879 0.00616061C25.9263 -0.0015936 25.5631 0.00460977 25.2077 0.0247707C23.685 0.110067 22.2152 0.449701 20.8374 1.03437C19.7494 1.49652 18.7191 2.1122 17.7777 2.86126C17.1216 3.3839 16.5293 3.9515 16.0181 4.55168C15.9947 4.57804 15.9744 4.60596 15.951 4.63232C15.9292 4.60596 15.9074 4.57804 15.884 4.55168C15.3712 3.95305 14.7805 3.3839 14.1243 2.86126C13.1829 2.11066 12.1526 1.49652 11.0647 1.03437C9.68845 0.448151 8.21865 0.108516 6.69588 0.0247707C6.34049 0.00460977 5.97736 -4.27586e-05 5.61576 0.00616061C5.26347 0.0139148 4.98293 0.29927 4.98293 0.64976V6.60811H0V12.8533H6.27659V7.94027C7.01383 8.02399 7.67002 8.23648 8.26231 8.58385C8.72053 8.8537 9.16318 9.23211 9.61676 9.74234C9.83183 9.98426 10.0298 10.2433 10.2402 10.5162C10.4335 10.7659 10.6314 11.0265 10.848 11.2761C10.873 11.3056 10.898 11.332 10.9244 11.3614L10.9587 11.3987L11.4372 10.9753L10.9619 11.4111C12.5828 13.162 14.1368 14.1359 15.5816 14.3065C15.7219 14.3236 15.8622 14.3313 16.004 14.3313C17.5533 14.3313 19.2132 13.3465 20.9449 11.3987L20.9807 11.3583C21.0057 11.332 21.0291 11.304 21.0524 11.2777C21.2691 11.028 21.467 10.769 21.6603 10.5193C21.8707 10.2464 22.0686 9.98736 22.2853 9.74545C22.7389 9.23522 23.183 8.85528 23.6397 8.58695C24.232 8.23801 24.8866 8.0271 25.6255 7.94337V12.8564H31.902V6.61122H26.9191L26.9206 6.60811ZM4.98293 11.5646H1.29366V7.89528H4.9814V11.5646H4.98293ZM20.6347 9.73303C20.4446 9.97962 20.2669 10.2123 20.0736 10.434L19.977 10.541C18.4074 12.3075 16.9408 13.1682 15.7344 13.0239C14.6246 12.8921 13.306 12.0345 11.922 10.5426L11.9251 10.5395L11.83 10.4325C11.6383 10.2107 11.4591 9.9781 11.2689 9.72993C11.0538 9.45081 10.8325 9.16233 10.5862 8.88627C10.0407 8.27369 9.49674 7.81155 8.92002 7.47192C8.1376 7.01289 7.25077 6.73525 6.27659 6.64221V1.29491C6.3935 1.29801 6.50885 1.30266 6.62419 1.30887C7.99575 1.38486 9.31907 1.69038 10.5581 2.21766C11.5385 2.63484 12.4659 3.18849 13.3169 3.86621C13.9092 4.33766 14.4407 4.84945 14.9005 5.38605C15.0346 5.54423 15.1624 5.70552 15.298 5.87765L15.3931 6.00016C15.5317 6.25917 15.8029 6.52281 16.096 6.80503C17.6047 8.26595 19.3441 9.12045 21.0259 9.23058C20.8903 9.39808 20.7609 9.56553 20.6347 9.7315V9.73303ZM22.9835 7.47345C22.7825 7.59132 22.5846 7.72472 22.3897 7.87359C22.2432 7.89528 22.0998 7.9139 21.9611 7.92632C21.8505 7.93716 21.7382 7.9449 21.6245 7.95111C21.52 7.95579 21.4156 7.95732 21.3096 7.95579C19.8788 7.92785 18.3467 7.19123 16.9953 5.88386C16.9563 5.84661 16.8691 5.75667 16.7771 5.659C16.8519 5.56592 16.9252 5.47445 17.0016 5.38605C17.4598 4.84945 17.9928 4.33766 18.5851 3.86621C19.4346 3.18849 20.3635 2.63484 21.3439 2.21766C22.5814 1.69038 23.9062 1.38486 25.2779 1.30887C25.3932 1.30266 25.5085 1.29801 25.6255 1.29491V6.64221C24.6497 6.73525 23.7629 7.01289 22.982 7.47192L22.9835 7.47345ZM30.61 11.5646H26.9222V7.89528H30.61V11.5646Z" fill="url(#paint0_linear_48948_109923)"/>
</g>
<defs>
<linearGradient id="paint0_linear_48948_109923" x1="19.8822" y1="17.509" x2="30.1247" y2="-8.79989" gradientUnits="userSpaceOnUse">
<stop stop-color="#54EEF6"/>
<stop offset="1" stop-color="#72FFA0"/>
</linearGradient>
<clipPath id="clip0_48948_109923">
<rect width="32" height="14.3284" fill="white"/>
</clipPath>
</defs>
</svg>
