<?xml version="1.0" encoding="UTF-8"?>
<!DOCTYPE svg PUBLIC "-//W3C//DTD SVG 1.1//EN" "http://www.w3.org/Graphics/SVG/1.1/DTD/svg11.dtd">
<svg xmlns="http://www.w3.org/2000/svg" version="1.1" width="4500px" height="4500px" style="shape-rendering:geometricPrecision; text-rendering:geometricPrecision; image-rendering:optimizeQuality; fill-rule:evenodd; clip-rule:evenodd" xmlns:xlink="http://www.w3.org/1999/xlink">
<g><path style="opacity:0.999" fill="#0a173a" d="M 2193.5,18.5 C 2647.29,9.42909 3065.95,124.929 3449.5,365C 3824.63,606.465 4105.13,929.965 4291,1335.5C 4442.29,1675.63 4505.95,2031.63 4482,2403.5C 4448.57,2858.37 4293.57,3265.37 4017,3624.5C 3769.68,3939.13 3460.84,4172.63 3090.5,4325C 2736.25,4466.03 2369.59,4515.03 1990.5,4472C 1583.52,4421.98 1217.85,4273.65 893.5,4027C 565.757,3772.88 324.924,3453.05 171,3067.5C 37.1989,2720.55 -8.80108,2362.22 33,1992.5C 83.1339,1580.13 234.134,1210.46 486,883.5C 757.578,537.363 1101.08,290.196 1516.5,142C 1735.96,66.14 1961.62,24.9733 2193.5,18.5 Z"/></g>
<g><path style="opacity:1" fill="#1ef2bd" d="M 2464.5,1184.5 C 2460.83,1184.5 2457.17,1184.5 2453.5,1184.5C 2453.17,1445.57 2453.5,1706.57 2454.5,1967.5C 2406.02,1960.99 2357.35,1956.32 2308.5,1953.5C 2306.5,1697.04 2305.84,1440.37 2306.5,1183.5C 2359.33,1181.98 2412,1182.32 2464.5,1184.5 Z"/></g>
<g><path style="opacity:1" fill="#21f1bf" d="M 2306.5,1183.5 C 2305.84,1440.37 2306.5,1697.04 2308.5,1953.5C 2263.57,1950.31 2218.57,1948.64 2173.5,1948.5C 2163.35,1947.51 2153.01,1947.17 2142.5,1947.5C 2142.5,1695.83 2142.5,1444.17 2142.5,1192.5C 2196.99,1187.26 2251.66,1184.26 2306.5,1183.5 Z"/></g>
<g><path style="opacity:1" fill="#1cf3bb" d="M 2464.5,1184.5 C 2467.83,1184.5 2471.17,1184.5 2474.5,1184.5C 2474.5,1446.17 2474.5,1707.83 2474.5,1969.5C 2475.79,1969.26 2476.79,1969.6 2477.5,1970.5C 2469.84,1969.42 2462.18,1968.42 2454.5,1967.5C 2453.5,1706.57 2453.17,1445.57 2453.5,1184.5C 2457.17,1184.5 2460.83,1184.5 2464.5,1184.5 Z"/></g>
<g><path style="opacity:1" fill="#1af4b9" d="M 2474.5,1184.5 C 2543.72,1187.15 2612.72,1192.48 2681.5,1200.5C 2681.5,1469.5 2681.5,1738.5 2681.5,2007.5C 2682.79,2007.26 2683.79,2007.6 2684.5,2008.5C 2616.01,1993 2547.01,1980.33 2477.5,1970.5C 2476.79,1969.6 2475.79,1969.26 2474.5,1969.5C 2474.5,1707.83 2474.5,1446.17 2474.5,1184.5 Z"/></g>
<g><path style="opacity:1" fill="#24f0c2" d="M 2142.5,1192.5 C 2142.5,1444.17 2142.5,1695.83 2142.5,1947.5C 2153.01,1947.17 2163.35,1947.51 2173.5,1948.5C 2112.12,1947.81 2050.79,1949.14 1989.5,1952.5C 1988.17,1952.5 1986.83,1952.5 1985.5,1952.5C 1985.5,1705.17 1985.5,1457.83 1985.5,1210.5C 2037.62,1202.78 2089.95,1196.78 2142.5,1192.5 Z"/></g>
<g><path style="opacity:1" fill="#17f5b6" d="M 2681.5,1200.5 C 2723.48,1205.2 2765.15,1211.2 2806.5,1218.5C 2805.5,1492.33 2805.17,1766.33 2805.5,2040.5C 2765.39,2029.02 2725.06,2018.35 2684.5,2008.5C 2683.79,2007.6 2682.79,2007.26 2681.5,2007.5C 2681.5,1738.5 2681.5,1469.5 2681.5,1200.5 Z"/></g>
<g><path style="opacity:1" fill="#27efc5" d="M 1985.5,1210.5 C 1985.5,1457.83 1985.5,1705.17 1985.5,1952.5C 1986.83,1952.5 1988.17,1952.5 1989.5,1952.5C 1930.16,1956.9 1870.82,1962.9 1811.5,1970.5C 1810.5,1727.67 1810.17,1484.67 1810.5,1241.5C 1868.14,1228.31 1926.48,1217.97 1985.5,1210.5 Z"/></g>
<g><path style="opacity:1" fill="#14f6b3" d="M 2806.5,1218.5 C 2872.95,1229.25 2938.61,1242.92 3003.5,1259.5C 3003.5,1542.83 3003.5,1826.17 3003.5,2109.5C 2938.65,2083.33 2872.65,2060.33 2805.5,2040.5C 2805.17,1766.33 2805.5,1492.33 2806.5,1218.5 Z"/></g>
<g><path style="opacity:1" fill="#2aeec8" d="M 1810.5,1241.5 C 1810.17,1484.67 1810.5,1727.67 1811.5,1970.5C 1757.4,1979.07 1703.4,1988.74 1649.5,1999.5C 1649.5,1760.5 1649.5,1521.5 1649.5,1282.5C 1702.57,1266.48 1756.23,1252.82 1810.5,1241.5 Z"/></g>
<g><path style="opacity:1" fill="#10f8b0" d="M 3003.5,1259.5 C 3067.86,1275.29 3131.2,1294.29 3193.5,1316.5C 3192.5,1611 3192.17,1905.67 3192.5,2200.5C 3131.39,2166.11 3068.39,2135.78 3003.5,2109.5C 3003.5,1826.17 3003.5,1542.83 3003.5,1259.5 Z"/></g>
<g><path style="opacity:1" fill="#2deccc" d="M 1649.5,1282.5 C 1649.5,1521.5 1649.5,1760.5 1649.5,1999.5C 1573.12,2015.76 1497.78,2036.1 1423.5,2060.5C 1423.5,1827.5 1423.5,1594.5 1423.5,1361.5C 1497.23,1330.81 1572.56,1304.48 1649.5,1282.5 Z"/></g>
<g><path style="opacity:1" fill="#0ef8ad" d="M 3193.5,1316.5 C 3215.8,1323.9 3237.8,1331.9 3259.5,1340.5C 3257.5,1639.5 3256.83,1938.83 3257.5,2238.5C 3236,2225.58 3214.33,2212.91 3192.5,2200.5C 3192.17,1905.67 3192.5,1611 3193.5,1316.5 Z"/></g>
<g><path style="opacity:1" fill="#0df9ac" d="M 3259.5,1340.5 C 3282.02,1348.43 3304.02,1357.43 3325.5,1367.5C 3324.5,1672.33 3324.17,1977.33 3324.5,2282.5C 3302.3,2267.57 3279.97,2252.9 3257.5,2238.5C 3256.83,1938.83 3257.5,1639.5 3259.5,1340.5 Z"/></g>
<g><path style="opacity:1" fill="#30ebcf" d="M 1423.5,1361.5 C 1423.5,1594.5 1423.5,1827.5 1423.5,2060.5C 1396.87,2069.6 1370.2,2078.93 1343.5,2088.5C 1342.5,1858.33 1342.17,1628 1342.5,1397.5C 1369.12,1384.69 1396.12,1372.69 1423.5,1361.5 Z"/></g>
<g><path style="opacity:1" fill="#0afaaa" d="M 3325.5,1367.5 C 3394.17,1395.67 3460.5,1428.34 3524.5,1465.5C 3524.17,1940.67 3524.5,2415.67 3525.5,2890.5C 3463,2942.97 3396.34,2989.64 3325.5,3030.5C 3324.5,2805.33 3324.17,2580 3324.5,2354.5C 3342.07,2345.71 3359.74,2336.88 3377.5,2328C 3378.57,2327.26 3379.24,2326.26 3379.5,2325C 3378.06,2322.26 3376.06,2319.92 3373.5,2318C 3357.1,2306.15 3340.77,2294.31 3324.5,2282.5C 3324.17,1977.33 3324.5,1672.33 3325.5,1367.5 Z"/></g>
<g><path style="opacity:1" fill="#33ead2" d="M 1342.5,1397.5 C 1342.17,1628 1342.5,1858.33 1343.5,2088.5C 1279.63,2113.26 1216.96,2141.1 1155.5,2172C 1149.67,2175.08 1144,2178.41 1138.5,2182C 1181.75,2215.97 1227.08,2246.97 1274.5,2275C 1297.07,2288.11 1319.73,2300.95 1342.5,2313.5C 1342.5,2610.17 1342.5,2906.83 1342.5,3203.5C 1256.82,3175.98 1173.49,3142.98 1092.5,3104.5C 1092.5,2583.5 1092.5,2062.5 1092.5,1541.5C 1171.29,1486.41 1254.62,1438.41 1342.5,1397.5 Z"/></g>
<g><path style="opacity:1" fill="#07fba7" d="M 3524.5,1465.5 C 3567.02,1488.92 3608.02,1514.58 3647.5,1542.5C 3646.17,1781.5 3646.17,2020.5 3647.5,2259.5C 3610.57,2285.31 3572.24,2309.15 3532.5,2331C 3529.49,2332.68 3527.15,2335.01 3525.5,2338C 3526.58,2340.16 3527.91,2342.16 3529.5,2344C 3571.26,2379.26 3610.6,2417.1 3647.5,2457.5C 3646.17,2563.17 3646.17,2668.83 3647.5,2774.5C 3616.31,2809.53 3582.97,2842.36 3547.5,2873C 3540.29,2879.05 3532.96,2884.88 3525.5,2890.5C 3524.5,2415.67 3524.17,1940.67 3524.5,1465.5 Z"/></g>
<g><path style="opacity:1" fill="#37e8d5" d="M 1092.5,1541.5 C 1092.5,2062.5 1092.5,2583.5 1092.5,3104.5C 1049.3,3084.9 1007.3,3063.24 966.5,3039.5C 966.5,2755.5 966.5,2471.5 966.5,2187.5C 970.139,2185.34 973.806,2183.18 977.5,2181C 980.183,2178.03 980.016,2175.2 977,2172.5C 973.308,2169.64 969.808,2166.64 966.5,2163.5C 966.5,1988.5 966.5,1813.5 966.5,1638.5C 1006.73,1603.74 1048.73,1571.4 1092.5,1541.5 Z"/></g>
<g><path style="opacity:1" fill="#04fca4" d="M 3647.5,1542.5 C 3723.12,1594.42 3792.79,1653.76 3856.5,1720.5C 3856.5,1841.83 3856.5,1963.17 3856.5,2084.5C 3847.4,2095.1 3837.74,2105.27 3827.5,2115C 3771.64,2168.71 3711.64,2216.87 3647.5,2259.5C 3646.17,2020.5 3646.17,1781.5 3647.5,1542.5 Z"/></g>
<g><path style="opacity:1" fill="#39e7d7" d="M 966.5,1638.5 C 966.5,1813.5 966.5,1988.5 966.5,2163.5C 923.201,2127.2 883.201,2087.53 846.5,2044.5C 846.5,1949.17 846.5,1853.83 846.5,1758.5C 883.479,1715.52 923.479,1675.52 966.5,1638.5 Z"/></g>
<g><path style="opacity:1" fill="#01fda1" d="M 3856.5,1720.5 C 3908.49,1773.53 3953.99,1831.53 3993,1894.5C 3995.24,1900.48 3994.58,1906.14 3991,1911.5C 3952.91,1974.3 3908.08,2031.97 3856.5,2084.5C 3856.5,1963.17 3856.5,1841.83 3856.5,1720.5 Z"/></g>
<g><path style="opacity:1" fill="#3be6d9" d="M 846.5,1758.5 C 846.5,1853.83 846.5,1949.17 846.5,2044.5C 807.88,2001.03 774.046,1954.03 745,1903.5C 743.662,1897.22 744.996,1891.56 749,1886.5C 777.911,1841.09 810.411,1798.42 846.5,1758.5 Z"/></g>
<g><path style="opacity:1" fill="#0a173a" d="M 2173.5,1948.5 C 2218.57,1948.64 2263.57,1950.31 2308.5,1953.5C 2357.35,1956.32 2406.02,1960.99 2454.5,1967.5C 2462.18,1968.42 2469.84,1969.42 2477.5,1970.5C 2547.01,1980.33 2616.01,1993 2684.5,2008.5C 2725.06,2018.35 2765.39,2029.02 2805.5,2040.5C 2872.65,2060.33 2938.65,2083.33 3003.5,2109.5C 3068.39,2135.78 3131.39,2166.11 3192.5,2200.5C 3214.33,2212.91 3236,2225.58 3257.5,2238.5C 3279.97,2252.9 3302.3,2267.57 3324.5,2282.5C 3340.77,2294.31 3357.1,2306.15 3373.5,2318C 3376.06,2319.92 3378.06,2322.26 3379.5,2325C 3379.24,2326.26 3378.57,2327.26 3377.5,2328C 3359.74,2336.88 3342.07,2345.71 3324.5,2354.5C 3302.43,2364.21 3280.43,2373.87 3258.5,2383.5C 3236.76,2392.19 3215.09,2400.85 3193.5,2409.5C 3130.93,2432.8 3067.6,2453.47 3003.5,2471.5C 2938.18,2489.1 2872.18,2503.76 2805.5,2515.5C 2764.31,2522.82 2722.98,2529.15 2681.5,2534.5C 2612.69,2542.56 2543.69,2548.23 2474.5,2551.5C 2467.31,2551.18 2460.31,2551.51 2453.5,2552.5C 2404.5,2552.5 2355.5,2552.5 2306.5,2552.5C 2252.43,2550.9 2198.43,2547.9 2144.5,2543.5C 2092.52,2538.09 2040.52,2531.75 1988.5,2524.5C 1929.64,2513.93 1870.97,2501.93 1812.5,2488.5C 1758.48,2475.15 1704.82,2460.15 1651.5,2443.5C 1574.51,2418.17 1499.17,2388.5 1425.5,2354.5C 1397.75,2341.12 1370.08,2327.46 1342.5,2313.5C 1319.73,2300.95 1297.07,2288.11 1274.5,2275C 1227.08,2246.97 1181.75,2215.97 1138.5,2182C 1144,2178.41 1149.67,2175.08 1155.5,2172C 1216.96,2141.1 1279.63,2113.26 1343.5,2088.5C 1370.2,2078.93 1396.87,2069.6 1423.5,2060.5C 1497.78,2036.1 1573.12,2015.76 1649.5,1999.5C 1703.4,1988.74 1757.4,1979.07 1811.5,1970.5C 1870.82,1962.9 1930.16,1956.9 1989.5,1952.5C 2050.79,1949.14 2112.12,1947.81 2173.5,1948.5 Z"/></g>
<g><path style="opacity:1" fill="#39e7d7" d="M 966.5,2187.5 C 966.5,2471.5 966.5,2755.5 966.5,3039.5C 925.112,3016.15 885.112,2990.82 846.5,2963.5C 846.5,2730.5 846.5,2497.5 846.5,2264.5C 885.142,2236.84 925.142,2211.17 966.5,2187.5 Z"/></g>
<g><path style="opacity:1" fill="#3be6d9" d="M 846.5,2264.5 C 846.5,2497.5 846.5,2730.5 846.5,2963.5C 816.675,2943.34 788.009,2921.67 760.5,2898.5C 760.5,2709.17 760.5,2519.83 760.5,2330.5C 788.288,2307.38 816.955,2285.38 846.5,2264.5 Z"/></g>
<g><path style="opacity:1" fill="#30ebcf" d="M 1342.5,2313.5 C 1370.08,2327.46 1397.75,2341.12 1425.5,2354.5C 1423.5,2645.16 1422.83,2936.16 1423.5,3227.5C 1396.26,3220.31 1369.26,3212.31 1342.5,3203.5C 1342.5,2906.83 1342.5,2610.17 1342.5,2313.5 Z"/></g>
<g><path style="opacity:1" fill="#3de6db" d="M 760.5,2330.5 C 760.5,2519.83 760.5,2709.17 760.5,2898.5C 719.739,2866.08 681.405,2830.75 645.5,2792.5C 645.5,2674.17 645.5,2555.83 645.5,2437.5C 681.7,2399.29 720.034,2363.62 760.5,2330.5 Z"/></g>
<g><path style="opacity:1" fill="#2deccc" d="M 1425.5,2354.5 C 1499.17,2388.5 1574.51,2418.17 1651.5,2443.5C 1649.5,2721.83 1648.83,3000.5 1649.5,3279.5C 1573.09,3266.35 1497.75,3249.02 1423.5,3227.5C 1422.83,2936.16 1423.5,2645.16 1425.5,2354.5 Z"/></g>
<g><path style="opacity:1" fill="#0df9ac" d="M 3324.5,2354.5 C 3324.17,2580 3324.5,2805.33 3325.5,3030.5C 3303.66,3043.59 3281.32,3055.92 3258.5,3067.5C 3257.17,2839.6 3257.17,2611.6 3258.5,2383.5C 3280.43,2373.87 3302.43,2364.21 3324.5,2354.5 Z"/></g>
<g><path style="opacity:1" fill="#0ef8ad" d="M 3258.5,2383.5 C 3257.17,2611.6 3257.17,2839.6 3258.5,3067.5C 3237.59,3079.79 3215.92,3090.79 3193.5,3100.5C 3192.17,2870.26 3192.17,2639.93 3193.5,2409.5C 3215.09,2400.85 3236.76,2392.19 3258.5,2383.5 Z"/></g>
<g><path style="opacity:1" fill="#10f8b0" d="M 3193.5,2409.5 C 3192.17,2639.93 3192.17,2870.26 3193.5,3100.5C 3131.87,3130.64 3068.54,3156.97 3003.5,3179.5C 3003.5,2943.5 3003.5,2707.5 3003.5,2471.5C 3067.6,2453.47 3130.93,2432.8 3193.5,2409.5 Z"/></g>
<g><path style="opacity:1" fill="#3fe5dd" d="M 645.5,2437.5 C 645.5,2555.83 645.5,2674.17 645.5,2792.5C 593.152,2737.71 548.152,2677.71 510.5,2612.5C 548.918,2549.45 593.918,2491.12 645.5,2437.5 Z"/></g>
<g><path style="opacity:1" fill="#2aeec8" d="M 1651.5,2443.5 C 1704.82,2460.15 1758.48,2475.15 1812.5,2488.5C 1810.5,2759.83 1809.83,3031.5 1810.5,3303.5C 1756.34,3297.86 1702.67,3289.86 1649.5,3279.5C 1648.83,3000.5 1649.5,2721.83 1651.5,2443.5 Z"/></g>
<g><path style="opacity:1" fill="#05fca5" d="M 3647.5,2457.5 C 3689.69,2503.9 3727.52,2553.57 3761,2606.5C 3763,2611.83 3763,2617.17 3761,2622.5C 3728.26,2676.99 3690.43,2727.65 3647.5,2774.5C 3646.17,2668.83 3646.17,2563.17 3647.5,2457.5 Z"/></g>
<g><path style="opacity:1" fill="#14f6b3" d="M 3003.5,2471.5 C 3003.5,2707.5 3003.5,2943.5 3003.5,3179.5C 2939.47,3202.43 2874.47,3222.43 2808.5,3239.5C 2807.5,3239.5 2806.5,3239.5 2805.5,3239.5C 2805.5,2998.17 2805.5,2756.83 2805.5,2515.5C 2872.18,2503.76 2938.18,2489.1 3003.5,2471.5 Z"/></g>
<g><path style="opacity:1" fill="#27efc5" d="M 1812.5,2488.5 C 1870.97,2501.93 1929.64,2513.93 1988.5,2524.5C 1987.5,2524.5 1986.5,2524.5 1985.5,2524.5C 1985.5,2789.17 1985.5,3053.83 1985.5,3318.5C 1926.85,3315.53 1868.52,3310.53 1810.5,3303.5C 1809.83,3031.5 1810.5,2759.83 1812.5,2488.5 Z"/></g>
<g><path style="opacity:1" fill="#17f5b6" d="M 2805.5,2515.5 C 2805.5,2756.83 2805.5,2998.17 2805.5,3239.5C 2806.5,3239.5 2807.5,3239.5 2808.5,3239.5C 2767.32,3250.88 2725.65,3260.54 2683.5,3268.5C 2681.5,3024.17 2680.83,2779.5 2681.5,2534.5C 2722.98,2529.15 2764.31,2522.82 2805.5,2515.5 Z"/></g>
<g><path style="opacity:1" fill="#24f0c2" d="M 1988.5,2524.5 C 2040.52,2531.75 2092.52,2538.09 2144.5,2543.5C 2142.5,2802.83 2141.83,3062.5 2142.5,3322.5C 2090.11,3322.92 2037.78,3321.59 1985.5,3318.5C 1985.5,3053.83 1985.5,2789.17 1985.5,2524.5C 1986.5,2524.5 1987.5,2524.5 1988.5,2524.5 Z"/></g>
<g><path style="opacity:1" fill="#1af4b9" d="M 2681.5,2534.5 C 2680.83,2779.5 2681.5,3024.17 2683.5,3268.5C 2615.5,3283.06 2546.83,3294.39 2477.5,3302.5C 2476.5,3302.5 2475.5,3302.5 2474.5,3302.5C 2474.5,3052.17 2474.5,2801.83 2474.5,2551.5C 2543.69,2548.23 2612.69,2542.56 2681.5,2534.5 Z"/></g>
<g><path style="opacity:1" fill="#21f1bf" d="M 2144.5,2543.5 C 2198.43,2547.9 2252.43,2550.9 2306.5,2552.5C 2305.83,2807.84 2306.5,3062.84 2308.5,3317.5C 2253.39,3321.3 2198.06,3322.97 2142.5,3322.5C 2141.83,3062.5 2142.5,2802.83 2144.5,2543.5 Z"/></g>
<g><path style="opacity:1" fill="#1cf3bb" d="M 2474.5,2551.5 C 2474.5,2801.83 2474.5,3052.17 2474.5,3302.5C 2475.5,3302.5 2476.5,3302.5 2477.5,3302.5C 2469.66,3303.65 2461.66,3304.65 2453.5,3305.5C 2453.5,3054.5 2453.5,2803.5 2453.5,2552.5C 2460.31,2551.51 2467.31,2551.18 2474.5,2551.5 Z"/></g>
<g><path style="opacity:1" fill="#1ef2bd" d="M 2306.5,2552.5 C 2355.5,2552.5 2404.5,2552.5 2453.5,2552.5C 2453.5,2803.5 2453.5,3054.5 2453.5,3305.5C 2405.32,3311.29 2356.99,3315.29 2308.5,3317.5C 2306.5,3062.84 2305.83,2807.84 2306.5,2552.5 Z"/></g>
</svg>
