<svg width="18" height="18" viewBox="0 0 18 18" fill="none" xmlns="http://www.w3.org/2000/svg">
<g clip-path="url(#clip0_48948_109926)">
<path d="M16.7961 11.0992C16.7977 11.8477 16.6508 12.589 16.3641 13.2804C16.0785 13.9718 15.6589 14.5999 15.1295 15.1285C14.6006 15.658 13.9721 16.0776 13.2803 16.3631C12.5906 16.6494 11.8512 16.7966 11.1044 16.7961H11.0769C9.87512 16.7961 8.68235 16.4044 7.71565 15.6923C6.99906 15.1602 6.41677 14.468 6.01527 13.6709C5.61376 12.8738 5.40416 11.9939 5.40318 11.1013V6.90106C5.40283 6.70422 5.44148 6.50926 5.5169 6.32744C5.59232 6.14561 5.70301 5.98053 5.84259 5.84173C5.98153 5.70263 6.14654 5.59231 6.32818 5.51707C6.50981 5.44183 6.7045 5.40315 6.9011 5.40325C7.09771 5.40334 7.29236 5.44222 7.47392 5.51764C7.65548 5.59306 7.82038 5.70355 7.95918 5.84279C8.24135 6.12549 8.39753 6.50137 8.39859 6.90054V11.0998C8.39791 11.4547 8.46771 11.8063 8.60394 12.1341C8.74016 12.4619 8.94011 12.7594 9.19218 13.0093C9.56959 13.3865 10.0508 13.6427 10.5745 13.7452C11.0991 13.8495 11.6386 13.796 12.1336 13.5917C12.6269 13.3878 13.0485 13.0419 13.3449 12.598C13.6435 12.1533 13.8018 11.6355 13.8028 11.0998V2.70131C13.8024 2.50464 13.841 2.30983 13.9162 2.12811C13.9914 1.94639 14.1019 1.78136 14.2412 1.64251C14.4153 1.46858 14.6295 1.34023 14.8651 1.26885C15.1006 1.19746 15.35 1.18522 15.5914 1.23322C15.8328 1.28122 16.0586 1.38798 16.2489 1.54404C16.4391 1.7001 16.588 1.90066 16.6823 2.12797C16.758 2.31062 16.7961 2.50385 16.7961 2.70131V11.0992ZM4.99183 4.98992C4.74008 5.24027 4.54043 5.538 4.4044 5.86594C4.26837 6.19387 4.19866 6.54551 4.1993 6.90054V15.2984C4.19979 15.4952 4.16126 15.6901 4.08592 15.8718C4.01059 16.0536 3.89995 16.2186 3.76041 16.3573C3.195 16.9237 2.20818 16.9237 1.64224 16.3573C1.50287 16.2185 1.39238 16.0534 1.31714 15.8717C1.2419 15.69 1.20341 15.4951 1.20388 15.2984V6.90106C1.20506 5.53534 1.69651 4.21542 2.58883 3.18148C3.11542 2.57217 3.76516 2.08135 4.49523 1.74138C5.2253 1.4014 6.01912 1.21999 6.8244 1.20908C7.62967 1.19818 8.42811 1.35803 9.16712 1.67812C9.90613 1.9982 10.5689 2.47124 11.1118 3.06607L11.1203 3.05601L11.1282 3.08619C11.691 3.70796 12.1093 4.44645 12.3533 5.2488L12.3766 5.32556C12.5254 5.83802 12.6005 6.36796 12.6011 6.90054V11.0992C12.6007 11.3952 12.5128 11.6844 12.3484 11.9305C12.184 12.1765 11.9505 12.3684 11.6772 12.482C11.4988 12.5561 11.3104 12.5911 11.1203 12.5932V12.5958C11.1129 12.5958 11.106 12.5937 11.0986 12.5937C11.0033 12.5937 10.9075 12.5874 10.8122 12.5683C10.7575 12.5568 10.7036 12.5419 10.6507 12.5238V12.5164C10.6147 12.5048 10.5776 12.499 10.5427 12.4847C10.2694 12.3711 10.0358 12.1791 9.87135 11.9329C9.70695 11.6867 9.6191 11.3974 9.61888 11.1013V7.29865H9.61782V6.90001C9.61717 6.36395 9.45717 5.84018 9.15816 5.39526C8.85916 4.95033 8.43463 4.60433 7.93853 4.40123C7.6103 4.26351 7.25734 4.19451 6.90141 4.19846C6.5466 4.19793 6.19519 4.26764 5.86745 4.40357C5.5397 4.5395 5.24211 4.73843 4.99183 4.98992ZM17.2075 0.792818C16.9573 0.541475 16.6599 0.342102 16.3323 0.206179C16.0048 0.0702553 15.6536 0.00046681 15.2989 0.000831714H15.2979C14.9434 0.000982777 14.5924 0.0712195 14.2651 0.207502C13.9379 0.343784 13.6408 0.543423 13.3909 0.794936C13.1402 1.04511 12.9413 1.34235 12.8058 1.6696C12.6702 1.99684 12.6007 2.34764 12.6011 2.70184V3.00519C11.7411 1.7496 10.4907 0.81304 9.04399 0.340912C7.59724 -0.131215 6.03508 -0.112491 4.60006 0.394178C3.25424 0.868971 2.08951 1.75078 1.26741 2.91731C0.441749 4.08132 -0.00120159 5.47343 2.44813e-06 6.90054V15.2984C2.44813e-06 16.02 0.28112 16.6982 0.791473 17.2085C1.04167 17.4603 1.33933 17.6598 1.66721 17.7957C1.99509 17.9315 2.34668 18.001 2.70159 18C3.05649 18.0009 3.40805 17.9314 3.73592 17.7956C4.06379 17.6597 4.36146 17.4602 4.61171 17.2085C4.86339 16.9583 5.06293 16.6606 5.19879 16.3328C5.33464 16.0049 5.40411 15.6533 5.40318 15.2984V14.9972C6.26355 16.2515 7.51364 17.187 8.95971 17.6587C10.4058 18.1304 11.967 18.1119 13.4015 17.6061C14.747 17.1312 15.9114 16.2494 16.7331 15.083C17.5582 13.9195 18.0009 12.5282 18 11.1019V2.70078C18.0003 2.34613 17.9304 1.99492 17.7944 1.66738C17.6583 1.33984 17.4589 1.04243 17.2075 0.792288V0.792818Z" fill="url(#paint0_linear_48948_109926)"/>
</g>
<defs>
<linearGradient id="paint0_linear_48948_109926" x1="-0.794116" y1="17.8671" x2="17.8964" y2="-2.15627" gradientUnits="userSpaceOnUse">
<stop offset="0.05" stop-color="white"/>
<stop offset="0.38" stop-color="#A7B3FF"/>
<stop offset="1" stop-color="#74A4FF"/>
</linearGradient>
<clipPath id="clip0_48948_109926">
<rect width="18" height="18" fill="white"/>
</clipPath>
</defs>
</svg>
