<svg width="22" height="22" viewBox="0 0 22 22" fill="none" xmlns="http://www.w3.org/2000/svg">
<g clip-path="url(#clip0_48948_109929)">
<path d="M11 22C17.0751 22 22 17.0751 22 11C22 4.92487 17.0751 0 11 0C4.92487 0 0 4.92487 0 11C0 17.0751 4.92487 22 11 22Z" fill="#FF0420"/>
<path d="M7.7933 13.921C7.1377 13.921 6.6009 13.767 6.1829 13.459C5.7693 13.1466 5.5625 12.6978 5.5625 12.1214C5.5625 11.9982 5.5757 11.853 5.6021 11.677C5.6725 11.281 5.7737 10.8058 5.9057 10.247C6.2797 8.73336 7.2477 7.97656 8.8053 7.97656C9.2277 7.97656 9.6105 8.04696 9.9449 8.19216C10.2793 8.32856 10.5433 8.53976 10.7369 8.82136C10.9305 9.09856 11.0273 9.42856 11.0273 9.81136C11.0273 9.92576 11.0141 10.071 10.9877 10.247C10.9041 10.7354 10.8073 11.215 10.6885 11.677C10.4949 12.4294 10.1649 12.997 9.6897 13.371C9.2189 13.7406 8.5853 13.921 7.7933 13.921ZM7.9121 12.733C8.2201 12.733 8.4797 12.6406 8.6953 12.4602C8.9153 12.2798 9.0737 12.0026 9.1661 11.6242C9.2937 11.105 9.3905 10.6562 9.4565 10.269C9.4785 10.1546 9.4917 10.0358 9.4917 9.91256C9.4917 9.41096 9.2321 9.16016 8.7085 9.16016C8.4005 9.16016 8.1365 9.25256 7.9165 9.43296C7.7009 9.61336 7.5469 9.89056 7.4545 10.269C7.3533 10.6386 7.2565 11.0874 7.1553 11.6242C7.1333 11.7342 7.1201 11.8486 7.1201 11.9718C7.1157 12.4822 7.3841 12.733 7.9121 12.733Z" fill="white"/>
<path d="M11.4088 13.8441C11.3472 13.8441 11.3032 13.8265 11.268 13.7869C11.2416 13.7429 11.2328 13.6945 11.2416 13.6373L12.3812 8.2693C12.39 8.2077 12.4208 8.1593 12.4736 8.1197C12.522 8.0801 12.5748 8.0625 12.632 8.0625H14.8276C15.4392 8.0625 15.9276 8.1901 16.2972 8.4409C16.6712 8.6961 16.8604 9.0613 16.8604 9.5409C16.8604 9.6773 16.8428 9.8225 16.812 9.9721C16.6756 10.6057 16.3984 11.0721 15.976 11.3757C15.5624 11.6793 14.9948 11.8289 14.2732 11.8289H13.16L12.7816 13.6373C12.7684 13.6989 12.742 13.7473 12.6892 13.7869C12.6408 13.8265 12.588 13.8441 12.5308 13.8441H11.4088ZM14.3304 10.6893C14.5636 10.6893 14.7616 10.6277 14.9332 10.5001C15.1092 10.3725 15.2236 10.1921 15.2808 9.9545C15.2984 9.8621 15.3072 9.7785 15.3072 9.7081C15.3072 9.5497 15.2588 9.4265 15.1664 9.3429C15.074 9.2549 14.9112 9.2109 14.6868 9.2109H13.6968L13.3844 10.6893H14.3304Z" fill="white"/>
</g>
<defs>
<clipPath id="clip0_48948_109929">
<rect width="22" height="22" fill="white"/>
</clipPath>
</defs>
</svg>
