<svg width="20" height="21" viewBox="0 0 20 21" fill="none" xmlns="http://www.w3.org/2000/svg">
<path d="M19.1734 3.71196C18.96 2.88876 18.2738 2.06556 17.0381 1.14912C16.0469 0.41916 14.9944 0 14.1552 0C13.9872 0 13.8352 0.01512 13.6823 0.0462C13.301 0.12348 12.9658 0.4032 12.7516 0.8232C12.492 1.32048 12.4316 1.98828 12.5987 2.39232C12.66 2.51664 12.7356 2.67204 12.8272 2.81148C12.0191 3.30876 11.5613 3.4482 11.5 3.46416C13.605 4.179 15.359 5.67 16.4577 7.61124L16.4728 7.42476C16.5182 6.91236 16.671 6.32184 16.8844 5.7162C17.0978 5.77836 17.3111 5.80944 17.5253 5.80944C18.0898 5.80944 18.5778 5.57676 18.8828 5.15676C19.1894 4.7376 19.3112 4.17816 19.1734 3.71196Z" fill="#602F92"/>
<path d="M16.9781 5.26525C18.3657 5.65333 18.9302 4.56637 18.7471 3.83641C18.5489 3.10645 17.9079 2.36053 16.7798 1.52221C15.6509 0.683055 14.5068 0.342015 13.7751 0.497415C13.0427 0.652815 12.8293 1.78681 13.0124 2.22193C13.0889 2.39245 13.2569 2.64109 13.4853 2.92081C13.1955 3.12241 12.9209 3.27781 12.6924 3.41809C14.096 4.05481 15.3157 5.04937 16.2313 6.29173C16.338 5.87257 16.4909 5.49961 16.6278 5.17369C16.7336 5.18713 16.8554 5.21821 16.9781 5.26525Z" fill="url(#paint0_radial_48948_109935)"/>
<path d="M9.03075 20.4903C13.7398 20.4903 17.5576 16.6028 17.5576 11.8072C17.5576 7.01168 13.7398 3.125 9.03075 3.125C4.32171 3.125 0.503906 7.01252 0.503906 11.8081C0.503906 16.6036 4.32171 20.4903 9.03075 20.4903Z" fill="url(#paint1_radial_48948_109935)"/>
<path opacity="0.6" d="M18.0455 3.12171C16.8863 1.87935 15.9102 1.55259 14.7359 1.28883C13.8203 1.07127 14.0647 0.542913 15.1786 0.652113C14.6443 0.465633 14.1412 0.419433 13.7749 0.496713C13.0425 0.652113 12.8291 1.78611 13.0122 2.22123C13.0887 2.39175 13.2567 2.64039 13.4851 2.92011C13.0735 3.19983 12.7224 3.40143 12.4326 3.55683C12.5695 3.61899 12.7375 3.69627 12.9358 3.80547C13.4541 4.08519 14.0185 4.55139 14.0185 4.55139C13.1643 3.80547 13.3474 3.46443 14.5217 2.62527C14.8879 2.36151 15.5591 2.39259 16.1841 2.71851C16.809 3.04443 17.5415 3.86763 17.5415 3.86763L16.8401 5.23431C16.8855 5.25027 16.9317 5.26539 16.977 5.28135C17.4197 5.40567 17.77 5.37459 18.0447 5.26539C18.3655 5.06295 19.2047 4.37919 18.0455 3.12171Z" fill="#A98798"/>
<path d="M14.7205 2.03882C15.0254 2.16314 15.4219 2.3807 15.91 2.70662C16.4896 3.0947 16.9927 3.52982 17.3136 3.8717C16.7793 4.58654 16.4291 5.56514 16.2157 6.24806C16.3224 6.40346 16.4442 6.55886 16.5517 6.71426C16.6584 6.32618 16.8415 5.75078 17.086 5.17622C17.1473 5.19218 17.2229 5.19218 17.2993 5.19218C17.4824 5.19218 17.6958 5.1611 17.8638 5.02166C17.9856 4.92842 18.1234 4.7579 18.1082 4.4471C18.1082 4.15226 17.8798 3.7793 17.4068 3.32906C17.0708 3.00314 16.6139 2.6453 16.1561 2.31938C14.844 1.43402 13.9292 1.18538 13.5176 1.60454C13.2429 1.88426 13.2732 2.22614 13.3648 2.47478C12.8767 2.8007 12.4651 3.03422 12.1904 3.18962C12.3735 3.25178 12.5415 3.32906 12.7247 3.40718C13.2102 3.14174 13.9124 2.6915 14.7205 2.03882ZM17.6034 4.26062C17.6487 4.3379 17.6647 4.41602 17.6647 4.46222C17.6647 4.60166 17.6194 4.6487 17.5883 4.67978C17.527 4.72598 17.4052 4.75706 17.2985 4.75706C17.39 4.57058 17.4967 4.41518 17.6034 4.26062ZM13.836 1.94558C13.8814 1.89938 14.004 1.8683 14.2022 1.89938C14.0493 2.0237 13.8973 2.13206 13.7444 2.24126C13.7293 2.13206 13.7444 2.0237 13.836 1.94558Z" fill="#602F92"/>
<path d="M9.03 2.60938C4.04208 2.60938 0 6.72538 0 11.8049C0 16.8843 4.04208 21.0003 9.03 21.0003C14.0179 21.0003 18.06 16.8843 18.06 11.8049C18.06 6.72622 14.0028 2.60938 9.03 2.60938ZM9.03 20.4879C4.31676 20.4879 0.50316 16.6046 0.50316 11.8049C0.50316 7.0051 4.31676 3.12177 9.03 3.12177C13.7432 3.12177 17.5568 7.0051 17.5568 11.8049C17.556 16.6046 13.7281 20.4879 9.03 20.4879Z" fill="#602F92"/>
<path opacity="0.6" d="M9.03075 20.4903C13.7398 20.4903 17.5576 16.6028 17.5576 11.8072C17.5576 7.01168 13.7398 3.125 9.03075 3.125C4.32171 3.125 0.503906 7.01252 0.503906 11.8081C0.503906 16.6036 4.32171 20.4903 9.03075 20.4903Z" fill="url(#paint2_linear_48948_109935)"/>
<path opacity="0.6" d="M8.96938 19.4339C4.31746 18.6729 1.15991 14.215 1.92262 9.47741C2.25863 7.38077 3.29518 5.59409 4.76014 4.30469C2.62402 5.56385 1.0381 7.75373 0.610545 10.4258C-0.137055 15.1634 3.0205 19.6213 7.6573 20.3823C10.2504 20.8174 12.7519 19.9942 14.5974 18.3789C12.9661 19.3407 10.9829 19.7607 8.96938 19.4339Z" fill="#A98798"/>
<path opacity="0.6" d="M10.3879 3.24718C8.23754 2.89018 6.14762 3.38662 4.43906 4.48954C4.40882 4.52062 4.37774 4.5517 4.37774 4.5517C5.03378 4.14766 5.99474 3.79066 5.99474 3.79066C3.52346 5.25058 2.76074 6.91294 2.76074 6.91294C3.7217 5.0179 6.54326 3.6823 8.75498 3.58906C10.9667 3.49582 12.4157 4.16362 14.1847 5.60842C15.9538 7.06834 17.0223 10.0503 16.9147 12.4116C16.8232 14.7728 15.6027 16.683 15.6027 16.683C16.4418 15.5801 16.945 14.7728 17.265 13.9496C17.3263 13.701 17.3868 13.4523 17.4179 13.1886C18.1823 8.4661 15.0399 4.00822 10.3879 3.24718Z" fill="url(#paint3_linear_48948_109935)"/>
<path d="M17.1307 11.7266C17.1307 16.2777 13.5002 19.9745 9.03139 19.9745C4.56259 19.9745 0.916992 16.2777 0.916992 11.7266H17.1307Z" fill="url(#paint4_linear_48948_109935)"/>
<g opacity="0.6">
<path opacity="0.6" d="M16.4892 11.7266C16.4892 16.1685 13.0418 19.8032 8.70996 19.9745C8.81664 19.9745 8.92332 19.9745 9.03 19.9745C13.4988 19.9745 17.1293 16.2777 17.1293 11.7266H16.4892Z" fill="url(#paint5_linear_48948_109935)"/>
</g>
<g opacity="0.7">
<path opacity="0.7" d="M2.06107 11.7266H0.916992C0.916992 16.2777 4.54747 19.9745 9.01627 19.9745C9.21451 19.9745 9.39763 19.9745 9.58075 19.9586C5.38579 19.6478 2.06107 16.0752 2.06107 11.7266Z" fill="url(#paint6_linear_48948_109935)"/>
</g>
<path d="M17.1156 11.8036C17.1156 10.8561 15.4986 10.3126 13.3482 10.1261C11.7925 10.0018 10.2217 10.1572 8.42155 10.7166C6.86587 11.1828 5.46223 11.1047 4.44079 10.9804C2.16775 10.7166 0.916992 10.6855 0.916992 11.8036C0.916992 13.4189 4.15099 15.4383 9.00115 14.7394C11.4573 14.3824 12.7232 13.6524 14.1722 13.1551C15.743 12.6268 17.1156 12.6427 17.1156 11.8036Z" fill="url(#paint7_linear_48948_109935)"/>
<path d="M11.6841 7.88927C12.4426 7.88927 13.0566 7.26347 13.0566 6.49151C13.0566 5.71955 12.4418 5.09375 11.6841 5.09375C10.9264 5.09375 10.3115 5.71955 10.3115 6.49151C10.3115 7.26347 10.9264 7.88927 11.6841 7.88927Z" fill="white"/>
<path d="M13.9273 8.93104C14.2473 8.93104 14.5069 8.66644 14.5069 8.34052C14.5069 8.0146 14.2473 7.75 13.9273 7.75C13.6072 7.75 13.3477 8.0146 13.3477 8.34052C13.3477 8.66728 13.6072 8.93104 13.9273 8.93104Z" fill="white"/>
<g opacity="0.6">
<path opacity="0.6" d="M16.0017 5.3784C15.9866 5.3784 15.9715 5.3784 15.9715 5.3784C15.8799 5.36244 15.8186 5.27004 15.8346 5.16084C15.9715 4.446 16.5511 3.76308 16.5822 3.732C16.6435 3.65472 16.7653 3.65472 16.8266 3.71604C16.903 3.7782 16.903 3.90252 16.8417 3.96468C16.8266 3.9798 16.2924 4.61736 16.1706 5.23812C16.1546 5.33136 16.0782 5.3784 16.0017 5.3784Z" fill="url(#paint8_linear_48948_109935)"/>
</g>
<path opacity="0.2" d="M8.46676 18.2843C8.7028 18.2843 8.89348 18.0894 8.89348 17.8492C8.89348 17.6089 8.70196 17.4141 8.46676 17.4141C8.23072 17.4141 8.04004 17.6089 8.04004 17.8492C8.04004 18.0894 8.23072 18.2843 8.46676 18.2843Z" fill="white"/>
<g opacity="0.4">
<path opacity="0.6" d="M8.22248 18.1286C8.05448 17.958 8.05448 17.6783 8.22248 17.507C8.25272 17.4759 8.2838 17.4608 8.31404 17.4297C8.25272 17.4456 8.20736 17.4759 8.16116 17.5229C7.99316 17.6934 7.99316 17.9732 8.16116 18.1445C8.29808 18.284 8.51228 18.315 8.67944 18.2218C8.5274 18.284 8.34428 18.2529 8.22248 18.1286Z" fill="url(#paint9_linear_48948_109935)"/>
</g>
<path opacity="0.3" d="M8.6189 17.7177C8.6693 17.7177 8.71046 17.6757 8.71046 17.6245C8.71046 17.5732 8.6693 17.5312 8.6189 17.5312C8.5685 17.5312 8.52734 17.5732 8.52734 17.6245C8.52734 17.6766 8.56766 17.7177 8.6189 17.7177Z" fill="white"/>
<path opacity="0.2" d="M10.6943 18.0656C10.9303 18.0656 11.121 17.8707 11.121 17.6304C11.121 17.3902 10.9295 17.1953 10.6943 17.1953C10.4583 17.1953 10.2676 17.3902 10.2676 17.6304C10.2676 17.8707 10.4591 18.0656 10.6943 18.0656Z" fill="white"/>
<g opacity="0.4">
<path opacity="0.6" d="M10.449 17.9098C10.281 17.7393 10.281 17.4596 10.449 17.2882C10.4793 17.2571 10.5104 17.242 10.5406 17.2109C10.4793 17.2269 10.4339 17.2571 10.3877 17.3042C10.2197 17.4747 10.2197 17.7544 10.3877 17.9258C10.5246 18.0652 10.7388 18.0963 10.906 18.0031C10.754 18.0652 10.5708 18.0341 10.449 17.9098Z" fill="url(#paint10_linear_48948_109935)"/>
</g>
<path opacity="0.3" d="M10.8464 17.5068C10.8968 17.5068 10.938 17.4648 10.938 17.4136C10.938 17.3623 10.8968 17.3203 10.8464 17.3203C10.796 17.3203 10.7549 17.3623 10.7549 17.4136C10.7549 17.4648 10.796 17.5068 10.8464 17.5068Z" fill="white"/>
<path opacity="0.2" d="M9.59445 19.0737C9.77169 19.0737 9.91449 18.9276 9.91449 18.7478C9.91449 18.568 9.77085 18.4219 9.59445 18.4219C9.41721 18.4219 9.27441 18.568 9.27441 18.7478C9.27441 18.9276 9.41721 19.0737 9.59445 19.0737Z" fill="white"/>
<g opacity="0.4">
<path opacity="0.6" d="M9.4121 18.9507C9.2903 18.8264 9.2903 18.6089 9.4121 18.4845C9.42722 18.4686 9.45746 18.4535 9.47342 18.4375C9.42806 18.4535 9.39698 18.4845 9.36674 18.5148C9.24494 18.6391 9.24494 18.8567 9.36674 18.981C9.47342 19.0893 9.6263 19.1053 9.76322 19.028C9.64058 19.0751 9.50366 19.044 9.4121 18.9507Z" fill="url(#paint11_linear_48948_109935)"/>
</g>
<path opacity="0.3" d="M9.70195 18.6399C9.73555 18.6399 9.76326 18.6122 9.76326 18.5778C9.76326 18.5433 9.73555 18.5156 9.70195 18.5156C9.66835 18.5156 9.64062 18.5433 9.64062 18.5778C9.64062 18.6122 9.66835 18.6399 9.70195 18.6399Z" fill="white"/>
<path opacity="0.2" d="M11.5632 18.8393C11.7404 18.8393 11.8832 18.6932 11.8832 18.5134C11.8832 18.3337 11.7396 18.1875 11.5632 18.1875C11.3868 18.1875 11.2432 18.3337 11.2432 18.5134C11.2432 18.6932 11.3868 18.8393 11.5632 18.8393Z" fill="white"/>
<g opacity="0.4">
<path opacity="0.6" d="M11.3799 18.7155C11.2581 18.5912 11.2581 18.3736 11.3799 18.2493C11.395 18.2334 11.4252 18.2182 11.4412 18.2031C11.3958 18.2191 11.3648 18.2493 11.3345 18.2804C11.2127 18.4047 11.2127 18.6223 11.3345 18.7466C11.4412 18.855 11.5941 18.8709 11.731 18.7928C11.6084 18.8398 11.4714 18.8088 11.3799 18.7155Z" fill="url(#paint12_linear_48948_109935)"/>
</g>
<path opacity="0.3" d="M11.6687 18.4056C11.7023 18.4056 11.7301 18.3779 11.7301 18.3434C11.7301 18.309 11.7023 18.2812 11.6687 18.2812C11.6351 18.2812 11.6074 18.309 11.6074 18.3434C11.6083 18.3779 11.6351 18.4056 11.6687 18.4056Z" fill="white"/>
<path opacity="0.2" d="M6.65062 18.125C7.03786 18.125 7.35202 17.805 7.35202 17.4102C7.35202 17.0154 7.03786 16.6953 6.65062 16.6953C6.26338 16.6953 5.94922 17.0154 5.94922 17.4102C5.94922 17.805 6.26338 18.125 6.65062 18.125Z" fill="white"/>
<g opacity="0.4">
<path opacity="0.6" d="M6.2546 17.868C5.97992 17.5883 5.97992 17.1381 6.2546 16.8584C6.29996 16.8122 6.34616 16.7811 6.40748 16.75C6.31592 16.7811 6.23948 16.8432 6.16304 16.9054C5.88836 17.1851 5.88836 17.6354 6.16304 17.9151C6.39152 18.1478 6.74264 18.1948 7.01732 18.0234C6.75776 18.1318 6.45284 18.0856 6.2546 17.868Z" fill="url(#paint13_linear_48948_109935)"/>
</g>
<path opacity="0.3" d="M6.89507 17.1936C6.97907 17.1936 7.04795 17.1239 7.04795 17.0382C7.04795 16.9525 6.97991 16.8828 6.89507 16.8828C6.81107 16.8828 6.74219 16.9525 6.74219 17.0382C6.74219 17.1239 6.81023 17.1936 6.89507 17.1936Z" fill="white"/>
<path opacity="0.2" d="M12.9202 16.375C13.3074 16.375 13.6216 16.055 13.6216 15.6602C13.6216 15.2654 13.3074 14.9453 12.9202 14.9453C12.5329 14.9453 12.2188 15.2654 12.2188 15.6602C12.2188 16.055 12.5321 16.375 12.9202 16.375Z" fill="white"/>
<g opacity="0.4">
<path opacity="0.6" d="M12.5085 16.1102C12.2338 15.8305 12.2338 15.3803 12.5085 15.1005C12.5539 15.0535 12.6001 15.0233 12.6614 14.9922C12.5698 15.0233 12.4934 15.0854 12.4169 15.1476C12.1423 15.4273 12.1423 15.8775 12.4169 16.1573C12.6454 16.3899 12.9965 16.437 13.2712 16.2656C13.0117 16.3748 12.7219 16.3278 12.5085 16.1102Z" fill="url(#paint14_linear_48948_109935)"/>
</g>
<path opacity="0.3" d="M13.1646 15.4358C13.2486 15.4358 13.3175 15.3661 13.3175 15.2804C13.3175 15.1947 13.2494 15.125 13.1646 15.125C13.0806 15.125 13.0117 15.1947 13.0117 15.2804C13.0117 15.3661 13.0798 15.4358 13.1646 15.4358Z" fill="white"/>
<defs>
<radialGradient id="paint0_radial_48948_109935" cx="0" cy="0" r="1" gradientUnits="userSpaceOnUse" gradientTransform="translate(18.469 2.85767) scale(6.81734 6.94219)">
<stop stop-color="#FBEAF3" stop-opacity="0.6"/>
<stop offset="0.6807" stop-color="#A087BF"/>
<stop offset="1" stop-color="#17102E"/>
</radialGradient>
<radialGradient id="paint1_radial_48948_109935" cx="0" cy="0" r="1" gradientUnits="userSpaceOnUse" gradientTransform="translate(14.6762 5.82078) scale(16.6795 16.985)">
<stop stop-color="#FBEAF3" stop-opacity="0.6"/>
<stop offset="0.6807" stop-color="#A087BF"/>
<stop offset="1" stop-color="#17102E"/>
</radialGradient>
<linearGradient id="paint2_linear_48948_109935" x1="7.61709" y1="20.3715" x2="10.4442" y2="3.24345" gradientUnits="userSpaceOnUse">
<stop stop-color="#9AD9E5"/>
<stop offset="0.6202" stop-color="white" stop-opacity="0"/>
</linearGradient>
<linearGradient id="paint3_linear_48948_109935" x1="15.1171" y1="5.99494" x2="7.94965" y2="12.453" gradientUnits="userSpaceOnUse">
<stop offset="0.2888" stop-color="white"/>
<stop offset="0.7796" stop-color="white" stop-opacity="0"/>
</linearGradient>
<linearGradient id="paint4_linear_48948_109935" x1="0.916691" y1="15.8502" x2="17.1308" y2="15.8502" gradientUnits="userSpaceOnUse">
<stop stop-color="#384EA2"/>
<stop offset="0.9952" stop-color="#D54799"/>
</linearGradient>
<linearGradient id="paint5_linear_48948_109935" x1="17.9384" y1="12.4988" x2="8.96811" y2="20.8237" gradientUnits="userSpaceOnUse">
<stop offset="0.2888" stop-color="white"/>
<stop offset="0.7796" stop-color="white" stop-opacity="0"/>
</linearGradient>
<linearGradient id="paint6_linear_48948_109935" x1="0.916691" y1="15.8502" x2="9.58048" y2="15.8502" gradientUnits="userSpaceOnUse">
<stop stop-color="#2B2F82"/>
<stop offset="0.9952" stop-color="#72439A"/>
</linearGradient>
<linearGradient id="paint7_linear_48948_109935" x1="0.934428" y1="12.4839" x2="17.116" y2="12.4839" gradientUnits="userSpaceOnUse">
<stop stop-color="#2B2F82"/>
<stop offset="0.9952" stop-color="#A14298"/>
</linearGradient>
<linearGradient id="paint8_linear_48948_109935" x1="16.8718" y1="3.66954" x2="15.6779" y2="5.57467" gradientUnits="userSpaceOnUse">
<stop offset="0.2888" stop-color="white"/>
<stop offset="0.7796" stop-color="white" stop-opacity="0"/>
</linearGradient>
<linearGradient id="paint9_linear_48948_109935" x1="8.03527" y1="17.8521" x2="8.6806" y2="17.8521" gradientUnits="userSpaceOnUse">
<stop offset="0.2888" stop-color="white"/>
<stop offset="0.7796" stop-color="white" stop-opacity="0"/>
</linearGradient>
<linearGradient id="paint10_linear_48948_109935" x1="10.26" y1="17.6334" x2="10.9053" y2="17.6334" gradientUnits="userSpaceOnUse">
<stop offset="0.2888" stop-color="white"/>
<stop offset="0.7796" stop-color="white" stop-opacity="0"/>
</linearGradient>
<linearGradient id="paint11_linear_48948_109935" x1="9.27275" y1="18.7573" x2="9.75725" y2="18.7573" gradientUnits="userSpaceOnUse">
<stop offset="0.2888" stop-color="white"/>
<stop offset="0.7796" stop-color="white" stop-opacity="0"/>
</linearGradient>
<linearGradient id="paint12_linear_48948_109935" x1="11.2336" y1="18.5226" x2="11.7181" y2="18.5226" gradientUnits="userSpaceOnUse">
<stop offset="0.2888" stop-color="white"/>
<stop offset="0.7796" stop-color="white" stop-opacity="0"/>
</linearGradient>
<linearGradient id="paint13_linear_48948_109935" x1="5.9498" y1="17.4378" x2="7.00367" y2="17.4378" gradientUnits="userSpaceOnUse">
<stop offset="0.2888" stop-color="white"/>
<stop offset="0.7796" stop-color="white" stop-opacity="0"/>
</linearGradient>
<linearGradient id="paint14_linear_48948_109935" x1="12.2099" y1="15.6803" x2="13.2638" y2="15.6803" gradientUnits="userSpaceOnUse">
<stop offset="0.2888" stop-color="white"/>
<stop offset="0.7796" stop-color="white" stop-opacity="0"/>
</linearGradient>
</defs>
</svg>
