<svg width="140" height="140" viewBox="0 0 140 140" fill="none" xmlns="http://www.w3.org/2000/svg">
<rect width="139.083" height="139.083" rx="69.5415" fill="url(#paint0_linear_3001_9)"/>
<path d="M77.8091 85.1558C78.234 84.8721 78.8223 85.0541 78.9967 85.5234L85.6038 103.297C85.8162 103.869 85.2808 104.437 84.6705 104.288L60.3447 98.3443C59.6904 98.1845 59.5353 97.3562 60.0903 96.9857L77.8091 85.1558Z" fill="white"/>
<path d="M82.0763 81.2326C82.0458 81.1506 82.0302 81.064 82.0302 80.9769V63.0639C82.0302 62.5572 81.5249 62.1931 81.0211 62.3366L60.1766 68.2775C59.6728 68.4211 59.1675 68.057 59.1675 67.5503V55.9737C59.1675 55.737 59.282 55.5139 59.4772 55.3705L86.6404 35.407C87.0179 35.1295 87.5623 35.2354 87.7987 35.6324L104.208 63.1811C104.324 63.3762 104.344 63.6111 104.263 63.8222L90.4482 99.7995C90.1933 100.463 89.2181 100.458 88.9706 99.7919L82.0763 81.2326Z" fill="white"/>
<path d="M52.2121 36.9596C52.3433 36.8357 52.5153 36.76 52.6984 36.7456L77.7691 34.7736C78.5522 34.712 78.9344 35.6742 78.309 36.133L56.94 51.8109C56.7422 51.956 56.485 52.0024 56.2462 51.936L42.1745 48.024C41.5957 47.8631 41.4118 47.16 41.8422 46.7535L52.2121 36.9596Z" fill="white"/>
<path d="M38.2575 51.9604C38.3175 51.4979 38.7918 51.1965 39.2561 51.326L54.1694 55.4845C54.5058 55.5783 54.7373 55.8753 54.7373 56.213V73.05C54.7373 73.5569 55.243 73.9211 55.7469 73.7771L76.4469 67.8626C76.9508 67.7186 77.4565 68.0828 77.4565 68.5897V79.2842C77.4565 79.5326 77.3304 79.7652 77.119 79.9069L53.9014 95.471C53.5986 95.6739 53.1902 95.6467 52.9193 95.4055L35.0237 79.4712C34.8373 79.3053 34.7454 79.0628 34.7768 78.82L38.2575 51.9604Z" fill="white"/>
<defs>
<linearGradient id="paint0_linear_3001_9" x1="110.107" y1="26.0781" x2="-2.0234e-05" y2="139.083" gradientUnits="userSpaceOnUse">
<stop offset="0.015625" stop-color="#3294FF"/>
<stop offset="1" stop-color="#005BBE"/>
</linearGradient>
</defs>
</svg>
