<svg width="22" height="23" viewBox="0 0 22 23" fill="none" xmlns="http://www.w3.org/2000/svg">
<path d="M21.5625 6.92905C20.4844 5.93359 18.993 4.41343 17.7783 3.3353L17.7064 3.28499C17.5868 3.18896 17.452 3.11365 17.3075 3.06218C14.3786 2.51593 0.7475 -0.0320385 0.481563 0.000305205C0.407045 0.0107415 0.335818 0.0377588 0.273125 0.0793677L0.204844 0.133274C0.120766 0.218662 0.0569074 0.321818 0.0179688 0.435149L0 0.481868V0.737024V0.776555C1.53453 5.04952 7.59359 19.0472 8.78672 22.3319C8.85859 22.5547 8.99516 22.9787 9.25031 23.0003H9.30781C9.44438 23.0003 10.0266 22.2312 10.0266 22.2312C10.0266 22.2312 20.4341 9.60999 21.487 8.26593C21.6233 8.10037 21.7437 7.92228 21.8464 7.73405C21.8726 7.58678 21.8603 7.43522 21.8105 7.29415C21.7608 7.15308 21.6753 7.02729 21.5625 6.92905ZM12.6967 8.3989L17.1386 4.7153L19.7441 7.11593L12.6967 8.3989ZM10.9717 8.15812L3.32422 1.89062L15.6975 4.17265L10.9717 8.15812ZM11.6617 9.80046L19.4889 8.53905L10.5405 19.3203L11.6617 9.80046ZM2.28562 2.51593L10.332 9.34405L9.16766 19.3275L2.28562 2.51593Z" fill="#FF060A"/>
</svg>
