<svg width="21" height="18" viewBox="0 0 21 18" fill="none" xmlns="http://www.w3.org/2000/svg">
<path d="M17.7104 0H20.7095L14.4683 6.17559C12.208 8.41084 8.54356 8.41084 6.28173 6.17559L0.0380859 0H3.03954L7.78124 4.69123C8.4721 5.37169 9.40316 5.75314 10.3732 5.75314C11.3432 5.75314 12.2742 5.37169 12.9651 4.69123L17.7104 0Z" fill="white"/>
<path d="M3.00105 17.1792H0L6.28174 10.9655C8.54195 8.73025 12.2064 8.73025 14.4683 10.9655L20.75 17.1792H17.751L12.9688 12.4499C12.2779 11.7694 11.3468 11.3879 10.3768 11.3879C9.40681 11.3879 8.47576 11.7694 7.7849 12.4499L3.00105 17.1792Z" fill="white"/>
</svg>
