<svg width="22" height="22" viewBox="0 0 22 22" fill="none" xmlns="http://www.w3.org/2000/svg">
<g clip-path="url(#clip0_48948_110022)">
<path d="M11 0C13.1756 0 15.3023 0.645139 17.1113 1.85383C18.9202 3.06253 20.3301 4.7805 21.1627 6.79048C21.9952 8.80047 22.2131 11.0122 21.7886 13.146C21.3642 15.2798 20.3166 17.2398 18.7782 18.7782C17.2398 20.3166 15.2798 21.3642 13.146 21.7886C11.0122 22.2131 8.80047 21.9952 6.79048 21.1627C4.7805 20.3301 3.06253 18.9202 1.85383 17.1113C0.645139 15.3023 0 13.1756 0 11C0 8.08262 1.15893 5.28473 3.22183 3.22183C5.28473 1.15893 8.08262 0 11 0Z" fill="#F3B724"/>
<path d="M10.0156 4.3999V6.14163H7.10791V8.24009H11.6196L7.10791 14.2065V15.7861H10.0156V17.5166H11.8024V15.7861H14.7098V13.6876H10.1984L14.7098 7.72123V6.14163H11.8024V4.3999H10.0156Z" fill="white"/>
</g>
<defs>
<clipPath id="clip0_48948_110022">
<rect width="22" height="22" fill="white"/>
</clipPath>
</defs>
</svg>
