<?xml version="1.0" encoding="UTF-8"?>
<svg xmlns="http://www.w3.org/2000/svg" version="1.1" viewBox="0 0 24 24">
  <defs>
    <style>
      .cls-1 {
        fill: #fff;
      }

      .cls-2 {
        fill: none;
      }

      .cls-3 {
        fill: #0052ff;
      }
    </style>
  </defs>
  <g>
    <g id="Layer_1">
      <path class="cls-3" d="M0,0h12c6.6,0,12,5.4,12,12h0c0,6.6-5.4,12-12,12H0V0h0Z"/>
      <path class="cls-2" d="M1.4,0"/>
      <path class="cls-1" d="M18.2,16.1s0,0,0,0,0,0,0,0c1.6-.3,3.1-.7,3.8-1.3.7-.6.8-1.4.4-2.2-.4-.8-1.3-1.3-2.1-1.5-.7-.2-1.3-.3-2-.3,0,0,0,0,0,0h0c-.2,0-.4,0-.6,0-1.1,0-2.2.1-3.3.2,0,0,0,0,0,0,0,0,0,0,0,0-1.4.2-2.9.4-4.1,1.2-.8.5-1.5,1.2-1.5,2.2,0,0,0,.1,0,.2,0,.1,0,.3,0,.4-.2-.4-.3-.7-.2-1.1,0-.5.3-1,.6-1.3.5-.6,1.1-1,1.8-1.3,1.4-.6,3-.7,4.5-.8.9,0,1.8-.1,2.7-.1-.3-1.8-1.2-5.6-5.2-5.5-4.4.2-6.1,4.2-6.6,5.9-.4,1.7-.4,5.5-1,6.5-1.9,2.9-2.5,6.3-2.6,6.8h9.7c2.2,0,4.3-.6,6.2-1.7h0c-.6-1.7-.6-3.9-.5-4.7,0-.2,0-.5,0-.9-.1,0-1.5.3-4.8.4-3.4,0-4.1-1.1-4.1-1.2.6.5,1.7.7,3.1.7,1.4,0,3.8-.1,5.8-.5ZM15.2,7.8c.1.2.4.3.6.2.2-.1.3-.4.2-.6,0,0,0-.1-.1-.1.5-.1,1,.2,1.1.7,0,0,0,.1,0,.2,0,.5-.4.9-.9.9-.5,0-.9-.4-.9-.9,0,0,0-.2,0-.3ZM11.4,7.9c.1.2.4.3.7.1s.3-.4.1-.7c0,0,0,0-.1-.1.5-.1,1,.2,1.2.7,0,0,0,.2,0,.3,0,.5-.4,1-1,1s-1-.4-1-1c0,0,0-.2,0-.3Z"/>
    </g>
  </g>
</svg>