<?xml version="1.0" standalone="no"?>
<!DOCTYPE svg PUBLIC "-//W3C//DTD SVG 20010904//EN"
 "http://www.w3.org/TR/2001/REC-SVG-20010904/DTD/svg10.dtd">
<svg version="1.0" xmlns="http://www.w3.org/2000/svg"
 width="256.000000pt" height="256.000000pt" viewBox="0 0 256.000000 256.000000"
 preserveAspectRatio="xMidYMid meet">
<metadata>
Created by potrace 1.16, written by Peter Selinger 2001-2019
</metadata>
<g transform="translate(0.000000,256.000000) scale(0.100000,-0.100000)"
fill="#000000" stroke="none">
<path d="M1 2008 c1 -547 1 -552 18 -473 21 98 56 204 88 268 15 30 22 57 18
70 -5 16 -4 18 3 8 8 -11 16 -2 36 37 14 27 48 80 76 117 53 70 61 86 32 64
-15 -13 -16 -12 -3 4 8 9 16 15 19 12 3 -3 44 32 91 78 47 46 102 96 121 111
32 26 32 27 5 12 l-30 -17 24 20 c12 12 27 19 31 16 5 -3 29 8 53 25 117 79
284 147 442 181 79 17 74 17 -473 18 l-553 2 2 -553z m986 536 c-3 -3 -12 -4
-19 -1 -8 3 -5 6 6 6 11 1 17 -2 13 -5z m-107 -28 c0 -2 -7 -7 -16 -10 -8 -3
-12 -2 -9 4 6 10 25 14 25 6z m-45 -16 c-3 -5 -12 -10 -18 -10 -7 0 -6 4 3 10
19 12 23 12 15 0z m-35 -14 c0 -2 -13 -9 -30 -15 -35 -12 -41 -5 -7 9 25 10
37 12 37 6z m-70 -30 c0 -2 -7 -7 -16 -10 -8 -3 -12 -2 -9 4 6 10 25 14 25 6z
m-41 -20 c-18 -16 -89 -55 -89 -49 0 8 68 50 84 52 5 1 7 -1 5 -3z m-115 -71
c-10 -8 -23 -15 -28 -15 -6 0 -1 7 10 15 10 8 23 15 28 15 6 0 1 -7 -10 -15z
m-104 -68 c0 -1 -39 -40 -87 -87 -48 -47 -81 -76 -74 -65 12 17 152 154 159
155 1 0 2 -1 2 -3z m-246 -269 c-44 -62 -78 -99 -44 -48 37 54 72 100 77 100
3 0 -12 -24 -33 -52z m-73 -115 c-12 -20 -14 -14 -5 12 4 9 9 14 11 11 3 -2 0
-13 -6 -23z m-78 -163 c-27 -68 -41 -92 -28 -50 11 38 47 121 51 117 2 -1 -8
-32 -23 -67z m-56 -172 c-3 -8 -6 -5 -6 6 -1 11 2 17 5 13 3 -3 4 -12 1 -19z"/>
<path d="M1535 2541 c98 -21 204 -56 268 -88 30 -15 57 -22 70 -18 16 5 18 4
8 -3 -11 -8 -2 -16 37 -36 27 -14 80 -48 117 -76 70 -53 86 -61 64 -32 -13 15
-12 16 4 3 9 -8 15 -16 12 -19 -2 -3 37 -48 88 -102 177 -184 285 -387 338
-635 17 -79 17 -74 18 473 l2 553 -553 -2 c-547 -1 -552 -1 -473 -18z m62 3
c-3 -3 -12 -4 -19 -1 -8 3 -5 6 6 6 11 1 17 -2 13 -5z m150 -45 c32 -12 63
-26 68 -32 7 -7 4 -7 -10 -2 -87 33 -121 47 -124 51 -9 8 10 4 66 -17z m183
-89 c8 -5 11 -10 5 -10 -5 0 -17 5 -25 10 -8 5 -10 10 -5 10 6 0 17 -5 25 -10z
m148 -104 c7 -12 -95 59 -118 82 -8 8 13 -4 48 -28 35 -24 66 -48 70 -54z
m166 -150 c32 -37 56 -66 54 -66 -2 0 -41 39 -88 87 -47 47 -71 77 -54 65 17
-11 57 -50 88 -86z m86 -107 c15 -28 5 -23 -15 7 -9 15 -12 23 -6 20 6 -4 16
-16 21 -27z m50 -73 c0 -6 -7 -1 -15 10 -8 10 -15 23 -15 28 0 6 7 1 15 -10 8
-10 15 -23 15 -28z m38 -58 c30 -56 23 -58 -11 -3 -14 25 -23 45 -19 45 4 0
17 -19 30 -42z m40 -83 c-3 -3 -9 2 -12 12 -6 14 -5 15 5 6 7 -7 10 -15 7 -18z
m23 -41 c5 -15 8 -29 5 -31 -2 -2 -8 10 -14 26 -13 38 -5 41 9 5z m23 -60 c3
-8 2 -12 -4 -9 -6 3 -10 10 -10 16 0 14 7 11 14 -7z m14 -49 c-3 -3 -9 2 -12
12 -6 14 -5 15 5 6 7 -7 10 -15 7 -18z m29 -107 c-3 -8 -6 -5 -6 6 -1 11 2 17
5 13 3 -3 4 -12 1 -19z"/>
<path d="M1 552 l-2 -553 553 2 c547 1 552 1 473 18 -98 21 -204 56 -268 88
-30 15 -57 22 -70 18 -15 -4 -18 -3 -9 3 11 7 -1 17 -43 40 -32 18 -62 29 -67
26 -4 -3 -7 -1 -6 4 3 9 -95 92 -108 92 -4 0 0 -8 7 -17 13 -16 12 -17 -4 -4
-9 8 -15 16 -12 19 2 3 -37 48 -88 101 -176 184 -285 389 -338 636 -17 79 -17
74 -18 -473z m16 416 c-3 -8 -6 -5 -6 6 -1 11 2 17 5 13 3 -3 4 -12 1 -19z
m37 -104 c3 -8 2 -12 -4 -9 -6 3 -10 10 -10 16 0 14 7 11 14 -7z m14 -49 c-3
-3 -9 2 -12 12 -6 14 -5 15 5 6 7 -7 10 -15 7 -18z m21 -47 c6 -18 7 -28 2
-23 -10 12 -25 55 -18 55 3 0 10 -15 16 -32z m25 -54 c3 -8 2 -12 -4 -9 -6 3
-10 10 -10 16 0 14 7 11 14 -7z m40 -71 c14 -24 23 -43 18 -43 -5 0 -17 17
-27 38 -37 71 -33 72 9 5z m56 -97 c0 -6 -7 -1 -15 10 -8 10 -15 23 -15 28 0
6 7 1 15 -10 8 -10 15 -23 15 -28z m35 -42 c9 -15 12 -23 6 -20 -11 7 -35 46
-28 46 3 0 12 -12 22 -26z m105 -121 c47 -47 71 -77 54 -65 -26 18 -152 152
-142 152 2 0 41 -39 88 -87z m196 -175 c4 -7 -9 1 -29 16 -20 16 -37 30 -37
33 0 7 58 -36 66 -49z m55 -35 c13 -16 12 -17 -3 -4 -17 13 -22 21 -14 21 2 0
10 -8 17 -17z m49 -23 c8 -5 11 -10 5 -10 -5 0 -17 5 -25 10 -8 5 -10 10 -5
10 6 0 17 -5 25 -10z m168 -79 c34 -13 61 -26 59 -28 -6 -5 -120 37 -132 49
-7 7 -7 9 0 7 6 -2 38 -15 73 -28z m169 -57 c-3 -3 -12 -4 -19 -1 -8 3 -5 6 6
6 11 1 17 -2 13 -5z"/>
<path d="M2541 1029 c-15 -82 -58 -215 -90 -277 -13 -26 -20 -52 -16 -65 5
-16 4 -18 -3 -8 -8 11 -16 2 -36 -37 -14 -27 -48 -80 -76 -117 -53 -70 -61
-86 -32 -64 15 13 16 12 3 -4 -8 -9 -16 -15 -19 -12 -3 2 -48 -37 -102 -88
-184 -177 -387 -285 -635 -338 -79 -17 -74 -17 473 -18 l553 -2 -1 551 c-1
302 -2 550 -4 550 -1 0 -8 -32 -15 -71z m6 -61 c-3 -8 -6 -5 -6 6 -1 11 2 17
5 13 3 -3 4 -12 1 -19z m-48 -154 c-12 -33 -26 -63 -31 -69 -7 -7 -9 -7 -7 0
2 6 15 38 28 73 13 34 26 61 28 59 2 -3 -6 -31 -18 -63z m-88 -181 c-12 -20
-14 -14 -5 12 4 9 9 14 11 11 3 -2 0 -13 -6 -23z m-52 -84 c-24 -33 -47 -63
-53 -67 -6 -3 1 10 15 29 14 18 35 49 48 67 12 17 25 32 27 32 3 0 -14 -27
-37 -61z m-118 -147 c-11 -16 -51 -55 -88 -87 l-68 -58 85 86 c47 48 86 87 88
87 2 0 -6 -13 -17 -28z m-166 -152 c-3 -5 -16 -15 -28 -21 -19 -9 -19 -8 3 10
28 23 34 26 25 11z m-71 -55 c-10 -8 -23 -15 -28 -15 -6 0 -1 7 10 15 10 8 23
15 28 15 6 0 1 -7 -10 -15z m-44 -23 c0 -5 -17 -17 -37 -27 -59 -30 -62 -29
-13 4 52 34 50 33 50 23z m-105 -62 c-3 -5 -12 -10 -18 -10 -7 0 -6 4 3 10 19
12 23 12 15 0z m-40 -19 c-6 -5 -21 -11 -35 -15 -21 -5 -20 -3 5 9 35 17 42
18 30 6z m-65 -25 c0 -2 -7 -7 -16 -10 -8 -3 -12 -2 -9 4 6 10 25 14 25 6z
m-45 -16 c-3 -5 -12 -10 -18 -10 -7 0 -6 4 3 10 19 12 23 12 15 0z m-108 -36
c-3 -3 -12 -4 -19 -1 -8 3 -5 6 6 6 11 1 17 -2 13 -5z"/>
</g>
</svg>
