<?xml version="1.0" encoding="UTF-8"?>
<svg xmlns="http://www.w3.org/2000/svg" version="1.1" xmlns:xodm="http://www.corel.com/coreldraw/odm/2003" viewBox="0 0 24 24">
  <circle cx="12" cy="12" r="12" fill="#fff" />
  <polygon points="12 2 11.9 2.5 11.9 15.7 12 15.8 18.1 12.2 12 2" fill="#343434" />
  <polygon points="12 2 5.9 12.2 12 15.8 12 9.4 12 2" fill="#8c8c8c" />
  <polygon points="12 17 11.9 17.1 11.9 21.8 12 22 18.1 13.3 12 17" fill="#3c3c3b" />
  <polygon points="12 22 12 17 5.9 13.3 12 22" fill="#8c8c8c" />
  <polygon points="12 15.8 18.1 12.2 12 9.4 12 15.8" fill="#141414" />
  <polygon points="5.9 12.2 12 15.8 12 9.4 5.9 12.2" fill="#393939" />
</svg>