<?xml version="1.0" encoding="UTF-8"?><svg id="Layer_1" xmlns="http://www.w3.org/2000/svg" viewBox="0 0 647.67 647.67"><defs><style>.cls-1{fill:#1be6c9;}.cls-1,.cls-2{stroke-width:0px;}.cls-2{fill:#fff;}</style></defs><rect class="cls-1" y="0" width="647.67" height="647.67"/><path class="cls-2" d="M323.05,216.43c24.08,0,43.44,1.13,60.93,3.56,14.72,2.04,26.58,5.4,36.26,10.28,4.62,2.32,5.24,4.81,5.47,5.74.74,2.99.61,7.1.46,11.45-.05,1.61-.11,3.27-.12,4.96l-.74,94.52c-.04,5.08-.06,10.15-.09,15.23-.05,10.09-.1,20.53-.27,30.75-.15,8.84-.85,18.99-4.91,27.21-3.78,7.65-11.09,9.92-16.57,10.47-4.2.43-8.91.63-14.4.63-5.17,0-10.56-.18-15.77-.36-4.57-.15-9.3-.31-13.97-.36l-91.97-.84h-.83c-.44-.01-.88-.01-1.32-.01-2.11,0-4.26.04-6.34.08-2.05.04-4.17.08-6.21.08-6.92,0-14.62-.45-19.27-3.79-6.05-4.35-8.8-11.83-10.04-17.35-2.14-9.53-2.02-19.77-1.89-30.62l.03-2.42c.16-14.94.49-30.12.96-45.12.93-29.18,2.5-59.04,4.67-88.85,4.16-.88,7.83-3.64,9.75-7.69,6.27-13.19,24.18-16.33,49.14-16.97,11.83-.31,24.44-.61,37.04-.61M227.5,236.49h0,0M323.05,202.43c-12.52,0-25.02.29-37.4.61-22.15.57-50.82,2.64-61.43,24.96-.68-.16-1.38-.24-2.09-.24-4,0-8.2,2.56-8.59,7.68-2.37,31.51-4.08,63.08-5.08,94.66-.48,15.14-.8,30.28-.97,45.42-.13,12.13-.48,24.34,2.2,36.26,2.26,10.03,7.04,19.55,15.53,25.64,7.75,5.57,17.69,6.42,27.44,6.42,4.29,0,8.54-.16,12.55-.16.4,0,.8,0,1.19,0,30.93.28,61.87.56,92.8.84,9.81.09,19.89.71,29.86.71,5.32,0,10.61-.18,15.82-.71,11.94-1.21,22.27-7.22,27.7-18.2,5.06-10.24,6.17-21.91,6.35-33.18.26-15.37.24-30.74.36-46.11.25-31.51.49-63.01.74-94.52.05-6.5.83-13.54-.76-19.91-1.72-6.93-6.53-11.73-12.76-14.86-12.61-6.35-26.72-9.71-40.63-11.64-20.68-2.87-41.79-3.69-62.85-3.69h0Z"/><path class="cls-2" d="M254.15,293.66c2.35,11.37,4.06,22.86,11.6,32.11,2.8,3.44,9.77,2.61,11.59-1.49,4.71-10.63,8.97-21.43,12.76-32.4,7.23,11.6,14.18,23.36,20.19,35.66,2.66,5.44,12.45,4.44,13.49-1.76,4.37-26.16,8.51-52.35,12.4-78.58.59-3.94-.98-7.93-5.15-9.08-3.48-.96-8.49,1.19-9.08,5.15-2.87,19.33-5.88,38.65-9.01,57.94-5.91-10.28-12.27-20.3-18.65-30.31-3.42-5.36-11.63-4.44-13.49,1.76-2.93,9.79-6.23,19.45-9.92,28.97-1.16-5.12-2.19-10.28-3.24-15.43-2.35-11.48-4.58-22.99-6.71-34.52-1.72-9.33-15.95-5.38-14.23,3.92,2.34,12.71,4.82,25.39,7.44,38.05Z"/><path class="cls-2" d="M399.09,315.76c-12.17.76-24.02-.52-35.64-3.85l1.49-17.2c8.21,1.24,16.48,1.81,24.8,1.55,9.47-.3,9.51-15.05,0-14.76-7.91.25-15.74-.19-23.53-1.45l1.13-13.03c10.94-.02,21.87.28,32.79.92,9.49.56,9.45-14.2,0-14.76-13.17-.78-26.35-1.07-39.54-.89-4.24.06-7.03,3.35-7.38,7.38-1.65,19.06-3.3,38.11-4.95,57.17-.31,3.63,1.67,5.86,4.28,6.69.61.44,1.32.82,2.14,1.09,14.26,4.83,29.37,6.83,44.4,5.89,9.43-.59,9.5-15.35,0-14.76Z"/><path class="cls-2" d="M323.55,344.07c-3.69,14.04-8.19,27.83-13.51,41.31-3.24-11.87-6.47-23.75-9.71-35.62-1.94-7.11-12.2-6.93-14.23,0-2.55,8.71-5.37,17.34-8.41,25.88-3.51-10.55-7.01-21.1-10.52-31.65-2.98-8.97-17.24-5.12-14.23,3.92,5.71,17.19,11.43,34.38,17.14,51.56,2.44,7.35,11.53,6.61,14.23,0,2.95-7.23,5.72-14.52,8.31-21.88,2.91,10.69,5.82,21.37,8.74,32.06,1.55,5.71,10.73,7.71,13.49,1.76,9.48-20.45,17.21-41.63,22.94-63.43,2.41-9.19-11.82-13.12-14.23-3.92Z"/><path class="cls-2" d="M393.89,341.87c-12.23-.71-24.36-2.12-36.42-4.29-2.67-.48-5.39.19-7.21,1.96-1.58,1.18-2.73,2.99-2.94,5.44-1.42,16.82-2.48,33.77-2.5,50.66,0,3.61.63,7.15,3.65,9.5,3.39,2.64,7.61,2.26,11.66,2.26,8.83,0,17.66,0,26.49,0,9.5,0,9.51-14.76,0-14.76-8.93,0-18.03.44-27,.17,0-.54.02-1.07.03-1.61.05-2.37.1-4.75.18-7.12,0-.19.01-.38.02-.57h19.5c9.5,0,9.51-14.76,0-14.76h-18.89c.27-5.21.62-10.41,1-15.6,10.75,1.69,21.57,2.87,32.43,3.5,9.49.55,9.46-14.21,0-14.76Z"/></svg>