<svg xmlns="http://www.w3.org/2000/svg" width="32" height="32" fill="none" viewBox="0 0 32 32">
  <g clip-path="url(#a)">
    <path fill="url(#b)" d="M26.92 15.814V9.856c0-.35-.28-.636-.632-.644a13.884 13.884 0 0 0-1.08.019 13.015 13.015 0 0 0-4.37 1.01 13.23 13.23 0 0 0-3.06 1.826 12.731 12.731 0 0 0-1.76 1.69c-.023.027-.044.055-.067.081l-.067-.08a12.907 12.907 0 0 0-1.76-1.69 13.176 13.176 0 0 0-3.06-1.828 12.923 12.923 0 0 0-4.368-1.01c-.356-.02-.719-.024-1.08-.018a.645.645 0 0 0-.633.644v5.958H0v6.245h6.277v-4.913a4.968 4.968 0 0 1 1.985.644c.459.27.901.648 1.355 1.158.215.242.413.501.623.774.194.25.391.51.608.76.025.03.05.056.076.085l.035.038.478-.424-.475.436c1.62 1.751 3.175 2.725 4.62 2.895.14.018.28.025.422.025 1.55 0 3.21-.984 4.94-2.932l.037-.04c.025-.027.048-.055.071-.081.217-.25.415-.509.608-.759.21-.273.409-.532.625-.774.454-.51.898-.89 1.355-1.158a4.938 4.938 0 0 1 1.985-.644v4.913h6.277v-6.245h-4.983l.002-.003ZM4.984 20.771h-3.69V17.1h3.688v3.67h.002Zm15.652-1.832c-.19.247-.368.48-.561.701l-.097.107c-1.57 1.767-3.036 2.627-4.243 2.483-1.11-.132-2.428-.99-3.812-2.481l.003-.003-.095-.107c-.192-.222-.37-.455-.561-.703-.215-.28-.437-.568-.683-.844-.545-.612-1.09-1.074-1.666-1.414-.782-.46-1.67-.737-2.643-.83v-5.347a11.66 11.66 0 0 1 7.04 2.571c.592.472 1.124.983 1.583 1.52.135.158.262.32.398.492l.095.122c.139.26.41.523.703.805 1.509 1.461 3.248 2.316 4.93 2.426-.136.167-.265.335-.391.5v.002Zm2.348-2.26a5.89 5.89 0 0 0-.593.4 7.51 7.51 0 0 1-.765.078c-.105.005-.21.006-.315.005-1.431-.028-2.963-.765-4.315-2.072a7.805 7.805 0 0 1-.218-.225c.075-.093.148-.184.225-.273a11.5 11.5 0 0 1 1.583-1.52 11.892 11.892 0 0 1 2.759-1.648 11.652 11.652 0 0 1 4.281-.923v5.347c-.975.093-1.862.37-2.643.83l.002.002Zm7.627 4.092h-3.688V17.1h3.688v3.67Z"/>
  </g>
  <defs>
    <linearGradient id="b" x1="19.882" x2="30.125" y1="26.715" y2=".406" gradientUnits="userSpaceOnUse">
      <stop stop-color="#54EEF6"/>
      <stop offset="1" stop-color="#72FFA0"/>
    </linearGradient>
    <clipPath id="a">
      <path fill="#fff" d="M0 9.206h32v14.328H0z"/>
    </clipPath>
  </defs>
</svg>
