<svg width="22" height="22" viewBox="0 0 22 22" fill="none" xmlns="http://www.w3.org/2000/svg">
<g clip-path="url(#clip0_48948_110018)">
<path d="M11 22C17.0893 22 22 17.0893 22 11C22 4.91071 17.0893 0 11 0C4.91071 0 0 4.91071 0 11C0 17.0893 4.91071 22 11 22Z" fill="#0098EA"/>
<path d="M14.7713 6.12842H7.22845C5.85345 6.12842 4.98917 7.62127 5.65703 8.83913L10.2927 16.8927C10.607 17.4034 11.3535 17.4034 11.6677 16.8927L16.3035 8.83913C17.0106 7.62127 16.1463 6.12842 14.7713 6.12842ZM10.332 14.457L9.3106 12.4927L6.87488 8.13199C6.71774 7.85699 6.91417 7.50342 7.26774 7.50342H10.332V14.457ZM15.1249 8.13199L12.6892 12.4927L11.6677 14.457V7.50342H14.732C15.0856 7.50342 15.282 7.85699 15.1249 8.13199Z" fill="white"/>
</g>
<defs>
<clipPath id="clip0_48948_110018">
<rect width="22" height="22" fill="white"/>
</clipPath>
</defs>
</svg>
