<?xml version="1.0" encoding="UTF-8"?>
<!DOCTYPE svg PUBLIC "-//W3C//DTD SVG 1.1//EN" "http://www.w3.org/Graphics/SVG/1.1/DTD/svg11.dtd">
<svg xmlns="http://www.w3.org/2000/svg" version="1.1" width="256px" height="256px" style="shape-rendering:geometricPrecision; text-rendering:geometricPrecision; image-rendering:optimizeQuality; fill-rule:evenodd; clip-rule:evenodd" xmlns:xlink="http://www.w3.org/1999/xlink">
<g><path style="opacity:0.969" fill="#943638" d="M 135.5,-0.5 C 138.167,-0.5 140.833,-0.5 143.5,-0.5C 151.348,0.753617 159.015,2.75362 166.5,5.5C 156.033,3.59187 145.7,1.59187 135.5,-0.5 Z"/></g>
<g><path style="opacity:1" fill="#9d3939" d="M 111.5,-0.5 C 113.167,-0.5 114.833,-0.5 116.5,-0.5C 111.156,1.6329 105.489,2.6329 99.5,2.5C 103.461,1.31579 107.461,0.315794 111.5,-0.5 Z"/></g>
<g><path style="opacity:0.937" fill="#98383b" d="M 99.5,2.5 C 92.3675,5.20974 85.0341,7.54307 77.5,9.5C 84.3643,5.99091 91.6977,3.65758 99.5,2.5 Z"/></g>
<g><path style="opacity:0.624" fill="#94363c" d="M 166.5,5.5 C 169.542,5.73292 172.208,6.73292 174.5,8.5C 171.364,8.39685 168.698,7.39685 166.5,5.5 Z"/></g>
<g><path style="opacity:1" fill="#af3737" d="M 174.5,8.5 C 176.553,8.40206 178.22,9.06873 179.5,10.5C 177.856,10.2865 176.356,10.6198 175,11.5C 174.517,10.552 174.351,9.55198 174.5,8.5 Z"/></g>
<g><path style="opacity:1" fill="#ba3943" d="M 77.5,9.5 C 76.3933,11.9689 74.3933,12.9689 71.5,12.5C 73.1815,10.9925 75.1815,9.99249 77.5,9.5 Z"/></g>
<g><path style="opacity:1" fill="#b6393e" d="M 179.5,10.5 C 183.151,11.6589 186.485,13.3256 189.5,15.5C 185.674,14.9252 182.008,13.7585 178.5,12C 179.056,11.6174 179.389,11.1174 179.5,10.5 Z"/></g>
<g><path style="opacity:0.937" fill="#8d343c" d="M 63.5,16.5 C 63.0269,17.9063 62.0269,18.573 60.5,18.5C 60.9731,17.0937 61.9731,16.427 63.5,16.5 Z"/></g>
<g><path style="opacity:0.376" fill="#7b3037" d="M 191.5,16.5 C 193.027,16.427 194.027,17.0937 194.5,18.5C 192.973,18.573 191.973,17.9063 191.5,16.5 Z"/></g>
<g><path style="opacity:1" fill="#9e373f" d="M 60.5,18.5 C 60.0269,19.9063 59.0269,20.573 57.5,20.5C 57.9731,19.0937 58.9731,18.427 60.5,18.5 Z"/></g>
<g><path style="opacity:1" fill="#a03842" d="M 196.5,19.5 C 198.23,20.0256 199.564,21.0256 200.5,22.5C 198.368,22.4456 197.035,21.4456 196.5,19.5 Z"/></g>
<g><path style="opacity:1" fill="#a03a44" d="M 57.5,20.5 C 57.0269,21.9063 56.0269,22.573 54.5,22.5C 54.9731,21.0937 55.9731,20.427 57.5,20.5 Z"/></g>
<g><path style="opacity:0.937" fill="#94393d" d="M 54.5,22.5 C 54.0269,23.9063 53.0269,24.573 51.5,24.5C 51.9731,23.0937 52.9731,22.427 54.5,22.5 Z"/></g>
<g><path style="opacity:0.063" fill="#6c2c2a" d="M 203.5,24.5 C 205.027,24.427 206.027,25.0937 206.5,26.5C 204.973,26.573 203.973,25.9063 203.5,24.5 Z"/></g>
<g><path style="opacity:1" fill="#9c373c" d="M 51.5,24.5 C 50.4154,26.5869 48.7488,27.9202 46.5,28.5C 47.5846,26.4131 49.2512,25.0798 51.5,24.5 Z"/></g>
<g><path style="opacity:1" fill="#a43a3b" d="M 206.5,26.5 C 212.129,30.4608 217.129,35.1275 221.5,40.5C 216.856,36.8622 212.189,33.1955 207.5,29.5C 206.873,28.5832 206.539,27.5832 206.5,26.5 Z"/></g>
<g><path style="opacity:1" fill="#863535" d="M 221.5,40.5 C 223.914,41.9108 225.581,43.9108 226.5,46.5C 224.086,45.0892 222.419,43.0892 221.5,40.5 Z"/></g>
<g><path style="opacity:0.875" fill="#943838" d="M 46.5,28.5 C 39.139,36.1931 31.8057,43.8598 24.5,51.5C 30.4578,42.5417 37.7911,34.875 46.5,28.5 Z"/></g>
<g><path style="opacity:0.875" fill="#893537" d="M 226.5,46.5 C 228.587,47.5846 229.92,49.2512 230.5,51.5C 228.413,50.4154 227.08,48.7488 226.5,46.5 Z"/></g>
<g><path style="opacity:0.937" fill="#8f383b" d="M 24.5,51.5 C 24.573,53.0269 23.9063,54.0269 22.5,54.5C 22.427,52.9731 23.0937,51.9731 24.5,51.5 Z"/></g>
<g><path style="opacity:0.937" fill="#8f383a" d="M 230.5,51.5 C 231.906,51.9731 232.573,52.9731 232.5,54.5C 231.094,54.0269 230.427,53.0269 230.5,51.5 Z"/></g>
<g><path style="opacity:0.875" fill="#943442" d="M 22.5,54.5 C 22.573,56.0269 21.9063,57.0269 20.5,57.5C 20.427,55.9731 21.0937,54.9731 22.5,54.5 Z"/></g>
<g><path style="opacity:0.812" fill="#943541" d="M 232.5,54.5 C 233.906,54.9731 234.573,55.9731 234.5,57.5C 233.094,57.0269 232.427,56.0269 232.5,54.5 Z"/></g>
<g><path style="opacity:0.875" fill="#97323e" d="M 20.5,57.5 C 20.573,59.0269 19.9063,60.0269 18.5,60.5C 18.427,58.9731 19.0937,57.9731 20.5,57.5 Z"/></g>
<g><path style="opacity:0.749" fill="#96343c" d="M 234.5,57.5 C 235.906,57.9731 236.573,58.9731 236.5,60.5C 235.094,60.0269 234.427,59.0269 234.5,57.5 Z"/></g>
<g><path style="opacity:0.624" fill="#7f323a" d="M 18.5,60.5 C 18.573,62.0269 17.9063,63.0269 16.5,63.5C 16.427,61.9731 17.0937,60.9731 18.5,60.5 Z"/></g>
<g><path style="opacity:0.561" fill="#7d2f3a" d="M 236.5,60.5 C 237.906,60.9731 238.573,61.9731 238.5,63.5C 237.094,63.0269 236.427,62.0269 236.5,60.5 Z"/></g>
<g><path style="opacity:1" fill="#b7393f" d="M 12.5,71.5 C 12.9689,74.3933 11.9689,76.3933 9.5,77.5C 9.99249,75.1815 10.9925,73.1815 12.5,71.5 Z"/></g>
<g><path style="opacity:1" fill="#a2373e" d="M 9.5,77.5 C 9.51405,81.4748 8.18072,84.8082 5.5,87.5C 6.32079,83.8733 7.65412,80.54 9.5,77.5 Z"/></g>
<g><path style="opacity:1" fill="#94353a" d="M 245.5,77.5 C 249.009,84.3643 251.342,91.6977 252.5,99.5C 249.79,92.3675 247.457,85.0341 245.5,77.5 Z"/></g>
<g><path style="opacity:0.812" fill="#873838" d="M 5.5,88.5 C 5.59047,91.1522 4.92381,93.4855 3.5,95.5C 3.40953,92.8478 4.07619,90.5145 5.5,88.5 Z"/></g>
<g><path style="opacity:1" fill="#973536" d="M 252.5,99.5 C 253.684,103.461 254.684,107.461 255.5,111.5C 255.5,113.167 255.5,114.833 255.5,116.5C 253.367,111.156 252.367,105.489 252.5,99.5 Z"/></g>
<g><path style="opacity:1" fill="#b43a3c" d="M 2.5,99.5 C 2.15098,105.84 1.65098,112.173 1,118.5C 0.721579,119.416 0.221579,120.082 -0.5,120.5C -0.5,117.5 -0.5,114.5 -0.5,111.5C 0.5,107.5 1.5,103.5 2.5,99.5 Z"/></g>
<g><path style="opacity:0.937" fill="#983436" d="M 255.5,135.5 C 255.5,138.167 255.5,140.833 255.5,143.5C 254.5,147.5 253.5,151.5 252.5,155.5C 252.439,148.546 253.439,141.879 255.5,135.5 Z"/></g>
<g><path style="opacity:0.812" fill="#963437" d="M -0.5,136.5 C 1.50809,142.543 2.50809,148.876 2.5,155.5C 1.31579,151.539 0.315794,147.539 -0.5,143.5C -0.5,141.167 -0.5,138.833 -0.5,136.5 Z"/></g>
<g><path style="opacity:1" fill="#953839" d="M 252.5,156.5 C 252.101,160.116 251.101,163.45 249.5,166.5C 249.025,162.584 250.025,159.251 252.5,156.5 Z"/></g>
<g><path style="opacity:1" fill="#a3383d" d="M 4.5,163.5 C 6.96797,166.553 8.3013,170.22 8.5,174.5C 6.39867,171.203 5.06533,167.537 4.5,163.5 Z"/></g>
<g><path style="opacity:1" fill="#c0393d" d="M 248.5,169.5 C 247.234,175.36 244.9,180.693 241.5,185.5C 241.781,181.812 242.281,178.145 243,174.5C 244.011,173.663 245.178,173.33 246.5,173.5C 246.229,171.62 246.896,170.287 248.5,169.5 Z"/></g>
<g><path style="opacity:1" fill="#a03438" d="M 8.5,175.5 C 10.913,176.68 11.913,178.68 11.5,181.5C 9.99249,179.819 8.99249,177.819 8.5,175.5 Z"/></g>
<g><path style="opacity:1" fill="#983b3e" d="M 13.5,186.5 C 15.0481,186.821 15.7148,187.821 15.5,189.5C 14.5987,188.71 13.9321,187.71 13.5,186.5 Z"/></g>
<g><path style="opacity:0.875" fill="#91393c" d="M 241.5,185.5 C 241.34,187.153 240.674,188.486 239.5,189.5C 239.229,187.62 239.896,186.287 241.5,185.5 Z"/></g>
<g><path style="opacity:0.439" fill="#7b2c36" d="M 16.5,191.5 C 17.9063,191.973 18.573,192.973 18.5,194.5C 17.0937,194.027 16.427,193.027 16.5,191.5 Z"/></g>
<g><path style="opacity:0.376" fill="#7a2f36" d="M 238.5,191.5 C 238.573,193.027 237.906,194.027 236.5,194.5C 236.427,192.973 237.094,191.973 238.5,191.5 Z"/></g>
<g><path style="opacity:1" fill="#ae383e" d="M 236.5,194.5 C 235.66,196.853 234.326,198.853 232.5,200.5C 232.5,198.833 232.5,197.167 232.5,195.5C 233.959,195.567 235.292,195.234 236.5,194.5 Z"/></g>
<g><path style="opacity:1" fill="#a4383f" d="M 18.5,194.5 C 21.0338,195.634 22.3671,197.634 22.5,200.5C 20.6736,198.853 19.3403,196.853 18.5,194.5 Z"/></g>
<g><path style="opacity:0.125" fill="#7c3334" d="M 232.5,200.5 C 232.573,202.027 231.906,203.027 230.5,203.5C 230.427,201.973 231.094,200.973 232.5,200.5 Z"/></g>
<g><path style="opacity:0.063" fill="#6c2c2d" d="M 230.5,203.5 C 230.573,205.027 229.906,206.027 228.5,206.5C 228.427,204.973 229.094,203.973 230.5,203.5 Z"/></g>
<g><path style="opacity:0.125" fill="#672d29" d="M 24.5,203.5 C 25.9063,203.973 26.573,204.973 26.5,206.5C 25.0937,206.027 24.427,205.027 24.5,203.5 Z"/></g>
<g><path style="opacity:0.063" fill="#6d2d2c" d="M 226.5,208.5 C 226.573,210.027 225.906,211.027 224.5,211.5C 224.427,209.973 225.094,208.973 226.5,208.5 Z"/></g>
<g><path style="opacity:1" fill="#a03a3a" d="M 28.5,209.5 C 29.9217,209.709 31.255,210.209 32.5,211C 35.4068,214.395 38.0735,217.895 40.5,221.5C 36.1667,217.833 32.1667,213.833 28.5,209.5 Z"/></g>
<g><path style="opacity:1" fill="#d33c39" d="M 206.5,212.5 C 206.62,215.48 207.287,218.313 208.5,221C 207.588,222.625 208.255,223.459 210.5,223.5C 209.833,224.5 209.167,225.5 208.5,226.5C 208.167,227.5 207.5,228.167 206.5,228.5C 205.833,228.5 205.167,228.5 204.5,228.5C 204.141,224.999 204.807,221.499 206.5,218C 206,217.5 205.5,217 205,216.5C 202.627,218.12 200.127,219.454 197.5,220.5C 200.271,217.608 203.271,214.942 206.5,212.5 Z"/></g>
<g><path style="opacity:1" fill="#be3a36" d="M 224.5,211.5 C 221.5,215.167 218.167,218.5 214.5,221.5C 214.34,219.801 214.506,218.134 215,216.5C 215.893,217.711 216.726,217.711 217.5,216.5C 216.814,214.936 216.981,213.269 218,211.5C 218.689,212.357 219.522,213.023 220.5,213.5C 221.524,212.147 222.857,211.48 224.5,211.5 Z"/></g>
<g><path style="opacity:1" fill="#843435" d="M 40.5,221.5 C 43.0892,222.419 45.0892,224.086 46.5,226.5C 43.9108,225.581 41.9108,223.914 40.5,221.5 Z"/></g>
<g><path style="opacity:1" fill="#903736" d="M 214.5,221.5 C 213.089,223.914 211.089,225.581 208.5,226.5C 209.167,225.5 209.833,224.5 210.5,223.5C 211.287,221.896 212.62,221.229 214.5,221.5 Z"/></g>
<g><path style="opacity:0.875" fill="#863338" d="M 46.5,226.5 C 48.7488,227.08 50.4154,228.413 51.5,230.5C 49.2512,229.92 47.5846,228.587 46.5,226.5 Z"/></g>
<g><path style="opacity:1" fill="#bb3a3a" d="M 204.5,228.5 C 204.167,229.167 203.833,229.833 203.5,230.5C 203.027,231.906 202.027,232.573 200.5,232.5C 201.684,231.312 201.684,230.145 200.5,229C 201.793,228.51 203.127,228.343 204.5,228.5 Z"/></g>
<g><path style="opacity:0.063" fill="#672a28" d="M 204.5,228.5 C 205.167,228.5 205.833,228.5 206.5,228.5C 206.027,229.906 205.027,230.573 203.5,230.5C 203.833,229.833 204.167,229.167 204.5,228.5 Z"/></g>
<g><path style="opacity:0.937" fill="#8d373a" d="M 51.5,230.5 C 53.0269,230.427 54.0269,231.094 54.5,232.5C 52.9731,232.573 51.9731,231.906 51.5,230.5 Z"/></g>
<g><path style="opacity:1" fill="#ae373d" d="M 200.5,232.5 C 198.853,234.326 196.853,235.66 194.5,236.5C 195.234,235.292 195.567,233.959 195.5,232.5C 197.167,232.5 198.833,232.5 200.5,232.5 Z"/></g>
<g><path style="opacity:0.875" fill="#953541" d="M 54.5,232.5 C 56.0269,232.427 57.0269,233.094 57.5,234.5C 55.9731,234.573 54.9731,233.906 54.5,232.5 Z"/></g>
<g><path style="opacity:0.875" fill="#95333c" d="M 57.5,234.5 C 58.1667,234.5 58.8333,234.5 59.5,234.5C 59.8333,235.167 60.1667,235.833 60.5,236.5C 58.9731,236.573 57.9731,235.906 57.5,234.5 Z"/></g>
<g><path style="opacity:0.627" fill="#7f2f3a" d="M 60.5,236.5 C 62.0269,236.427 63.0269,237.094 63.5,238.5C 61.9731,238.573 60.9731,237.906 60.5,236.5 Z"/></g>
<g><path style="opacity:0.063" fill="#6d2935" d="M 194.5,236.5 C 194.027,237.906 193.027,238.573 191.5,238.5C 191.973,237.094 192.973,236.427 194.5,236.5 Z"/></g>
<g><path style="opacity:1" fill="#d43c39" d="M 59.5,234.5 C 61.1533,235.605 62.82,235.771 64.5,235C 64.3808,236.281 64.8808,237.448 66,238.5C 66.3879,237.572 67.0546,236.905 68,236.5C 72.2557,238.476 76.4223,240.642 80.5,243C 79.7476,243.671 79.4142,244.504 79.5,245.5C 78.8333,245.5 78.1667,245.5 77.5,245.5C 72.5156,243.674 67.8489,241.341 63.5,238.5C 63.0269,237.094 62.0269,236.427 60.5,236.5C 60.1667,235.833 59.8333,235.167 59.5,234.5 Z"/></g>
<g><path style="opacity:1" fill="#ac363c" d="M 185.5,241.5 C 183.819,243.008 181.819,244.008 179.5,244.5C 180.68,242.087 182.68,241.087 185.5,241.5 Z"/></g>
<g><path style="opacity:1" fill="#e13a36" d="M 116.5,-0.5 C 122.833,-0.5 129.167,-0.5 135.5,-0.5C 145.7,1.59187 156.033,3.59187 166.5,5.5C 168.698,7.39685 171.364,8.39685 174.5,8.5C 174.351,9.55198 174.517,10.552 175,11.5C 176.356,10.6198 177.856,10.2865 179.5,10.5C 179.389,11.1174 179.056,11.6174 178.5,12C 182.008,13.7585 185.674,14.9252 189.5,15.5C 190.492,15.3284 191.158,15.6618 191.5,16.5C 191.973,17.9063 192.973,18.573 194.5,18.5C 195.492,18.3284 196.158,18.6618 196.5,19.5C 197.035,21.4456 198.368,22.4456 200.5,22.5C 202.027,22.427 203.027,23.0937 203.5,24.5C 203.973,25.9063 204.973,26.573 206.5,26.5C 206.539,27.5832 206.873,28.5832 207.5,29.5C 212.189,33.1955 216.856,36.8622 221.5,40.5C 222.419,43.0892 224.086,45.0892 226.5,46.5C 227.08,48.7488 228.413,50.4154 230.5,51.5C 230.427,53.0269 231.094,54.0269 232.5,54.5C 232.427,56.0269 233.094,57.0269 234.5,57.5C 234.427,59.0269 235.094,60.0269 236.5,60.5C 236.427,62.0269 237.094,63.0269 238.5,63.5C 241.341,67.8489 243.674,72.5156 245.5,77.5C 247.457,85.0341 249.79,92.3675 252.5,99.5C 252.367,105.489 253.367,111.156 255.5,116.5C 255.5,122.833 255.5,129.167 255.5,135.5C 253.439,141.879 252.439,148.546 252.5,155.5C 252.5,155.833 252.5,156.167 252.5,156.5C 250.025,159.251 249.025,162.584 249.5,166.5C 249.737,167.791 249.404,168.791 248.5,169.5C 246.896,170.287 246.229,171.62 246.5,173.5C 245.178,173.33 244.011,173.663 243,174.5C 242.281,178.145 241.781,181.812 241.5,185.5C 239.896,186.287 239.229,187.62 239.5,189.5C 239.672,190.492 239.338,191.158 238.5,191.5C 237.094,191.973 236.427,192.973 236.5,194.5C 235.292,195.234 233.959,195.567 232.5,195.5C 232.5,197.167 232.5,198.833 232.5,200.5C 231.094,200.973 230.427,201.973 230.5,203.5C 229.094,203.973 228.427,204.973 228.5,206.5C 228.167,207.5 227.5,208.167 226.5,208.5C 225.094,208.973 224.427,209.973 224.5,211.5C 222.857,211.48 221.524,212.147 220.5,213.5C 219.522,213.023 218.689,212.357 218,211.5C 216.981,213.269 216.814,214.936 217.5,216.5C 216.726,217.711 215.893,217.711 215,216.5C 214.506,218.134 214.34,219.801 214.5,221.5C 212.62,221.229 211.287,221.896 210.5,223.5C 208.255,223.459 207.588,222.625 208.5,221C 207.287,218.313 206.62,215.48 206.5,212.5C 212.219,209.115 216.552,204.448 219.5,198.5C 220.794,197.71 221.961,196.71 223,195.5C 223.989,193.03 225.155,190.697 226.5,188.5C 228.167,185.167 229.833,181.833 231.5,178.5C 232.906,178.027 233.573,177.027 233.5,175.5C 233.796,173.597 234.463,171.93 235.5,170.5C 236.79,169.942 237.623,168.942 238,167.5C 238.696,164.522 239.196,161.522 239.5,158.5C 240.341,156.621 240.675,154.621 240.5,152.5C 241.924,150.485 242.59,148.152 242.5,145.5C 242.5,142.5 242.5,139.5 242.5,136.5C 243.657,128.344 243.823,120.01 243,111.5C 242.465,107.962 241.632,104.628 240.5,101.5C 240.041,98.1226 239.374,94.7893 238.5,91.5C 238.11,88.1606 237.61,84.8273 237,81.5C 236.23,82.5981 235.397,82.5981 234.5,81.5C 234.13,78.2901 232.797,75.6235 230.5,73.5C 229.599,72.7095 228.932,71.7095 228.5,70.5C 228.573,68.9731 227.906,67.9731 226.5,67.5C 225.155,65.3032 223.989,62.9698 223,60.5C 221.961,59.2899 220.794,58.2899 219.5,57.5C 217.213,53.8781 214.547,50.5448 211.5,47.5C 209.167,43.1667 205.833,39.8333 201.5,37.5C 199.596,37.2624 198.262,36.2624 197.5,34.5C 197.027,33.0937 196.027,32.427 194.5,32.5C 194.027,31.0937 193.027,30.427 191.5,30.5C 191.027,29.0937 190.027,28.427 188.5,28.5C 187.508,28.6716 186.842,28.3382 186.5,27.5C 186.027,26.0937 185.027,25.427 183.5,25.5C 183.167,25.5 182.833,25.5 182.5,25.5C 182.027,24.0937 181.027,23.427 179.5,23.5C 179.167,23.5 178.833,23.5 178.5,23.5C 178.027,22.0937 177.027,21.427 175.5,21.5C 172.011,20.342 168.678,19.0086 165.5,17.5C 161.498,15.3902 157.165,14.0569 152.5,13.5C 150.05,13.702 147.717,13.3686 145.5,12.5C 135.877,10.4686 126.211,10.1353 116.5,11.5C 111.23,11.7632 106.23,12.7632 101.5,14.5C 97.494,15.2221 93.494,16.0555 89.5,17C 87.1209,17.7162 85.1209,18.8828 83.5,20.5C 82.8333,20.5 82.1667,20.5 81.5,20.5C 78.5035,21.2703 75.8368,22.6036 73.5,24.5C 67.5905,27.4231 62.2572,31.0898 57.5,35.5C 56.8333,35.5 56.5,35.8333 56.5,36.5C 51.9568,38.3717 48.2901,41.3717 45.5,45.5C 43.5,46.8333 41.8333,48.5 40.5,50.5C 39.0937,50.9731 38.427,51.9731 38.5,53.5C 36.7376,54.2623 35.7376,55.5956 35.5,57.5C 32.6769,58.9923 31.0102,61.3257 30.5,64.5C 29.0937,64.9731 28.427,65.9731 28.5,67.5C 27.0937,67.9731 26.427,68.9731 26.5,70.5C 25.0937,70.9731 24.427,71.9731 24.5,73.5C 22.7549,75.0326 21.7549,77.0326 21.5,79.5C 21.1667,80.8333 20.8333,82.1667 20.5,83.5C 19.0937,83.9731 18.427,84.9731 18.5,86.5C 18.5,86.8333 18.5,87.1667 18.5,87.5C 16.9261,89.1016 16.2594,91.1016 16.5,93.5C 16.5,93.8333 16.5,94.1667 16.5,94.5C 15.0762,96.5145 14.4095,98.8478 14.5,101.5C 12.9886,104.544 12.322,107.878 12.5,111.5C 11.7321,112.263 11.2321,113.263 11,114.5C 10.1787,121.679 10.3454,128.679 11.5,135.5C 12.4794,138.625 12.8128,141.958 12.5,145.5C 12.5651,148.428 13.2318,151.095 14.5,153.5C 14.5,154.167 14.5,154.833 14.5,155.5C 14.8969,160.026 16.2303,164.026 18.5,167.5C 18.5,167.833 18.5,168.167 18.5,168.5C 18.427,170.027 19.0937,171.027 20.5,171.5C 20.8333,172.833 21.1667,174.167 21.5,175.5C 21.427,177.027 22.0937,178.027 23.5,178.5C 23.5,178.833 23.5,179.167 23.5,179.5C 23.7247,182.546 25.058,184.879 27.5,186.5C 28.3382,186.842 28.6716,187.508 28.5,188.5C 28.427,190.027 29.0937,191.027 30.5,191.5C 31.9063,191.973 32.573,192.973 32.5,194.5C 32.427,196.027 33.0937,197.027 34.5,197.5C 36.2624,198.262 37.2624,199.596 37.5,201.5C 38.7284,204.075 40.3951,206.408 42.5,208.5C 41.1666,209.62 40.6666,210.953 41,212.5C 42.5874,211.273 43.9207,211.606 45,213.5C 46.4139,212.587 47.9139,212.587 49.5,213.5C 51.8838,215.885 54.5505,217.885 57.5,219.5C 58.5846,221.587 60.2512,222.92 62.5,223.5C 63.1667,223.833 63.8333,224.167 64.5,224.5C 64.9731,225.906 65.9731,226.573 67.5,226.5C 67.9528,227.458 68.6195,228.292 69.5,229C 73.9392,230.056 77.9392,231.889 81.5,234.5C 82.5981,235.397 82.5981,236.23 81.5,237C 84.914,237.297 88.2473,237.964 91.5,239C 92.8333,239.667 92.8333,240.333 91.5,241C 94.1667,241.333 96.8333,241.667 99.5,242C 100,242.5 100.5,243 101,243.5C 102.356,242.62 103.856,242.286 105.5,242.5C 107.5,242.5 109.5,242.5 111.5,242.5C 116.065,244.04 120.898,244.707 126,244.5C 132.719,244.545 139.219,243.879 145.5,242.5C 147.806,242.007 150.139,241.674 152.5,241.5C 157.507,240.444 162.507,239.277 167.5,238C 169.879,237.284 171.879,236.117 173.5,234.5C 175.989,234.759 177.656,233.759 178.5,231.5C 179.492,231.672 180.158,231.338 180.5,230.5C 183.721,230.104 186.388,228.771 188.5,226.5C 188.973,225.094 189.973,224.427 191.5,224.5C 194.147,224.071 196.147,222.738 197.5,220.5C 200.127,219.454 202.627,218.12 205,216.5C 205.5,217 206,217.5 206.5,218C 204.807,221.499 204.141,224.999 204.5,228.5C 203.127,228.343 201.793,228.51 200.5,229C 201.684,230.145 201.684,231.312 200.5,232.5C 198.833,232.5 197.167,232.5 195.5,232.5C 195.567,233.959 195.234,235.292 194.5,236.5C 192.973,236.427 191.973,237.094 191.5,238.5C 189.819,240.008 187.819,241.008 185.5,241.5C 182.68,241.087 180.68,242.087 179.5,244.5C 178.22,245.931 176.553,246.598 174.5,246.5C 172.447,246.402 170.78,247.069 169.5,248.5C 167.786,249.738 165.786,250.405 163.5,250.5C 160.772,250.171 158.438,250.837 156.5,252.5C 156.167,252.5 155.833,252.5 155.5,252.5C 148.552,252.532 141.886,253.532 135.5,255.5C 127.5,255.5 119.5,255.5 111.5,255.5C 111.158,254.662 110.492,254.328 109.5,254.5C 109.082,253.778 108.416,253.278 107.5,253C 104.854,252.503 102.187,252.336 99.5,252.5C 97.901,252.768 96.5676,252.434 95.5,251.5C 90.3194,249.325 84.986,247.325 79.5,245.5C 79.4142,244.504 79.7476,243.671 80.5,243C 76.4223,240.642 72.2557,238.476 68,236.5C 67.0546,236.905 66.3879,237.572 66,238.5C 64.8808,237.448 64.3808,236.281 64.5,235C 62.82,235.771 61.1533,235.605 59.5,234.5C 58.8333,234.5 58.1667,234.5 57.5,234.5C 57.0269,233.094 56.0269,232.427 54.5,232.5C 54.0269,231.094 53.0269,230.427 51.5,230.5C 50.4154,228.413 48.7488,227.08 46.5,226.5C 45.0892,224.086 43.0892,222.419 40.5,221.5C 38.0735,217.895 35.4068,214.395 32.5,211C 31.255,210.209 29.9217,209.709 28.5,209.5C 27.8333,208.5 27.1667,207.5 26.5,206.5C 26.573,204.973 25.9063,203.973 24.5,203.5C 23.0937,203.027 22.427,202.027 22.5,200.5C 22.3671,197.634 21.0338,195.634 18.5,194.5C 18.573,192.973 17.9063,191.973 16.5,191.5C 15.6618,191.158 15.3284,190.492 15.5,189.5C 15.7148,187.821 15.0481,186.821 13.5,186.5C 12.5592,184.95 11.8925,183.284 11.5,181.5C 11.913,178.68 10.913,176.68 8.5,175.5C 8.5,175.167 8.5,174.833 8.5,174.5C 8.3013,170.22 6.96797,166.553 4.5,163.5C 3.2318,161.095 2.56513,158.428 2.5,155.5C 2.50809,148.876 1.50809,142.543 -0.5,136.5C -0.5,131.167 -0.5,125.833 -0.5,120.5C 0.221579,120.082 0.721579,119.416 1,118.5C 1.65098,112.173 2.15098,105.84 2.5,99.5C 2.23219,97.901 2.56552,96.5676 3.5,95.5C 4.92381,93.4855 5.59047,91.1522 5.5,88.5C 5.5,88.1667 5.5,87.8333 5.5,87.5C 8.18072,84.8082 9.51405,81.4748 9.5,77.5C 11.9689,76.3933 12.9689,74.3933 12.5,71.5C 13.3257,68.5152 14.659,65.8485 16.5,63.5C 17.9063,63.0269 18.573,62.0269 18.5,60.5C 19.9063,60.0269 20.573,59.0269 20.5,57.5C 21.9063,57.0269 22.573,56.0269 22.5,54.5C 23.9063,54.0269 24.573,53.0269 24.5,51.5C 31.8057,43.8598 39.139,36.1931 46.5,28.5C 48.7488,27.9202 50.4154,26.5869 51.5,24.5C 53.0269,24.573 54.0269,23.9063 54.5,22.5C 56.0269,22.573 57.0269,21.9063 57.5,20.5C 59.0269,20.573 60.0269,19.9063 60.5,18.5C 62.0269,18.573 63.0269,17.9063 63.5,16.5C 65.8485,14.659 68.5152,13.3257 71.5,12.5C 74.3933,12.9689 76.3933,11.9689 77.5,9.5C 85.0341,7.54307 92.3675,5.20974 99.5,2.5C 105.489,2.6329 111.156,1.6329 116.5,-0.5 Z"/></g>
<g><path style="opacity:1" fill="#773032" d="M 152.5,240.5 C 152.5,240.833 152.5,241.167 152.5,241.5C 150.139,241.674 147.806,242.007 145.5,242.5C 145.167,242.5 144.833,242.5 144.5,242.5C 146.838,240.96 149.505,240.294 152.5,240.5 Z"/></g>
<g><path style="opacity:1" fill="#54282e" d="M 101.5,240.5 C 105.79,240.198 109.79,240.864 113.5,242.5C 112.833,242.5 112.167,242.5 111.5,242.5C 109.5,242.5 107.5,242.5 105.5,242.5C 104.167,241.833 102.833,241.167 101.5,240.5 Z"/></g>
<g><path style="opacity:1" fill="#d13d3e" d="M 81.5,234.5 C 82.1667,234.5 82.8333,234.5 83.5,234.5C 83.9731,235.906 84.9731,236.573 86.5,236.5C 89.2666,236.858 91.9333,237.525 94.5,238.5C 96.5145,239.924 98.8478,240.59 101.5,240.5C 102.833,241.167 104.167,241.833 105.5,242.5C 103.856,242.286 102.356,242.62 101,243.5C 100.5,243 100,242.5 99.5,242C 96.8333,241.667 94.1667,241.333 91.5,241C 92.8333,240.333 92.8333,239.667 91.5,239C 88.2473,237.964 84.914,237.297 81.5,237C 82.5981,236.23 82.5981,235.397 81.5,234.5 Z"/></g>
<g><path style="opacity:1" fill="#b73d40" d="M 173.5,234.5 C 171.879,236.117 169.879,237.284 167.5,238C 162.507,239.277 157.507,240.444 152.5,241.5C 152.5,241.167 152.5,240.833 152.5,240.5C 159.544,238.656 166.544,236.656 173.5,234.5 Z"/></g>
<g><path style="opacity:1" fill="#5d2630" d="M 94.5,238.5 C 97.1522,238.41 99.4855,239.076 101.5,240.5C 98.8478,240.59 96.5145,239.924 94.5,238.5 Z"/></g>
<g><path style="opacity:1" fill="#7f3535" d="M 83.5,234.5 C 85.0269,234.427 86.0269,235.094 86.5,236.5C 84.9731,236.573 83.9731,235.906 83.5,234.5 Z"/></g>
<g><path style="opacity:1" fill="#b53d3e" d="M 178.5,231.5 C 177.656,233.759 175.989,234.759 173.5,234.5C 174.899,233.11 176.566,232.11 178.5,231.5 Z"/></g>
<g><path style="opacity:1" fill="#783132" d="M 188.5,226.5 C 186.388,228.771 183.721,230.104 180.5,230.5C 182.789,228.613 185.455,227.279 188.5,226.5 Z"/></g>
<g><path style="opacity:1" fill="#5a242b" d="M 64.5,224.5 C 66.0269,224.427 67.0269,225.094 67.5,226.5C 65.9731,226.573 64.9731,225.906 64.5,224.5 Z"/></g>
<g><path style="opacity:1" fill="#a2393b" d="M 197.5,220.5 C 196.147,222.738 194.147,224.071 191.5,224.5C 193.034,222.631 195.034,221.298 197.5,220.5 Z"/></g>
<g><path style="opacity:1" fill="#58272a" d="M 57.5,219.5 C 59.7488,220.08 61.4154,221.413 62.5,223.5C 60.2512,222.92 58.5846,221.587 57.5,219.5 Z"/></g>
<g><path style="opacity:1" fill="#ca3d39" d="M 37.5,201.5 C 41.8333,205.167 45.8333,209.167 49.5,213.5C 47.9139,212.587 46.4139,212.587 45,213.5C 43.9207,211.606 42.5874,211.273 41,212.5C 40.6666,210.953 41.1666,209.62 42.5,208.5C 40.3951,206.408 38.7284,204.075 37.5,201.5 Z"/></g>
<g><path style="opacity:1" fill="#a73a3b" d="M 219.5,198.5 C 216.552,204.448 212.219,209.115 206.5,212.5C 210.861,207.807 215.195,203.141 219.5,198.5 Z"/></g>
<g><path style="opacity:1" fill="#8e3433" d="M 226.5,188.5 C 225.155,190.697 223.989,193.03 223,195.5C 221.961,196.71 220.794,197.71 219.5,198.5C 220.845,196.303 222.011,193.97 223,191.5C 224.039,190.29 225.206,189.29 226.5,188.5 Z"/></g>
<g><path style="opacity:1" fill="#a23b3b" d="M 32.5,194.5 C 33.9063,194.973 34.573,195.973 34.5,197.5C 33.0937,197.027 32.427,196.027 32.5,194.5 Z"/></g>
<g><path style="opacity:1" fill="#9d353f" d="M 28.5,188.5 C 29.9063,188.973 30.573,189.973 30.5,191.5C 29.0937,191.027 28.427,190.027 28.5,188.5 Z"/></g>
<g><path style="opacity:1" fill="#9e3d3a" d="M 23.5,179.5 C 24.8571,180.59 25.8571,181.924 26.5,183.5C 27.1098,184.391 27.4431,185.391 27.5,186.5C 25.058,184.879 23.7247,182.546 23.5,179.5 Z"/></g>
<g><path style="opacity:1" fill="#832f33" d="M 233.5,175.5 C 233.573,177.027 232.906,178.027 231.5,178.5C 231.427,176.973 232.094,175.973 233.5,175.5 Z"/></g>
<g><path style="opacity:1" fill="#2e2535" d="M 17.5,163.5 C 18.7564,163.904 19.9231,164.571 21,165.5C 22.1618,164.813 23.3284,164.647 24.5,165C 23.2412,165.923 21.9079,166.757 20.5,167.5C 23.9763,171.882 26.6429,176.715 28.5,182C 28.1639,183.03 27.4972,183.53 26.5,183.5C 25.8571,181.924 24.8571,180.59 23.5,179.5C 23.5,179.167 23.5,178.833 23.5,178.5C 23.573,176.973 22.9063,175.973 21.5,175.5C 21.1667,174.167 20.8333,172.833 20.5,171.5C 20.573,169.973 19.9063,168.973 18.5,168.5C 18.5,168.167 18.5,167.833 18.5,167.5C 18.1667,166.167 17.8333,164.833 17.5,163.5 Z"/></g>
<g><path style="opacity:1" fill="#832e32" d="M 21.5,175.5 C 22.9063,175.973 23.573,176.973 23.5,178.5C 22.0937,178.027 21.427,177.027 21.5,175.5 Z"/></g>
<g><path style="opacity:1" fill="#793033" d="M 18.5,168.5 C 19.9063,168.973 20.573,169.973 20.5,171.5C 19.0937,171.027 18.427,170.027 18.5,168.5 Z"/></g>
<g><path style="opacity:1" fill="#b63b41" d="M 239.5,158.5 C 239.196,161.522 238.696,164.522 238,167.5C 237.623,168.942 236.79,169.942 235.5,170.5C 236.542,166.303 237.875,162.303 239.5,158.5 Z"/></g>
<g><path style="opacity:1" fill="#a7383d" d="M 14.5,155.5 C 16.3803,157.755 17.3803,160.422 17.5,163.5C 17.8333,164.833 18.1667,166.167 18.5,167.5C 16.2303,164.026 14.8969,160.026 14.5,155.5 Z"/></g>
<g><path style="opacity:1" fill="#722c30" d="M 242.5,145.5 C 242.59,148.152 241.924,150.485 240.5,152.5C 240.171,149.772 240.837,147.438 242.5,145.5 Z"/></g>
<g><path style="opacity:1" fill="#6c2a30" d="M 12.5,145.5 C 13.1174,145.611 13.6174,145.944 14,146.5C 14.4966,148.81 14.6633,151.143 14.5,153.5C 13.2318,151.095 12.5651,148.428 12.5,145.5 Z"/></g>
<g><path style="opacity:1" fill="#b94041" d="M 12.5,111.5 C 12.5,112.167 12.5,112.833 12.5,113.5C 11.6076,120.791 11.2743,128.124 11.5,135.5C 10.3454,128.679 10.1787,121.679 11,114.5C 11.2321,113.263 11.7321,112.263 12.5,111.5 Z"/></g>
<g><path style="opacity:1" fill="#53262c" d="M 240.5,101.5 C 241.632,104.628 242.465,107.962 243,111.5C 243.823,120.01 243.657,128.344 242.5,136.5C 242.77,124.764 242.103,113.097 240.5,101.5 Z"/></g>
<g><path style="opacity:1" fill="#54282d" d="M 14.5,101.5 C 14.8023,105.79 14.1357,109.79 12.5,113.5C 12.5,112.833 12.5,112.167 12.5,111.5C 12.322,107.878 12.9886,104.544 14.5,101.5 Z"/></g>
<g><path style="opacity:1" fill="#5c272e" d="M 16.5,94.5 C 16.5905,97.1522 15.9238,99.4855 14.5,101.5C 14.4095,98.8478 15.0762,96.5145 16.5,94.5 Z"/></g>
<g><path style="opacity:1" fill="#5a252c" d="M 237.5,91.5 C 237.833,91.5 238.167,91.5 238.5,91.5C 239.374,94.7893 240.041,98.1226 240.5,101.5C 238.723,98.4954 237.723,95.1621 237.5,91.5 Z"/></g>
<g><path style="opacity:1" fill="#792d31" d="M 18.5,87.5 C 18.7406,89.8984 18.0739,91.8984 16.5,93.5C 16.2594,91.1016 16.9261,89.1016 18.5,87.5 Z"/></g>
<g><path style="opacity:1" fill="#7e3336" d="M 234.5,83.5 C 235.906,83.9731 236.573,84.9731 236.5,86.5C 235.094,86.0269 234.427,85.0269 234.5,83.5 Z"/></g>
<g><path style="opacity:1" fill="#7e3434" d="M 20.5,83.5 C 20.573,85.0269 19.9063,86.0269 18.5,86.5C 18.427,84.9731 19.0937,83.9731 20.5,83.5 Z"/></g>
<g><path style="opacity:1" fill="#cd3e43" d="M 234.5,81.5 C 235.397,82.5981 236.23,82.5981 237,81.5C 237.61,84.8273 238.11,88.1606 238.5,91.5C 238.167,91.5 237.833,91.5 237.5,91.5C 236.962,89.8828 236.629,88.2161 236.5,86.5C 236.573,84.9731 235.906,83.9731 234.5,83.5C 234.5,82.8333 234.5,82.1667 234.5,81.5 Z"/></g>
<g><path style="opacity:1" fill="#903638" d="M 24.5,73.5 C 24.2451,75.9674 23.2451,77.9674 21.5,79.5C 21.7549,77.0326 22.7549,75.0326 24.5,73.5 Z"/></g>
<g><path style="opacity:1" fill="#b23d3e" d="M 230.5,73.5 C 232.797,75.6235 234.13,78.2901 234.5,81.5C 232.541,79.2153 231.208,76.5487 230.5,73.5 Z"/></g>
<g><path style="opacity:1" fill="#863635" d="M 26.5,70.5 C 26.573,72.0269 25.9063,73.0269 24.5,73.5C 24.427,71.9731 25.0937,70.9731 26.5,70.5 Z"/></g>
<g><path style="opacity:1" fill="#662d32" d="M 226.5,67.5 C 227.906,67.9731 228.573,68.9731 228.5,70.5C 227.094,70.0269 226.427,69.0269 226.5,67.5 Z"/></g>
<g><path style="opacity:1" fill="#652e31" d="M 28.5,67.5 C 28.573,69.0269 27.9063,70.0269 26.5,70.5C 26.427,68.9731 27.0937,67.9731 28.5,67.5 Z"/></g>
<g><path style="opacity:1" fill="#5a232c" d="M 30.5,64.5 C 30.573,66.0269 29.9063,67.0269 28.5,67.5C 28.427,65.9731 29.0937,64.9731 30.5,64.5 Z"/></g>
<g><path style="opacity:1" fill="#492329" d="M 219.5,57.5 C 220.794,58.2899 221.961,59.2899 223,60.5C 223.989,62.9698 225.155,65.3032 226.5,67.5C 225.206,66.7101 224.039,65.7101 223,64.5C 222.011,62.0302 220.845,59.6968 219.5,57.5 Z"/></g>
<g><path style="opacity:1" fill="#592629" d="M 35.5,57.5 C 34.2141,60.117 32.5475,62.4504 30.5,64.5C 31.0102,61.3257 32.6769,58.9923 35.5,57.5 Z"/></g>
<g><path style="opacity:1" fill="#3d2631" d="M 45.5,45.5 C 43.0028,48.3549 41.3361,51.6882 40.5,55.5C 39.914,55.2907 39.414,54.9574 39,54.5C 37.9609,55.7101 36.7942,56.7101 35.5,57.5C 35.7376,55.5956 36.7376,54.2623 38.5,53.5C 39.9063,53.0269 40.573,52.0269 40.5,50.5C 41.8333,48.5 43.5,46.8333 45.5,45.5 Z"/></g>
<g><path style="opacity:1" fill="#742831" d="M 40.5,50.5 C 40.573,52.0269 39.9063,53.0269 38.5,53.5C 38.427,51.9731 39.0937,50.9731 40.5,50.5 Z"/></g>
<g><path style="opacity:1" fill="#52262a" d="M 56.5,36.5 C 53.1294,39.8715 49.4627,42.8715 45.5,45.5C 48.2901,41.3717 51.9568,38.3717 56.5,36.5 Z"/></g>
<g><path style="opacity:1" fill="#ad3b3c" d="M 201.5,37.5 C 205.833,39.8333 209.167,43.1667 211.5,47.5C 207.833,44.5 204.5,41.1667 201.5,37.5 Z"/></g>
<g><path style="opacity:1" fill="#a43c3b" d="M 194.5,32.5 C 196.027,32.427 197.027,33.0937 197.5,34.5C 195.973,34.573 194.973,33.9063 194.5,32.5 Z"/></g>
<g><path style="opacity:1" fill="#9c363b" d="M 191.5,30.5 C 193.027,30.427 194.027,31.0937 194.5,32.5C 192.973,32.573 191.973,31.9063 191.5,30.5 Z"/></g>
<g><path style="opacity:1" fill="#9f343e" d="M 188.5,28.5 C 190.027,28.427 191.027,29.0937 191.5,30.5C 189.973,30.573 188.973,29.9063 188.5,28.5 Z"/></g>
<g><path style="opacity:1" fill="#3c262f" d="M 73.5,24.5 C 74.1667,24.5 74.8333,24.5 75.5,24.5C 74.0582,25.8195 73.3915,27.4862 73.5,29.5C 67.5855,30.1135 62.2522,32.1135 57.5,35.5C 62.2572,31.0898 67.5905,27.4231 73.5,24.5 Z"/></g>
<g><path style="opacity:1" fill="#903c3d" d="M 183.5,25.5 C 185.027,25.427 186.027,26.0937 186.5,27.5C 184.973,27.573 183.973,26.9063 183.5,25.5 Z"/></g>
<g><path style="opacity:1" fill="#803432" d="M 179.5,23.5 C 181.027,23.427 182.027,24.0937 182.5,25.5C 180.973,25.573 179.973,24.9063 179.5,23.5 Z"/></g>
<g><path style="opacity:1" fill="#933839" d="M 81.5,20.5 C 79.751,22.256 77.751,23.5894 75.5,24.5C 74.8333,24.5 74.1667,24.5 73.5,24.5C 75.8368,22.6036 78.5035,21.2703 81.5,20.5 Z"/></g>
<g><path style="opacity:1" fill="#853034" d="M 175.5,21.5 C 177.027,21.427 178.027,22.0937 178.5,23.5C 176.973,23.573 175.973,22.9063 175.5,21.5 Z"/></g>
<g><path style="opacity:1" fill="#212837" d="M 135.5,12.5 C 138.833,12.5 142.167,12.5 145.5,12.5C 147.717,13.3686 150.05,13.702 152.5,13.5C 156.502,15.6098 160.835,16.9431 165.5,17.5C 168.678,19.0086 172.011,20.342 175.5,21.5C 175.973,22.9063 176.973,23.573 178.5,23.5C 178.833,23.5 179.167,23.5 179.5,23.5C 179.973,24.9063 180.973,25.573 182.5,25.5C 182.833,25.5 183.167,25.5 183.5,25.5C 183.973,26.9063 184.973,27.573 186.5,27.5C 186.842,28.3382 187.508,28.6716 188.5,28.5C 188.973,29.9063 189.973,30.573 191.5,30.5C 191.973,31.9063 192.973,32.573 194.5,32.5C 194.973,33.9063 195.973,34.573 197.5,34.5C 198.262,36.2624 199.596,37.2624 201.5,37.5C 204.5,41.1667 207.833,44.5 211.5,47.5C 214.547,50.5448 217.213,53.8781 219.5,57.5C 220.845,59.6968 222.011,62.0302 223,64.5C 224.039,65.7101 225.206,66.7101 226.5,67.5C 226.427,69.0269 227.094,70.0269 228.5,70.5C 228.932,71.7095 229.599,72.7095 230.5,73.5C 231.208,76.5487 232.541,79.2153 234.5,81.5C 234.5,82.1667 234.5,82.8333 234.5,83.5C 234.427,85.0269 235.094,86.0269 236.5,86.5C 236.629,88.2161 236.962,89.8828 237.5,91.5C 237.723,95.1621 238.723,98.4954 240.5,101.5C 242.103,113.097 242.77,124.764 242.5,136.5C 242.5,139.5 242.5,142.5 242.5,145.5C 240.837,147.438 240.171,149.772 240.5,152.5C 240.675,154.621 240.341,156.621 239.5,158.5C 237.875,162.303 236.542,166.303 235.5,170.5C 234.463,171.93 233.796,173.597 233.5,175.5C 232.094,175.973 231.427,176.973 231.5,178.5C 229.833,181.833 228.167,185.167 226.5,188.5C 225.206,189.29 224.039,190.29 223,191.5C 222.011,193.97 220.845,196.303 219.5,198.5C 215.195,203.141 210.861,207.807 206.5,212.5C 203.271,214.942 200.271,217.608 197.5,220.5C 195.034,221.298 193.034,222.631 191.5,224.5C 189.973,224.427 188.973,225.094 188.5,226.5C 185.455,227.279 182.789,228.613 180.5,230.5C 180.158,231.338 179.492,231.672 178.5,231.5C 176.566,232.11 174.899,233.11 173.5,234.5C 166.544,236.656 159.544,238.656 152.5,240.5C 149.505,240.294 146.838,240.96 144.5,242.5C 134.146,243.625 123.813,243.625 113.5,242.5C 109.79,240.864 105.79,240.198 101.5,240.5C 99.4855,239.076 97.1522,238.41 94.5,238.5C 91.9333,237.525 89.2666,236.858 86.5,236.5C 86.0269,235.094 85.0269,234.427 83.5,234.5C 82.8333,234.5 82.1667,234.5 81.5,234.5C 77.9392,231.889 73.9392,230.056 69.5,229C 68.6195,228.292 67.9528,227.458 67.5,226.5C 67.0269,225.094 66.0269,224.427 64.5,224.5C 63.8333,224.167 63.1667,223.833 62.5,223.5C 61.4154,221.413 59.7488,220.08 57.5,219.5C 54.5505,217.885 51.8838,215.885 49.5,213.5C 45.8333,209.167 41.8333,205.167 37.5,201.5C 37.2624,199.596 36.2624,198.262 34.5,197.5C 34.573,195.973 33.9063,194.973 32.5,194.5C 32.573,192.973 31.9063,191.973 30.5,191.5C 30.573,189.973 29.9063,188.973 28.5,188.5C 28.6716,187.508 28.3382,186.842 27.5,186.5C 27.4431,185.391 27.1098,184.391 26.5,183.5C 27.4972,183.53 28.1639,183.03 28.5,182C 26.6429,176.715 23.9763,171.882 20.5,167.5C 21.9079,166.757 23.2412,165.923 24.5,165C 23.3284,164.647 22.1618,164.813 21,165.5C 19.9231,164.571 18.7564,163.904 17.5,163.5C 17.3803,160.422 16.3803,157.755 14.5,155.5C 14.5,154.833 14.5,154.167 14.5,153.5C 14.6633,151.143 14.4966,148.81 14,146.5C 13.6174,145.944 13.1174,145.611 12.5,145.5C 12.8128,141.958 12.4794,138.625 11.5,135.5C 11.2743,128.124 11.6076,120.791 12.5,113.5C 14.1357,109.79 14.8023,105.79 14.5,101.5C 15.9238,99.4855 16.5905,97.1522 16.5,94.5C 16.5,94.1667 16.5,93.8333 16.5,93.5C 18.0739,91.8984 18.7406,89.8984 18.5,87.5C 18.5,87.1667 18.5,86.8333 18.5,86.5C 19.9063,86.0269 20.573,85.0269 20.5,83.5C 20.8333,82.1667 21.1667,80.8333 21.5,79.5C 23.2451,77.9674 24.2451,75.9674 24.5,73.5C 25.9063,73.0269 26.573,72.0269 26.5,70.5C 27.9063,70.0269 28.573,69.0269 28.5,67.5C 29.9063,67.0269 30.573,66.0269 30.5,64.5C 32.5475,62.4504 34.2141,60.117 35.5,57.5C 36.7942,56.7101 37.9609,55.7101 39,54.5C 39.414,54.9574 39.914,55.2907 40.5,55.5C 41.3361,51.6882 43.0028,48.3549 45.5,45.5C 49.4627,42.8715 53.1294,39.8715 56.5,36.5C 56.5,35.8333 56.8333,35.5 57.5,35.5C 62.2522,32.1135 67.5855,30.1135 73.5,29.5C 73.3915,27.4862 74.0582,25.8195 75.5,24.5C 77.751,23.5894 79.751,22.256 81.5,20.5C 82.1667,20.5 82.8333,20.5 83.5,20.5C 89.6971,18.7916 95.6971,16.7916 101.5,14.5C 112.754,12.8669 124.087,12.2003 135.5,12.5 Z"/></g>
<g><path style="opacity:1" fill="#35202c" d="M 163.5,202.5 C 162.571,203.315 161.571,204.148 160.5,205C 154.319,205.819 148.319,205.653 142.5,204.5C 148.358,204.822 154.025,204.489 159.5,203.5C 160.708,202.766 162.041,202.433 163.5,202.5 Z"/></g>
<g><path style="opacity:1" fill="#a73d3d" d="M 141.5,201.5 C 147.208,203.386 153.208,204.053 159.5,203.5C 154.025,204.489 148.358,204.822 142.5,204.5C 141.596,203.791 141.263,202.791 141.5,201.5 Z"/></g>
<g><path style="opacity:1" fill="#7b3037" d="M 166.5,197.5 C 166.771,199.38 166.104,200.713 164.5,201.5C 164.66,199.847 165.326,198.514 166.5,197.5 Z"/></g>
<g><path style="opacity:1" fill="#cd4144" d="M 75.5,189.5 C 76.4767,192.287 76.81,195.287 76.5,198.5C 78.1667,198.5 79.8333,198.5 81.5,198.5C 81.5,198.833 81.5,199.167 81.5,199.5C 79.5,199.5 77.5,199.5 75.5,199.5C 75.5,196.167 75.5,192.833 75.5,189.5 Z"/></g>
<g><path style="opacity:1" fill="#973743" d="M 54.5,193.5 C 53.9329,195.969 53.9329,198.302 54.5,200.5C 52.744,199.448 52.0773,197.781 52.5,195.5C 53.1667,194.833 53.8333,194.167 54.5,193.5 Z"/></g>
<g><path style="opacity:1" fill="#7d3235" d="M 143.5,192.5 C 146.625,193.479 149.958,193.813 153.5,193.5C 153.5,193.833 153.5,194.167 153.5,194.5C 149.167,194.5 144.833,194.5 140.5,194.5C 140.993,196.806 141.326,199.139 141.5,201.5C 139.882,198.829 139.215,195.829 139.5,192.5C 140.833,192.5 142.167,192.5 143.5,192.5 Z"/></g>
<g><path style="opacity:1" fill="#a63e44" d="M 121.5,196.5 C 123.117,197.038 124.784,197.371 126.5,197.5C 124.545,198.93 122.879,198.597 121.5,196.5 Z"/></g>
<g><path style="opacity:1" fill="#44272d" d="M 101.5,183.5 C 102.487,188.305 102.821,193.305 102.5,198.5C 99.2869,198.81 96.2869,198.477 93.5,197.5C 96.0593,197.802 98.3926,197.468 100.5,196.5C 101.485,192.366 101.818,188.032 101.5,183.5 Z"/></g>
<g><path style="opacity:1" fill="#9a3a3c" d="M 92.5,187.5 C 93.2537,190.023 93.9204,192.689 94.5,195.5C 96.396,196.466 98.396,196.799 100.5,196.5C 98.3926,197.468 96.0593,197.802 93.5,197.5C 92.5206,194.375 92.1872,191.042 92.5,187.5 Z"/></g>
<g><path style="opacity:1" fill="#59272e" d="M 131.5,189.5 C 130.564,192.671 128.897,195.338 126.5,197.5C 127.436,194.329 129.103,191.662 131.5,189.5 Z"/></g>
<g><path style="opacity:1" fill="#ae3a42" d="M 192.5,190.5 C 194.179,191.916 195.846,193.25 197.5,194.5C 196.614,195.776 195.614,195.776 194.5,194.5C 193.37,193.378 192.703,192.044 192.5,190.5 Z"/></g>
<g><path style="opacity:1" fill="#632d2a" d="M 201.5,192.5 C 201.027,193.906 200.027,194.573 198.5,194.5C 198.973,193.094 199.973,192.427 201.5,192.5 Z"/></g>
<g><path style="opacity:1" fill="#3c2029" d="M 155.5,186.5 C 155.5,187.833 155.5,189.167 155.5,190.5C 155.573,192.027 154.906,193.027 153.5,193.5C 149.958,193.813 146.625,193.479 143.5,192.5C 146.85,192.665 150.183,192.498 153.5,192C 154.109,190.052 154.776,188.218 155.5,186.5 Z"/></g>
<g><path style="opacity:1" fill="#873b3b" d="M 117.5,190.5 C 117.433,191.959 117.766,193.292 118.5,194.5C 117.414,194.38 116.747,193.713 116.5,192.5C 116.543,191.584 116.876,190.917 117.5,190.5 Z"/></g>
<g><path style="opacity:1" fill="#7a3035" d="M 82.5,173.5 C 82.8333,173.5 83.1667,173.5 83.5,173.5C 84.4112,182.126 84.7445,190.792 84.5,199.5C 83.5,199.5 82.5,199.5 81.5,199.5C 81.5,199.167 81.5,198.833 81.5,198.5C 82.8086,196.429 83.4752,193.929 83.5,191C 83.0005,185.173 82.6671,179.339 82.5,173.5 Z"/></g>
<g><path style="opacity:1" fill="#6d2934" d="M 74.5,183.5 C 74.8333,183.5 75.1667,183.5 75.5,183.5C 75.5,185.5 75.5,187.5 75.5,189.5C 75.5,192.833 75.5,196.167 75.5,199.5C 77.5,199.5 79.5,199.5 81.5,199.5C 79.3926,200.468 77.0593,200.802 74.5,200.5C 74.5,194.833 74.5,189.167 74.5,183.5 Z"/></g>
<g><path style="opacity:1" fill="#e33935" d="M 66.5,168.5 C 66.6641,171.187 66.4974,173.854 66,176.5C 65.0853,175.672 64.4186,174.672 64,173.5C 62.7148,182.844 61.7148,191.177 61,198.5C 59.4452,196.854 57.7785,196.521 56,197.5C 55.51,196.207 55.3433,194.873 55.5,193.5C 55.9926,191.194 56.3259,188.861 56.5,186.5C 57.1667,182.167 57.8333,177.833 58.5,173.5C 59.4511,172.081 59.7845,170.415 59.5,168.5C 61.8333,168.5 64.1667,168.5 66.5,168.5 Z"/></g>
<g><path style="opacity:1" fill="#a0393e" d="M 56.5,186.5 C 56.3259,188.861 55.9926,191.194 55.5,193.5C 55.1667,193.5 54.8333,193.5 54.5,193.5C 54.4095,190.848 55.0762,188.515 56.5,186.5 Z"/></g>
<g><path style="opacity:1" fill="#90383b" d="M 202.5,187.5 C 205.305,189.756 204.972,191.423 201.5,192.5C 202.301,190.958 202.634,189.292 202.5,187.5 Z"/></g>
<g><path style="opacity:1" fill="#742d30" d="M 190.5,186.5 C 191.906,186.973 192.573,187.973 192.5,189.5C 191.094,189.027 190.427,188.027 190.5,186.5 Z"/></g>
<g><path style="opacity:1" fill="#632c35" d="M 109.5,183.5 C 110.393,185.297 111.726,186.63 113.5,187.5C 110.172,188.851 108.839,187.517 109.5,183.5 Z"/></g>
<g><path style="opacity:1" fill="#b43c3f" d="M 199.5,179.5 C 201.097,181.848 202.097,184.514 202.5,187.5C 200.345,185.383 199.345,182.716 199.5,179.5 Z"/></g>
<g><path style="opacity:1" fill="#df3b36" d="M 136.5,155.5 C 137.391,156.11 138.391,156.443 139.5,156.5C 141.279,157.67 142.279,159.336 142.5,161.5C 142.5,161.833 142.5,162.167 142.5,162.5C 140.555,165.38 139.222,168.714 138.5,172.5C 138.5,172.833 138.5,173.167 138.5,173.5C 136.267,176.849 134.6,180.515 133.5,184.5C 132.559,186.05 131.893,187.716 131.5,189.5C 129.103,191.662 127.436,194.329 126.5,197.5C 124.784,197.371 123.117,197.038 121.5,196.5C 119.973,196.573 118.973,195.906 118.5,194.5C 117.766,193.292 117.433,191.959 117.5,190.5C 117.833,189.833 118.167,189.167 118.5,188.5C 120.653,186.206 122.32,183.54 123.5,180.5C 124.463,177.256 125.796,174.256 127.5,171.5C 130.048,168.752 131.882,165.419 133,161.5C 134.008,161.018 135.175,160.852 136.5,161C 135.193,159.057 135.193,157.223 136.5,155.5 Z"/></g>
<g><path style="opacity:1" fill="#d73d39" d="M 66.5,168.5 C 66.8333,168.5 67.1667,168.5 67.5,168.5C 67.3309,174.523 66.8309,180.523 66,186.5C 64.2455,190.99 62.9121,195.657 62,200.5C 59.5408,201.649 57.0408,201.649 54.5,200.5C 53.9329,198.302 53.9329,195.969 54.5,193.5C 54.8333,193.5 55.1667,193.5 55.5,193.5C 55.3433,194.873 55.51,196.207 56,197.5C 57.7785,196.521 59.4452,196.854 61,198.5C 61.7148,191.177 62.7148,182.844 64,173.5C 64.4186,174.672 65.0853,175.672 66,176.5C 66.4974,173.854 66.6641,171.187 66.5,168.5 Z"/></g>
<g><path style="opacity:1" fill="#672a31" d="M 188.5,182.5 C 189.906,182.973 190.573,183.973 190.5,185.5C 189.094,185.027 188.427,184.027 188.5,182.5 Z"/></g>
<g><path style="opacity:1" fill="#bf3f42" d="M 115.5,173.5 C 116.738,175.214 117.405,177.214 117.5,179.5C 118.219,181.764 118.552,184.097 118.5,186.5C 117.167,186.5 115.833,186.5 114.5,186.5C 115.209,185.596 116.209,185.263 117.5,185.5C 116.705,181.524 116.038,177.524 115.5,173.5 Z"/></g>
<g><path style="opacity:1" fill="#56252f" d="M 117.5,179.5 C 118.482,180.141 119.482,180.807 120.5,181.5C 121.417,180.873 122.417,180.539 123.5,180.5C 122.32,183.54 120.653,186.206 118.5,188.5C 117.081,187.549 115.415,187.216 113.5,187.5C 113.5,186.833 113.833,186.5 114.5,186.5C 115.833,186.5 117.167,186.5 118.5,186.5C 118.552,184.097 118.219,181.764 117.5,179.5 Z"/></g>
<g><path style="opacity:1" fill="#772d36" d="M 185.5,175.5 C 187.245,177.033 188.245,179.033 188.5,181.5C 186.755,179.967 185.755,177.967 185.5,175.5 Z"/></g>
<g><path style="opacity:1" fill="#de3b38" d="M 113.5,169.5 C 114.167,170.833 114.833,172.167 115.5,173.5C 116.038,177.524 116.705,181.524 117.5,185.5C 116.209,185.263 115.209,185.596 114.5,186.5C 113.833,186.5 113.5,186.833 113.5,187.5C 111.726,186.63 110.393,185.297 109.5,183.5C 109.31,180.145 108.31,177.145 106.5,174.5C 105.962,172.883 105.629,171.216 105.5,169.5C 107.09,167.179 109.423,166.179 112.5,166.5C 112.263,167.791 112.596,168.791 113.5,169.5 Z"/></g>
<g><path style="opacity:1" fill="#58262d" d="M 89.5,173.5 C 90.9238,175.515 91.5905,177.848 91.5,180.5C 90.0762,178.485 89.4095,176.152 89.5,173.5 Z"/></g>
<g><path style="opacity:1" fill="#4c2427" d="M 106.5,174.5 C 108.31,177.145 109.31,180.145 109.5,183.5C 107.528,180.916 106.528,177.916 106.5,174.5 Z"/></g>
<g><path style="opacity:1" fill="#db3c38" d="M 96.5,167.5 C 97.6098,171.406 98.4431,175.406 99,179.5C 99.3826,180.056 99.8826,180.389 100.5,180.5C 100.263,181.791 100.596,182.791 101.5,183.5C 101.818,188.032 101.485,192.366 100.5,196.5C 98.396,196.799 96.396,196.466 94.5,195.5C 93.9204,192.689 93.2537,190.023 92.5,187.5C 92.3259,185.139 91.9926,182.806 91.5,180.5C 91.5905,177.848 90.9238,175.515 89.5,173.5C 89.5,173.167 89.5,172.833 89.5,172.5C 89.5,170.833 89.5,169.167 89.5,167.5C 91.8333,167.5 94.1667,167.5 96.5,167.5 Z"/></g>
<g><path style="opacity:1" fill="#702c32" d="M 138.5,173.5 C 137.791,177.635 136.125,181.302 133.5,184.5C 134.6,180.515 136.267,176.849 138.5,173.5 Z"/></g>
<g><path style="opacity:1" fill="#e03b37" d="M 82.5,173.5 C 82.6671,179.339 83.0005,185.173 83.5,191C 83.4752,193.929 82.8086,196.429 81.5,198.5C 79.8333,198.5 78.1667,198.5 76.5,198.5C 76.81,195.287 76.4767,192.287 75.5,189.5C 75.5,187.5 75.5,185.5 75.5,183.5C 75.5,178.833 75.5,174.167 75.5,169.5C 77.5,169.5 79.5,169.5 81.5,169.5C 81.2322,171.099 81.5655,172.432 82.5,173.5 Z"/></g>
<g><path style="opacity:1" fill="#9b353d" d="M 96.5,167.5 C 99.0783,171.337 100.412,175.67 100.5,180.5C 99.8826,180.389 99.3826,180.056 99,179.5C 98.4431,175.406 97.6098,171.406 96.5,167.5 Z"/></g>
<g><path style="opacity:1" fill="#9a3a3a" d="M 191.5,165.5 C 192.458,165.953 193.292,166.619 194,167.5C 195.396,170.064 196.563,172.731 197.5,175.5C 194.59,172.842 192.59,169.509 191.5,165.5 Z"/></g>
<g><path style="opacity:1" fill="#56262d" d="M 181.5,169.5 C 181.833,169.5 182.167,169.5 182.5,169.5C 183.6,170.605 184.267,171.938 184.5,173.5C 182.738,172.738 181.738,171.404 181.5,169.5 Z"/></g>
<g><path style="opacity:1" fill="#b93e40" d="M 82.5,173.5 C 81.5655,172.432 81.2322,171.099 81.5,169.5C 79.5,169.5 77.5,169.5 75.5,169.5C 75.5,174.167 75.5,178.833 75.5,183.5C 75.1667,183.5 74.8333,183.5 74.5,183.5C 74.5,182.167 74.5,180.833 74.5,179.5C 74.5,175.833 74.5,172.167 74.5,168.5C 77.1667,168.5 79.8333,168.5 82.5,168.5C 82.5,170.167 82.5,171.833 82.5,173.5 Z"/></g>
<g><path style="opacity:1" fill="#a9393f" d="M 142.5,162.5 C 142.118,166.332 140.785,169.665 138.5,172.5C 139.222,168.714 140.555,165.38 142.5,162.5 Z"/></g>
<g><path style="opacity:1" fill="#6a2e33" d="M 96.5,167.5 C 94.1667,167.5 91.8333,167.5 89.5,167.5C 89.5,169.167 89.5,170.833 89.5,172.5C 88.5386,170.735 88.2053,168.735 88.5,166.5C 91.3854,166.194 94.0521,166.527 96.5,167.5 Z"/></g>
<g><path style="opacity:1" fill="#e03a37" d="M 181.5,155.5 C 183.858,155.253 185.858,155.919 187.5,157.5C 188.338,157.842 188.672,158.508 188.5,159.5C 188.427,161.027 189.094,162.027 190.5,162.5C 191.11,163.391 191.443,164.391 191.5,165.5C 192.59,169.509 194.59,172.842 197.5,175.5C 198.674,176.514 199.34,177.847 199.5,179.5C 199.345,182.716 200.345,185.383 202.5,187.5C 202.634,189.292 202.301,190.958 201.5,192.5C 199.973,192.427 198.973,193.094 198.5,194.5C 198.167,194.5 197.833,194.5 197.5,194.5C 195.846,193.25 194.179,191.916 192.5,190.5C 192.5,190.167 192.5,189.833 192.5,189.5C 192.573,187.973 191.906,186.973 190.5,186.5C 190.5,186.167 190.5,185.833 190.5,185.5C 190.573,183.973 189.906,182.973 188.5,182.5C 188.5,182.167 188.5,181.833 188.5,181.5C 188.245,179.033 187.245,177.033 185.5,175.5C 185.672,174.508 185.338,173.842 184.5,173.5C 184.267,171.938 183.6,170.605 182.5,169.5C 182.227,167.549 182.893,166.049 184.5,165C 182.422,163.923 180.422,162.757 178.5,161.5C 177.305,161.134 176.639,160.301 176.5,159C 177.77,157.225 179.436,156.058 181.5,155.5 Z"/></g>
<g><path style="opacity:1" fill="#a23840" d="M 107.5,165.5 C 109.167,165.5 110.833,165.5 112.5,165.5C 113.434,166.568 113.768,167.901 113.5,169.5C 112.596,168.791 112.263,167.791 112.5,166.5C 109.423,166.179 107.09,167.179 105.5,169.5C 104.596,168.791 104.263,167.791 104.5,166.5C 105.791,166.737 106.791,166.404 107.5,165.5 Z"/></g>
<g><path style="opacity:1" fill="#c73c3b" d="M 178.5,161.5 C 180.422,162.757 182.422,163.923 184.5,165C 182.893,166.049 182.227,167.549 182.5,169.5C 182.167,169.5 181.833,169.5 181.5,169.5C 180.5,166.833 179.5,164.167 178.5,161.5 Z"/></g>
<g><path style="opacity:1" fill="#2b2636" d="M 59.5,159.5 C 59.5,160.167 59.5,160.833 59.5,161.5C 65.6446,162.49 71.9779,162.823 78.5,162.5C 78.5,163.833 78.5,165.167 78.5,166.5C 82.648,166.834 84.3147,169.167 83.5,173.5C 83.1667,173.5 82.8333,173.5 82.5,173.5C 82.5,171.833 82.5,170.167 82.5,168.5C 79.8333,168.5 77.1667,168.5 74.5,168.5C 74.5,172.167 74.5,175.833 74.5,179.5C 73.8347,177.302 73.1681,174.969 72.5,172.5C 71.5224,172.977 70.6891,173.643 70,174.5C 69.289,172.101 69.4557,169.768 70.5,167.5C 72.0755,166.554 73.7422,166.554 75.5,167.5C 77.5689,167.176 77.9023,166.342 76.5,165C 70.1748,163.081 63.8415,163.081 57.5,165C 56.1175,166.461 56.4508,167.294 58.5,167.5C 58.5,169.5 58.5,171.5 58.5,173.5C 57.8333,177.833 57.1667,182.167 56.5,186.5C 55.0762,188.515 54.4095,190.848 54.5,193.5C 53.8333,194.167 53.1667,194.833 52.5,195.5C 52.5477,187.375 53.2143,179.208 54.5,171C 54.3494,167.846 53.6828,164.846 52.5,162C 52.8327,158.664 54.166,155.831 56.5,153.5C 57.4995,135.846 57.8329,118.179 57.5,100.5C 58.1781,119.597 58.8448,139.264 59.5,159.5 Z"/></g>
<g><path style="opacity:1" fill="#92363b" d="M 58.5,167.5 C 61.7131,167.19 64.7131,167.523 67.5,168.5C 67.1667,168.5 66.8333,168.5 66.5,168.5C 64.1667,168.5 61.8333,168.5 59.5,168.5C 59.7845,170.415 59.4511,172.081 58.5,173.5C 58.5,171.5 58.5,169.5 58.5,167.5 Z"/></g>
<g><path style="opacity:1" fill="#883039" d="M 188.5,159.5 C 189.906,159.973 190.573,160.973 190.5,162.5C 189.094,162.027 188.427,161.027 188.5,159.5 Z"/></g>
<g><path style="opacity:1" fill="#301f2b" d="M 59.5,161.5 C 77.8333,161.5 96.1667,161.5 114.5,161.5C 112.708,162.309 110.708,162.809 108.5,163C 109.858,163.934 111.192,164.768 112.5,165.5C 110.833,165.5 109.167,165.5 107.5,165.5C 106.306,162.982 105.14,162.982 104,165.5C 103.517,164.552 103.351,163.552 103.5,162.5C 95.1667,162.5 86.8333,162.5 78.5,162.5C 71.9779,162.823 65.6446,162.49 59.5,161.5 Z"/></g>
<g><path style="opacity:1" fill="#c23c3e" d="M 136.5,154.5 C 136.5,154.833 136.5,155.167 136.5,155.5C 135.193,157.223 135.193,159.057 136.5,161C 135.175,160.852 134.008,161.018 133,161.5C 131.882,165.419 130.048,168.752 127.5,171.5C 129.786,165.93 131.786,160.263 133.5,154.5C 134.5,154.5 135.5,154.5 136.5,154.5 Z"/></g>
<g><path style="opacity:1" fill="#a33741" d="M 139.5,156.5 C 141.117,157.038 142.784,157.371 144.5,157.5C 144.843,159.483 144.176,160.817 142.5,161.5C 142.279,159.336 141.279,157.67 139.5,156.5 Z"/></g>
<g><path style="opacity:1" fill="#a33940" d="M 187.5,157.5 C 185.858,155.919 183.858,155.253 181.5,155.5C 184.4,152.687 186.4,153.353 187.5,157.5 Z"/></g>
<g><path style="opacity:1" fill="#823031" d="M 136.5,155.5 C 136.5,155.167 136.5,154.833 136.5,154.5C 138.027,154.427 139.027,155.094 139.5,156.5C 138.391,156.443 137.391,156.11 136.5,155.5 Z"/></g>
<g><path style="opacity:1" fill="#612830" d="M 129.5,142.5 C 129.833,142.5 130.167,142.5 130.5,142.5C 139.167,142.5 147.833,142.5 156.5,142.5C 156.83,158.675 156.496,174.675 155.5,190.5C 155.5,189.167 155.5,187.833 155.5,186.5C 155.5,172.167 155.5,157.833 155.5,143.5C 146.651,143.826 137.984,143.493 129.5,142.5 Z"/></g>
<g><path style="opacity:1" fill="#823032" d="M 193.5,142.5 C 193.833,142.5 194.167,142.5 194.5,142.5C 186.016,143.493 177.349,143.826 168.5,143.5C 168.667,161.17 168.5,178.836 168,196.5C 167.617,197.056 167.117,197.389 166.5,197.5C 167.474,179.213 167.807,160.88 167.5,142.5C 176.167,142.5 184.833,142.5 193.5,142.5 Z"/></g>
<g><path style="opacity:1" fill="#c3423f" d="M 156.5,142.5 C 157.662,158.995 157.828,175.662 157,192.5C 156.29,193.973 155.124,194.64 153.5,194.5C 153.5,194.167 153.5,193.833 153.5,193.5C 154.906,193.027 155.573,192.027 155.5,190.5C 156.496,174.675 156.83,158.675 156.5,142.5 Z"/></g>
<g><path style="opacity:1" fill="#e13a36" d="M 82.5,59.5 C 82.5,59.8333 82.5,60.1667 82.5,60.5C 81.5655,61.5676 81.2322,62.901 81.5,64.5C 89.9839,65.493 98.6506,65.8264 107.5,65.5C 107.677,69.2343 107.344,72.9009 106.5,76.5C 105.498,78.0109 104.831,79.6776 104.5,81.5C 102.738,82.2623 101.738,83.5956 101.5,85.5C 99.1663,87.1757 98.1663,89.509 98.5,92.5C 103.833,92.5 109.167,92.5 114.5,92.5C 114.5,115.167 114.5,137.833 114.5,160.5C 96.5,160.5 78.5,160.5 60.5,160.5C 60.6666,139.164 60.5,117.831 60,96.5C 58.5391,95.1175 57.7058,95.4508 57.5,97.5C 56.5009,100.174 54.8342,100.841 52.5,99.5C 51.8505,97.5648 51.5172,95.5648 51.5,93.5C 51.4326,92.0413 51.7659,90.7079 52.5,89.5C 54.5869,88.4154 55.9202,86.7488 56.5,84.5C 57.4959,84.5858 58.3292,84.2524 59,83.5C 61.1569,81.1829 62.6569,78.5162 63.5,75.5C 64.7079,74.7659 66.0413,74.4326 67.5,74.5C 67.7038,71.4824 68.0371,68.4824 68.5,65.5C 69.8333,62.5 71.1667,59.5 72.5,56.5C 72.8333,56.5 73.1667,56.5 73.5,56.5C 76.3137,54.904 79.3137,54.404 82.5,55C 81.5868,56.4139 81.5868,57.9139 82.5,59.5 Z"/></g>
<g><path style="opacity:1" fill="#c14040" d="M 81.5,131.5 C 81.5,131.167 81.5,130.833 81.5,130.5C 82.8197,133.428 83.4864,136.761 83.5,140.5C 83.4984,144.018 83.1651,147.351 82.5,150.5C 82.8235,143.978 82.4902,137.645 81.5,131.5 Z"/></g>
<g><path style="opacity:1" fill="#48222b" d="M 104.5,131.5 C 104.5,138.167 104.5,144.833 104.5,151.5C 100.298,151.817 96.2984,151.483 92.5,150.5C 92.5,144.167 92.5,137.833 92.5,131.5C 96.5,131.5 100.5,131.5 104.5,131.5 Z"/></g>
<g><path style="opacity:1" fill="#94363c" d="M 104.5,131.5 C 100.5,131.5 96.5,131.5 92.5,131.5C 92.5,137.833 92.5,144.167 92.5,150.5C 91.5093,144.021 91.176,137.354 91.5,130.5C 96.0323,130.182 100.366,130.515 104.5,131.5 Z"/></g>
<g><path style="opacity:1" fill="#782e33" d="M 81.5,130.5 C 81.5,130.833 81.5,131.167 81.5,131.5C 82.4902,137.645 82.8235,143.978 82.5,150.5C 78.3656,151.485 74.0323,151.818 69.5,151.5C 69.5,144.5 69.5,137.5 69.5,130.5C 73.5,130.5 77.5,130.5 81.5,130.5 Z"/></g>
<g><path style="opacity:1" fill="#212836" d="M 93.5,132.5 C 96.8333,132.5 100.167,132.5 103.5,132.5C 103.5,138.167 103.5,143.833 103.5,149.5C 100.167,149.5 96.8333,149.5 93.5,149.5C 93.5,143.833 93.5,138.167 93.5,132.5 Z"/></g>
<g><path style="opacity:1" fill="#232735" d="M 81.5,131.5 C 81.5,137.833 81.5,144.167 81.5,150.5C 77.8333,150.5 74.1667,150.5 70.5,150.5C 70.5,144.167 70.5,137.833 70.5,131.5C 74.1667,131.5 77.8333,131.5 81.5,131.5 Z"/></g>
<g><path style="opacity:1" fill="#ba3d40" d="M 69.5,119.5 C 69.8333,119.5 70.1667,119.5 70.5,119.5C 70.5,119.833 70.5,120.167 70.5,120.5C 74.2984,121.483 78.2984,121.817 82.5,121.5C 78.3656,122.485 74.0323,122.818 69.5,122.5C 69.5,121.5 69.5,120.5 69.5,119.5 Z"/></g>
<g><path style="opacity:1" fill="#242636" d="M 70.5,120.5 C 70.5,120.167 70.5,119.833 70.5,119.5C 70.5,113.833 70.5,108.167 70.5,102.5C 74.1667,102.5 77.8333,102.5 81.5,102.5C 81.5,108.5 81.5,114.5 81.5,120.5C 77.8333,120.5 74.1667,120.5 70.5,120.5 Z"/></g>
<g><path style="opacity:1" fill="#49232e" d="M 57.5,97.5 C 59.4885,117.806 60.1551,138.473 59.5,159.5C 58.8448,139.264 58.1781,119.597 57.5,100.5C 55.2736,102.18 53.6069,101.847 52.5,99.5C 54.8342,100.841 56.5009,100.174 57.5,97.5 Z"/></g>
<g><path style="opacity:1" fill="#a3393b" d="M 114.5,160.5 C 114.5,160.833 114.5,161.167 114.5,161.5C 96.1667,161.5 77.8333,161.5 59.5,161.5C 59.5,160.833 59.5,160.167 59.5,159.5C 60.1551,138.473 59.4885,117.806 57.5,97.5C 57.7058,95.4508 58.5391,95.1175 60,96.5C 60.5,117.831 60.6666,139.164 60.5,160.5C 78.5,160.5 96.5,160.5 114.5,160.5 Z"/></g>
<g><path style="opacity:1" fill="#662932" d="M 92.5,120.5 C 91.5098,114.355 91.1765,108.022 91.5,101.5C 95.8333,101.5 100.167,101.5 104.5,101.5C 104.5,108.167 104.5,114.833 104.5,121.5C 100.298,121.817 96.2984,121.483 92.5,120.5 Z"/></g>
<g><path style="opacity:1" fill="#242734" d="M 92.5,120.5 C 92.5,114.5 92.5,108.5 92.5,102.5C 96.1667,102.5 99.8333,102.5 103.5,102.5C 103.5,108.5 103.5,114.5 103.5,120.5C 99.8333,120.5 96.1667,120.5 92.5,120.5 Z"/></g>
<g><path style="opacity:1" fill="#5e2630" d="M 82.5,121.5 C 78.2984,121.817 74.2984,121.483 70.5,120.5C 74.1667,120.5 77.8333,120.5 81.5,120.5C 81.5,114.5 81.5,108.5 81.5,102.5C 77.8333,102.5 74.1667,102.5 70.5,102.5C 70.5,108.167 70.5,113.833 70.5,119.5C 70.1667,119.5 69.8333,119.5 69.5,119.5C 69.5,113.5 69.5,107.5 69.5,101.5C 73.8333,101.5 78.1667,101.5 82.5,101.5C 82.5,108.167 82.5,114.833 82.5,121.5 Z"/></g>
<g><path style="opacity:1" fill="#e23a36" d="M 193.5,142.5 C 184.833,142.5 176.167,142.5 167.5,142.5C 167.807,160.88 167.474,179.213 166.5,197.5C 165.326,198.514 164.66,199.847 164.5,201.5C 163.833,201.5 163.5,201.833 163.5,202.5C 162.041,202.433 160.708,202.766 159.5,203.5C 153.208,204.053 147.208,203.386 141.5,201.5C 141.326,199.139 140.993,196.806 140.5,194.5C 144.833,194.5 149.167,194.5 153.5,194.5C 155.124,194.64 156.29,193.973 157,192.5C 157.828,175.662 157.662,158.995 156.5,142.5C 147.833,142.5 139.167,142.5 130.5,142.5C 130.5,127.167 130.5,111.833 130.5,96.5C 151.5,96.5 172.5,96.5 193.5,96.5C 193.5,111.833 193.5,127.167 193.5,142.5 Z"/></g>
<g><path style="opacity:1" fill="#af3a3e" d="M 194.5,142.5 C 194.167,142.5 193.833,142.5 193.5,142.5C 193.5,127.167 193.5,111.833 193.5,96.5C 172.5,96.5 151.5,96.5 130.5,96.5C 130.5,111.833 130.5,127.167 130.5,142.5C 130.167,142.5 129.833,142.5 129.5,142.5C 129.5,126.833 129.5,111.167 129.5,95.5C 151.5,95.5 173.5,95.5 195.5,95.5C 195.83,111.342 195.496,127.009 194.5,142.5 Z"/></g>
<g><path style="opacity:1" fill="#c44141" d="M 182.5,131.5 C 182.833,131.5 183.167,131.5 183.5,131.5C 176.699,132.831 169.533,133.497 162,133.5C 154.659,133.5 147.492,133.166 140.5,132.5C 154.677,132.829 168.677,132.496 182.5,131.5 Z"/></g>
<g><path style="opacity:1" fill="#762e34" d="M 183.5,131.5 C 183.167,131.5 182.833,131.5 182.5,131.5C 168.677,132.496 154.677,132.829 140.5,132.5C 140.5,123.5 140.5,114.5 140.5,105.5C 154.833,105.5 169.167,105.5 183.5,105.5C 183.5,114.167 183.5,122.833 183.5,131.5 Z"/></g>
<g><path style="opacity:1" fill="#212931" d="M 182.5,129.5 C 182.5,130.167 182.5,130.833 182.5,131.5C 169.167,131.5 155.833,131.5 142.5,131.5C 142.5,130.833 142.5,130.167 142.5,129.5C 154.167,129.5 165.833,129.5 177.5,129.5C 177.171,123.794 177.505,118.128 178.5,112.5C 179.106,118.282 179.44,123.949 179.5,129.5C 180.5,129.5 181.5,129.5 182.5,129.5 Z"/></g>
<g><path style="opacity:1" fill="#202838" d="M 182.5,108.5 C 182.5,115.5 182.5,122.5 182.5,129.5C 181.5,129.5 180.5,129.5 179.5,129.5C 179.44,123.949 179.106,118.282 178.5,112.5C 177.505,118.128 177.171,123.794 177.5,129.5C 165.833,129.5 154.167,129.5 142.5,129.5C 142.5,122.167 142.5,114.833 142.5,107.5C 155.913,107.186 169.246,107.519 182.5,108.5 Z"/></g>
<g><path style="opacity:1" fill="#361c2d" d="M 182.5,108.5 C 169.246,107.519 155.913,107.186 142.5,107.5C 142.5,114.833 142.5,122.167 142.5,129.5C 142.5,130.167 142.5,130.833 142.5,131.5C 141.507,123.35 141.174,115.017 141.5,106.5C 155.541,105.851 169.208,106.518 182.5,108.5 Z"/></g>
<g><path style="opacity:1" fill="#843234" d="M 101.5,85.5 C 101.123,87.258 100.456,88.9246 99.5,90.5C 104.792,91.4948 110.125,91.8282 115.5,91.5C 115.831,114.673 115.498,137.673 114.5,160.5C 114.5,137.833 114.5,115.167 114.5,92.5C 109.167,92.5 103.833,92.5 98.5,92.5C 98.1663,89.509 99.1663,87.1757 101.5,85.5 Z"/></g>
<g><path style="opacity:1" fill="#9e3537" d="M 66.5,88.5 C 66.5858,89.4959 66.2524,90.3292 65.5,91C 72.4921,91.4996 79.4921,91.6663 86.5,91.5C 79.3524,92.4916 72.0191,92.825 64.5,92.5C 64.2291,90.6203 64.8958,89.287 66.5,88.5 Z"/></g>
<g><path style="opacity:1" fill="#813435" d="M 52.5,89.5 C 51.7659,90.7079 51.4326,92.0413 51.5,93.5C 50.8761,93.0831 50.5427,92.4164 50.5,91.5C 50.7472,90.2867 51.4138,89.62 52.5,89.5 Z"/></g>
<g><path style="opacity:1" fill="#bb3a3a" d="M 91.5,84.5 C 91.6621,86.5273 91.4955,88.5273 91,90.5C 90.6667,89.8333 90.3333,89.1667 90,88.5C 88.9609,89.7101 87.7942,90.7101 86.5,91.5C 87.7859,88.883 89.4525,86.5496 91.5,84.5 Z"/></g>
<g><path style="opacity:1" fill="#94353b" d="M 56.5,84.5 C 55.9202,86.7488 54.5869,88.4154 52.5,89.5C 53.0798,87.2512 54.4131,85.5846 56.5,84.5 Z"/></g>
<g><path style="opacity:1" fill="#70292e" d="M 104.5,81.5 C 104.262,83.4044 103.262,84.7377 101.5,85.5C 101.738,83.5956 102.738,82.2623 104.5,81.5 Z"/></g>
<g><path style="opacity:1" fill="#973940" d="M 95.5,76.5 C 94.7297,79.4965 93.3964,82.1632 91.5,84.5C 91.8961,81.279 93.2295,78.6123 95.5,76.5 Z"/></g>
<g><path style="opacity:1" fill="#252734" d="M 95.5,76.5 C 93.2295,78.6123 91.8961,81.279 91.5,84.5C 89.4525,86.5496 87.7859,88.883 86.5,91.5C 79.4921,91.6663 72.4921,91.4996 65.5,91C 66.2524,90.3292 66.5858,89.4959 66.5,88.5C 68.1288,87.3747 69.6288,86.0414 71,84.5C 72.8333,81.3333 74.6667,78.1667 76.5,75C 79.6667,74.8333 82.8333,74.6667 86,74.5C 89.5758,74.5152 92.7425,75.1818 95.5,76.5 Z"/></g>
<g><path style="opacity:1" fill="#a53a41" d="M 63.5,75.5 C 62.6569,78.5162 61.1569,81.1829 59,83.5C 58.3292,84.2524 57.4959,84.5858 56.5,84.5C 58.4821,81.1897 60.8154,78.1897 63.5,75.5 Z"/></g>
<g><path style="opacity:1" fill="#a93e3e" d="M 120.5,69.5 C 132.5,69.5 144.5,69.5 156.5,69.5C 145.012,70.4949 133.345,70.8283 121.5,70.5C 121.5,73.5 121.5,76.5 121.5,79.5C 148.167,79.5 174.833,79.5 201.5,79.5C 201.81,76.2869 201.477,73.2869 200.5,70.5C 199.833,70.5 199.167,70.5 198.5,70.5C 188.319,70.8274 178.319,70.494 168.5,69.5C 180.167,69.5 191.833,69.5 203.5,69.5C 203.5,73.1667 203.5,76.8333 203.5,80.5C 175.833,80.5 148.167,80.5 120.5,80.5C 120.5,76.8333 120.5,73.1667 120.5,69.5 Z"/></g>
<g><path style="opacity:1" fill="#782f37" d="M 95.5,76.5 C 92.7425,75.1818 89.5758,74.5152 86,74.5C 82.8333,74.6667 79.6667,74.8333 76.5,75C 74.6667,78.1667 72.8333,81.3333 71,84.5C 69.6288,86.0414 68.1288,87.3747 66.5,88.5C 69.1151,83.4382 72.1151,78.6049 75.5,74C 82.4921,73.5004 89.4921,73.3337 96.5,73.5C 96.7373,74.791 96.404,75.791 95.5,76.5 Z"/></g>
<g><path style="opacity:1" fill="#c43b3e" d="M 68.5,65.5 C 68.0371,68.4824 67.7038,71.4824 67.5,74.5C 66.0413,74.4326 64.7079,74.7659 63.5,75.5C 65.1749,72.1228 66.8416,68.7895 68.5,65.5 Z"/></g>
<g><path style="opacity:1" fill="#e03b37" d="M 165.5,57.5 C 165.5,58.5 165.5,59.5 165.5,60.5C 165.41,63.1522 166.076,65.4855 167.5,67.5C 167.5,68.1667 167.833,68.5 168.5,68.5C 168.5,68.8333 168.5,69.1667 168.5,69.5C 178.319,70.494 188.319,70.8274 198.5,70.5C 198.389,71.1174 198.056,71.6174 197.5,72C 194.567,72.8934 191.567,73.3934 188.5,73.5C 166.514,72.5549 144.514,72.2215 122.5,72.5C 122.5,73.8333 122.5,75.1667 122.5,76.5C 147.532,76.8051 172.532,76.4718 197.5,75.5C 197.281,76.675 197.614,77.675 198.5,78.5C 199.26,75.8133 199.927,73.1466 200.5,70.5C 201.477,73.2869 201.81,76.2869 201.5,79.5C 174.833,79.5 148.167,79.5 121.5,79.5C 121.5,76.5 121.5,73.5 121.5,70.5C 133.345,70.8283 145.012,70.4949 156.5,69.5C 156.5,68.1667 156.5,66.8333 156.5,65.5C 156.241,62.7282 155.241,60.3949 153.5,58.5C 153.672,57.5084 153.338,56.8417 152.5,56.5C 152.433,55.0413 152.766,53.7079 153.5,52.5C 156.625,51.5206 159.958,51.1872 163.5,51.5C 163.604,53.7028 164.27,55.7028 165.5,57.5 Z"/></g>
<g><path style="opacity:1" fill="#e53933" d="M 198.5,70.5 C 199.167,70.5 199.833,70.5 200.5,70.5C 199.927,73.1466 199.26,75.8133 198.5,78.5C 197.614,77.675 197.281,76.675 197.5,75.5C 172.532,76.4718 147.532,76.8051 122.5,76.5C 122.5,75.1667 122.5,73.8333 122.5,72.5C 144.514,72.2215 166.514,72.5549 188.5,73.5C 191.567,73.3934 194.567,72.8934 197.5,72C 198.056,71.6174 198.389,71.1174 198.5,70.5 Z"/></g>
<g><path style="opacity:1" fill="#4b222e" d="M 155.5,65.5 C 155.833,65.5 156.167,65.5 156.5,65.5C 156.5,66.8333 156.5,68.1667 156.5,69.5C 144.5,69.5 132.5,69.5 120.5,69.5C 131.988,68.5051 143.655,68.1717 155.5,68.5C 155.5,67.5 155.5,66.5 155.5,65.5 Z"/></g>
<g><path style="opacity:1" fill="#a5393b" d="M 153.5,58.5 C 155.241,60.3949 156.241,62.7282 156.5,65.5C 156.167,65.5 155.833,65.5 155.5,65.5C 154.681,63.2278 154.015,60.8945 153.5,58.5 Z"/></g>
<g><path style="opacity:1" fill="#ab3c40" d="M 81.5,64.5 C 90.5,64.5 99.5,64.5 108.5,64.5C 108.665,68.1817 108.499,71.8484 108,75.5C 107.617,76.056 107.117,76.3893 106.5,76.5C 107.344,72.9009 107.677,69.2343 107.5,65.5C 98.6506,65.8264 89.9839,65.493 81.5,64.5 Z"/></g>
<g><path style="opacity:1" fill="#422130" d="M 165.5,57.5 C 166.649,57.7911 167.316,58.6244 167.5,60C 168.216,62.7923 168.549,65.6257 168.5,68.5C 167.833,68.5 167.5,68.1667 167.5,67.5C 167.59,64.8478 166.924,62.5145 165.5,60.5C 165.5,59.5 165.5,58.5 165.5,57.5 Z"/></g>
<g><path style="opacity:1" fill="#ab3e40" d="M 165.5,60.5 C 166.924,62.5145 167.59,64.8478 167.5,67.5C 166.076,65.4855 165.41,63.1522 165.5,60.5 Z"/></g>
<g><path style="opacity:1" fill="#4a242c" d="M 82.5,60.5 C 82.5,61.5 82.5,62.5 82.5,63.5C 91.3494,63.1736 100.016,63.507 108.5,64.5C 99.5,64.5 90.5,64.5 81.5,64.5C 81.2322,62.901 81.5655,61.5676 82.5,60.5 Z"/></g>
<g><path style="opacity:1" fill="#d23e3b" d="M 79.5,52.5 C 80.9187,53.4511 82.5853,53.7845 84.5,53.5C 84.405,55.7857 83.7384,57.7857 82.5,59.5C 81.5868,57.9139 81.5868,56.4139 82.5,55C 79.3137,54.404 76.3137,54.904 73.5,56.5C 73.7593,52.9319 75.7593,51.5985 79.5,52.5 Z"/></g>
<g><path style="opacity:1" fill="#9b3340" d="M 153.5,52.5 C 152.766,53.7079 152.433,55.0413 152.5,56.5C 151.876,56.0831 151.543,55.4164 151.5,54.5C 151.747,53.2867 152.414,52.62 153.5,52.5 Z"/></g>
<g><path style="opacity:1" fill="#903340" d="M 79.5,52.5 C 75.7593,51.5985 73.7593,52.9319 73.5,56.5C 73.1667,56.5 72.8333,56.5 72.5,56.5C 72.2865,54.8561 72.6198,53.3561 73.5,52C 75.7116,51.2109 77.7116,51.3775 79.5,52.5 Z"/></g>
<g><path style="opacity:1" fill="#62292f" d="M 101.5,14.5 C 95.6971,16.7916 89.6971,18.7916 83.5,20.5C 85.1209,18.8828 87.1209,17.7162 89.5,17C 93.494,16.0555 97.494,15.2221 101.5,14.5 Z"/></g>
<g><path style="opacity:1" fill="#ad3d3e" d="M 152.5,13.5 C 157.165,14.0569 161.498,15.3902 165.5,17.5C 160.835,16.9431 156.502,15.6098 152.5,13.5 Z"/></g>
<g><path style="opacity:1" fill="#5a292d" d="M 116.5,11.5 C 123.022,11.1765 129.355,11.5098 135.5,12.5C 124.087,12.2003 112.754,12.8669 101.5,14.5C 106.23,12.7632 111.23,11.7632 116.5,11.5 Z"/></g>
<g><path style="opacity:1" fill="#b23e40" d="M 116.5,11.5 C 126.211,10.1353 135.877,10.4686 145.5,12.5C 142.167,12.5 138.833,12.5 135.5,12.5C 129.355,11.5098 123.022,11.1765 116.5,11.5 Z"/></g>
<g><path style="opacity:1" fill="#b43f41" d="M 111.5,242.5 C 112.167,242.5 112.833,242.5 113.5,242.5C 123.813,243.625 134.146,243.625 144.5,242.5C 144.833,242.5 145.167,242.5 145.5,242.5C 139.219,243.879 132.719,244.545 126,244.5C 120.898,244.707 116.065,244.04 111.5,242.5 Z"/></g>
<g><path style="opacity:1" fill="#96373a" d="M 77.5,245.5 C 78.1667,245.5 78.8333,245.5 79.5,245.5C 84.986,247.325 90.3194,249.325 95.5,251.5C 89.0852,250.473 83.0852,248.473 77.5,245.5 Z"/></g>
<g><path style="opacity:0.439" fill="#7f3139" d="M 174.5,246.5 C 173.22,247.931 171.553,248.598 169.5,248.5C 170.78,247.069 172.447,246.402 174.5,246.5 Z"/></g>
<g><path style="opacity:0.376" fill="#763135" d="M 163.5,250.5 C 161.401,251.612 159.067,252.279 156.5,252.5C 158.438,250.837 160.772,250.171 163.5,250.5 Z"/></g>
<g><path style="opacity:1" fill="#9d3a3a" d="M 99.5,252.5 C 102.187,252.336 104.854,252.503 107.5,253C 108.416,253.278 109.082,253.778 109.5,254.5C 105.96,254.247 102.627,253.581 99.5,252.5 Z"/></g>
<g><path style="opacity:0.969" fill="#983538" d="M 155.5,252.5 C 151.539,253.684 147.539,254.684 143.5,255.5C 140.833,255.5 138.167,255.5 135.5,255.5C 141.886,253.532 148.552,252.532 155.5,252.5 Z"/></g>
</svg>
