<?xml version="1.0" encoding="UTF-8"?>
<svg version="1.1" xmlns="http://www.w3.org/2000/svg" width="128" height="128">
<path d="M0 0 C16.65325204 -0.32724731 31.92229756 2.98846046 44.828125 14.1171875 C45.73111328 14.82488281 45.73111328 14.82488281 46.65234375 15.546875 C57.32613739 24.11369419 64.94791694 38.02154802 67.44140625 51.41015625 C69.53292022 71.4591134 67.06963246 89.06920295 54.2890625 105.2890625 C43.67337571 117.48867716 30.23630445 126.45559971 13.828125 128.1171875 C-6.04837667 129.20321644 -24.34337136 126.06918314 -39.796875 112.6171875 C-53.20307497 99.43479721 -60.05228224 83.05781884 -60.359375 64.3046875 C-60.16101986 45.65930451 -53.62560327 30.88705715 -40.859375 17.3671875 C-29.57452356 6.58302913 -15.53983319 0.57413177 0 0 Z " fill="#0A183A" transform="translate(60.171875,-0.1171875)"/>
<path d="M0 0 C0.96035156 0.38414063 1.92070313 0.76828125 2.91015625 1.1640625 C8.76574163 3.76065692 14.52615279 7.49191794 18 13 C17.67805676 17.44684104 16.04513408 19.79026408 13 23 C11.04148656 24.39355764 9.04872887 25.74282547 7 27 C8.52206009 29.62901288 9.84365964 31.84365964 12 34 C11.5494731 38.17374916 9.34073687 40.33071326 6.41015625 43.12890625 C-3.53469543 50.84946371 -16.50465659 55.24340122 -29 56 C-29.85722656 56.05285156 -30.71445313 56.10570312 -31.59765625 56.16015625 C-48.65060804 56.68804036 -64.08002853 52.38143828 -77 41 C-78.9375 39 -78.9375 39 -80 37 C-79.75533476 33.88051823 -79.32851733 32.36678419 -77.22265625 30.015625 C-76.15337891 29.14164063 -76.15337891 29.14164063 -75.0625 28.25 C-74.35222656 27.65703125 -73.64195313 27.0640625 -72.91015625 26.453125 C-71 25 -71 25 -69 24 C-70.37154504 21.04590299 -71.98863724 18.55991624 -74 16 C-70.39434742 8.24953183 -64.49618307 4.42748074 -57.0625 0.6875 C-56.39460449 0.35008789 -55.72670898 0.01267578 -55.03857422 -0.33496094 C-38.19569361 -8.45468257 -16.9313706 -7.2192652 0 0 Z " fill="#20EEBD" transform="translate(95,39)"/>
<path d="M0 0 C1.56028931 -0.00870117 1.56028931 -0.00870117 3.15209961 -0.01757812 C12.79884074 0.13524154 21.41010962 2.17299921 29.9375 6.6875 C30.95199219 7.21730469 31.96648437 7.74710938 33.01171875 8.29296875 C33.75035156 8.69128906 34.48898438 9.08960937 35.25 9.5 C35.25 10.16 35.25 10.82 35.25 11.5 C32.89828157 12.32022612 30.5440149 13.1312654 28.1875 13.9375 C27.53072266 14.16759766 26.87394531 14.39769531 26.19726562 14.63476562 C10.02191192 20.13279225 -7.3784426 18.14433159 -22.6875 10.9375 C-26.60187668 8.94436997 -26.60187668 8.94436997 -27.75 5.5 C-18.48809688 1.28319858 -10.14733997 0.00602261 0 0 Z " fill="#0A1D3D" transform="translate(60.75,55.5)"/>
</svg>
