<svg width="249" height="249" viewBox="0 0 249 249" fill="none" xmlns="http://www.w3.org/2000/svg">
<path id="Vector" d="M38.8005 1.5C33.7765 1.5 29.3084 1.5 25.3675 1.5C12.1832 1.5 1.5 12.1832 1.5 25.3675C1.5 29.3084 1.5 33.7765 1.5 38.8005M210.383 1.5C215.407 1.5 219.875 1.5 223.816 1.5C237 1.5 247.683 12.188 247.683 25.3723V38.8005M247.683 210.383V223.811C247.683 236.995 237 247.683 223.816 247.683C219.875 247.683 215.407 247.683 210.383 247.683M38.8005 247.683C33.7765 247.683 29.3084 247.683 25.3675 247.683C12.1832 247.683 1.5 237 1.5 223.816C1.5 219.875 1.5 215.407 1.5 210.383" stroke="#13C89D" stroke-width="1.98936" stroke-linecap="square"/>
</svg>
