<svg width="201" height="206" viewBox="0 0 201 206" fill="none" xmlns="http://www.w3.org/2000/svg">
<g opacity="0.6">
<g filter="url(#filter0_di_17_6273)">
<circle cx="101.283" cy="102.43" r="72.6722" fill="#02122B" fill-opacity="0.03" shape-rendering="crispEdges"/>
<circle cx="101.283" cy="102.43" r="72.3861" stroke="url(#paint0_linear_17_6273)" stroke-width="0.572222" shape-rendering="crispEdges"/>
</g>
<g filter="url(#filter1_i_17_6273)">
<circle cx="101.5" cy="102.5" r="58.3556" stroke="url(#paint1_linear_17_6273)" stroke-width="2.28889"/>
</g>
<g clip-path="url(#clip0_17_6273)">
<path d="M100.463 67H100.463C80.8774 67 65 82.8774 65 102.463V102.463C65 122.049 80.8774 137.927 100.463 137.927H100.463C120.049 137.927 135.927 122.049 135.927 102.463V102.463C135.927 82.8774 120.049 67 100.463 67Z" fill="#DC9B1A"/>
<path d="M95.2147 114.565C93.8307 114.565 92.412 114.508 90.9587 114.393C89.5054 114.278 88.1906 114.094 87.0142 113.841L92.5503 90.7177C93.8653 90.4646 95.2378 90.292 96.668 90.2C98.1213 90.1079 99.4476 90.0619 100.647 90.0619C102.031 90.0619 103.219 90.2115 104.211 90.5105C105.226 90.7867 106.045 91.1663 106.668 91.6495C107.314 92.1326 107.787 92.7079 108.086 93.375C108.409 94.0193 108.571 94.7096 108.571 95.4458C108.571 95.952 108.513 96.4811 108.398 97.0334C108.306 97.5856 108.098 98.1378 107.775 98.6899C107.475 99.2191 107.048 99.7252 106.495 100.208C105.964 100.692 105.261 101.129 104.384 101.52C105.422 101.98 106.183 102.613 106.668 103.418C107.152 104.2 107.394 105.075 107.394 106.041C107.394 107.145 107.175 108.215 106.737 109.25C106.299 110.263 105.595 111.172 104.626 111.977C103.657 112.759 102.4 113.392 100.855 113.875C99.3092 114.335 97.4293 114.565 95.2147 114.565ZM94.7303 103.798L93.2425 110.01C93.6115 110.079 94.0729 110.136 94.6265 110.182C95.2032 110.205 95.7337 110.217 96.2181 110.217C96.9102 110.217 97.5907 110.171 98.2596 110.079C98.9517 109.964 99.5629 109.768 100.093 109.492C100.647 109.216 101.097 108.836 101.443 108.353C101.789 107.87 101.962 107.249 101.962 106.49C101.962 106.168 101.893 105.845 101.754 105.523C101.639 105.201 101.443 104.913 101.166 104.66C100.889 104.407 100.52 104.2 100.059 104.039C99.6206 103.878 99.09 103.798 98.4672 103.798H94.7303ZM95.7337 99.7598H99.1247C100.509 99.7598 101.535 99.4607 102.204 98.8625C102.896 98.2642 103.242 97.551 103.242 96.7227C103.242 96.2855 103.139 95.9174 102.931 95.6184C102.746 95.2962 102.493 95.0432 102.17 94.859C101.847 94.6751 101.478 94.5485 101.062 94.4794C100.647 94.3874 100.22 94.3414 99.782 94.3414C99.2977 94.3414 98.7786 94.3644 98.2251 94.4104C97.6714 94.4334 97.2562 94.4679 96.9794 94.514L95.7337 99.7598Z" fill="white"/>
<path d="M83.7981 89.323H86.0673L79.8981 115.168H77.6289L83.7981 89.323Z" fill="white"/>
<path d="M128.144 102.245L110.505 111.816L111.782 106.96L120.415 102.245L112.704 97.6719V92.8866L128.144 102.245Z" fill="white"/>
</g>
</g>
<defs>
<filter id="filter0_di_17_6273" x="1.94528" y="3.09226" width="198.675" height="198.676" filterUnits="userSpaceOnUse" color-interpolation-filters="sRGB">
<feFlood flood-opacity="0" result="BackgroundImageFix"/>
<feColorMatrix in="SourceAlpha" type="matrix" values="0 0 0 0 0 0 0 0 0 0 0 0 0 0 0 0 0 0 127 0" result="hardAlpha"/>
<feOffset/>
<feGaussianBlur stdDeviation="13.3328"/>
<feComposite in2="hardAlpha" operator="out"/>
<feColorMatrix type="matrix" values="0 0 0 0 0.862745 0 0 0 0 0.607843 0 0 0 0 0.101961 0 0 0 0.27 0"/>
<feBlend mode="normal" in2="BackgroundImageFix" result="effect1_dropShadow_17_6273"/>
<feBlend mode="normal" in="SourceGraphic" in2="effect1_dropShadow_17_6273" result="shape"/>
<feColorMatrix in="SourceAlpha" type="matrix" values="0 0 0 0 0 0 0 0 0 0 0 0 0 0 0 0 0 0 127 0" result="hardAlpha"/>
<feOffset/>
<feGaussianBlur stdDeviation="6.92389"/>
<feComposite in2="hardAlpha" operator="arithmetic" k2="-1" k3="1"/>
<feColorMatrix type="matrix" values="0 0 0 0 0.862745 0 0 0 0 0.607843 0 0 0 0 0.101961 0 0 0 0.27 0"/>
<feBlend mode="normal" in2="shape" result="effect2_innerShadow_17_6273"/>
</filter>
<filter id="filter1_i_17_6273" x="42" y="43" width="119" height="119" filterUnits="userSpaceOnUse" color-interpolation-filters="sRGB">
<feFlood flood-opacity="0" result="BackgroundImageFix"/>
<feBlend mode="normal" in="SourceGraphic" in2="BackgroundImageFix" result="shape"/>
<feColorMatrix in="SourceAlpha" type="matrix" values="0 0 0 0 0 0 0 0 0 0 0 0 0 0 0 0 0 0 127 0" result="hardAlpha"/>
<feOffset/>
<feGaussianBlur stdDeviation="6.92389"/>
<feComposite in2="hardAlpha" operator="arithmetic" k2="-1" k3="1"/>
<feColorMatrix type="matrix" values="0 0 0 0 0.862745 0 0 0 0 0.607843 0 0 0 0 0.101961 0 0 0 0.27 0"/>
<feBlend mode="normal" in2="shape" result="effect1_innerShadow_17_6273"/>
</filter>
<linearGradient id="paint0_linear_17_6273" x1="57.1021" y1="180.903" x2="185.296" y2="59.473" gradientUnits="userSpaceOnUse">
<stop stop-color="#DC9B1A"/>
<stop offset="1" stop-color="#EDBC5B"/>
</linearGradient>
<linearGradient id="paint1_linear_17_6273" x1="65.3271" y1="166.75" x2="170.285" y2="67.3291" gradientUnits="userSpaceOnUse">
<stop stop-color="#DC9B1A"/>
<stop offset="1" stop-color="#F8CF7D"/>
</linearGradient>
<clipPath id="clip0_17_6273">
<rect width="71" height="71" fill="white" transform="translate(65 67)"/>
</clipPath>
</defs>
</svg>
