<svg width="47" height="62" viewBox="0 0 47 62" fill="none" xmlns="http://www.w3.org/2000/svg">
<path d="M41.2461 61.1806C40.8656 61.205 40.4592 61.211 40.0244 61.1973C28.6079 60.8326 17.1056 61.1567 5.62478 61.1555C2.27597 61.1549 0.122796 59.1381 0.128919 56.648C0.158006 45.8258 0.227659 35.0036 0.227659 24.1814C0.227659 17.5628 0.227659 10.9437 0.227659 4.32216C0.227659 1.998 2.64338 0.113718 5.624 0.113122C17.5618 0.110734 29.3175 0.113122 41.2384 0.113122C44.2198 0.113122 46.6363 1.9974 46.6363 4.32216C46.6363 14.9832 46.4985 25.6437 46.4886 36.3041C46.484 41.5553 46.5092 46.8071 46.5973 52.0576C46.6638 55.9831 47.1323 60.8004 41.2461 61.1806Z" fill="#324E77"/>
<path d="M5.82571 5.50324C5.35803 12.9425 5.89918 20.5208 5.7017 28.0155C5.4935 35.9155 5.23249 43.8173 5.35266 51.7197C5.3695 51.7197 5.38712 51.7203 5.40396 51.7203C7.57628 51.7585 9.74783 51.7603 11.9202 51.7513C19.7009 36.3464 26.2943 20.479 35.3204 5.55994C25.0168 5.51578 5.83031 5.42923 5.82571 5.50324Z" fill="#81F8DE"/>
<path d="M11.9199 51.7517C15.8727 51.7355 19.8254 51.6717 23.7774 51.6347C26.9157 51.6054 30.0547 51.5929 33.1923 51.6448C35.7626 51.6872 38.3659 52.1402 40.9332 51.8483C41.5317 49.8143 41.1957 47.311 41.2853 45.2053C41.3848 42.8549 41.4667 40.5033 41.4667 38.1517C41.4667 34.4535 41.4667 30.7554 41.4667 27.0579C41.4667 20.1111 41.4667 13.1642 41.4667 6.21682C41.4667 6.18579 41.4667 5.58356 41.4667 5.58356C40.7678 5.58356 38.4547 5.57402 35.3194 5.5603C26.2941 20.4793 19.7006 36.3468 11.9199 51.7517Z" fill="#33E6BF"/>
<path d="M27.553 58.4681H19.3115C18.1595 58.4681 17.2257 57.7429 17.2188 56.8446C17.2042 54.8231 21.2236 55.2904 22.8363 55.3334C24.1759 55.3686 27.1152 54.9812 28.3008 55.3101C30.4418 55.9046 29.8011 58.4681 27.553 58.4681Z" fill="#162A48"/>
<path d="M26.8134 3.2801C24.54 3.2801 22.3256 3.28368 20.0477 3.2801C19.6405 3.27951 19.3105 3.02167 19.3105 2.70414C19.3105 2.38601 19.6412 2.12817 20.0492 2.12817H26.8126C27.2206 2.12817 27.5513 2.38601 27.5513 2.70414C27.5513 3.02226 27.2214 3.2801 26.8134 3.2801Z" fill="#162A48"/>
</svg>
