<svg width="19" height="20" viewBox="0 0 19 20" fill="none" xmlns="http://www.w3.org/2000/svg">
<path fill-rule="evenodd" clip-rule="evenodd" d="M9.50052 5.64895C12.2573 5.64908 14.9086 6.76408 16.9065 8.76351C17.057 8.91787 17.2974 8.91593 17.4456 8.75914L18.8838 7.23133C18.9588 7.15181 19.0006 7.0441 19 6.93203C18.9994 6.81996 18.9563 6.71277 18.8804 6.63418C13.6365 1.34417 5.36367 1.34417 0.11977 6.63418C0.0438088 6.71271 0.000709124 6.81987 8.67218e-06 6.93194C-0.000691779 7.04401 0.0410647 7.15176 0.116038 7.23133L1.55461 8.75914C1.70269 8.91616 1.94335 8.91811 2.0937 8.76351C4.09188 6.76395 6.74351 5.64895 9.50052 5.64895ZM9.50052 10.6196C11.0152 10.6195 12.4758 11.2121 13.5985 12.2823C13.7504 12.4342 13.9896 12.4309 14.1376 12.2749L15.5741 10.747C15.6497 10.6669 15.6917 10.5582 15.6906 10.4452C15.6895 10.3323 15.6455 10.2245 15.5683 10.146C12.1493 6.79824 6.85462 6.79824 3.43565 10.146C3.35842 10.2245 3.31436 10.3323 3.31334 10.4453C3.31233 10.5583 3.35445 10.667 3.43026 10.747L4.86634 12.2749C5.01437 12.4309 5.25358 12.4342 5.40544 12.2823C6.52743 11.2128 7.98687 10.6202 9.50052 10.6196ZM12.3781 13.9639C12.3803 14.0772 12.338 14.1865 12.2611 14.2658L9.77629 16.9054C9.70345 16.983 9.60414 17.0267 9.50052 17.0267C9.3969 17.0267 9.29759 16.983 9.22475 16.9054L6.7395 14.2658C6.66273 14.1864 6.62049 14.0771 6.62277 13.9639C6.62505 13.8506 6.67163 13.7433 6.75153 13.6674C8.33843 12.2545 10.6626 12.2545 12.2495 13.6674C12.3294 13.7434 12.3759 13.8507 12.3781 13.9639Z" fill="#33E6BF"/>
</svg>
