<?xml version="1.0" encoding="UTF-8"?>
<svg xmlns="http://www.w3.org/2000/svg" version="1.1" viewBox="0 0 24 24">
  <circle cx="12" cy="12" r="12" fill="#3972fa" />
  <path d="M17.5,7.2l-.6,3.7-2.2-2.6,2.8-1.1ZM16.9,12.5l.6,2-4.2,1.2,3.7-3.2ZM7.7,11.5l2.3-3h3.9l2.5,3H7.7ZM16.1,12.2l-4.1,3.6-4.2-3.6h8.3ZM9.2,8.3l-2,2.6-.6-3.8,2.6,1.1ZM10.8,15.7l-4.3-1.2.6-2,3.7,3.2ZM11.6,16.6l-.8.9c-.7-.6-1.4-1.2-2.2-1.7l3,.8ZM15.5,15.8c-.8.5-1.5,1.1-2.2,1.7l-.8-.9,3.1-.8ZM18.4,6l-4.4,1.8h-4.1l-4.2-1.8,1,5.8-.9,3.1,2.4,1.4c1.1.7,2.2,1.5,3,2.5l.9,1.1,1-1.1c.8-1,1.8-1.8,2.9-2.5l2.3-1.5-.8-3.1,1-5.8h0Z" fill="#fff" />
</svg>