<svg width="20" height="20" viewBox="0 0 20 20" fill="none" xmlns="http://www.w3.org/2000/svg">
<path d="M10 17.5C14.1421 17.5 17.5 14.1421 17.5 10C17.5 5.85786 14.1421 2.5 10 2.5C5.85786 2.5 2.5 5.85786 2.5 10C2.5 14.1421 5.85786 17.5 10 17.5Z" stroke="#9F9F9F" stroke-width="1.6" stroke-linecap="round" stroke-linejoin="round"/>
<path d="M10 17.5C14.1421 17.5 17.5 14.1421 17.5 10C17.5 5.85786 14.1421 2.5 10 2.5C5.85786 2.5 2.5 5.85786 2.5 10C2.5 14.1421 5.85786 17.5 10 17.5Z" stroke="url(#paint0_linear_9327_20651)" stroke-width="1.6" stroke-linecap="round" stroke-linejoin="round"/>
<path d="M9.375 9.375H10V13.75H10.625" stroke="#9F9F9F" stroke-width="1.6" stroke-linecap="round" stroke-linejoin="round"/>
<path d="M9.375 9.375H10V13.75H10.625" stroke="url(#paint1_linear_9327_20651)" stroke-width="1.6" stroke-linecap="round" stroke-linejoin="round"/>
<path d="M10 7.5C10.5178 7.5 10.9375 7.08027 10.9375 6.5625C10.9375 6.04473 10.5178 5.625 10 5.625C9.48223 5.625 9.0625 6.04473 9.0625 6.5625C9.0625 7.08027 9.48223 7.5 10 7.5Z" fill="#9F9F9F"/>
<path d="M10 7.5C10.5178 7.5 10.9375 7.08027 10.9375 6.5625C10.9375 6.04473 10.5178 5.625 10 5.625C9.48223 5.625 9.0625 6.04473 9.0625 6.5625C9.0625 7.08027 9.48223 7.5 10 7.5Z" fill="url(#paint2_linear_9327_20651)"/>
<defs>
<linearGradient id="paint0_linear_9327_20651" x1="4.9" y1="2.5" x2="27.1471" y2="7.56263" gradientUnits="userSpaceOnUse">
<stop stop-color="#33E6BF"/>
<stop offset="1" stop-color="#0439C7"/>
</linearGradient>
<linearGradient id="paint1_linear_9327_20651" x1="9.575" y1="9.375" x2="11.5167" y2="9.50125" gradientUnits="userSpaceOnUse">
<stop stop-color="#33E6BF"/>
<stop offset="1" stop-color="#0439C7"/>
</linearGradient>
<linearGradient id="paint2_linear_9327_20651" x1="9.3625" y1="5.625" x2="12.1434" y2="6.25783" gradientUnits="userSpaceOnUse">
<stop stop-color="#33E6BF"/>
<stop offset="1" stop-color="#0439C7"/>
</linearGradient>
</defs>
</svg>
