<svg width="24" height="24" viewBox="0 0 24 24" fill="none" xmlns="http://www.w3.org/2000/svg">
<path d="M12 22C17.5228 22 22 17.5228 22 12C22 6.47715 17.5228 2 12 2C6.47715 2 2 6.47715 2 12C2 17.5228 6.47715 22 12 22Z" stroke="white" stroke-width="1.5" stroke-linecap="round" stroke-linejoin="round"/>
<path d="M12 18C12.6213 18 13.125 17.4963 13.125 16.875C13.125 16.2537 12.6213 15.75 12 15.75C11.3787 15.75 10.875 16.2537 10.875 16.875C10.875 17.4963 11.3787 18 12 18Z" fill="white"/>
<path d="M12 13.5004V12.7504C12.5192 12.7504 13.0267 12.5964 13.4584 12.308C13.8901 12.0195 14.2265 11.6096 14.4252 11.1299C14.6239 10.6503 14.6758 10.1225 14.5746 9.61326C14.4733 9.10406 14.2233 8.63633 13.8562 8.26921C13.489 7.9021 13.0213 7.65209 12.5121 7.55081C12.0029 7.44952 11.4751 7.5015 10.9955 7.70018C10.5158 7.89886 10.1058 8.23532 9.81739 8.667C9.52895 9.09867 9.375 9.60619 9.375 10.1254" stroke="white" stroke-width="1.5" stroke-linecap="round" stroke-linejoin="round"/>
</svg>
