<svg width="134" height="134" viewBox="0 0 134 134" fill="none" xmlns="http://www.w3.org/2000/svg">
<circle cx="67" cy="67" r="67" fill="#33E6BF"/>
<g clip-path="url(#clip0_6169_9229)">
<path d="M62.2866 88.4501C63.9111 88.4501 65.2011 87.7233 66.1567 86.2696L87.9914 52.1393C88.2781 51.6969 88.5408 51.215 88.7795 50.6935C89.0186 50.1721 89.1381 49.6427 89.1381 49.1055C89.1381 48.0626 88.7399 47.2252 87.9434 46.5931C87.1472 45.9611 86.2553 45.6451 85.2677 45.6451C83.9301 45.6451 82.8154 46.3561 81.9237 47.7782L62.0956 79.3487L52.6833 67.261C52.1099 66.5025 51.5445 65.989 50.9871 65.7203C50.4297 65.4517 49.8166 65.3174 49.1477 65.3174C48.1284 65.3174 47.2604 65.6887 46.5438 66.4315C45.8271 67.1741 45.4688 68.0668 45.4688 69.1095C45.4688 70.0893 45.835 71.069 46.5676 72.0486L58.2255 86.2696C58.8307 87.0282 59.4598 87.5812 60.1128 87.9288C60.7657 88.2763 61.4904 88.4501 62.2866 88.4501Z" fill="white"/>
</g>
<defs>
<clipPath id="clip0_6169_9229">
<rect width="79.4074" height="98.2667" fill="white" transform="translate(27.791 17.8668)"/>
</clipPath>
</defs>
</svg>
