<svg xmlns="http://www.w3.org/2000/svg" viewBox="0 0 400 400" fill="none"><rect width="400" height="400" rx="88" fill="#fff"/><path fill="#231A1A" fill-rule="evenodd" transform="translate(40 40)" d="M26 53L294 53L293 57L291 58L291 60L289 61L289 63L287 64L287 66L285 67L285 69L283 70L283 72L281 73L281 75L279 76L279 78L277 79L277 81L275 82L275 84L273 85L273 87L271 88L271 90L269 91L269 93L267 94L267 96L320 96L320 98L319 98L319 101L318 101L318 104L317 104L317 107L316 107L316 110L315 110L315 114L314 114L314 117L313 117L313 120L312 120L312 123L311 123L311 126L310 126L310 129L309 129L309 133L308 133L308 136L307 136L306 142L305 142L305 144L304 144L304 147L303 147L303 148L302 148L302 150L300 151L300 153L299 153L299 154L298 154L298 155L297 155L294 159L292 159L291 161L289 161L289 162L287 162L287 163L285 163L285 164L282 164L282 165L278 165L278 166L257 166L257 167L256 167L256 170L255 170L255 173L254 173L254 177L253 177L253 180L252 180L252 183L251 183L251 186L250 186L250 189L249 189L249 192L248 192L248 196L247 196L247 198L246 198L246 202L245 202L245 205L244 205L244 208L243 208L243 211L242 211L242 214L241 214L241 217L240 217L240 221L239 221L239 224L238 224L238 227L237 227L237 230L236 230L236 233L235 233L235 236L234 236L234 239L233 239L233 243L232 243L232 245L231 245L231 247L230 247L229 251L226 253L226 255L225 255L222 259L220 259L219 261L217 261L217 262L216 262L216 263L214 263L214 264L211 264L211 265L208 265L208 266L203 266L203 267L117 267L117 266L112 266L112 265L109 265L109 264L104 263L103 261L101 261L100 259L98 259L98 258L94 255L94 253L91 251L91 249L90 249L90 247L89 247L89 245L88 245L88 243L87 243L87 239L86 239L86 236L85 236L85 233L84 233L84 230L83 230L83 227L82 227L82 224L81 224L81 221L80 221L80 218L79 218L79 214L78 214L78 211L77 211L77 208L76 208L76 205L75 205L75 202L74 202L74 199L73 199L73 196L72 196L72 192L71 192L71 189L70 189L70 186L69 186L69 183L68 183L68 180L67 180L67 177L66 177L66 173L65 173L64 167L63 167L63 166L42 166L42 165L35 164L35 163L33 163L33 162L29 161L28 159L26 159L26 158L25 158L25 157L24 157L24 156L20 153L20 151L18 150L18 148L16 147L16 144L15 144L15 142L14 142L14 139L13 139L13 136L12 136L12 133L11 133L11 129L10 129L10 126L9 126L9 123L8 123L8 120L7 120L7 117L6 117L6 114L5 114L5 110L4 110L4 107L3 107L3 104L2 104L2 101L1 101L0 96L53 96L53 94L51 93L51 91L49 90L49 88L47 87L47 85L45 84L45 82L43 81L43 79L41 78L41 76L39 75L39 73L37 72L37 70L35 69L35 67L33 66L33 64L31 63L31 61L30 61L30 60L29 60L29 58L27 57ZM118 125L117 125L117 126L112 127L112 128L111 128L111 129L107 132L107 134L105 135L104 142L103 142L103 149L104 149L104 153L105 153L106 157L107 157L107 158L108 158L108 159L109 159L109 160L110 160L113 164L116 164L116 165L119 165L119 166L126 166L126 165L129 165L129 164L133 163L133 162L134 162L134 161L138 158L138 156L139 156L139 154L140 154L140 151L141 151L141 139L140 139L140 136L139 136L139 134L137 133L137 131L136 131L135 129L133 129L132 127L130 127L130 126L128 126L128 125ZM193 125L192 125L192 126L190 126L190 127L188 127L187 129L185 129L185 130L183 131L183 133L181 134L180 139L179 139L179 151L180 151L180 154L181 154L182 158L183 158L183 159L184 159L187 163L189 163L189 164L191 164L191 165L194 165L194 166L201 166L201 165L207 164L207 163L208 163L208 162L209 162L209 161L210 161L210 160L214 157L214 155L215 155L215 153L216 153L216 149L217 149L217 142L216 142L215 135L213 134L213 132L212 132L212 131L211 131L208 127L203 126L203 125Z"/></svg>
